G04 #@! TF.GenerationSoftware,KiCad,Pcbnew,(5.99.0-429-gffcf3b01f)*
G04 #@! TF.CreationDate,2019-12-13T14:25:27+01:00*
G04 #@! TF.ProjectId,smartlock,736d6172-746c-46f6-936b-2e6b69636164,rev?*
G04 #@! TF.SameCoordinates,Original*
G04 #@! TF.FileFunction,Legend,Bot*
G04 #@! TF.FilePolarity,Positive*
%FSLAX46Y46*%
G04 Gerber Fmt 4.6, Leading zero omitted, Abs format (unit mm)*
G04 Created by KiCad (PCBNEW (5.99.0-429-gffcf3b01f)) date 2019-12-13 14:25:27*
%MOMM*%
%LPD*%
G04 APERTURE LIST*
%ADD10C,0.150000*%
G04 APERTURE END LIST*
D10*
X99534409Y-135554980D02*
X99867742Y-135078790D01*
X100105838Y-135554980D02*
X100105838Y-134554980D01*
X99724885Y-134554980D01*
X99629647Y-134602600D01*
X99582028Y-134650219D01*
X99534409Y-134745457D01*
X99534409Y-134888314D01*
X99582028Y-134983552D01*
X99629647Y-135031171D01*
X99724885Y-135078790D01*
X100105838Y-135078790D01*
X98724885Y-135507361D02*
X98820123Y-135554980D01*
X99010600Y-135554980D01*
X99105838Y-135507361D01*
X99153457Y-135412123D01*
X99153457Y-135031171D01*
X99105838Y-134935933D01*
X99010600Y-134888314D01*
X98820123Y-134888314D01*
X98724885Y-134935933D01*
X98677266Y-135031171D01*
X98677266Y-135126409D01*
X99153457Y-135221647D01*
X98343933Y-134888314D02*
X98105838Y-135554980D01*
X97867742Y-134888314D01*
X97486790Y-135459742D02*
X97439171Y-135507361D01*
X97486790Y-135554980D01*
X97534409Y-135507361D01*
X97486790Y-135459742D01*
X97486790Y-135554980D01*
X96296314Y-135269266D02*
X95820123Y-135269266D01*
X96391552Y-135554980D02*
X96058219Y-134554980D01*
X95724885Y-135554980D01*
X95201076Y-134554980D02*
X95105838Y-134554980D01*
X95010600Y-134602600D01*
X94962980Y-134650219D01*
X94915361Y-134745457D01*
X94867742Y-134935933D01*
X94867742Y-135174028D01*
X94915361Y-135364504D01*
X94962980Y-135459742D01*
X95010600Y-135507361D01*
X95105838Y-135554980D01*
X95201076Y-135554980D01*
X95296314Y-135507361D01*
X95343933Y-135459742D01*
X95391552Y-135364504D01*
X95439171Y-135174028D01*
X95439171Y-134935933D01*
X95391552Y-134745457D01*
X95343933Y-134650219D01*
X95296314Y-134602600D01*
X95201076Y-134554980D01*
X168974114Y-134681980D02*
X168974114Y-135491504D01*
X168926495Y-135586742D01*
X168878876Y-135634361D01*
X168783638Y-135681980D01*
X168593161Y-135681980D01*
X168497923Y-135634361D01*
X168450304Y-135586742D01*
X168402685Y-135491504D01*
X168402685Y-134681980D01*
X167974114Y-135634361D02*
X167831257Y-135681980D01*
X167593161Y-135681980D01*
X167497923Y-135634361D01*
X167450304Y-135586742D01*
X167402685Y-135491504D01*
X167402685Y-135396266D01*
X167450304Y-135301028D01*
X167497923Y-135253409D01*
X167593161Y-135205790D01*
X167783638Y-135158171D01*
X167878876Y-135110552D01*
X167926495Y-135062933D01*
X167974114Y-134967695D01*
X167974114Y-134872457D01*
X167926495Y-134777219D01*
X167878876Y-134729600D01*
X167783638Y-134681980D01*
X167545542Y-134681980D01*
X167402685Y-134729600D01*
X166640780Y-135158171D02*
X166497923Y-135205790D01*
X166450304Y-135253409D01*
X166402685Y-135348647D01*
X166402685Y-135491504D01*
X166450304Y-135586742D01*
X166497923Y-135634361D01*
X166593161Y-135681980D01*
X166974114Y-135681980D01*
X166974114Y-134681980D01*
X166640780Y-134681980D01*
X166545542Y-134729600D01*
X166497923Y-134777219D01*
X166450304Y-134872457D01*
X166450304Y-134967695D01*
X166497923Y-135062933D01*
X166545542Y-135110552D01*
X166640780Y-135158171D01*
X166974114Y-135158171D01*
X164783638Y-135634361D02*
X164878876Y-135681980D01*
X165069352Y-135681980D01*
X165164590Y-135634361D01*
X165212209Y-135586742D01*
X165259828Y-135491504D01*
X165259828Y-135205790D01*
X165212209Y-135110552D01*
X165164590Y-135062933D01*
X165069352Y-135015314D01*
X164878876Y-135015314D01*
X164783638Y-135062933D01*
X164355066Y-135681980D02*
X164355066Y-134681980D01*
X163926495Y-135681980D02*
X163926495Y-135158171D01*
X163974114Y-135062933D01*
X164069352Y-135015314D01*
X164212209Y-135015314D01*
X164307447Y-135062933D01*
X164355066Y-135110552D01*
X163021733Y-135681980D02*
X163021733Y-135158171D01*
X163069352Y-135062933D01*
X163164590Y-135015314D01*
X163355066Y-135015314D01*
X163450304Y-135062933D01*
X163021733Y-135634361D02*
X163116971Y-135681980D01*
X163355066Y-135681980D01*
X163450304Y-135634361D01*
X163497923Y-135539123D01*
X163497923Y-135443885D01*
X163450304Y-135348647D01*
X163355066Y-135301028D01*
X163116971Y-135301028D01*
X163021733Y-135253409D01*
X162545542Y-135681980D02*
X162545542Y-135015314D01*
X162545542Y-135205790D02*
X162497923Y-135110552D01*
X162450304Y-135062933D01*
X162355066Y-135015314D01*
X162259828Y-135015314D01*
X161497923Y-135015314D02*
X161497923Y-135824838D01*
X161545542Y-135920076D01*
X161593161Y-135967695D01*
X161688400Y-136015314D01*
X161831257Y-136015314D01*
X161926495Y-135967695D01*
X161497923Y-135634361D02*
X161593161Y-135681980D01*
X161783638Y-135681980D01*
X161878876Y-135634361D01*
X161926495Y-135586742D01*
X161974114Y-135491504D01*
X161974114Y-135205790D01*
X161926495Y-135110552D01*
X161878876Y-135062933D01*
X161783638Y-135015314D01*
X161593161Y-135015314D01*
X161497923Y-135062933D01*
X161021733Y-135681980D02*
X161021733Y-135015314D01*
X161021733Y-134681980D02*
X161069352Y-134729600D01*
X161021733Y-134777219D01*
X160974114Y-134729600D01*
X161021733Y-134681980D01*
X161021733Y-134777219D01*
X160545542Y-135015314D02*
X160545542Y-135681980D01*
X160545542Y-135110552D02*
X160497923Y-135062933D01*
X160402685Y-135015314D01*
X160259828Y-135015314D01*
X160164590Y-135062933D01*
X160116971Y-135158171D01*
X160116971Y-135681980D01*
X159212209Y-135015314D02*
X159212209Y-135824838D01*
X159259828Y-135920076D01*
X159307447Y-135967695D01*
X159402685Y-136015314D01*
X159545542Y-136015314D01*
X159640780Y-135967695D01*
X159212209Y-135634361D02*
X159307447Y-135681980D01*
X159497923Y-135681980D01*
X159593161Y-135634361D01*
X159640780Y-135586742D01*
X159688400Y-135491504D01*
X159688400Y-135205790D01*
X159640780Y-135110552D01*
X159593161Y-135062933D01*
X159497923Y-135015314D01*
X159307447Y-135015314D01*
X159212209Y-135062933D01*
X157497923Y-134681980D02*
X157974114Y-134681980D01*
X158021733Y-135158171D01*
X157974114Y-135110552D01*
X157878876Y-135062933D01*
X157640780Y-135062933D01*
X157545542Y-135110552D01*
X157497923Y-135158171D01*
X157450304Y-135253409D01*
X157450304Y-135491504D01*
X157497923Y-135586742D01*
X157545542Y-135634361D01*
X157640780Y-135681980D01*
X157878876Y-135681980D01*
X157974114Y-135634361D01*
X158021733Y-135586742D01*
X156831257Y-134681980D02*
X156736019Y-134681980D01*
X156640780Y-134729600D01*
X156593161Y-134777219D01*
X156545542Y-134872457D01*
X156497923Y-135062933D01*
X156497923Y-135301028D01*
X156545542Y-135491504D01*
X156593161Y-135586742D01*
X156640780Y-135634361D01*
X156736019Y-135681980D01*
X156831257Y-135681980D01*
X156926495Y-135634361D01*
X156974114Y-135586742D01*
X157021733Y-135491504D01*
X157069352Y-135301028D01*
X157069352Y-135062933D01*
X157021733Y-134872457D01*
X156974114Y-134777219D01*
X156926495Y-134729600D01*
X156831257Y-134681980D01*
X155878876Y-134681980D02*
X155783638Y-134681980D01*
X155688400Y-134729600D01*
X155640780Y-134777219D01*
X155593161Y-134872457D01*
X155545542Y-135062933D01*
X155545542Y-135301028D01*
X155593161Y-135491504D01*
X155640780Y-135586742D01*
X155688400Y-135634361D01*
X155783638Y-135681980D01*
X155878876Y-135681980D01*
X155974114Y-135634361D01*
X156021733Y-135586742D01*
X156069352Y-135491504D01*
X156116971Y-135301028D01*
X156116971Y-135062933D01*
X156069352Y-134872457D01*
X156021733Y-134777219D01*
X155974114Y-134729600D01*
X155878876Y-134681980D01*
X155116971Y-135681980D02*
X155116971Y-135015314D01*
X155116971Y-135110552D02*
X155069352Y-135062933D01*
X154974114Y-135015314D01*
X154831257Y-135015314D01*
X154736019Y-135062933D01*
X154688400Y-135158171D01*
X154688400Y-135681980D01*
X154688400Y-135158171D02*
X154640780Y-135062933D01*
X154545542Y-135015314D01*
X154402685Y-135015314D01*
X154307447Y-135062933D01*
X154259828Y-135158171D01*
X154259828Y-135681980D01*
X153831257Y-135396266D02*
X153355066Y-135396266D01*
X153926495Y-135681980D02*
X153593161Y-134681980D01*
X153259828Y-135681980D01*
M02*
