G04 #@! TF.GenerationSoftware,KiCad,Pcbnew,(5.99.0-429-gffcf3b01f)*
G04 #@! TF.CreationDate,2019-12-13T14:25:27+01:00*
G04 #@! TF.ProjectId,smartlock,736d6172-746c-46f6-936b-2e6b69636164,rev?*
G04 #@! TF.SameCoordinates,Original*
G04 #@! TF.FileFunction,Soldermask,Bot*
G04 #@! TF.FilePolarity,Negative*
%FSLAX46Y46*%
G04 Gerber Fmt 4.6, Leading zero omitted, Abs format (unit mm)*
G04 Created by KiCad (PCBNEW (5.99.0-429-gffcf3b01f)) date 2019-12-13 14:25:27*
%MOMM*%
%LPD*%
G04 APERTURE LIST*
G04 APERTURE END LIST*
G36*
X178884022Y-131196548D02*
G01*
X178900825Y-131207775D01*
X178912052Y-131224578D01*
X178916985Y-131249375D01*
X178916985Y-134739425D01*
X178912052Y-134764222D01*
X178900825Y-134781025D01*
X178884022Y-134792252D01*
X178859225Y-134797185D01*
X175369175Y-134797185D01*
X175344378Y-134792252D01*
X175327575Y-134781025D01*
X175316348Y-134764222D01*
X175311415Y-134739425D01*
X175311415Y-131249375D01*
X175316348Y-131224578D01*
X175327575Y-131207775D01*
X175344378Y-131196548D01*
X175369175Y-131191615D01*
X178859225Y-131191615D01*
X178884022Y-131196548D01*
G37*
G36*
X140436358Y-129614783D02*
G01*
X140458586Y-129613696D01*
X140527458Y-129624358D01*
X140599518Y-129631932D01*
X140620575Y-129638774D01*
X140639438Y-129641694D01*
X140707742Y-129667096D01*
X140779606Y-129690446D01*
X140796038Y-129699933D01*
X140810956Y-129705481D01*
X140875453Y-129745783D01*
X140943593Y-129785124D01*
X140955345Y-129795705D01*
X140966156Y-129802461D01*
X141023579Y-129857144D01*
X141084312Y-129911828D01*
X141091741Y-129922053D01*
X141098678Y-129928659D01*
X141145809Y-129996472D01*
X141195612Y-130065020D01*
X141199463Y-130073671D01*
X141203121Y-130078933D01*
X141236994Y-130157964D01*
X141272630Y-130238004D01*
X141273940Y-130244166D01*
X141275211Y-130247132D01*
X141293274Y-130335129D01*
X141311999Y-130423222D01*
X141311999Y-130612578D01*
X141311330Y-130615725D01*
X141311330Y-130615778D01*
X141273302Y-130794690D01*
X141273279Y-130794743D01*
X141272630Y-130797796D01*
X141236051Y-130879954D01*
X141200037Y-130962385D01*
X141198174Y-130965026D01*
X141195612Y-130970780D01*
X141144104Y-131041676D01*
X141094548Y-131111925D01*
X141089879Y-131116309D01*
X141084312Y-131123972D01*
X141021334Y-131180678D01*
X140961145Y-131237199D01*
X140952986Y-131242218D01*
X140943593Y-131250676D01*
X140872827Y-131291533D01*
X140805277Y-131333090D01*
X140793293Y-131337452D01*
X140779606Y-131345354D01*
X140704823Y-131369653D01*
X140633313Y-131395680D01*
X140617558Y-131398007D01*
X140599518Y-131403868D01*
X140524399Y-131411763D01*
X140452274Y-131422414D01*
X140433207Y-131421348D01*
X140411200Y-131423661D01*
X140339176Y-131416091D01*
X140269561Y-131412199D01*
X140248037Y-131406512D01*
X140222882Y-131403868D01*
X140156944Y-131382443D01*
X140092628Y-131365450D01*
X140069862Y-131354149D01*
X140042794Y-131345354D01*
X139985454Y-131312249D01*
X139928708Y-131284080D01*
X139906183Y-131266482D01*
X139878807Y-131250676D01*
X139831939Y-131208476D01*
X139784502Y-131171414D01*
X139763924Y-131147235D01*
X139738088Y-131123972D01*
X139702860Y-131075484D01*
X139665897Y-131032053D01*
X139649078Y-131001460D01*
X139626788Y-130970780D01*
X139603686Y-130918891D01*
X139577734Y-130871686D01*
X139566477Y-130835319D01*
X139549770Y-130797796D01*
X139538614Y-130745309D01*
X139523618Y-130696866D01*
X139519594Y-130655829D01*
X139510401Y-130612578D01*
X139510401Y-130562069D01*
X139505760Y-130514737D01*
X139510401Y-130470582D01*
X139510401Y-130423222D01*
X139520248Y-130376895D01*
X139524889Y-130332740D01*
X139539268Y-130287411D01*
X139549770Y-130238004D01*
X139567756Y-130197608D01*
X139580222Y-130158309D01*
X139604962Y-130114042D01*
X139626788Y-130065020D01*
X139650930Y-130031791D01*
X139669504Y-129998557D01*
X139704705Y-129957776D01*
X139738088Y-129911828D01*
X139766266Y-129886456D01*
X139789080Y-129860026D01*
X139834271Y-129825225D01*
X139878807Y-129785124D01*
X139908915Y-129767741D01*
X139934073Y-129748367D01*
X139988185Y-129721975D01*
X140042794Y-129690446D01*
X140072851Y-129680680D01*
X140098551Y-129668145D01*
X140159936Y-129652385D01*
X140222882Y-129631932D01*
X140251178Y-129628958D01*
X140275801Y-129622636D01*
X140342249Y-129619386D01*
X140411200Y-129612139D01*
X140436358Y-129614783D01*
G37*
G36*
X190294662Y-127898671D02*
G01*
X190497403Y-127958919D01*
X190685767Y-128055102D01*
X190853452Y-128184003D01*
X190994842Y-128341309D01*
X191105190Y-128521733D01*
X191180816Y-128719262D01*
X191219056Y-128926592D01*
X191219055Y-128926615D01*
X191219173Y-128927253D01*
X191211825Y-129198837D01*
X191211670Y-129199479D01*
X191211670Y-129199490D01*
X191162274Y-129404453D01*
X191076081Y-129597594D01*
X190956129Y-129771798D01*
X190806445Y-129921220D01*
X190632037Y-130040864D01*
X190438742Y-130126722D01*
X190233040Y-130175918D01*
X190021817Y-130186802D01*
X189812152Y-130159013D01*
X189611053Y-130093478D01*
X189425269Y-129992396D01*
X189261018Y-129859151D01*
X189123798Y-129698201D01*
X189018207Y-129514945D01*
X188947780Y-129315510D01*
X188914876Y-129106586D01*
X188920598Y-128895152D01*
X188964751Y-128688316D01*
X189045860Y-128492982D01*
X189161209Y-128315699D01*
X189306930Y-128162409D01*
X189478145Y-128038243D01*
X189669128Y-127947353D01*
X189873473Y-127892790D01*
X190084337Y-127876380D01*
X190294662Y-127898671D01*
G37*
G36*
X100556462Y-127896131D02*
G01*
X100759203Y-127956379D01*
X100947567Y-128052562D01*
X101115252Y-128181463D01*
X101256642Y-128338769D01*
X101366990Y-128519193D01*
X101442616Y-128716722D01*
X101480856Y-128924052D01*
X101480855Y-128924075D01*
X101480973Y-128924713D01*
X101473625Y-129196297D01*
X101473470Y-129196939D01*
X101473470Y-129196950D01*
X101424074Y-129401913D01*
X101337881Y-129595054D01*
X101217929Y-129769258D01*
X101068245Y-129918680D01*
X100893837Y-130038324D01*
X100700542Y-130124182D01*
X100494840Y-130173378D01*
X100283617Y-130184262D01*
X100073952Y-130156473D01*
X99872853Y-130090938D01*
X99687069Y-129989856D01*
X99522818Y-129856611D01*
X99385598Y-129695661D01*
X99280007Y-129512405D01*
X99209580Y-129312970D01*
X99176676Y-129104046D01*
X99182398Y-128892612D01*
X99226551Y-128685776D01*
X99307660Y-128490442D01*
X99423009Y-128313159D01*
X99568730Y-128159869D01*
X99739945Y-128035703D01*
X99930928Y-127944813D01*
X100135273Y-127890250D01*
X100346137Y-127873840D01*
X100556462Y-127896131D01*
G37*
G36*
X140436358Y-127074783D02*
G01*
X140458586Y-127073696D01*
X140527458Y-127084358D01*
X140599518Y-127091932D01*
X140620575Y-127098774D01*
X140639438Y-127101694D01*
X140707742Y-127127096D01*
X140779606Y-127150446D01*
X140796038Y-127159933D01*
X140810956Y-127165481D01*
X140875453Y-127205783D01*
X140943593Y-127245124D01*
X140955345Y-127255705D01*
X140966156Y-127262461D01*
X141023579Y-127317144D01*
X141084312Y-127371828D01*
X141091741Y-127382053D01*
X141098678Y-127388659D01*
X141145809Y-127456472D01*
X141195612Y-127525020D01*
X141199463Y-127533671D01*
X141203121Y-127538933D01*
X141236994Y-127617964D01*
X141272630Y-127698004D01*
X141273940Y-127704166D01*
X141275211Y-127707132D01*
X141293274Y-127795129D01*
X141311999Y-127883222D01*
X141311999Y-128072578D01*
X141311330Y-128075725D01*
X141311330Y-128075778D01*
X141273302Y-128254690D01*
X141273279Y-128254743D01*
X141272630Y-128257796D01*
X141236051Y-128339954D01*
X141200037Y-128422385D01*
X141198174Y-128425026D01*
X141195612Y-128430780D01*
X141144104Y-128501676D01*
X141094548Y-128571925D01*
X141089879Y-128576309D01*
X141084312Y-128583972D01*
X141021334Y-128640678D01*
X140961145Y-128697199D01*
X140952986Y-128702218D01*
X140943593Y-128710676D01*
X140872827Y-128751533D01*
X140805277Y-128793090D01*
X140793293Y-128797452D01*
X140779606Y-128805354D01*
X140704823Y-128829653D01*
X140633313Y-128855680D01*
X140617558Y-128858007D01*
X140599518Y-128863868D01*
X140524399Y-128871763D01*
X140452274Y-128882414D01*
X140433207Y-128881348D01*
X140411200Y-128883661D01*
X140339176Y-128876091D01*
X140269561Y-128872199D01*
X140248037Y-128866512D01*
X140222882Y-128863868D01*
X140156944Y-128842443D01*
X140092628Y-128825450D01*
X140069862Y-128814149D01*
X140042794Y-128805354D01*
X139985454Y-128772249D01*
X139928708Y-128744080D01*
X139906183Y-128726482D01*
X139878807Y-128710676D01*
X139831939Y-128668476D01*
X139784502Y-128631414D01*
X139763924Y-128607235D01*
X139738088Y-128583972D01*
X139702860Y-128535484D01*
X139665897Y-128492053D01*
X139649078Y-128461460D01*
X139626788Y-128430780D01*
X139603686Y-128378891D01*
X139577734Y-128331686D01*
X139566477Y-128295319D01*
X139549770Y-128257796D01*
X139538614Y-128205309D01*
X139523618Y-128156866D01*
X139519594Y-128115829D01*
X139510401Y-128072578D01*
X139510401Y-128022069D01*
X139505760Y-127974737D01*
X139510401Y-127930582D01*
X139510401Y-127883222D01*
X139520248Y-127836895D01*
X139524889Y-127792740D01*
X139539268Y-127747411D01*
X139549770Y-127698004D01*
X139567756Y-127657608D01*
X139580222Y-127618309D01*
X139604962Y-127574042D01*
X139626788Y-127525020D01*
X139650930Y-127491791D01*
X139669504Y-127458557D01*
X139704705Y-127417776D01*
X139738088Y-127371828D01*
X139766266Y-127346456D01*
X139789080Y-127320026D01*
X139834271Y-127285225D01*
X139878807Y-127245124D01*
X139908915Y-127227741D01*
X139934073Y-127208367D01*
X139988185Y-127181975D01*
X140042794Y-127150446D01*
X140072851Y-127140680D01*
X140098551Y-127128145D01*
X140159936Y-127112385D01*
X140222882Y-127091932D01*
X140251178Y-127088958D01*
X140275801Y-127082636D01*
X140342249Y-127079386D01*
X140411200Y-127072139D01*
X140436358Y-127074783D01*
G37*
G36*
X140436358Y-124534783D02*
G01*
X140458586Y-124533696D01*
X140527458Y-124544358D01*
X140599518Y-124551932D01*
X140620575Y-124558774D01*
X140639438Y-124561694D01*
X140707742Y-124587096D01*
X140779606Y-124610446D01*
X140796038Y-124619933D01*
X140810956Y-124625481D01*
X140875453Y-124665783D01*
X140943593Y-124705124D01*
X140955345Y-124715705D01*
X140966156Y-124722461D01*
X141023579Y-124777144D01*
X141084312Y-124831828D01*
X141091741Y-124842053D01*
X141098678Y-124848659D01*
X141145809Y-124916472D01*
X141195612Y-124985020D01*
X141199463Y-124993671D01*
X141203121Y-124998933D01*
X141236994Y-125077964D01*
X141272630Y-125158004D01*
X141273940Y-125164166D01*
X141275211Y-125167132D01*
X141293274Y-125255129D01*
X141311999Y-125343222D01*
X141311999Y-125532578D01*
X141311330Y-125535725D01*
X141311330Y-125535778D01*
X141273302Y-125714690D01*
X141273279Y-125714743D01*
X141272630Y-125717796D01*
X141236051Y-125799954D01*
X141200037Y-125882385D01*
X141198174Y-125885026D01*
X141195612Y-125890780D01*
X141144104Y-125961676D01*
X141094548Y-126031925D01*
X141089879Y-126036309D01*
X141084312Y-126043972D01*
X141021334Y-126100678D01*
X140961145Y-126157199D01*
X140952986Y-126162218D01*
X140943593Y-126170676D01*
X140872827Y-126211533D01*
X140805277Y-126253090D01*
X140793293Y-126257452D01*
X140779606Y-126265354D01*
X140704823Y-126289653D01*
X140633313Y-126315680D01*
X140617558Y-126318007D01*
X140599518Y-126323868D01*
X140524399Y-126331763D01*
X140452274Y-126342414D01*
X140433207Y-126341348D01*
X140411200Y-126343661D01*
X140339176Y-126336091D01*
X140269561Y-126332199D01*
X140248037Y-126326512D01*
X140222882Y-126323868D01*
X140156944Y-126302443D01*
X140092628Y-126285450D01*
X140069862Y-126274149D01*
X140042794Y-126265354D01*
X139985454Y-126232249D01*
X139928708Y-126204080D01*
X139906183Y-126186482D01*
X139878807Y-126170676D01*
X139831939Y-126128476D01*
X139784502Y-126091414D01*
X139763924Y-126067235D01*
X139738088Y-126043972D01*
X139702860Y-125995484D01*
X139665897Y-125952053D01*
X139649078Y-125921460D01*
X139626788Y-125890780D01*
X139603686Y-125838891D01*
X139577734Y-125791686D01*
X139566477Y-125755319D01*
X139549770Y-125717796D01*
X139538614Y-125665309D01*
X139523618Y-125616866D01*
X139519594Y-125575829D01*
X139510401Y-125532578D01*
X139510401Y-125482069D01*
X139505760Y-125434737D01*
X139510401Y-125390582D01*
X139510401Y-125343222D01*
X139520248Y-125296895D01*
X139524889Y-125252740D01*
X139539268Y-125207411D01*
X139549770Y-125158004D01*
X139567756Y-125117608D01*
X139580222Y-125078309D01*
X139604962Y-125034042D01*
X139626788Y-124985020D01*
X139650930Y-124951791D01*
X139669504Y-124918557D01*
X139704705Y-124877776D01*
X139738088Y-124831828D01*
X139766266Y-124806456D01*
X139789080Y-124780026D01*
X139834271Y-124745225D01*
X139878807Y-124705124D01*
X139908915Y-124687741D01*
X139934073Y-124668367D01*
X139988185Y-124641975D01*
X140042794Y-124610446D01*
X140072851Y-124600680D01*
X140098551Y-124588145D01*
X140159936Y-124572385D01*
X140222882Y-124551932D01*
X140251178Y-124548958D01*
X140275801Y-124542636D01*
X140342249Y-124539386D01*
X140411200Y-124532139D01*
X140436358Y-124534783D01*
G37*
G36*
X177159878Y-122698601D02*
G01*
X177244121Y-122698601D01*
X177286829Y-122705365D01*
X177327438Y-122707529D01*
X177413454Y-122725421D01*
X177500763Y-122739249D01*
X177537818Y-122751289D01*
X177573342Y-122758678D01*
X177659918Y-122790961D01*
X177747887Y-122819544D01*
X177778772Y-122835281D01*
X177808669Y-122846429D01*
X177893417Y-122893696D01*
X177979407Y-122937510D01*
X178003961Y-122955350D01*
X178028020Y-122968768D01*
X178108378Y-123031212D01*
X178189624Y-123090241D01*
X178208044Y-123108661D01*
X178226342Y-123122880D01*
X178299673Y-123200290D01*
X178373359Y-123273976D01*
X178386137Y-123291564D01*
X178399071Y-123305217D01*
X178462782Y-123397056D01*
X178526090Y-123484193D01*
X178534001Y-123499719D01*
X178542227Y-123511577D01*
X178593785Y-123617052D01*
X178644056Y-123715713D01*
X178648106Y-123728178D01*
X178652530Y-123737228D01*
X178689613Y-123855924D01*
X178724351Y-123962837D01*
X178725725Y-123971511D01*
X178727425Y-123976953D01*
X178747802Y-124110904D01*
X178764999Y-124219479D01*
X178764999Y-124223945D01*
X178765089Y-124224537D01*
X178764999Y-124227570D01*
X178764999Y-124479321D01*
X178755805Y-124537367D01*
X178754779Y-124571953D01*
X178737530Y-124652757D01*
X178724351Y-124735963D01*
X178710987Y-124777094D01*
X178702497Y-124816864D01*
X178671369Y-124899026D01*
X178644056Y-124983087D01*
X178626373Y-125017791D01*
X178613517Y-125051725D01*
X178568076Y-125132205D01*
X178526090Y-125214607D01*
X178505719Y-125242645D01*
X178490025Y-125270441D01*
X178430075Y-125346761D01*
X178373359Y-125424824D01*
X178351897Y-125446286D01*
X178334882Y-125467947D01*
X178260646Y-125537537D01*
X178189624Y-125608559D01*
X178168546Y-125623873D01*
X178151642Y-125639719D01*
X178063723Y-125700031D01*
X177979407Y-125761290D01*
X177960035Y-125771160D01*
X177944530Y-125781797D01*
X177843885Y-125830342D01*
X177747887Y-125879256D01*
X177731309Y-125884643D01*
X177718317Y-125890909D01*
X177606130Y-125925315D01*
X177500763Y-125959551D01*
X177487811Y-125961602D01*
X177478190Y-125964553D01*
X177355226Y-125982602D01*
X177244121Y-126000199D01*
X177235338Y-126000199D01*
X177229690Y-126001028D01*
X177094139Y-126000199D01*
X176984279Y-126000199D01*
X176979867Y-125999500D01*
X176978536Y-125999492D01*
X176751160Y-125963277D01*
X176727637Y-125959551D01*
X176627355Y-125926968D01*
X176491302Y-125883416D01*
X176487510Y-125881529D01*
X176480513Y-125879256D01*
X176380259Y-125828174D01*
X176266429Y-125771545D01*
X176259384Y-125766585D01*
X176248993Y-125761290D01*
X176158809Y-125695768D01*
X176061073Y-125626950D01*
X176051712Y-125617958D01*
X176038776Y-125608559D01*
X175961832Y-125531615D01*
X175879944Y-125452950D01*
X175869397Y-125439180D01*
X175855041Y-125424824D01*
X175793090Y-125339555D01*
X175727223Y-125253561D01*
X175716774Y-125234516D01*
X175702310Y-125214607D01*
X175656136Y-125123986D01*
X175606416Y-125033358D01*
X175597473Y-125008854D01*
X175584344Y-124983087D01*
X175554118Y-124890060D01*
X175520309Y-124797423D01*
X175514314Y-124767555D01*
X175504049Y-124735963D01*
X175489371Y-124643289D01*
X175470882Y-124551177D01*
X175469272Y-124516387D01*
X175463401Y-124479321D01*
X175463401Y-124389554D01*
X175459269Y-124300284D01*
X175463401Y-124261297D01*
X175463401Y-124219479D01*
X175476797Y-124134897D01*
X175485740Y-124050521D01*
X175496837Y-124008371D01*
X175504049Y-123962837D01*
X175529225Y-123885353D01*
X175549686Y-123807636D01*
X175568775Y-123763629D01*
X175584344Y-123715713D01*
X175619428Y-123646857D01*
X175649635Y-123577220D01*
X175677499Y-123532887D01*
X175702310Y-123484193D01*
X175745255Y-123425085D01*
X175783284Y-123364578D01*
X175820404Y-123321650D01*
X175855041Y-123273976D01*
X175903723Y-123225294D01*
X175947566Y-123174591D01*
X175994097Y-123134920D01*
X176038776Y-123090241D01*
X176091039Y-123052270D01*
X176138690Y-123011644D01*
X176194442Y-122977144D01*
X176248993Y-122937510D01*
X176302758Y-122910115D01*
X176352267Y-122879478D01*
X176416665Y-122852076D01*
X176480513Y-122819544D01*
X176533848Y-122802214D01*
X176583374Y-122781141D01*
X176655474Y-122762696D01*
X176727637Y-122739249D01*
X176778806Y-122731145D01*
X176826693Y-122718894D01*
X176905178Y-122711129D01*
X176984279Y-122698601D01*
X177031813Y-122698601D01*
X177076642Y-122694166D01*
X177159878Y-122698601D01*
G37*
G36*
X140436358Y-121994783D02*
G01*
X140458586Y-121993696D01*
X140527458Y-122004358D01*
X140599518Y-122011932D01*
X140620575Y-122018774D01*
X140639438Y-122021694D01*
X140707742Y-122047096D01*
X140779606Y-122070446D01*
X140796038Y-122079933D01*
X140810956Y-122085481D01*
X140875453Y-122125783D01*
X140943593Y-122165124D01*
X140955345Y-122175705D01*
X140966156Y-122182461D01*
X141023579Y-122237144D01*
X141084312Y-122291828D01*
X141091741Y-122302053D01*
X141098678Y-122308659D01*
X141145809Y-122376472D01*
X141195612Y-122445020D01*
X141199463Y-122453671D01*
X141203121Y-122458933D01*
X141236994Y-122537964D01*
X141272630Y-122618004D01*
X141273940Y-122624166D01*
X141275211Y-122627132D01*
X141293274Y-122715129D01*
X141311999Y-122803222D01*
X141311999Y-122992578D01*
X141311330Y-122995725D01*
X141311330Y-122995778D01*
X141273302Y-123174690D01*
X141273279Y-123174743D01*
X141272630Y-123177796D01*
X141236051Y-123259954D01*
X141200037Y-123342385D01*
X141198174Y-123345026D01*
X141195612Y-123350780D01*
X141144104Y-123421676D01*
X141094548Y-123491925D01*
X141089879Y-123496309D01*
X141084312Y-123503972D01*
X141021334Y-123560678D01*
X140961145Y-123617199D01*
X140952986Y-123622218D01*
X140943593Y-123630676D01*
X140872827Y-123671533D01*
X140805277Y-123713090D01*
X140793293Y-123717452D01*
X140779606Y-123725354D01*
X140704823Y-123749653D01*
X140633313Y-123775680D01*
X140617558Y-123778007D01*
X140599518Y-123783868D01*
X140524399Y-123791763D01*
X140452274Y-123802414D01*
X140433207Y-123801348D01*
X140411200Y-123803661D01*
X140339176Y-123796091D01*
X140269561Y-123792199D01*
X140248037Y-123786512D01*
X140222882Y-123783868D01*
X140156944Y-123762443D01*
X140092628Y-123745450D01*
X140069862Y-123734149D01*
X140042794Y-123725354D01*
X139985454Y-123692249D01*
X139928708Y-123664080D01*
X139906183Y-123646482D01*
X139878807Y-123630676D01*
X139831939Y-123588476D01*
X139784502Y-123551414D01*
X139763924Y-123527235D01*
X139738088Y-123503972D01*
X139702860Y-123455484D01*
X139665897Y-123412053D01*
X139649078Y-123381460D01*
X139626788Y-123350780D01*
X139603686Y-123298891D01*
X139577734Y-123251686D01*
X139566477Y-123215319D01*
X139549770Y-123177796D01*
X139538614Y-123125309D01*
X139523618Y-123076866D01*
X139519594Y-123035829D01*
X139510401Y-122992578D01*
X139510401Y-122942069D01*
X139505760Y-122894737D01*
X139510401Y-122850582D01*
X139510401Y-122803222D01*
X139520248Y-122756895D01*
X139524889Y-122712740D01*
X139539268Y-122667411D01*
X139549770Y-122618004D01*
X139567756Y-122577608D01*
X139580222Y-122538309D01*
X139604962Y-122494042D01*
X139626788Y-122445020D01*
X139650930Y-122411791D01*
X139669504Y-122378557D01*
X139704705Y-122337776D01*
X139738088Y-122291828D01*
X139766266Y-122266456D01*
X139789080Y-122240026D01*
X139834271Y-122205225D01*
X139878807Y-122165124D01*
X139908915Y-122147741D01*
X139934073Y-122128367D01*
X139988185Y-122101975D01*
X140042794Y-122070446D01*
X140072851Y-122060680D01*
X140098551Y-122048145D01*
X140159936Y-122032385D01*
X140222882Y-122011932D01*
X140251178Y-122008958D01*
X140275801Y-122002636D01*
X140342249Y-121999386D01*
X140411200Y-121992139D01*
X140436358Y-121994783D01*
G37*
G36*
X141281022Y-119460048D02*
G01*
X141297825Y-119471275D01*
X141309052Y-119488078D01*
X141313985Y-119512875D01*
X141313985Y-121202925D01*
X141309052Y-121227722D01*
X141297825Y-121244525D01*
X141281022Y-121255752D01*
X141256225Y-121260685D01*
X139566175Y-121260685D01*
X139541378Y-121255752D01*
X139524575Y-121244525D01*
X139513348Y-121227722D01*
X139508415Y-121202925D01*
X139508415Y-119512875D01*
X139513348Y-119488078D01*
X139524575Y-119471275D01*
X139541378Y-119460048D01*
X139566175Y-119455115D01*
X141256225Y-119455115D01*
X141281022Y-119460048D01*
G37*
G36*
X164693358Y-118756283D02*
G01*
X164715586Y-118755196D01*
X164784458Y-118765858D01*
X164856518Y-118773432D01*
X164877575Y-118780274D01*
X164896438Y-118783194D01*
X164964742Y-118808596D01*
X165036606Y-118831946D01*
X165053038Y-118841433D01*
X165067956Y-118846981D01*
X165132453Y-118887283D01*
X165200593Y-118926624D01*
X165212345Y-118937205D01*
X165223156Y-118943961D01*
X165280579Y-118998644D01*
X165341312Y-119053328D01*
X165348741Y-119063553D01*
X165355678Y-119070159D01*
X165402809Y-119137972D01*
X165452612Y-119206520D01*
X165456463Y-119215171D01*
X165460121Y-119220433D01*
X165493994Y-119299464D01*
X165529630Y-119379504D01*
X165530940Y-119385666D01*
X165532211Y-119388632D01*
X165550274Y-119476629D01*
X165568999Y-119564722D01*
X165568999Y-119754078D01*
X165568330Y-119757225D01*
X165568330Y-119757278D01*
X165530302Y-119936190D01*
X165530279Y-119936243D01*
X165529630Y-119939296D01*
X165493051Y-120021454D01*
X165457037Y-120103885D01*
X165455174Y-120106526D01*
X165452612Y-120112280D01*
X165401104Y-120183176D01*
X165351548Y-120253425D01*
X165346879Y-120257809D01*
X165341312Y-120265472D01*
X165278334Y-120322178D01*
X165218145Y-120378699D01*
X165209986Y-120383718D01*
X165200593Y-120392176D01*
X165129827Y-120433033D01*
X165062277Y-120474590D01*
X165050293Y-120478952D01*
X165036606Y-120486854D01*
X164961823Y-120511153D01*
X164890313Y-120537180D01*
X164874558Y-120539507D01*
X164856518Y-120545368D01*
X164781399Y-120553263D01*
X164709274Y-120563914D01*
X164690207Y-120562848D01*
X164668200Y-120565161D01*
X164596176Y-120557591D01*
X164526561Y-120553699D01*
X164505037Y-120548012D01*
X164479882Y-120545368D01*
X164413944Y-120523943D01*
X164349628Y-120506950D01*
X164326862Y-120495649D01*
X164299794Y-120486854D01*
X164242454Y-120453749D01*
X164185708Y-120425580D01*
X164163183Y-120407982D01*
X164135807Y-120392176D01*
X164088939Y-120349976D01*
X164041502Y-120312914D01*
X164020924Y-120288735D01*
X163995088Y-120265472D01*
X163959860Y-120216984D01*
X163922897Y-120173553D01*
X163906078Y-120142960D01*
X163883788Y-120112280D01*
X163860686Y-120060391D01*
X163834734Y-120013186D01*
X163823477Y-119976819D01*
X163806770Y-119939296D01*
X163795614Y-119886809D01*
X163780618Y-119838366D01*
X163776594Y-119797329D01*
X163767401Y-119754078D01*
X163767401Y-119703569D01*
X163762760Y-119656237D01*
X163767401Y-119612082D01*
X163767401Y-119564722D01*
X163777248Y-119518395D01*
X163781889Y-119474240D01*
X163796268Y-119428911D01*
X163806770Y-119379504D01*
X163824756Y-119339108D01*
X163837222Y-119299809D01*
X163861962Y-119255542D01*
X163883788Y-119206520D01*
X163907930Y-119173291D01*
X163926504Y-119140057D01*
X163961705Y-119099276D01*
X163995088Y-119053328D01*
X164023266Y-119027956D01*
X164046080Y-119001526D01*
X164091271Y-118966725D01*
X164135807Y-118926624D01*
X164165915Y-118909241D01*
X164191073Y-118889867D01*
X164245185Y-118863475D01*
X164299794Y-118831946D01*
X164329851Y-118822180D01*
X164355551Y-118809645D01*
X164416936Y-118793885D01*
X164479882Y-118773432D01*
X164508178Y-118770458D01*
X164532801Y-118764136D01*
X164599249Y-118760886D01*
X164668200Y-118753639D01*
X164693358Y-118756283D01*
G37*
G36*
X156505631Y-117529232D02*
G01*
X156587070Y-117529800D01*
X156609493Y-117534403D01*
X156629080Y-117535378D01*
X156706339Y-117554283D01*
X156788933Y-117571237D01*
X156807467Y-117579028D01*
X156823847Y-117583036D01*
X156898516Y-117617301D01*
X156978904Y-117651093D01*
X156993271Y-117660784D01*
X157006085Y-117666664D01*
X157074976Y-117715894D01*
X157149746Y-117766327D01*
X157160001Y-117776654D01*
X157169223Y-117783244D01*
X157229256Y-117846394D01*
X157294951Y-117912550D01*
X157301462Y-117922350D01*
X157307374Y-117928569D01*
X157355590Y-118003819D01*
X157408990Y-118084192D01*
X157412418Y-118092509D01*
X157415548Y-118097394D01*
X157449277Y-118181936D01*
X157487518Y-118274716D01*
X157488725Y-118280814D01*
X157489851Y-118283635D01*
X157506985Y-118373029D01*
X157527545Y-118476864D01*
X157527500Y-118480067D01*
X157527582Y-118480493D01*
X157526862Y-118686638D01*
X157524446Y-118698785D01*
X157524258Y-118712237D01*
X157504273Y-118800201D01*
X157487757Y-118883234D01*
X157482442Y-118896289D01*
X157478603Y-118913189D01*
X157443131Y-118992860D01*
X157412159Y-119068945D01*
X157402964Y-119083077D01*
X157394786Y-119101445D01*
X157346196Y-119170326D01*
X157302806Y-119237013D01*
X157289188Y-119251140D01*
X157275999Y-119269836D01*
X157217031Y-119325991D01*
X157163641Y-119381374D01*
X157145344Y-119394257D01*
X157126767Y-119411948D01*
X157060430Y-119454047D01*
X156999698Y-119496809D01*
X156976777Y-119507134D01*
X156952774Y-119522367D01*
X156882155Y-119549758D01*
X156816875Y-119579165D01*
X156789736Y-119585605D01*
X156760648Y-119596888D01*
X156688837Y-119609550D01*
X156621787Y-119625462D01*
X156591166Y-119626772D01*
X156557706Y-119632672D01*
X156487595Y-119631203D01*
X156421455Y-119634033D01*
X156388424Y-119629126D01*
X156351679Y-119628356D01*
X156285911Y-119613896D01*
X156223117Y-119604567D01*
X156189021Y-119592593D01*
X156150414Y-119584105D01*
X156091270Y-119558266D01*
X156033938Y-119538132D01*
X156000344Y-119518541D01*
X155961577Y-119501604D01*
X155910874Y-119466364D01*
X155860725Y-119437119D01*
X155829371Y-119409718D01*
X155792361Y-119383996D01*
X155751399Y-119341578D01*
X155709745Y-119305177D01*
X155682456Y-119270186D01*
X155649211Y-119235760D01*
X155618773Y-119188530D01*
X155586432Y-119147061D01*
X155565005Y-119105098D01*
X155537579Y-119062542D01*
X155517919Y-119012886D01*
X155495246Y-118968484D01*
X155481379Y-118920596D01*
X155461719Y-118870941D01*
X155452579Y-118821143D01*
X155439474Y-118775886D01*
X155434662Y-118723520D01*
X155424519Y-118668254D01*
X155425187Y-118620404D01*
X155421127Y-118576218D01*
X155426573Y-118521174D01*
X155427396Y-118462202D01*
X155436770Y-118418103D01*
X155440868Y-118376676D01*
X155457401Y-118321040D01*
X155470241Y-118260632D01*
X155486906Y-118221749D01*
X155497984Y-118184471D01*
X155525999Y-118130540D01*
X155551422Y-118071224D01*
X155573752Y-118038612D01*
X155590413Y-118006538D01*
X155629806Y-117956747D01*
X155667846Y-117901191D01*
X155694104Y-117875477D01*
X155714825Y-117849287D01*
X155764980Y-117806070D01*
X155815079Y-117757010D01*
X155843506Y-117738408D01*
X155866726Y-117718400D01*
X155926498Y-117684099D01*
X155987513Y-117644172D01*
X156016441Y-117632484D01*
X156040634Y-117618601D01*
X156108354Y-117595349D01*
X156178580Y-117566976D01*
X156206502Y-117561650D01*
X156230281Y-117553485D01*
X156303838Y-117543082D01*
X156381003Y-117528362D01*
X156406653Y-117528541D01*
X156428812Y-117525407D01*
X156505631Y-117529232D01*
G37*
G36*
X152441631Y-116640232D02*
G01*
X152523070Y-116640800D01*
X152545493Y-116645403D01*
X152565080Y-116646378D01*
X152642339Y-116665283D01*
X152724933Y-116682237D01*
X152743467Y-116690028D01*
X152759847Y-116694036D01*
X152834516Y-116728301D01*
X152914904Y-116762093D01*
X152929271Y-116771784D01*
X152942085Y-116777664D01*
X153010976Y-116826894D01*
X153085746Y-116877327D01*
X153096001Y-116887654D01*
X153105223Y-116894244D01*
X153165256Y-116957394D01*
X153230951Y-117023550D01*
X153237462Y-117033350D01*
X153243374Y-117039569D01*
X153291590Y-117114819D01*
X153344990Y-117195192D01*
X153348418Y-117203509D01*
X153351548Y-117208394D01*
X153385277Y-117292936D01*
X153423518Y-117385716D01*
X153424725Y-117391814D01*
X153425851Y-117394635D01*
X153442985Y-117484029D01*
X153463545Y-117587864D01*
X153463500Y-117591067D01*
X153463582Y-117591493D01*
X153462862Y-117797638D01*
X153460446Y-117809785D01*
X153460258Y-117823237D01*
X153440273Y-117911201D01*
X153423757Y-117994234D01*
X153418442Y-118007289D01*
X153414603Y-118024189D01*
X153379131Y-118103860D01*
X153348159Y-118179945D01*
X153338964Y-118194077D01*
X153330786Y-118212445D01*
X153282196Y-118281326D01*
X153238806Y-118348013D01*
X153225188Y-118362140D01*
X153211999Y-118380836D01*
X153153031Y-118436991D01*
X153099641Y-118492374D01*
X153081344Y-118505257D01*
X153062767Y-118522948D01*
X152996430Y-118565047D01*
X152935698Y-118607809D01*
X152912777Y-118618134D01*
X152888774Y-118633367D01*
X152818155Y-118660758D01*
X152752875Y-118690165D01*
X152725736Y-118696605D01*
X152696648Y-118707888D01*
X152624837Y-118720550D01*
X152557787Y-118736462D01*
X152527166Y-118737772D01*
X152493706Y-118743672D01*
X152423595Y-118742203D01*
X152357455Y-118745033D01*
X152324424Y-118740126D01*
X152287679Y-118739356D01*
X152221911Y-118724896D01*
X152159117Y-118715567D01*
X152125021Y-118703593D01*
X152086414Y-118695105D01*
X152027270Y-118669266D01*
X151969938Y-118649132D01*
X151936344Y-118629541D01*
X151897577Y-118612604D01*
X151846874Y-118577364D01*
X151796725Y-118548119D01*
X151765371Y-118520718D01*
X151728361Y-118494996D01*
X151687399Y-118452578D01*
X151645745Y-118416177D01*
X151618456Y-118381186D01*
X151585211Y-118346760D01*
X151554773Y-118299530D01*
X151522432Y-118258061D01*
X151501005Y-118216098D01*
X151473579Y-118173542D01*
X151453919Y-118123886D01*
X151431246Y-118079484D01*
X151417379Y-118031596D01*
X151397719Y-117981941D01*
X151388579Y-117932143D01*
X151375474Y-117886886D01*
X151370662Y-117834520D01*
X151360519Y-117779254D01*
X151361187Y-117731404D01*
X151357127Y-117687218D01*
X151362573Y-117632174D01*
X151363396Y-117573202D01*
X151372770Y-117529103D01*
X151376868Y-117487676D01*
X151393401Y-117432040D01*
X151406241Y-117371632D01*
X151422906Y-117332749D01*
X151433984Y-117295471D01*
X151461999Y-117241540D01*
X151487422Y-117182224D01*
X151509752Y-117149612D01*
X151526413Y-117117538D01*
X151565806Y-117067747D01*
X151603846Y-117012191D01*
X151630104Y-116986477D01*
X151650825Y-116960287D01*
X151700980Y-116917070D01*
X151751079Y-116868010D01*
X151779506Y-116849408D01*
X151802726Y-116829400D01*
X151862498Y-116795099D01*
X151923513Y-116755172D01*
X151952441Y-116743484D01*
X151976634Y-116729601D01*
X152044354Y-116706349D01*
X152114580Y-116677976D01*
X152142502Y-116672650D01*
X152166281Y-116664485D01*
X152239838Y-116654082D01*
X152317003Y-116639362D01*
X152342653Y-116639541D01*
X152364812Y-116636407D01*
X152441631Y-116640232D01*
G37*
G36*
X164693358Y-116216283D02*
G01*
X164715586Y-116215196D01*
X164784458Y-116225858D01*
X164856518Y-116233432D01*
X164877575Y-116240274D01*
X164896438Y-116243194D01*
X164964742Y-116268596D01*
X165036606Y-116291946D01*
X165053038Y-116301433D01*
X165067956Y-116306981D01*
X165132453Y-116347283D01*
X165200593Y-116386624D01*
X165212345Y-116397205D01*
X165223156Y-116403961D01*
X165280579Y-116458644D01*
X165341312Y-116513328D01*
X165348741Y-116523553D01*
X165355678Y-116530159D01*
X165402809Y-116597972D01*
X165452612Y-116666520D01*
X165456463Y-116675171D01*
X165460121Y-116680433D01*
X165493994Y-116759464D01*
X165529630Y-116839504D01*
X165530940Y-116845666D01*
X165532211Y-116848632D01*
X165550274Y-116936629D01*
X165568999Y-117024722D01*
X165568999Y-117214078D01*
X165568330Y-117217225D01*
X165568330Y-117217278D01*
X165530302Y-117396190D01*
X165530279Y-117396243D01*
X165529630Y-117399296D01*
X165493051Y-117481454D01*
X165457037Y-117563885D01*
X165455174Y-117566526D01*
X165452612Y-117572280D01*
X165401104Y-117643176D01*
X165351548Y-117713425D01*
X165346879Y-117717809D01*
X165341312Y-117725472D01*
X165278334Y-117782178D01*
X165218145Y-117838699D01*
X165209986Y-117843718D01*
X165200593Y-117852176D01*
X165129827Y-117893033D01*
X165062277Y-117934590D01*
X165050293Y-117938952D01*
X165036606Y-117946854D01*
X164961823Y-117971153D01*
X164890313Y-117997180D01*
X164874558Y-117999507D01*
X164856518Y-118005368D01*
X164781399Y-118013263D01*
X164709274Y-118023914D01*
X164690207Y-118022848D01*
X164668200Y-118025161D01*
X164596176Y-118017591D01*
X164526561Y-118013699D01*
X164505037Y-118008012D01*
X164479882Y-118005368D01*
X164413944Y-117983943D01*
X164349628Y-117966950D01*
X164326862Y-117955649D01*
X164299794Y-117946854D01*
X164242454Y-117913749D01*
X164185708Y-117885580D01*
X164163183Y-117867982D01*
X164135807Y-117852176D01*
X164088939Y-117809976D01*
X164041502Y-117772914D01*
X164020924Y-117748735D01*
X163995088Y-117725472D01*
X163959860Y-117676984D01*
X163922897Y-117633553D01*
X163906078Y-117602960D01*
X163883788Y-117572280D01*
X163860686Y-117520391D01*
X163834734Y-117473186D01*
X163823477Y-117436819D01*
X163806770Y-117399296D01*
X163795614Y-117346809D01*
X163780618Y-117298366D01*
X163776594Y-117257329D01*
X163767401Y-117214078D01*
X163767401Y-117163569D01*
X163762760Y-117116237D01*
X163767401Y-117072082D01*
X163767401Y-117024722D01*
X163777248Y-116978395D01*
X163781889Y-116934240D01*
X163796268Y-116888911D01*
X163806770Y-116839504D01*
X163824756Y-116799108D01*
X163837222Y-116759809D01*
X163861962Y-116715542D01*
X163883788Y-116666520D01*
X163907930Y-116633291D01*
X163926504Y-116600057D01*
X163961705Y-116559276D01*
X163995088Y-116513328D01*
X164023266Y-116487956D01*
X164046080Y-116461526D01*
X164091271Y-116426725D01*
X164135807Y-116386624D01*
X164165915Y-116369241D01*
X164191073Y-116349867D01*
X164245185Y-116323475D01*
X164299794Y-116291946D01*
X164329851Y-116282180D01*
X164355551Y-116269645D01*
X164416936Y-116253885D01*
X164479882Y-116233432D01*
X164508178Y-116230458D01*
X164532801Y-116224136D01*
X164599249Y-116220886D01*
X164668200Y-116213639D01*
X164693358Y-116216283D01*
G37*
G36*
X160954360Y-116848001D02*
G01*
X160968815Y-116848001D01*
X161024289Y-116862865D01*
X161084631Y-116875691D01*
X161097745Y-116882547D01*
X161108901Y-116885536D01*
X161160999Y-116915615D01*
X161218368Y-116945607D01*
X161227023Y-116953735D01*
X161234499Y-116958051D01*
X161278878Y-117002430D01*
X161328376Y-117048912D01*
X161333007Y-117056559D01*
X161337049Y-117060601D01*
X161369613Y-117117003D01*
X161406551Y-117177995D01*
X161408165Y-117183776D01*
X161409564Y-117186199D01*
X161426744Y-117250317D01*
X161447134Y-117323345D01*
X161447099Y-117326687D01*
X161447099Y-117471315D01*
X161445523Y-117477198D01*
X161445433Y-117485774D01*
X161425811Y-117550765D01*
X161409564Y-117611401D01*
X161405245Y-117618881D01*
X161401815Y-117630243D01*
X161367129Y-117684899D01*
X161337049Y-117736999D01*
X161328884Y-117745164D01*
X161320954Y-117757660D01*
X161275107Y-117798941D01*
X161234499Y-117839549D01*
X161221980Y-117846777D01*
X161208806Y-117858639D01*
X161156238Y-117884734D01*
X161108901Y-117912064D01*
X161092126Y-117916559D01*
X161073634Y-117925738D01*
X161018898Y-117936180D01*
X160968815Y-117949599D01*
X160948552Y-117949599D01*
X160925398Y-117954016D01*
X160872798Y-117949599D01*
X160823785Y-117949599D01*
X160801413Y-117943605D01*
X160775017Y-117941388D01*
X160728304Y-117924016D01*
X160683699Y-117912064D01*
X160661131Y-117899034D01*
X160633572Y-117888785D01*
X160595617Y-117861209D01*
X160558101Y-117839549D01*
X160537634Y-117819082D01*
X160511484Y-117800083D01*
X160484156Y-117765604D01*
X160455551Y-117736999D01*
X160439637Y-117709435D01*
X160417746Y-117681816D01*
X160401829Y-117643951D01*
X160383036Y-117611401D01*
X160374053Y-117577874D01*
X160359266Y-117542698D01*
X160354483Y-117504838D01*
X160345501Y-117471315D01*
X160345501Y-117433737D01*
X160340352Y-117392978D01*
X160345501Y-117358110D01*
X160345501Y-117326285D01*
X160355971Y-117287210D01*
X160362398Y-117243687D01*
X160375544Y-117214160D01*
X160383036Y-117186199D01*
X160404696Y-117148683D01*
X160423778Y-117105824D01*
X160442524Y-117083164D01*
X160455551Y-117060601D01*
X160488198Y-117027954D01*
X160519972Y-116989546D01*
X160541724Y-116974428D01*
X160558101Y-116958051D01*
X160600551Y-116933542D01*
X160643891Y-116903420D01*
X160666147Y-116895670D01*
X160683699Y-116885536D01*
X160733785Y-116872116D01*
X160786407Y-116853791D01*
X160807015Y-116852494D01*
X160823785Y-116848001D01*
X160878434Y-116848001D01*
X160937019Y-116844315D01*
X160954360Y-116848001D01*
G37*
G36*
X160146122Y-116850948D02*
G01*
X160162925Y-116862175D01*
X160174152Y-116878978D01*
X160179085Y-116903775D01*
X160179085Y-117893825D01*
X160174152Y-117918622D01*
X160162925Y-117935425D01*
X160146122Y-117946652D01*
X160121325Y-117951585D01*
X159131275Y-117951585D01*
X159106478Y-117946652D01*
X159089675Y-117935425D01*
X159078448Y-117918622D01*
X159073515Y-117893825D01*
X159073515Y-116903775D01*
X159078448Y-116878978D01*
X159089675Y-116862175D01*
X159106478Y-116850948D01*
X159131275Y-116846015D01*
X160121325Y-116846015D01*
X160146122Y-116850948D01*
G37*
G36*
X164693358Y-113676283D02*
G01*
X164715586Y-113675196D01*
X164784458Y-113685858D01*
X164856518Y-113693432D01*
X164877575Y-113700274D01*
X164896438Y-113703194D01*
X164964742Y-113728596D01*
X165036606Y-113751946D01*
X165053038Y-113761433D01*
X165067956Y-113766981D01*
X165132453Y-113807283D01*
X165200593Y-113846624D01*
X165212345Y-113857205D01*
X165223156Y-113863961D01*
X165280579Y-113918644D01*
X165341312Y-113973328D01*
X165348741Y-113983553D01*
X165355678Y-113990159D01*
X165402809Y-114057972D01*
X165452612Y-114126520D01*
X165456463Y-114135171D01*
X165460121Y-114140433D01*
X165493994Y-114219464D01*
X165529630Y-114299504D01*
X165530940Y-114305666D01*
X165532211Y-114308632D01*
X165550274Y-114396629D01*
X165568999Y-114484722D01*
X165568999Y-114674078D01*
X165568330Y-114677225D01*
X165568330Y-114677278D01*
X165530302Y-114856190D01*
X165530279Y-114856243D01*
X165529630Y-114859296D01*
X165493051Y-114941454D01*
X165457037Y-115023885D01*
X165455174Y-115026526D01*
X165452612Y-115032280D01*
X165401104Y-115103176D01*
X165351548Y-115173425D01*
X165346879Y-115177809D01*
X165341312Y-115185472D01*
X165278334Y-115242178D01*
X165218145Y-115298699D01*
X165209986Y-115303718D01*
X165200593Y-115312176D01*
X165129827Y-115353033D01*
X165062277Y-115394590D01*
X165050293Y-115398952D01*
X165036606Y-115406854D01*
X164961823Y-115431153D01*
X164890313Y-115457180D01*
X164874558Y-115459507D01*
X164856518Y-115465368D01*
X164781399Y-115473263D01*
X164709274Y-115483914D01*
X164690207Y-115482848D01*
X164668200Y-115485161D01*
X164596176Y-115477591D01*
X164526561Y-115473699D01*
X164505037Y-115468012D01*
X164479882Y-115465368D01*
X164413944Y-115443943D01*
X164349628Y-115426950D01*
X164326862Y-115415649D01*
X164299794Y-115406854D01*
X164242454Y-115373749D01*
X164185708Y-115345580D01*
X164163183Y-115327982D01*
X164135807Y-115312176D01*
X164088939Y-115269976D01*
X164041502Y-115232914D01*
X164020924Y-115208735D01*
X163995088Y-115185472D01*
X163959860Y-115136984D01*
X163922897Y-115093553D01*
X163906078Y-115062960D01*
X163883788Y-115032280D01*
X163860686Y-114980391D01*
X163834734Y-114933186D01*
X163823477Y-114896819D01*
X163806770Y-114859296D01*
X163795614Y-114806809D01*
X163780618Y-114758366D01*
X163776594Y-114717329D01*
X163767401Y-114674078D01*
X163767401Y-114623569D01*
X163762760Y-114576237D01*
X163767401Y-114532082D01*
X163767401Y-114484722D01*
X163777248Y-114438395D01*
X163781889Y-114394240D01*
X163796268Y-114348911D01*
X163806770Y-114299504D01*
X163824756Y-114259108D01*
X163837222Y-114219809D01*
X163861962Y-114175542D01*
X163883788Y-114126520D01*
X163907930Y-114093291D01*
X163926504Y-114060057D01*
X163961705Y-114019276D01*
X163995088Y-113973328D01*
X164023266Y-113947956D01*
X164046080Y-113921526D01*
X164091271Y-113886725D01*
X164135807Y-113846624D01*
X164165915Y-113829241D01*
X164191073Y-113809867D01*
X164245185Y-113783475D01*
X164299794Y-113751946D01*
X164329851Y-113742180D01*
X164355551Y-113729645D01*
X164416936Y-113713885D01*
X164479882Y-113693432D01*
X164508178Y-113690458D01*
X164532801Y-113684136D01*
X164599249Y-113680886D01*
X164668200Y-113673639D01*
X164693358Y-113676283D01*
G37*
G36*
X164693358Y-111136283D02*
G01*
X164715586Y-111135196D01*
X164784458Y-111145858D01*
X164856518Y-111153432D01*
X164877575Y-111160274D01*
X164896438Y-111163194D01*
X164964742Y-111188596D01*
X165036606Y-111211946D01*
X165053038Y-111221433D01*
X165067956Y-111226981D01*
X165132453Y-111267283D01*
X165200593Y-111306624D01*
X165212345Y-111317205D01*
X165223156Y-111323961D01*
X165280579Y-111378644D01*
X165341312Y-111433328D01*
X165348741Y-111443553D01*
X165355678Y-111450159D01*
X165402809Y-111517972D01*
X165452612Y-111586520D01*
X165456463Y-111595171D01*
X165460121Y-111600433D01*
X165493994Y-111679464D01*
X165529630Y-111759504D01*
X165530940Y-111765666D01*
X165532211Y-111768632D01*
X165550274Y-111856629D01*
X165568999Y-111944722D01*
X165568999Y-112134078D01*
X165568330Y-112137225D01*
X165568330Y-112137278D01*
X165530302Y-112316190D01*
X165530279Y-112316243D01*
X165529630Y-112319296D01*
X165493051Y-112401454D01*
X165457037Y-112483885D01*
X165455174Y-112486526D01*
X165452612Y-112492280D01*
X165401104Y-112563176D01*
X165351548Y-112633425D01*
X165346879Y-112637809D01*
X165341312Y-112645472D01*
X165278334Y-112702178D01*
X165218145Y-112758699D01*
X165209986Y-112763718D01*
X165200593Y-112772176D01*
X165129827Y-112813033D01*
X165062277Y-112854590D01*
X165050293Y-112858952D01*
X165036606Y-112866854D01*
X164961823Y-112891153D01*
X164890313Y-112917180D01*
X164874558Y-112919507D01*
X164856518Y-112925368D01*
X164781399Y-112933263D01*
X164709274Y-112943914D01*
X164690207Y-112942848D01*
X164668200Y-112945161D01*
X164596176Y-112937591D01*
X164526561Y-112933699D01*
X164505037Y-112928012D01*
X164479882Y-112925368D01*
X164413944Y-112903943D01*
X164349628Y-112886950D01*
X164326862Y-112875649D01*
X164299794Y-112866854D01*
X164242454Y-112833749D01*
X164185708Y-112805580D01*
X164163183Y-112787982D01*
X164135807Y-112772176D01*
X164088939Y-112729976D01*
X164041502Y-112692914D01*
X164020924Y-112668735D01*
X163995088Y-112645472D01*
X163959860Y-112596984D01*
X163922897Y-112553553D01*
X163906078Y-112522960D01*
X163883788Y-112492280D01*
X163860686Y-112440391D01*
X163834734Y-112393186D01*
X163823477Y-112356819D01*
X163806770Y-112319296D01*
X163795614Y-112266809D01*
X163780618Y-112218366D01*
X163776594Y-112177329D01*
X163767401Y-112134078D01*
X163767401Y-112083569D01*
X163762760Y-112036237D01*
X163767401Y-111992082D01*
X163767401Y-111944722D01*
X163777248Y-111898395D01*
X163781889Y-111854240D01*
X163796268Y-111808911D01*
X163806770Y-111759504D01*
X163824756Y-111719108D01*
X163837222Y-111679809D01*
X163861962Y-111635542D01*
X163883788Y-111586520D01*
X163907930Y-111553291D01*
X163926504Y-111520057D01*
X163961705Y-111479276D01*
X163995088Y-111433328D01*
X164023266Y-111407956D01*
X164046080Y-111381526D01*
X164091271Y-111346725D01*
X164135807Y-111306624D01*
X164165915Y-111289241D01*
X164191073Y-111269867D01*
X164245185Y-111243475D01*
X164299794Y-111211946D01*
X164329851Y-111202180D01*
X164355551Y-111189645D01*
X164416936Y-111173885D01*
X164479882Y-111153432D01*
X164508178Y-111150458D01*
X164532801Y-111144136D01*
X164599249Y-111140886D01*
X164668200Y-111133639D01*
X164693358Y-111136283D01*
G37*
G36*
X139072260Y-110599601D02*
G01*
X139086715Y-110599601D01*
X139142189Y-110614465D01*
X139202531Y-110627291D01*
X139215645Y-110634147D01*
X139226801Y-110637136D01*
X139278899Y-110667215D01*
X139336268Y-110697207D01*
X139344923Y-110705335D01*
X139352399Y-110709651D01*
X139396778Y-110754030D01*
X139446276Y-110800512D01*
X139450907Y-110808159D01*
X139454949Y-110812201D01*
X139487513Y-110868603D01*
X139524451Y-110929595D01*
X139526065Y-110935376D01*
X139527464Y-110937799D01*
X139544644Y-111001917D01*
X139565034Y-111074945D01*
X139564999Y-111078287D01*
X139564999Y-111222915D01*
X139563423Y-111228798D01*
X139563333Y-111237374D01*
X139543711Y-111302365D01*
X139527464Y-111363001D01*
X139523145Y-111370481D01*
X139519715Y-111381843D01*
X139485029Y-111436499D01*
X139454949Y-111488599D01*
X139446784Y-111496764D01*
X139438854Y-111509260D01*
X139393007Y-111550541D01*
X139352399Y-111591149D01*
X139339880Y-111598377D01*
X139326706Y-111610239D01*
X139274138Y-111636334D01*
X139226801Y-111663664D01*
X139210026Y-111668159D01*
X139191534Y-111677338D01*
X139136798Y-111687780D01*
X139086715Y-111701199D01*
X139066452Y-111701199D01*
X139043298Y-111705616D01*
X138990698Y-111701199D01*
X138941685Y-111701199D01*
X138919313Y-111695205D01*
X138892917Y-111692988D01*
X138846204Y-111675616D01*
X138801599Y-111663664D01*
X138779031Y-111650634D01*
X138751472Y-111640385D01*
X138713517Y-111612809D01*
X138676001Y-111591149D01*
X138655534Y-111570682D01*
X138629384Y-111551683D01*
X138602056Y-111517204D01*
X138573451Y-111488599D01*
X138557537Y-111461035D01*
X138535646Y-111433416D01*
X138519729Y-111395551D01*
X138500936Y-111363001D01*
X138491953Y-111329474D01*
X138477166Y-111294298D01*
X138472383Y-111256438D01*
X138463401Y-111222915D01*
X138463401Y-111185337D01*
X138458252Y-111144578D01*
X138463401Y-111109710D01*
X138463401Y-111077885D01*
X138473871Y-111038810D01*
X138480298Y-110995287D01*
X138493444Y-110965760D01*
X138500936Y-110937799D01*
X138522596Y-110900283D01*
X138541678Y-110857424D01*
X138560424Y-110834764D01*
X138573451Y-110812201D01*
X138606098Y-110779554D01*
X138637872Y-110741146D01*
X138659624Y-110726028D01*
X138676001Y-110709651D01*
X138718451Y-110685142D01*
X138761791Y-110655020D01*
X138784047Y-110647270D01*
X138801599Y-110637136D01*
X138851685Y-110623716D01*
X138904307Y-110605391D01*
X138924915Y-110604094D01*
X138941685Y-110599601D01*
X138996334Y-110599601D01*
X139054919Y-110595915D01*
X139072260Y-110599601D01*
G37*
G36*
X137802260Y-110599601D02*
G01*
X137816715Y-110599601D01*
X137872189Y-110614465D01*
X137932531Y-110627291D01*
X137945645Y-110634147D01*
X137956801Y-110637136D01*
X138008899Y-110667215D01*
X138066268Y-110697207D01*
X138074923Y-110705335D01*
X138082399Y-110709651D01*
X138126778Y-110754030D01*
X138176276Y-110800512D01*
X138180907Y-110808159D01*
X138184949Y-110812201D01*
X138217513Y-110868603D01*
X138254451Y-110929595D01*
X138256065Y-110935376D01*
X138257464Y-110937799D01*
X138274644Y-111001917D01*
X138295034Y-111074945D01*
X138294999Y-111078287D01*
X138294999Y-111222915D01*
X138293423Y-111228798D01*
X138293333Y-111237374D01*
X138273711Y-111302365D01*
X138257464Y-111363001D01*
X138253145Y-111370481D01*
X138249715Y-111381843D01*
X138215029Y-111436499D01*
X138184949Y-111488599D01*
X138176784Y-111496764D01*
X138168854Y-111509260D01*
X138123007Y-111550541D01*
X138082399Y-111591149D01*
X138069880Y-111598377D01*
X138056706Y-111610239D01*
X138004138Y-111636334D01*
X137956801Y-111663664D01*
X137940026Y-111668159D01*
X137921534Y-111677338D01*
X137866798Y-111687780D01*
X137816715Y-111701199D01*
X137796452Y-111701199D01*
X137773298Y-111705616D01*
X137720698Y-111701199D01*
X137671685Y-111701199D01*
X137649313Y-111695205D01*
X137622917Y-111692988D01*
X137576204Y-111675616D01*
X137531599Y-111663664D01*
X137509031Y-111650634D01*
X137481472Y-111640385D01*
X137443517Y-111612809D01*
X137406001Y-111591149D01*
X137385534Y-111570682D01*
X137359384Y-111551683D01*
X137332056Y-111517204D01*
X137303451Y-111488599D01*
X137287537Y-111461035D01*
X137265646Y-111433416D01*
X137249729Y-111395551D01*
X137230936Y-111363001D01*
X137221953Y-111329474D01*
X137207166Y-111294298D01*
X137202383Y-111256438D01*
X137193401Y-111222915D01*
X137193401Y-111185337D01*
X137188252Y-111144578D01*
X137193401Y-111109710D01*
X137193401Y-111077885D01*
X137203871Y-111038810D01*
X137210298Y-110995287D01*
X137223444Y-110965760D01*
X137230936Y-110937799D01*
X137252596Y-110900283D01*
X137271678Y-110857424D01*
X137290424Y-110834764D01*
X137303451Y-110812201D01*
X137336098Y-110779554D01*
X137367872Y-110741146D01*
X137389624Y-110726028D01*
X137406001Y-110709651D01*
X137448451Y-110685142D01*
X137491791Y-110655020D01*
X137514047Y-110647270D01*
X137531599Y-110637136D01*
X137581685Y-110623716D01*
X137634307Y-110605391D01*
X137654915Y-110604094D01*
X137671685Y-110599601D01*
X137726334Y-110599601D01*
X137784919Y-110595915D01*
X137802260Y-110599601D01*
G37*
G36*
X139072260Y-109329601D02*
G01*
X139086715Y-109329601D01*
X139142189Y-109344465D01*
X139202531Y-109357291D01*
X139215645Y-109364147D01*
X139226801Y-109367136D01*
X139278899Y-109397215D01*
X139336268Y-109427207D01*
X139344923Y-109435335D01*
X139352399Y-109439651D01*
X139396778Y-109484030D01*
X139446276Y-109530512D01*
X139450907Y-109538159D01*
X139454949Y-109542201D01*
X139487513Y-109598603D01*
X139524451Y-109659595D01*
X139526065Y-109665376D01*
X139527464Y-109667799D01*
X139544644Y-109731917D01*
X139565034Y-109804945D01*
X139564999Y-109808287D01*
X139564999Y-109952915D01*
X139563423Y-109958798D01*
X139563333Y-109967374D01*
X139543711Y-110032365D01*
X139527464Y-110093001D01*
X139523145Y-110100481D01*
X139519715Y-110111843D01*
X139485029Y-110166499D01*
X139454949Y-110218599D01*
X139446784Y-110226764D01*
X139438854Y-110239260D01*
X139393007Y-110280541D01*
X139352399Y-110321149D01*
X139339880Y-110328377D01*
X139326706Y-110340239D01*
X139274138Y-110366334D01*
X139226801Y-110393664D01*
X139210026Y-110398159D01*
X139191534Y-110407338D01*
X139136798Y-110417780D01*
X139086715Y-110431199D01*
X139066452Y-110431199D01*
X139043298Y-110435616D01*
X138990698Y-110431199D01*
X138941685Y-110431199D01*
X138919313Y-110425205D01*
X138892917Y-110422988D01*
X138846204Y-110405616D01*
X138801599Y-110393664D01*
X138779031Y-110380634D01*
X138751472Y-110370385D01*
X138713517Y-110342809D01*
X138676001Y-110321149D01*
X138655534Y-110300682D01*
X138629384Y-110281683D01*
X138602056Y-110247204D01*
X138573451Y-110218599D01*
X138557537Y-110191035D01*
X138535646Y-110163416D01*
X138519729Y-110125551D01*
X138500936Y-110093001D01*
X138491953Y-110059474D01*
X138477166Y-110024298D01*
X138472383Y-109986438D01*
X138463401Y-109952915D01*
X138463401Y-109915337D01*
X138458252Y-109874578D01*
X138463401Y-109839710D01*
X138463401Y-109807885D01*
X138473871Y-109768810D01*
X138480298Y-109725287D01*
X138493444Y-109695760D01*
X138500936Y-109667799D01*
X138522596Y-109630283D01*
X138541678Y-109587424D01*
X138560424Y-109564764D01*
X138573451Y-109542201D01*
X138606098Y-109509554D01*
X138637872Y-109471146D01*
X138659624Y-109456028D01*
X138676001Y-109439651D01*
X138718451Y-109415142D01*
X138761791Y-109385020D01*
X138784047Y-109377270D01*
X138801599Y-109367136D01*
X138851685Y-109353716D01*
X138904307Y-109335391D01*
X138924915Y-109334094D01*
X138941685Y-109329601D01*
X138996334Y-109329601D01*
X139054919Y-109325915D01*
X139072260Y-109329601D01*
G37*
G36*
X137802260Y-109329601D02*
G01*
X137816715Y-109329601D01*
X137872189Y-109344465D01*
X137932531Y-109357291D01*
X137945645Y-109364147D01*
X137956801Y-109367136D01*
X138008899Y-109397215D01*
X138066268Y-109427207D01*
X138074923Y-109435335D01*
X138082399Y-109439651D01*
X138126778Y-109484030D01*
X138176276Y-109530512D01*
X138180907Y-109538159D01*
X138184949Y-109542201D01*
X138217513Y-109598603D01*
X138254451Y-109659595D01*
X138256065Y-109665376D01*
X138257464Y-109667799D01*
X138274644Y-109731917D01*
X138295034Y-109804945D01*
X138294999Y-109808287D01*
X138294999Y-109952915D01*
X138293423Y-109958798D01*
X138293333Y-109967374D01*
X138273711Y-110032365D01*
X138257464Y-110093001D01*
X138253145Y-110100481D01*
X138249715Y-110111843D01*
X138215029Y-110166499D01*
X138184949Y-110218599D01*
X138176784Y-110226764D01*
X138168854Y-110239260D01*
X138123007Y-110280541D01*
X138082399Y-110321149D01*
X138069880Y-110328377D01*
X138056706Y-110340239D01*
X138004138Y-110366334D01*
X137956801Y-110393664D01*
X137940026Y-110398159D01*
X137921534Y-110407338D01*
X137866798Y-110417780D01*
X137816715Y-110431199D01*
X137796452Y-110431199D01*
X137773298Y-110435616D01*
X137720698Y-110431199D01*
X137671685Y-110431199D01*
X137649313Y-110425205D01*
X137622917Y-110422988D01*
X137576204Y-110405616D01*
X137531599Y-110393664D01*
X137509031Y-110380634D01*
X137481472Y-110370385D01*
X137443517Y-110342809D01*
X137406001Y-110321149D01*
X137385534Y-110300682D01*
X137359384Y-110281683D01*
X137332056Y-110247204D01*
X137303451Y-110218599D01*
X137287537Y-110191035D01*
X137265646Y-110163416D01*
X137249729Y-110125551D01*
X137230936Y-110093001D01*
X137221953Y-110059474D01*
X137207166Y-110024298D01*
X137202383Y-109986438D01*
X137193401Y-109952915D01*
X137193401Y-109915337D01*
X137188252Y-109874578D01*
X137193401Y-109839710D01*
X137193401Y-109807885D01*
X137203871Y-109768810D01*
X137210298Y-109725287D01*
X137223444Y-109695760D01*
X137230936Y-109667799D01*
X137252596Y-109630283D01*
X137271678Y-109587424D01*
X137290424Y-109564764D01*
X137303451Y-109542201D01*
X137336098Y-109509554D01*
X137367872Y-109471146D01*
X137389624Y-109456028D01*
X137406001Y-109439651D01*
X137448451Y-109415142D01*
X137491791Y-109385020D01*
X137514047Y-109377270D01*
X137531599Y-109367136D01*
X137581685Y-109353716D01*
X137634307Y-109335391D01*
X137654915Y-109334094D01*
X137671685Y-109329601D01*
X137726334Y-109329601D01*
X137784919Y-109325915D01*
X137802260Y-109329601D01*
G37*
G36*
X164693358Y-108596283D02*
G01*
X164715586Y-108595196D01*
X164784458Y-108605858D01*
X164856518Y-108613432D01*
X164877575Y-108620274D01*
X164896438Y-108623194D01*
X164964742Y-108648596D01*
X165036606Y-108671946D01*
X165053038Y-108681433D01*
X165067956Y-108686981D01*
X165132453Y-108727283D01*
X165200593Y-108766624D01*
X165212345Y-108777205D01*
X165223156Y-108783961D01*
X165280579Y-108838644D01*
X165341312Y-108893328D01*
X165348741Y-108903553D01*
X165355678Y-108910159D01*
X165402809Y-108977972D01*
X165452612Y-109046520D01*
X165456463Y-109055171D01*
X165460121Y-109060433D01*
X165493994Y-109139464D01*
X165529630Y-109219504D01*
X165530940Y-109225666D01*
X165532211Y-109228632D01*
X165550274Y-109316629D01*
X165568999Y-109404722D01*
X165568999Y-109594078D01*
X165568330Y-109597225D01*
X165568330Y-109597278D01*
X165530302Y-109776190D01*
X165530279Y-109776243D01*
X165529630Y-109779296D01*
X165493051Y-109861454D01*
X165457037Y-109943885D01*
X165455174Y-109946526D01*
X165452612Y-109952280D01*
X165401104Y-110023176D01*
X165351548Y-110093425D01*
X165346879Y-110097809D01*
X165341312Y-110105472D01*
X165278334Y-110162178D01*
X165218145Y-110218699D01*
X165209986Y-110223718D01*
X165200593Y-110232176D01*
X165129827Y-110273033D01*
X165062277Y-110314590D01*
X165050293Y-110318952D01*
X165036606Y-110326854D01*
X164961823Y-110351153D01*
X164890313Y-110377180D01*
X164874558Y-110379507D01*
X164856518Y-110385368D01*
X164781399Y-110393263D01*
X164709274Y-110403914D01*
X164690207Y-110402848D01*
X164668200Y-110405161D01*
X164596176Y-110397591D01*
X164526561Y-110393699D01*
X164505037Y-110388012D01*
X164479882Y-110385368D01*
X164413944Y-110363943D01*
X164349628Y-110346950D01*
X164326862Y-110335649D01*
X164299794Y-110326854D01*
X164242454Y-110293749D01*
X164185708Y-110265580D01*
X164163183Y-110247982D01*
X164135807Y-110232176D01*
X164088939Y-110189976D01*
X164041502Y-110152914D01*
X164020924Y-110128735D01*
X163995088Y-110105472D01*
X163959860Y-110056984D01*
X163922897Y-110013553D01*
X163906078Y-109982960D01*
X163883788Y-109952280D01*
X163860686Y-109900391D01*
X163834734Y-109853186D01*
X163823477Y-109816819D01*
X163806770Y-109779296D01*
X163795614Y-109726809D01*
X163780618Y-109678366D01*
X163776594Y-109637329D01*
X163767401Y-109594078D01*
X163767401Y-109543569D01*
X163762760Y-109496237D01*
X163767401Y-109452082D01*
X163767401Y-109404722D01*
X163777248Y-109358395D01*
X163781889Y-109314240D01*
X163796268Y-109268911D01*
X163806770Y-109219504D01*
X163824756Y-109179108D01*
X163837222Y-109139809D01*
X163861962Y-109095542D01*
X163883788Y-109046520D01*
X163907930Y-109013291D01*
X163926504Y-108980057D01*
X163961705Y-108939276D01*
X163995088Y-108893328D01*
X164023266Y-108867956D01*
X164046080Y-108841526D01*
X164091271Y-108806725D01*
X164135807Y-108766624D01*
X164165915Y-108749241D01*
X164191073Y-108729867D01*
X164245185Y-108703475D01*
X164299794Y-108671946D01*
X164329851Y-108662180D01*
X164355551Y-108649645D01*
X164416936Y-108633885D01*
X164479882Y-108613432D01*
X164508178Y-108610458D01*
X164532801Y-108604136D01*
X164599249Y-108600886D01*
X164668200Y-108593639D01*
X164693358Y-108596283D01*
G37*
G36*
X160865460Y-109253401D02*
G01*
X160879915Y-109253401D01*
X160935389Y-109268265D01*
X160995731Y-109281091D01*
X161008845Y-109287947D01*
X161020001Y-109290936D01*
X161072099Y-109321015D01*
X161129468Y-109351007D01*
X161138123Y-109359135D01*
X161145599Y-109363451D01*
X161189978Y-109407830D01*
X161239476Y-109454312D01*
X161244107Y-109461959D01*
X161248149Y-109466001D01*
X161280713Y-109522403D01*
X161317651Y-109583395D01*
X161319265Y-109589176D01*
X161320664Y-109591599D01*
X161337844Y-109655717D01*
X161358234Y-109728745D01*
X161358199Y-109732087D01*
X161358199Y-109876715D01*
X161356623Y-109882598D01*
X161356533Y-109891174D01*
X161336911Y-109956165D01*
X161320664Y-110016801D01*
X161316345Y-110024281D01*
X161312915Y-110035643D01*
X161278229Y-110090299D01*
X161248149Y-110142399D01*
X161239984Y-110150564D01*
X161232054Y-110163060D01*
X161186207Y-110204341D01*
X161145599Y-110244949D01*
X161133080Y-110252177D01*
X161119906Y-110264039D01*
X161067338Y-110290134D01*
X161020001Y-110317464D01*
X161003226Y-110321959D01*
X160984734Y-110331138D01*
X160929998Y-110341580D01*
X160879915Y-110354999D01*
X160859652Y-110354999D01*
X160836498Y-110359416D01*
X160783898Y-110354999D01*
X160734885Y-110354999D01*
X160712513Y-110349005D01*
X160686117Y-110346788D01*
X160639404Y-110329416D01*
X160594799Y-110317464D01*
X160572231Y-110304434D01*
X160544672Y-110294185D01*
X160506717Y-110266609D01*
X160469201Y-110244949D01*
X160448734Y-110224482D01*
X160422584Y-110205483D01*
X160395256Y-110171004D01*
X160366651Y-110142399D01*
X160350737Y-110114835D01*
X160328846Y-110087216D01*
X160312929Y-110049351D01*
X160294136Y-110016801D01*
X160285153Y-109983274D01*
X160270366Y-109948098D01*
X160265583Y-109910238D01*
X160256601Y-109876715D01*
X160256601Y-109839137D01*
X160251452Y-109798378D01*
X160256601Y-109763510D01*
X160256601Y-109731685D01*
X160267071Y-109692610D01*
X160273498Y-109649087D01*
X160286644Y-109619560D01*
X160294136Y-109591599D01*
X160315796Y-109554083D01*
X160334878Y-109511224D01*
X160353624Y-109488564D01*
X160366651Y-109466001D01*
X160399298Y-109433354D01*
X160431072Y-109394946D01*
X160452824Y-109379828D01*
X160469201Y-109363451D01*
X160511651Y-109338942D01*
X160554991Y-109308820D01*
X160577247Y-109301070D01*
X160594799Y-109290936D01*
X160644885Y-109277516D01*
X160697507Y-109259191D01*
X160718115Y-109257894D01*
X160734885Y-109253401D01*
X160789534Y-109253401D01*
X160848119Y-109249715D01*
X160865460Y-109253401D01*
G37*
G36*
X160057222Y-109256348D02*
G01*
X160074025Y-109267575D01*
X160085252Y-109284378D01*
X160090185Y-109309175D01*
X160090185Y-110299225D01*
X160085252Y-110324022D01*
X160074025Y-110340825D01*
X160057222Y-110352052D01*
X160032425Y-110356985D01*
X159042375Y-110356985D01*
X159017578Y-110352052D01*
X159000775Y-110340825D01*
X158989548Y-110324022D01*
X158984615Y-110299225D01*
X158984615Y-109309175D01*
X158989548Y-109284378D01*
X159000775Y-109267575D01*
X159017578Y-109256348D01*
X159042375Y-109251415D01*
X160032425Y-109251415D01*
X160057222Y-109256348D01*
G37*
G36*
X139072260Y-108059601D02*
G01*
X139086715Y-108059601D01*
X139142189Y-108074465D01*
X139202531Y-108087291D01*
X139215645Y-108094147D01*
X139226801Y-108097136D01*
X139278899Y-108127215D01*
X139336268Y-108157207D01*
X139344923Y-108165335D01*
X139352399Y-108169651D01*
X139396778Y-108214030D01*
X139446276Y-108260512D01*
X139450907Y-108268159D01*
X139454949Y-108272201D01*
X139487513Y-108328603D01*
X139524451Y-108389595D01*
X139526065Y-108395376D01*
X139527464Y-108397799D01*
X139544644Y-108461917D01*
X139565034Y-108534945D01*
X139564999Y-108538287D01*
X139564999Y-108682915D01*
X139563423Y-108688798D01*
X139563333Y-108697374D01*
X139543711Y-108762365D01*
X139527464Y-108823001D01*
X139523145Y-108830481D01*
X139519715Y-108841843D01*
X139485029Y-108896499D01*
X139454949Y-108948599D01*
X139446784Y-108956764D01*
X139438854Y-108969260D01*
X139393007Y-109010541D01*
X139352399Y-109051149D01*
X139339880Y-109058377D01*
X139326706Y-109070239D01*
X139274138Y-109096334D01*
X139226801Y-109123664D01*
X139210026Y-109128159D01*
X139191534Y-109137338D01*
X139136798Y-109147780D01*
X139086715Y-109161199D01*
X139066452Y-109161199D01*
X139043298Y-109165616D01*
X138990698Y-109161199D01*
X138941685Y-109161199D01*
X138919313Y-109155205D01*
X138892917Y-109152988D01*
X138846204Y-109135616D01*
X138801599Y-109123664D01*
X138779031Y-109110634D01*
X138751472Y-109100385D01*
X138713517Y-109072809D01*
X138676001Y-109051149D01*
X138655534Y-109030682D01*
X138629384Y-109011683D01*
X138602056Y-108977204D01*
X138573451Y-108948599D01*
X138557537Y-108921035D01*
X138535646Y-108893416D01*
X138519729Y-108855551D01*
X138500936Y-108823001D01*
X138491953Y-108789474D01*
X138477166Y-108754298D01*
X138472383Y-108716438D01*
X138463401Y-108682915D01*
X138463401Y-108645337D01*
X138458252Y-108604578D01*
X138463401Y-108569710D01*
X138463401Y-108537885D01*
X138473871Y-108498810D01*
X138480298Y-108455287D01*
X138493444Y-108425760D01*
X138500936Y-108397799D01*
X138522596Y-108360283D01*
X138541678Y-108317424D01*
X138560424Y-108294764D01*
X138573451Y-108272201D01*
X138606098Y-108239554D01*
X138637872Y-108201146D01*
X138659624Y-108186028D01*
X138676001Y-108169651D01*
X138718451Y-108145142D01*
X138761791Y-108115020D01*
X138784047Y-108107270D01*
X138801599Y-108097136D01*
X138851685Y-108083716D01*
X138904307Y-108065391D01*
X138924915Y-108064094D01*
X138941685Y-108059601D01*
X138996334Y-108059601D01*
X139054919Y-108055915D01*
X139072260Y-108059601D01*
G37*
G36*
X137802260Y-108059601D02*
G01*
X137816715Y-108059601D01*
X137872189Y-108074465D01*
X137932531Y-108087291D01*
X137945645Y-108094147D01*
X137956801Y-108097136D01*
X138008899Y-108127215D01*
X138066268Y-108157207D01*
X138074923Y-108165335D01*
X138082399Y-108169651D01*
X138126778Y-108214030D01*
X138176276Y-108260512D01*
X138180907Y-108268159D01*
X138184949Y-108272201D01*
X138217513Y-108328603D01*
X138254451Y-108389595D01*
X138256065Y-108395376D01*
X138257464Y-108397799D01*
X138274644Y-108461917D01*
X138295034Y-108534945D01*
X138294999Y-108538287D01*
X138294999Y-108682915D01*
X138293423Y-108688798D01*
X138293333Y-108697374D01*
X138273711Y-108762365D01*
X138257464Y-108823001D01*
X138253145Y-108830481D01*
X138249715Y-108841843D01*
X138215029Y-108896499D01*
X138184949Y-108948599D01*
X138176784Y-108956764D01*
X138168854Y-108969260D01*
X138123007Y-109010541D01*
X138082399Y-109051149D01*
X138069880Y-109058377D01*
X138056706Y-109070239D01*
X138004138Y-109096334D01*
X137956801Y-109123664D01*
X137940026Y-109128159D01*
X137921534Y-109137338D01*
X137866798Y-109147780D01*
X137816715Y-109161199D01*
X137796452Y-109161199D01*
X137773298Y-109165616D01*
X137720698Y-109161199D01*
X137671685Y-109161199D01*
X137649313Y-109155205D01*
X137622917Y-109152988D01*
X137576204Y-109135616D01*
X137531599Y-109123664D01*
X137509031Y-109110634D01*
X137481472Y-109100385D01*
X137443517Y-109072809D01*
X137406001Y-109051149D01*
X137385534Y-109030682D01*
X137359384Y-109011683D01*
X137332056Y-108977204D01*
X137303451Y-108948599D01*
X137287537Y-108921035D01*
X137265646Y-108893416D01*
X137249729Y-108855551D01*
X137230936Y-108823001D01*
X137221953Y-108789474D01*
X137207166Y-108754298D01*
X137202383Y-108716438D01*
X137193401Y-108682915D01*
X137193401Y-108645337D01*
X137188252Y-108604578D01*
X137193401Y-108569710D01*
X137193401Y-108537885D01*
X137203871Y-108498810D01*
X137210298Y-108455287D01*
X137223444Y-108425760D01*
X137230936Y-108397799D01*
X137252596Y-108360283D01*
X137271678Y-108317424D01*
X137290424Y-108294764D01*
X137303451Y-108272201D01*
X137336098Y-108239554D01*
X137367872Y-108201146D01*
X137389624Y-108186028D01*
X137406001Y-108169651D01*
X137448451Y-108145142D01*
X137491791Y-108115020D01*
X137514047Y-108107270D01*
X137531599Y-108097136D01*
X137581685Y-108083716D01*
X137634307Y-108065391D01*
X137654915Y-108064094D01*
X137671685Y-108059601D01*
X137726334Y-108059601D01*
X137784919Y-108055915D01*
X137802260Y-108059601D01*
G37*
G36*
X137802260Y-106789601D02*
G01*
X137816715Y-106789601D01*
X137872189Y-106804465D01*
X137932531Y-106817291D01*
X137945645Y-106824147D01*
X137956801Y-106827136D01*
X138008899Y-106857215D01*
X138066268Y-106887207D01*
X138074923Y-106895335D01*
X138082399Y-106899651D01*
X138126778Y-106944030D01*
X138176276Y-106990512D01*
X138180907Y-106998159D01*
X138184949Y-107002201D01*
X138217513Y-107058603D01*
X138254451Y-107119595D01*
X138256065Y-107125376D01*
X138257464Y-107127799D01*
X138274644Y-107191917D01*
X138295034Y-107264945D01*
X138294999Y-107268287D01*
X138294999Y-107412915D01*
X138293423Y-107418798D01*
X138293333Y-107427374D01*
X138273711Y-107492365D01*
X138257464Y-107553001D01*
X138253145Y-107560481D01*
X138249715Y-107571843D01*
X138215029Y-107626499D01*
X138184949Y-107678599D01*
X138176784Y-107686764D01*
X138168854Y-107699260D01*
X138123007Y-107740541D01*
X138082399Y-107781149D01*
X138069880Y-107788377D01*
X138056706Y-107800239D01*
X138004138Y-107826334D01*
X137956801Y-107853664D01*
X137940026Y-107858159D01*
X137921534Y-107867338D01*
X137866798Y-107877780D01*
X137816715Y-107891199D01*
X137796452Y-107891199D01*
X137773298Y-107895616D01*
X137720698Y-107891199D01*
X137671685Y-107891199D01*
X137649313Y-107885205D01*
X137622917Y-107882988D01*
X137576204Y-107865616D01*
X137531599Y-107853664D01*
X137509031Y-107840634D01*
X137481472Y-107830385D01*
X137443517Y-107802809D01*
X137406001Y-107781149D01*
X137385534Y-107760682D01*
X137359384Y-107741683D01*
X137332056Y-107707204D01*
X137303451Y-107678599D01*
X137287537Y-107651035D01*
X137265646Y-107623416D01*
X137249729Y-107585551D01*
X137230936Y-107553001D01*
X137221953Y-107519474D01*
X137207166Y-107484298D01*
X137202383Y-107446438D01*
X137193401Y-107412915D01*
X137193401Y-107375337D01*
X137188252Y-107334578D01*
X137193401Y-107299710D01*
X137193401Y-107267885D01*
X137203871Y-107228810D01*
X137210298Y-107185287D01*
X137223444Y-107155760D01*
X137230936Y-107127799D01*
X137252596Y-107090283D01*
X137271678Y-107047424D01*
X137290424Y-107024764D01*
X137303451Y-107002201D01*
X137336098Y-106969554D01*
X137367872Y-106931146D01*
X137389624Y-106916028D01*
X137406001Y-106899651D01*
X137448451Y-106875142D01*
X137491791Y-106845020D01*
X137514047Y-106837270D01*
X137531599Y-106827136D01*
X137581685Y-106813716D01*
X137634307Y-106795391D01*
X137654915Y-106794094D01*
X137671685Y-106789601D01*
X137726334Y-106789601D01*
X137784919Y-106785915D01*
X137802260Y-106789601D01*
G37*
G36*
X139072260Y-106789601D02*
G01*
X139086715Y-106789601D01*
X139142189Y-106804465D01*
X139202531Y-106817291D01*
X139215645Y-106824147D01*
X139226801Y-106827136D01*
X139278899Y-106857215D01*
X139336268Y-106887207D01*
X139344923Y-106895335D01*
X139352399Y-106899651D01*
X139396778Y-106944030D01*
X139446276Y-106990512D01*
X139450907Y-106998159D01*
X139454949Y-107002201D01*
X139487513Y-107058603D01*
X139524451Y-107119595D01*
X139526065Y-107125376D01*
X139527464Y-107127799D01*
X139544644Y-107191917D01*
X139565034Y-107264945D01*
X139564999Y-107268287D01*
X139564999Y-107412915D01*
X139563423Y-107418798D01*
X139563333Y-107427374D01*
X139543711Y-107492365D01*
X139527464Y-107553001D01*
X139523145Y-107560481D01*
X139519715Y-107571843D01*
X139485029Y-107626499D01*
X139454949Y-107678599D01*
X139446784Y-107686764D01*
X139438854Y-107699260D01*
X139393007Y-107740541D01*
X139352399Y-107781149D01*
X139339880Y-107788377D01*
X139326706Y-107800239D01*
X139274138Y-107826334D01*
X139226801Y-107853664D01*
X139210026Y-107858159D01*
X139191534Y-107867338D01*
X139136798Y-107877780D01*
X139086715Y-107891199D01*
X139066452Y-107891199D01*
X139043298Y-107895616D01*
X138990698Y-107891199D01*
X138941685Y-107891199D01*
X138919313Y-107885205D01*
X138892917Y-107882988D01*
X138846204Y-107865616D01*
X138801599Y-107853664D01*
X138779031Y-107840634D01*
X138751472Y-107830385D01*
X138713517Y-107802809D01*
X138676001Y-107781149D01*
X138655534Y-107760682D01*
X138629384Y-107741683D01*
X138602056Y-107707204D01*
X138573451Y-107678599D01*
X138557537Y-107651035D01*
X138535646Y-107623416D01*
X138519729Y-107585551D01*
X138500936Y-107553001D01*
X138491953Y-107519474D01*
X138477166Y-107484298D01*
X138472383Y-107446438D01*
X138463401Y-107412915D01*
X138463401Y-107375337D01*
X138458252Y-107334578D01*
X138463401Y-107299710D01*
X138463401Y-107267885D01*
X138473871Y-107228810D01*
X138480298Y-107185287D01*
X138493444Y-107155760D01*
X138500936Y-107127799D01*
X138522596Y-107090283D01*
X138541678Y-107047424D01*
X138560424Y-107024764D01*
X138573451Y-107002201D01*
X138606098Y-106969554D01*
X138637872Y-106931146D01*
X138659624Y-106916028D01*
X138676001Y-106899651D01*
X138718451Y-106875142D01*
X138761791Y-106845020D01*
X138784047Y-106837270D01*
X138801599Y-106827136D01*
X138851685Y-106813716D01*
X138904307Y-106795391D01*
X138924915Y-106794094D01*
X138941685Y-106789601D01*
X138996334Y-106789601D01*
X139054919Y-106785915D01*
X139072260Y-106789601D01*
G37*
G36*
X164693358Y-106056283D02*
G01*
X164715586Y-106055196D01*
X164784458Y-106065858D01*
X164856518Y-106073432D01*
X164877575Y-106080274D01*
X164896438Y-106083194D01*
X164964742Y-106108596D01*
X165036606Y-106131946D01*
X165053038Y-106141433D01*
X165067956Y-106146981D01*
X165132453Y-106187283D01*
X165200593Y-106226624D01*
X165212345Y-106237205D01*
X165223156Y-106243961D01*
X165280579Y-106298644D01*
X165341312Y-106353328D01*
X165348741Y-106363553D01*
X165355678Y-106370159D01*
X165402809Y-106437972D01*
X165452612Y-106506520D01*
X165456463Y-106515171D01*
X165460121Y-106520433D01*
X165493994Y-106599464D01*
X165529630Y-106679504D01*
X165530940Y-106685666D01*
X165532211Y-106688632D01*
X165550274Y-106776629D01*
X165568999Y-106864722D01*
X165568999Y-107054078D01*
X165568330Y-107057225D01*
X165568330Y-107057278D01*
X165530302Y-107236190D01*
X165530279Y-107236243D01*
X165529630Y-107239296D01*
X165493051Y-107321454D01*
X165457037Y-107403885D01*
X165455174Y-107406526D01*
X165452612Y-107412280D01*
X165401104Y-107483176D01*
X165351548Y-107553425D01*
X165346879Y-107557809D01*
X165341312Y-107565472D01*
X165278334Y-107622178D01*
X165218145Y-107678699D01*
X165209986Y-107683718D01*
X165200593Y-107692176D01*
X165129827Y-107733033D01*
X165062277Y-107774590D01*
X165050293Y-107778952D01*
X165036606Y-107786854D01*
X164961823Y-107811153D01*
X164890313Y-107837180D01*
X164874558Y-107839507D01*
X164856518Y-107845368D01*
X164781399Y-107853263D01*
X164709274Y-107863914D01*
X164690207Y-107862848D01*
X164668200Y-107865161D01*
X164596176Y-107857591D01*
X164526561Y-107853699D01*
X164505037Y-107848012D01*
X164479882Y-107845368D01*
X164413944Y-107823943D01*
X164349628Y-107806950D01*
X164326862Y-107795649D01*
X164299794Y-107786854D01*
X164242454Y-107753749D01*
X164185708Y-107725580D01*
X164163183Y-107707982D01*
X164135807Y-107692176D01*
X164088939Y-107649976D01*
X164041502Y-107612914D01*
X164020924Y-107588735D01*
X163995088Y-107565472D01*
X163959860Y-107516984D01*
X163922897Y-107473553D01*
X163906078Y-107442960D01*
X163883788Y-107412280D01*
X163860686Y-107360391D01*
X163834734Y-107313186D01*
X163823477Y-107276819D01*
X163806770Y-107239296D01*
X163795614Y-107186809D01*
X163780618Y-107138366D01*
X163776594Y-107097329D01*
X163767401Y-107054078D01*
X163767401Y-107003569D01*
X163762760Y-106956237D01*
X163767401Y-106912082D01*
X163767401Y-106864722D01*
X163777248Y-106818395D01*
X163781889Y-106774240D01*
X163796268Y-106728911D01*
X163806770Y-106679504D01*
X163824756Y-106639108D01*
X163837222Y-106599809D01*
X163861962Y-106555542D01*
X163883788Y-106506520D01*
X163907930Y-106473291D01*
X163926504Y-106440057D01*
X163961705Y-106399276D01*
X163995088Y-106353328D01*
X164023266Y-106327956D01*
X164046080Y-106301526D01*
X164091271Y-106266725D01*
X164135807Y-106226624D01*
X164165915Y-106209241D01*
X164191073Y-106189867D01*
X164245185Y-106163475D01*
X164299794Y-106131946D01*
X164329851Y-106122180D01*
X164355551Y-106109645D01*
X164416936Y-106093885D01*
X164479882Y-106073432D01*
X164508178Y-106070458D01*
X164532801Y-106064136D01*
X164599249Y-106060886D01*
X164668200Y-106053639D01*
X164693358Y-106056283D01*
G37*
G36*
X139072260Y-105519601D02*
G01*
X139086715Y-105519601D01*
X139142189Y-105534465D01*
X139202531Y-105547291D01*
X139215645Y-105554147D01*
X139226801Y-105557136D01*
X139278899Y-105587215D01*
X139336268Y-105617207D01*
X139344923Y-105625335D01*
X139352399Y-105629651D01*
X139396778Y-105674030D01*
X139446276Y-105720512D01*
X139450907Y-105728159D01*
X139454949Y-105732201D01*
X139487513Y-105788603D01*
X139524451Y-105849595D01*
X139526065Y-105855376D01*
X139527464Y-105857799D01*
X139544644Y-105921917D01*
X139565034Y-105994945D01*
X139564999Y-105998287D01*
X139564999Y-106142915D01*
X139563423Y-106148798D01*
X139563333Y-106157374D01*
X139543711Y-106222365D01*
X139527464Y-106283001D01*
X139523145Y-106290481D01*
X139519715Y-106301843D01*
X139485029Y-106356499D01*
X139454949Y-106408599D01*
X139446784Y-106416764D01*
X139438854Y-106429260D01*
X139393007Y-106470541D01*
X139352399Y-106511149D01*
X139339880Y-106518377D01*
X139326706Y-106530239D01*
X139274138Y-106556334D01*
X139226801Y-106583664D01*
X139210026Y-106588159D01*
X139191534Y-106597338D01*
X139136798Y-106607780D01*
X139086715Y-106621199D01*
X139066452Y-106621199D01*
X139043298Y-106625616D01*
X138990698Y-106621199D01*
X138941685Y-106621199D01*
X138919313Y-106615205D01*
X138892917Y-106612988D01*
X138846204Y-106595616D01*
X138801599Y-106583664D01*
X138779031Y-106570634D01*
X138751472Y-106560385D01*
X138713517Y-106532809D01*
X138676001Y-106511149D01*
X138655534Y-106490682D01*
X138629384Y-106471683D01*
X138602056Y-106437204D01*
X138573451Y-106408599D01*
X138557537Y-106381035D01*
X138535646Y-106353416D01*
X138519729Y-106315551D01*
X138500936Y-106283001D01*
X138491953Y-106249474D01*
X138477166Y-106214298D01*
X138472383Y-106176438D01*
X138463401Y-106142915D01*
X138463401Y-106105337D01*
X138458252Y-106064578D01*
X138463401Y-106029710D01*
X138463401Y-105997885D01*
X138473871Y-105958810D01*
X138480298Y-105915287D01*
X138493444Y-105885760D01*
X138500936Y-105857799D01*
X138522596Y-105820283D01*
X138541678Y-105777424D01*
X138560424Y-105754764D01*
X138573451Y-105732201D01*
X138606098Y-105699554D01*
X138637872Y-105661146D01*
X138659624Y-105646028D01*
X138676001Y-105629651D01*
X138718451Y-105605142D01*
X138761791Y-105575020D01*
X138784047Y-105567270D01*
X138801599Y-105557136D01*
X138851685Y-105543716D01*
X138904307Y-105525391D01*
X138924915Y-105524094D01*
X138941685Y-105519601D01*
X138996334Y-105519601D01*
X139054919Y-105515915D01*
X139072260Y-105519601D01*
G37*
G36*
X138264022Y-105522548D02*
G01*
X138280825Y-105533775D01*
X138292052Y-105550578D01*
X138296985Y-105575375D01*
X138296985Y-106565425D01*
X138292052Y-106590222D01*
X138280825Y-106607025D01*
X138264022Y-106618252D01*
X138239225Y-106623185D01*
X137249175Y-106623185D01*
X137224378Y-106618252D01*
X137207575Y-106607025D01*
X137196348Y-106590222D01*
X137191415Y-106565425D01*
X137191415Y-105575375D01*
X137196348Y-105550578D01*
X137207575Y-105533775D01*
X137224378Y-105522548D01*
X137249175Y-105517615D01*
X138239225Y-105517615D01*
X138264022Y-105522548D01*
G37*
G36*
X164693358Y-103516283D02*
G01*
X164715586Y-103515196D01*
X164784458Y-103525858D01*
X164856518Y-103533432D01*
X164877575Y-103540274D01*
X164896438Y-103543194D01*
X164964742Y-103568596D01*
X165036606Y-103591946D01*
X165053038Y-103601433D01*
X165067956Y-103606981D01*
X165132453Y-103647283D01*
X165200593Y-103686624D01*
X165212345Y-103697205D01*
X165223156Y-103703961D01*
X165280579Y-103758644D01*
X165341312Y-103813328D01*
X165348741Y-103823553D01*
X165355678Y-103830159D01*
X165402809Y-103897972D01*
X165452612Y-103966520D01*
X165456463Y-103975171D01*
X165460121Y-103980433D01*
X165493994Y-104059464D01*
X165529630Y-104139504D01*
X165530940Y-104145666D01*
X165532211Y-104148632D01*
X165550274Y-104236629D01*
X165568999Y-104324722D01*
X165568999Y-104514078D01*
X165568330Y-104517225D01*
X165568330Y-104517278D01*
X165530302Y-104696190D01*
X165530279Y-104696243D01*
X165529630Y-104699296D01*
X165493051Y-104781454D01*
X165457037Y-104863885D01*
X165455174Y-104866526D01*
X165452612Y-104872280D01*
X165401104Y-104943176D01*
X165351548Y-105013425D01*
X165346879Y-105017809D01*
X165341312Y-105025472D01*
X165278334Y-105082178D01*
X165218145Y-105138699D01*
X165209986Y-105143718D01*
X165200593Y-105152176D01*
X165129827Y-105193033D01*
X165062277Y-105234590D01*
X165050293Y-105238952D01*
X165036606Y-105246854D01*
X164961823Y-105271153D01*
X164890313Y-105297180D01*
X164874558Y-105299507D01*
X164856518Y-105305368D01*
X164781399Y-105313263D01*
X164709274Y-105323914D01*
X164690207Y-105322848D01*
X164668200Y-105325161D01*
X164596176Y-105317591D01*
X164526561Y-105313699D01*
X164505037Y-105308012D01*
X164479882Y-105305368D01*
X164413944Y-105283943D01*
X164349628Y-105266950D01*
X164326862Y-105255649D01*
X164299794Y-105246854D01*
X164242454Y-105213749D01*
X164185708Y-105185580D01*
X164163183Y-105167982D01*
X164135807Y-105152176D01*
X164088939Y-105109976D01*
X164041502Y-105072914D01*
X164020924Y-105048735D01*
X163995088Y-105025472D01*
X163959860Y-104976984D01*
X163922897Y-104933553D01*
X163906078Y-104902960D01*
X163883788Y-104872280D01*
X163860686Y-104820391D01*
X163834734Y-104773186D01*
X163823477Y-104736819D01*
X163806770Y-104699296D01*
X163795614Y-104646809D01*
X163780618Y-104598366D01*
X163776594Y-104557329D01*
X163767401Y-104514078D01*
X163767401Y-104463569D01*
X163762760Y-104416237D01*
X163767401Y-104372082D01*
X163767401Y-104324722D01*
X163777248Y-104278395D01*
X163781889Y-104234240D01*
X163796268Y-104188911D01*
X163806770Y-104139504D01*
X163824756Y-104099108D01*
X163837222Y-104059809D01*
X163861962Y-104015542D01*
X163883788Y-103966520D01*
X163907930Y-103933291D01*
X163926504Y-103900057D01*
X163961705Y-103859276D01*
X163995088Y-103813328D01*
X164023266Y-103787956D01*
X164046080Y-103761526D01*
X164091271Y-103726725D01*
X164135807Y-103686624D01*
X164165915Y-103669241D01*
X164191073Y-103649867D01*
X164245185Y-103623475D01*
X164299794Y-103591946D01*
X164329851Y-103582180D01*
X164355551Y-103569645D01*
X164416936Y-103553885D01*
X164479882Y-103533432D01*
X164508178Y-103530458D01*
X164532801Y-103524136D01*
X164599249Y-103520886D01*
X164668200Y-103513639D01*
X164693358Y-103516283D01*
G37*
G36*
X164693358Y-100976283D02*
G01*
X164715586Y-100975196D01*
X164784458Y-100985858D01*
X164856518Y-100993432D01*
X164877575Y-101000274D01*
X164896438Y-101003194D01*
X164964742Y-101028596D01*
X165036606Y-101051946D01*
X165053038Y-101061433D01*
X165067956Y-101066981D01*
X165132453Y-101107283D01*
X165200593Y-101146624D01*
X165212345Y-101157205D01*
X165223156Y-101163961D01*
X165280579Y-101218644D01*
X165341312Y-101273328D01*
X165348741Y-101283553D01*
X165355678Y-101290159D01*
X165402809Y-101357972D01*
X165452612Y-101426520D01*
X165456463Y-101435171D01*
X165460121Y-101440433D01*
X165493994Y-101519464D01*
X165529630Y-101599504D01*
X165530940Y-101605666D01*
X165532211Y-101608632D01*
X165550274Y-101696629D01*
X165568999Y-101784722D01*
X165568999Y-101974078D01*
X165568330Y-101977225D01*
X165568330Y-101977278D01*
X165530302Y-102156190D01*
X165530279Y-102156243D01*
X165529630Y-102159296D01*
X165493051Y-102241454D01*
X165457037Y-102323885D01*
X165455174Y-102326526D01*
X165452612Y-102332280D01*
X165401104Y-102403176D01*
X165351548Y-102473425D01*
X165346879Y-102477809D01*
X165341312Y-102485472D01*
X165278334Y-102542178D01*
X165218145Y-102598699D01*
X165209986Y-102603718D01*
X165200593Y-102612176D01*
X165129827Y-102653033D01*
X165062277Y-102694590D01*
X165050293Y-102698952D01*
X165036606Y-102706854D01*
X164961823Y-102731153D01*
X164890313Y-102757180D01*
X164874558Y-102759507D01*
X164856518Y-102765368D01*
X164781399Y-102773263D01*
X164709274Y-102783914D01*
X164690207Y-102782848D01*
X164668200Y-102785161D01*
X164596176Y-102777591D01*
X164526561Y-102773699D01*
X164505037Y-102768012D01*
X164479882Y-102765368D01*
X164413944Y-102743943D01*
X164349628Y-102726950D01*
X164326862Y-102715649D01*
X164299794Y-102706854D01*
X164242454Y-102673749D01*
X164185708Y-102645580D01*
X164163183Y-102627982D01*
X164135807Y-102612176D01*
X164088939Y-102569976D01*
X164041502Y-102532914D01*
X164020924Y-102508735D01*
X163995088Y-102485472D01*
X163959860Y-102436984D01*
X163922897Y-102393553D01*
X163906078Y-102362960D01*
X163883788Y-102332280D01*
X163860686Y-102280391D01*
X163834734Y-102233186D01*
X163823477Y-102196819D01*
X163806770Y-102159296D01*
X163795614Y-102106809D01*
X163780618Y-102058366D01*
X163776594Y-102017329D01*
X163767401Y-101974078D01*
X163767401Y-101923569D01*
X163762760Y-101876237D01*
X163767401Y-101832082D01*
X163767401Y-101784722D01*
X163777248Y-101738395D01*
X163781889Y-101694240D01*
X163796268Y-101648911D01*
X163806770Y-101599504D01*
X163824756Y-101559108D01*
X163837222Y-101519809D01*
X163861962Y-101475542D01*
X163883788Y-101426520D01*
X163907930Y-101393291D01*
X163926504Y-101360057D01*
X163961705Y-101319276D01*
X163995088Y-101273328D01*
X164023266Y-101247956D01*
X164046080Y-101221526D01*
X164091271Y-101186725D01*
X164135807Y-101146624D01*
X164165915Y-101129241D01*
X164191073Y-101109867D01*
X164245185Y-101083475D01*
X164299794Y-101051946D01*
X164329851Y-101042180D01*
X164355551Y-101029645D01*
X164416936Y-101013885D01*
X164479882Y-100993432D01*
X164508178Y-100990458D01*
X164532801Y-100984136D01*
X164599249Y-100980886D01*
X164668200Y-100973639D01*
X164693358Y-100976283D01*
G37*
G36*
X165538022Y-98441548D02*
G01*
X165554825Y-98452775D01*
X165566052Y-98469578D01*
X165570985Y-98494375D01*
X165570985Y-100184425D01*
X165566052Y-100209222D01*
X165554825Y-100226025D01*
X165538022Y-100237252D01*
X165513225Y-100242185D01*
X163823175Y-100242185D01*
X163798378Y-100237252D01*
X163781575Y-100226025D01*
X163770348Y-100209222D01*
X163765415Y-100184425D01*
X163765415Y-98494375D01*
X163770348Y-98469578D01*
X163781575Y-98452775D01*
X163798378Y-98441548D01*
X163823175Y-98436615D01*
X165513225Y-98436615D01*
X165538022Y-98441548D01*
G37*
G36*
X143335731Y-95697932D02*
G01*
X143417170Y-95698500D01*
X143439593Y-95703103D01*
X143459180Y-95704078D01*
X143536439Y-95722983D01*
X143619033Y-95739937D01*
X143637567Y-95747728D01*
X143653947Y-95751736D01*
X143728616Y-95786001D01*
X143809004Y-95819793D01*
X143823371Y-95829484D01*
X143836185Y-95835364D01*
X143905076Y-95884594D01*
X143979846Y-95935027D01*
X143990101Y-95945354D01*
X143999323Y-95951944D01*
X144059356Y-96015094D01*
X144125051Y-96081250D01*
X144131562Y-96091050D01*
X144137474Y-96097269D01*
X144185690Y-96172519D01*
X144239090Y-96252892D01*
X144242518Y-96261209D01*
X144245648Y-96266094D01*
X144279377Y-96350636D01*
X144317618Y-96443416D01*
X144318825Y-96449514D01*
X144319951Y-96452335D01*
X144337085Y-96541729D01*
X144357645Y-96645564D01*
X144357600Y-96648767D01*
X144357682Y-96649193D01*
X144356962Y-96855338D01*
X144354546Y-96867485D01*
X144354358Y-96880937D01*
X144334373Y-96968901D01*
X144317857Y-97051934D01*
X144312542Y-97064989D01*
X144308703Y-97081889D01*
X144273231Y-97161560D01*
X144242259Y-97237645D01*
X144233064Y-97251777D01*
X144224886Y-97270145D01*
X144176296Y-97339026D01*
X144132906Y-97405713D01*
X144119288Y-97419840D01*
X144106099Y-97438536D01*
X144047131Y-97494691D01*
X143993741Y-97550074D01*
X143975444Y-97562957D01*
X143956867Y-97580648D01*
X143890530Y-97622747D01*
X143829798Y-97665509D01*
X143806877Y-97675834D01*
X143782874Y-97691067D01*
X143712255Y-97718458D01*
X143646975Y-97747865D01*
X143619836Y-97754305D01*
X143590748Y-97765588D01*
X143518937Y-97778250D01*
X143451887Y-97794162D01*
X143421266Y-97795472D01*
X143387806Y-97801372D01*
X143317695Y-97799903D01*
X143251555Y-97802733D01*
X143218524Y-97797826D01*
X143181779Y-97797056D01*
X143116011Y-97782596D01*
X143053217Y-97773267D01*
X143019121Y-97761293D01*
X142980514Y-97752805D01*
X142921370Y-97726966D01*
X142864038Y-97706832D01*
X142830444Y-97687241D01*
X142791677Y-97670304D01*
X142740974Y-97635064D01*
X142690825Y-97605819D01*
X142659471Y-97578418D01*
X142622461Y-97552696D01*
X142581499Y-97510278D01*
X142539845Y-97473877D01*
X142512556Y-97438886D01*
X142479311Y-97404460D01*
X142448873Y-97357230D01*
X142416532Y-97315761D01*
X142395105Y-97273798D01*
X142367679Y-97231242D01*
X142348019Y-97181586D01*
X142325346Y-97137184D01*
X142311479Y-97089296D01*
X142291819Y-97039641D01*
X142282679Y-96989843D01*
X142269574Y-96944586D01*
X142264762Y-96892220D01*
X142254619Y-96836954D01*
X142255287Y-96789104D01*
X142251227Y-96744918D01*
X142256673Y-96689874D01*
X142257496Y-96630902D01*
X142266870Y-96586803D01*
X142270968Y-96545376D01*
X142287501Y-96489740D01*
X142300341Y-96429332D01*
X142317006Y-96390449D01*
X142328084Y-96353171D01*
X142356099Y-96299240D01*
X142381522Y-96239924D01*
X142403852Y-96207312D01*
X142420513Y-96175238D01*
X142459906Y-96125447D01*
X142497946Y-96069891D01*
X142524204Y-96044177D01*
X142544925Y-96017987D01*
X142595080Y-95974770D01*
X142645179Y-95925710D01*
X142673606Y-95907108D01*
X142696826Y-95887100D01*
X142756598Y-95852799D01*
X142817613Y-95812872D01*
X142846541Y-95801184D01*
X142870734Y-95787301D01*
X142938454Y-95764049D01*
X143008680Y-95735676D01*
X143036602Y-95730350D01*
X143060381Y-95722185D01*
X143133938Y-95711782D01*
X143211103Y-95697062D01*
X143236753Y-95697241D01*
X143258912Y-95694107D01*
X143335731Y-95697932D01*
G37*
G36*
X150777931Y-93513532D02*
G01*
X150859370Y-93514100D01*
X150881793Y-93518703D01*
X150901380Y-93519678D01*
X150978639Y-93538583D01*
X151061233Y-93555537D01*
X151079767Y-93563328D01*
X151096147Y-93567336D01*
X151170816Y-93601601D01*
X151251204Y-93635393D01*
X151265571Y-93645084D01*
X151278385Y-93650964D01*
X151347276Y-93700194D01*
X151422046Y-93750627D01*
X151432301Y-93760954D01*
X151441523Y-93767544D01*
X151501556Y-93830694D01*
X151567251Y-93896850D01*
X151573762Y-93906650D01*
X151579674Y-93912869D01*
X151627890Y-93988119D01*
X151681290Y-94068492D01*
X151684718Y-94076809D01*
X151687848Y-94081694D01*
X151721577Y-94166236D01*
X151759818Y-94259016D01*
X151761025Y-94265114D01*
X151762151Y-94267935D01*
X151779285Y-94357329D01*
X151799845Y-94461164D01*
X151799800Y-94464367D01*
X151799882Y-94464793D01*
X151799162Y-94670938D01*
X151796746Y-94683085D01*
X151796558Y-94696537D01*
X151776573Y-94784501D01*
X151760057Y-94867534D01*
X151754742Y-94880589D01*
X151750903Y-94897489D01*
X151715431Y-94977160D01*
X151684459Y-95053245D01*
X151675264Y-95067377D01*
X151667086Y-95085745D01*
X151618496Y-95154626D01*
X151575106Y-95221313D01*
X151561488Y-95235440D01*
X151548299Y-95254136D01*
X151489331Y-95310291D01*
X151435941Y-95365674D01*
X151417644Y-95378557D01*
X151399067Y-95396248D01*
X151332730Y-95438347D01*
X151271998Y-95481109D01*
X151249077Y-95491434D01*
X151225074Y-95506667D01*
X151154455Y-95534058D01*
X151089175Y-95563465D01*
X151062036Y-95569905D01*
X151032948Y-95581188D01*
X150961137Y-95593850D01*
X150894087Y-95609762D01*
X150863466Y-95611072D01*
X150830006Y-95616972D01*
X150759895Y-95615503D01*
X150693755Y-95618333D01*
X150660724Y-95613426D01*
X150623979Y-95612656D01*
X150558211Y-95598196D01*
X150495417Y-95588867D01*
X150461321Y-95576893D01*
X150422714Y-95568405D01*
X150363570Y-95542566D01*
X150306238Y-95522432D01*
X150272644Y-95502841D01*
X150233877Y-95485904D01*
X150183174Y-95450664D01*
X150133025Y-95421419D01*
X150101671Y-95394018D01*
X150064661Y-95368296D01*
X150023699Y-95325878D01*
X149982045Y-95289477D01*
X149954756Y-95254486D01*
X149921511Y-95220060D01*
X149891073Y-95172830D01*
X149858732Y-95131361D01*
X149837305Y-95089398D01*
X149809879Y-95046842D01*
X149790219Y-94997186D01*
X149767546Y-94952784D01*
X149753679Y-94904896D01*
X149734019Y-94855241D01*
X149724879Y-94805443D01*
X149711774Y-94760186D01*
X149706962Y-94707820D01*
X149696819Y-94652554D01*
X149697487Y-94604704D01*
X149693427Y-94560518D01*
X149698873Y-94505474D01*
X149699696Y-94446502D01*
X149709070Y-94402403D01*
X149713168Y-94360976D01*
X149729701Y-94305340D01*
X149742541Y-94244932D01*
X149759206Y-94206049D01*
X149770284Y-94168771D01*
X149798299Y-94114840D01*
X149823722Y-94055524D01*
X149846052Y-94022912D01*
X149862713Y-93990838D01*
X149902106Y-93941047D01*
X149940146Y-93885491D01*
X149966404Y-93859777D01*
X149987125Y-93833587D01*
X150037280Y-93790370D01*
X150087379Y-93741310D01*
X150115806Y-93722708D01*
X150139026Y-93702700D01*
X150198798Y-93668399D01*
X150259813Y-93628472D01*
X150288741Y-93616784D01*
X150312934Y-93602901D01*
X150380654Y-93579649D01*
X150450880Y-93551276D01*
X150478802Y-93545950D01*
X150502581Y-93537785D01*
X150576138Y-93527382D01*
X150653303Y-93512662D01*
X150678953Y-93512841D01*
X150701112Y-93509707D01*
X150777931Y-93513532D01*
G37*
G36*
X160861731Y-93462732D02*
G01*
X160943170Y-93463300D01*
X160965593Y-93467903D01*
X160985180Y-93468878D01*
X161062439Y-93487783D01*
X161145033Y-93504737D01*
X161163567Y-93512528D01*
X161179947Y-93516536D01*
X161254616Y-93550801D01*
X161335004Y-93584593D01*
X161349371Y-93594284D01*
X161362185Y-93600164D01*
X161431076Y-93649394D01*
X161505846Y-93699827D01*
X161516101Y-93710154D01*
X161525323Y-93716744D01*
X161585356Y-93779894D01*
X161651051Y-93846050D01*
X161657562Y-93855850D01*
X161663474Y-93862069D01*
X161711690Y-93937319D01*
X161765090Y-94017692D01*
X161768518Y-94026009D01*
X161771648Y-94030894D01*
X161805377Y-94115436D01*
X161843618Y-94208216D01*
X161844825Y-94214314D01*
X161845951Y-94217135D01*
X161863085Y-94306529D01*
X161883645Y-94410364D01*
X161883600Y-94413567D01*
X161883682Y-94413993D01*
X161882962Y-94620138D01*
X161880546Y-94632285D01*
X161880358Y-94645737D01*
X161860373Y-94733701D01*
X161843857Y-94816734D01*
X161838542Y-94829789D01*
X161834703Y-94846689D01*
X161799231Y-94926360D01*
X161768259Y-95002445D01*
X161759064Y-95016577D01*
X161750886Y-95034945D01*
X161702296Y-95103826D01*
X161658906Y-95170513D01*
X161645288Y-95184640D01*
X161632099Y-95203336D01*
X161573131Y-95259491D01*
X161519741Y-95314874D01*
X161501444Y-95327757D01*
X161482867Y-95345448D01*
X161416530Y-95387547D01*
X161355798Y-95430309D01*
X161332877Y-95440634D01*
X161308874Y-95455867D01*
X161238255Y-95483258D01*
X161172975Y-95512665D01*
X161145836Y-95519105D01*
X161116748Y-95530388D01*
X161044937Y-95543050D01*
X160977887Y-95558962D01*
X160947266Y-95560272D01*
X160913806Y-95566172D01*
X160843695Y-95564703D01*
X160777555Y-95567533D01*
X160744524Y-95562626D01*
X160707779Y-95561856D01*
X160642011Y-95547396D01*
X160579217Y-95538067D01*
X160545121Y-95526093D01*
X160506514Y-95517605D01*
X160447370Y-95491766D01*
X160390038Y-95471632D01*
X160356444Y-95452041D01*
X160317677Y-95435104D01*
X160266974Y-95399864D01*
X160216825Y-95370619D01*
X160185471Y-95343218D01*
X160148461Y-95317496D01*
X160107499Y-95275078D01*
X160065845Y-95238677D01*
X160038556Y-95203686D01*
X160005311Y-95169260D01*
X159974873Y-95122030D01*
X159942532Y-95080561D01*
X159921105Y-95038598D01*
X159893679Y-94996042D01*
X159874019Y-94946386D01*
X159851346Y-94901984D01*
X159837479Y-94854096D01*
X159817819Y-94804441D01*
X159808679Y-94754643D01*
X159795574Y-94709386D01*
X159790762Y-94657020D01*
X159780619Y-94601754D01*
X159781287Y-94553904D01*
X159777227Y-94509718D01*
X159782673Y-94454674D01*
X159783496Y-94395702D01*
X159792870Y-94351603D01*
X159796968Y-94310176D01*
X159813501Y-94254540D01*
X159826341Y-94194132D01*
X159843006Y-94155249D01*
X159854084Y-94117971D01*
X159882099Y-94064040D01*
X159907522Y-94004724D01*
X159929852Y-93972112D01*
X159946513Y-93940038D01*
X159985906Y-93890247D01*
X160023946Y-93834691D01*
X160050204Y-93808977D01*
X160070925Y-93782787D01*
X160121080Y-93739570D01*
X160171179Y-93690510D01*
X160199606Y-93671908D01*
X160222826Y-93651900D01*
X160282598Y-93617599D01*
X160343613Y-93577672D01*
X160372541Y-93565984D01*
X160396734Y-93552101D01*
X160464454Y-93528849D01*
X160534680Y-93500476D01*
X160562602Y-93495150D01*
X160586381Y-93486985D01*
X160659938Y-93476582D01*
X160737103Y-93461862D01*
X160762753Y-93462041D01*
X160784912Y-93458907D01*
X160861731Y-93462732D01*
G37*
G36*
X143132531Y-91100532D02*
G01*
X143213970Y-91101100D01*
X143236393Y-91105703D01*
X143255980Y-91106678D01*
X143333239Y-91125583D01*
X143415833Y-91142537D01*
X143434367Y-91150328D01*
X143450747Y-91154336D01*
X143525416Y-91188601D01*
X143605804Y-91222393D01*
X143620171Y-91232084D01*
X143632985Y-91237964D01*
X143701876Y-91287194D01*
X143776646Y-91337627D01*
X143786901Y-91347954D01*
X143796123Y-91354544D01*
X143856156Y-91417694D01*
X143921851Y-91483850D01*
X143928362Y-91493650D01*
X143934274Y-91499869D01*
X143982490Y-91575119D01*
X144035890Y-91655492D01*
X144039318Y-91663809D01*
X144042448Y-91668694D01*
X144076177Y-91753236D01*
X144114418Y-91846016D01*
X144115625Y-91852114D01*
X144116751Y-91854935D01*
X144133885Y-91944329D01*
X144154445Y-92048164D01*
X144154400Y-92051367D01*
X144154482Y-92051793D01*
X144153762Y-92257938D01*
X144151346Y-92270085D01*
X144151158Y-92283537D01*
X144131173Y-92371501D01*
X144114657Y-92454534D01*
X144109342Y-92467589D01*
X144105503Y-92484489D01*
X144070031Y-92564160D01*
X144039059Y-92640245D01*
X144029864Y-92654377D01*
X144021686Y-92672745D01*
X143973096Y-92741626D01*
X143929706Y-92808313D01*
X143916088Y-92822440D01*
X143902899Y-92841136D01*
X143843931Y-92897291D01*
X143790541Y-92952674D01*
X143772244Y-92965557D01*
X143753667Y-92983248D01*
X143687330Y-93025347D01*
X143626598Y-93068109D01*
X143603677Y-93078434D01*
X143579674Y-93093667D01*
X143509055Y-93121058D01*
X143443775Y-93150465D01*
X143416636Y-93156905D01*
X143387548Y-93168188D01*
X143315737Y-93180850D01*
X143248687Y-93196762D01*
X143218066Y-93198072D01*
X143184606Y-93203972D01*
X143114495Y-93202503D01*
X143048355Y-93205333D01*
X143015324Y-93200426D01*
X142978579Y-93199656D01*
X142912811Y-93185196D01*
X142850017Y-93175867D01*
X142815921Y-93163893D01*
X142777314Y-93155405D01*
X142718170Y-93129566D01*
X142660838Y-93109432D01*
X142627244Y-93089841D01*
X142588477Y-93072904D01*
X142537774Y-93037664D01*
X142487625Y-93008419D01*
X142456271Y-92981018D01*
X142419261Y-92955296D01*
X142378299Y-92912878D01*
X142336645Y-92876477D01*
X142309356Y-92841486D01*
X142276111Y-92807060D01*
X142245673Y-92759830D01*
X142213332Y-92718361D01*
X142191905Y-92676398D01*
X142164479Y-92633842D01*
X142144819Y-92584186D01*
X142122146Y-92539784D01*
X142108279Y-92491896D01*
X142088619Y-92442241D01*
X142079479Y-92392443D01*
X142066374Y-92347186D01*
X142061562Y-92294820D01*
X142051419Y-92239554D01*
X142052087Y-92191704D01*
X142048027Y-92147518D01*
X142053473Y-92092474D01*
X142054296Y-92033502D01*
X142063670Y-91989403D01*
X142067768Y-91947976D01*
X142084301Y-91892340D01*
X142097141Y-91831932D01*
X142113806Y-91793049D01*
X142124884Y-91755771D01*
X142152899Y-91701840D01*
X142178322Y-91642524D01*
X142200652Y-91609912D01*
X142217313Y-91577838D01*
X142256706Y-91528047D01*
X142294746Y-91472491D01*
X142321004Y-91446777D01*
X142341725Y-91420587D01*
X142391880Y-91377370D01*
X142441979Y-91328310D01*
X142470406Y-91309708D01*
X142493626Y-91289700D01*
X142553398Y-91255399D01*
X142614413Y-91215472D01*
X142643341Y-91203784D01*
X142667534Y-91189901D01*
X142735254Y-91166649D01*
X142805480Y-91138276D01*
X142833402Y-91132950D01*
X142857181Y-91124785D01*
X142930738Y-91114382D01*
X143007903Y-91099662D01*
X143033553Y-91099841D01*
X143055712Y-91096707D01*
X143132531Y-91100532D01*
G37*
G36*
X143132531Y-86731732D02*
G01*
X143213970Y-86732300D01*
X143236393Y-86736903D01*
X143255980Y-86737878D01*
X143333239Y-86756783D01*
X143415833Y-86773737D01*
X143434367Y-86781528D01*
X143450747Y-86785536D01*
X143525416Y-86819801D01*
X143605804Y-86853593D01*
X143620171Y-86863284D01*
X143632985Y-86869164D01*
X143701876Y-86918394D01*
X143776646Y-86968827D01*
X143786901Y-86979154D01*
X143796123Y-86985744D01*
X143856156Y-87048894D01*
X143921851Y-87115050D01*
X143928362Y-87124850D01*
X143934274Y-87131069D01*
X143982490Y-87206319D01*
X144035890Y-87286692D01*
X144039318Y-87295009D01*
X144042448Y-87299894D01*
X144076177Y-87384436D01*
X144114418Y-87477216D01*
X144115625Y-87483314D01*
X144116751Y-87486135D01*
X144133885Y-87575529D01*
X144154445Y-87679364D01*
X144154400Y-87682567D01*
X144154482Y-87682993D01*
X144153762Y-87889138D01*
X144151346Y-87901285D01*
X144151158Y-87914737D01*
X144131173Y-88002701D01*
X144114657Y-88085734D01*
X144109342Y-88098789D01*
X144105503Y-88115689D01*
X144070031Y-88195360D01*
X144039059Y-88271445D01*
X144029864Y-88285577D01*
X144021686Y-88303945D01*
X143973096Y-88372826D01*
X143929706Y-88439513D01*
X143916088Y-88453640D01*
X143902899Y-88472336D01*
X143843931Y-88528491D01*
X143790541Y-88583874D01*
X143772244Y-88596757D01*
X143753667Y-88614448D01*
X143687330Y-88656547D01*
X143626598Y-88699309D01*
X143603677Y-88709634D01*
X143579674Y-88724867D01*
X143509055Y-88752258D01*
X143443775Y-88781665D01*
X143416636Y-88788105D01*
X143387548Y-88799388D01*
X143315737Y-88812050D01*
X143248687Y-88827962D01*
X143218066Y-88829272D01*
X143184606Y-88835172D01*
X143114495Y-88833703D01*
X143048355Y-88836533D01*
X143015324Y-88831626D01*
X142978579Y-88830856D01*
X142912811Y-88816396D01*
X142850017Y-88807067D01*
X142815921Y-88795093D01*
X142777314Y-88786605D01*
X142718170Y-88760766D01*
X142660838Y-88740632D01*
X142627244Y-88721041D01*
X142588477Y-88704104D01*
X142537774Y-88668864D01*
X142487625Y-88639619D01*
X142456271Y-88612218D01*
X142419261Y-88586496D01*
X142378299Y-88544078D01*
X142336645Y-88507677D01*
X142309356Y-88472686D01*
X142276111Y-88438260D01*
X142245673Y-88391030D01*
X142213332Y-88349561D01*
X142191905Y-88307598D01*
X142164479Y-88265042D01*
X142144819Y-88215386D01*
X142122146Y-88170984D01*
X142108279Y-88123096D01*
X142088619Y-88073441D01*
X142079479Y-88023643D01*
X142066374Y-87978386D01*
X142061562Y-87926020D01*
X142051419Y-87870754D01*
X142052087Y-87822904D01*
X142048027Y-87778718D01*
X142053473Y-87723674D01*
X142054296Y-87664702D01*
X142063670Y-87620603D01*
X142067768Y-87579176D01*
X142084301Y-87523540D01*
X142097141Y-87463132D01*
X142113806Y-87424249D01*
X142124884Y-87386971D01*
X142152899Y-87333040D01*
X142178322Y-87273724D01*
X142200652Y-87241112D01*
X142217313Y-87209038D01*
X142256706Y-87159247D01*
X142294746Y-87103691D01*
X142321004Y-87077977D01*
X142341725Y-87051787D01*
X142391880Y-87008570D01*
X142441979Y-86959510D01*
X142470406Y-86940908D01*
X142493626Y-86920900D01*
X142553398Y-86886599D01*
X142614413Y-86846672D01*
X142643341Y-86834984D01*
X142667534Y-86821101D01*
X142735254Y-86797849D01*
X142805480Y-86769476D01*
X142833402Y-86764150D01*
X142857181Y-86755985D01*
X142930738Y-86745582D01*
X143007903Y-86730862D01*
X143033553Y-86731041D01*
X143055712Y-86727907D01*
X143132531Y-86731732D01*
G37*
G36*
X177159878Y-67088601D02*
G01*
X177244121Y-67088601D01*
X177286829Y-67095365D01*
X177327438Y-67097529D01*
X177413454Y-67115421D01*
X177500763Y-67129249D01*
X177537818Y-67141289D01*
X177573342Y-67148678D01*
X177659918Y-67180961D01*
X177747887Y-67209544D01*
X177778772Y-67225281D01*
X177808669Y-67236429D01*
X177893417Y-67283696D01*
X177979407Y-67327510D01*
X178003961Y-67345350D01*
X178028020Y-67358768D01*
X178108378Y-67421212D01*
X178189624Y-67480241D01*
X178208044Y-67498661D01*
X178226342Y-67512880D01*
X178299673Y-67590290D01*
X178373359Y-67663976D01*
X178386137Y-67681564D01*
X178399071Y-67695217D01*
X178462782Y-67787056D01*
X178526090Y-67874193D01*
X178534001Y-67889719D01*
X178542227Y-67901577D01*
X178593785Y-68007052D01*
X178644056Y-68105713D01*
X178648106Y-68118178D01*
X178652530Y-68127228D01*
X178689613Y-68245924D01*
X178724351Y-68352837D01*
X178725725Y-68361511D01*
X178727425Y-68366953D01*
X178747802Y-68500904D01*
X178764999Y-68609479D01*
X178764999Y-68613945D01*
X178765089Y-68614537D01*
X178764999Y-68617570D01*
X178764999Y-68869321D01*
X178755805Y-68927367D01*
X178754779Y-68961953D01*
X178737530Y-69042757D01*
X178724351Y-69125963D01*
X178710987Y-69167094D01*
X178702497Y-69206864D01*
X178671369Y-69289026D01*
X178644056Y-69373087D01*
X178626373Y-69407791D01*
X178613517Y-69441725D01*
X178568076Y-69522205D01*
X178526090Y-69604607D01*
X178505719Y-69632645D01*
X178490025Y-69660441D01*
X178430075Y-69736761D01*
X178373359Y-69814824D01*
X178351897Y-69836286D01*
X178334882Y-69857947D01*
X178260646Y-69927537D01*
X178189624Y-69998559D01*
X178168546Y-70013873D01*
X178151642Y-70029719D01*
X178063723Y-70090031D01*
X177979407Y-70151290D01*
X177960035Y-70161160D01*
X177944530Y-70171797D01*
X177843885Y-70220342D01*
X177747887Y-70269256D01*
X177731309Y-70274643D01*
X177718317Y-70280909D01*
X177606130Y-70315315D01*
X177500763Y-70349551D01*
X177487811Y-70351602D01*
X177478190Y-70354553D01*
X177355226Y-70372602D01*
X177244121Y-70390199D01*
X177235338Y-70390199D01*
X177229690Y-70391028D01*
X177094139Y-70390199D01*
X176984279Y-70390199D01*
X176979867Y-70389500D01*
X176978536Y-70389492D01*
X176751160Y-70353277D01*
X176727637Y-70349551D01*
X176627355Y-70316968D01*
X176491302Y-70273416D01*
X176487510Y-70271529D01*
X176480513Y-70269256D01*
X176380259Y-70218174D01*
X176266429Y-70161545D01*
X176259384Y-70156585D01*
X176248993Y-70151290D01*
X176158809Y-70085768D01*
X176061073Y-70016950D01*
X176051712Y-70007958D01*
X176038776Y-69998559D01*
X175961832Y-69921615D01*
X175879944Y-69842950D01*
X175869397Y-69829180D01*
X175855041Y-69814824D01*
X175793090Y-69729555D01*
X175727223Y-69643561D01*
X175716774Y-69624516D01*
X175702310Y-69604607D01*
X175656136Y-69513986D01*
X175606416Y-69423358D01*
X175597473Y-69398854D01*
X175584344Y-69373087D01*
X175554118Y-69280060D01*
X175520309Y-69187423D01*
X175514314Y-69157555D01*
X175504049Y-69125963D01*
X175489371Y-69033289D01*
X175470882Y-68941177D01*
X175469272Y-68906387D01*
X175463401Y-68869321D01*
X175463401Y-68779554D01*
X175459269Y-68690284D01*
X175463401Y-68651297D01*
X175463401Y-68609479D01*
X175476797Y-68524897D01*
X175485740Y-68440521D01*
X175496837Y-68398371D01*
X175504049Y-68352837D01*
X175529225Y-68275353D01*
X175549686Y-68197636D01*
X175568775Y-68153629D01*
X175584344Y-68105713D01*
X175619428Y-68036857D01*
X175649635Y-67967220D01*
X175677499Y-67922887D01*
X175702310Y-67874193D01*
X175745255Y-67815085D01*
X175783284Y-67754578D01*
X175820404Y-67711650D01*
X175855041Y-67663976D01*
X175903723Y-67615294D01*
X175947566Y-67564591D01*
X175994097Y-67524920D01*
X176038776Y-67480241D01*
X176091039Y-67442270D01*
X176138690Y-67401644D01*
X176194442Y-67367144D01*
X176248993Y-67327510D01*
X176302758Y-67300115D01*
X176352267Y-67269478D01*
X176416665Y-67242076D01*
X176480513Y-67209544D01*
X176533848Y-67192214D01*
X176583374Y-67171141D01*
X176655474Y-67152696D01*
X176727637Y-67129249D01*
X176778806Y-67121145D01*
X176826693Y-67108894D01*
X176905178Y-67101129D01*
X176984279Y-67088601D01*
X177031813Y-67088601D01*
X177076642Y-67084166D01*
X177159878Y-67088601D01*
G37*
G36*
X100576782Y-64652671D02*
G01*
X100779523Y-64712919D01*
X100967887Y-64809102D01*
X101135572Y-64938003D01*
X101276962Y-65095309D01*
X101387310Y-65275733D01*
X101462936Y-65473262D01*
X101501176Y-65680592D01*
X101501175Y-65680615D01*
X101501293Y-65681253D01*
X101493945Y-65952837D01*
X101493790Y-65953479D01*
X101493790Y-65953490D01*
X101444394Y-66158453D01*
X101358201Y-66351594D01*
X101238249Y-66525798D01*
X101088565Y-66675220D01*
X100914157Y-66794864D01*
X100720862Y-66880722D01*
X100515160Y-66929918D01*
X100303937Y-66940802D01*
X100094272Y-66913013D01*
X99893173Y-66847478D01*
X99707389Y-66746396D01*
X99543138Y-66613151D01*
X99405918Y-66452201D01*
X99300327Y-66268945D01*
X99229900Y-66069510D01*
X99196996Y-65860586D01*
X99202718Y-65649152D01*
X99246871Y-65442316D01*
X99327980Y-65246982D01*
X99443329Y-65069699D01*
X99589050Y-64916409D01*
X99760265Y-64792243D01*
X99951248Y-64701353D01*
X100155593Y-64646790D01*
X100366457Y-64630380D01*
X100576782Y-64652671D01*
G37*
G36*
X190218462Y-64398671D02*
G01*
X190421203Y-64458919D01*
X190609567Y-64555102D01*
X190777252Y-64684003D01*
X190918642Y-64841309D01*
X191028990Y-65021733D01*
X191104616Y-65219262D01*
X191142856Y-65426592D01*
X191142855Y-65426615D01*
X191142973Y-65427253D01*
X191135625Y-65698837D01*
X191135470Y-65699479D01*
X191135470Y-65699490D01*
X191086074Y-65904453D01*
X190999881Y-66097594D01*
X190879929Y-66271798D01*
X190730245Y-66421220D01*
X190555837Y-66540864D01*
X190362542Y-66626722D01*
X190156840Y-66675918D01*
X189945617Y-66686802D01*
X189735952Y-66659013D01*
X189534853Y-66593478D01*
X189349069Y-66492396D01*
X189184818Y-66359151D01*
X189047598Y-66198201D01*
X188942007Y-66014945D01*
X188871580Y-65815510D01*
X188838676Y-65606586D01*
X188844398Y-65395152D01*
X188888551Y-65188316D01*
X188969660Y-64992982D01*
X189085009Y-64815699D01*
X189230730Y-64662409D01*
X189401945Y-64538243D01*
X189592928Y-64447353D01*
X189797273Y-64392790D01*
X190008137Y-64376380D01*
X190218462Y-64398671D01*
G37*
G36*
X177173992Y-59191783D02*
G01*
X177205553Y-59191094D01*
X177304066Y-59203277D01*
X177406032Y-59212288D01*
X177436712Y-59219682D01*
X177464909Y-59223169D01*
X177563643Y-59250272D01*
X177666240Y-59274998D01*
X177692576Y-59285665D01*
X177716928Y-59292350D01*
X177813586Y-59334680D01*
X177914320Y-59375481D01*
X177936073Y-59388320D01*
X177956318Y-59397186D01*
X178048533Y-59454696D01*
X178144823Y-59511529D01*
X178161986Y-59525453D01*
X178178065Y-59535480D01*
X178263432Y-59607748D01*
X178352684Y-59680152D01*
X178365467Y-59694127D01*
X178377522Y-59704332D01*
X178453636Y-59790515D01*
X178533339Y-59877648D01*
X178542158Y-59890747D01*
X178550524Y-59900220D01*
X178615140Y-59999152D01*
X178682817Y-60099676D01*
X178688243Y-60111077D01*
X178693430Y-60119019D01*
X178744439Y-60229159D01*
X178797836Y-60341361D01*
X178800596Y-60350417D01*
X178803254Y-60356156D01*
X178838712Y-60475480D01*
X178875868Y-60597391D01*
X178876796Y-60603639D01*
X178877698Y-60606674D01*
X178896046Y-60733215D01*
X178915199Y-60862143D01*
X178905412Y-61223859D01*
X178879056Y-61352823D01*
X178853304Y-61479968D01*
X178852767Y-61481464D01*
X178851820Y-61486097D01*
X178807620Y-61607208D01*
X178764994Y-61725930D01*
X178762764Y-61730114D01*
X178760057Y-61737533D01*
X178699902Y-61848093D01*
X178642102Y-61956572D01*
X178637414Y-61962942D01*
X178632136Y-61972643D01*
X178558209Y-62070571D01*
X178487204Y-62167055D01*
X178479428Y-62174926D01*
X178470870Y-62186263D01*
X178385484Y-62270025D01*
X178303542Y-62352974D01*
X178292194Y-62361541D01*
X178279799Y-62373700D01*
X178185500Y-62442086D01*
X178094968Y-62510431D01*
X178079735Y-62518788D01*
X178063122Y-62530836D01*
X177962510Y-62583100D01*
X177865839Y-62636136D01*
X177846608Y-62643307D01*
X177825600Y-62654220D01*
X177721361Y-62690011D01*
X177620980Y-62727442D01*
X177597825Y-62732427D01*
X177572449Y-62741140D01*
X177467124Y-62760566D01*
X177365493Y-62782446D01*
X177338723Y-62784248D01*
X177309231Y-62789687D01*
X177205349Y-62793224D01*
X177104748Y-62799994D01*
X177074843Y-62797667D01*
X177041728Y-62798794D01*
X176941585Y-62787296D01*
X176844196Y-62779716D01*
X176811871Y-62772402D01*
X176775818Y-62768262D01*
X176681504Y-62742903D01*
X176589300Y-62722039D01*
X176555429Y-62709003D01*
X176517341Y-62698762D01*
X176430694Y-62660997D01*
X176345407Y-62628173D01*
X176311027Y-62608840D01*
X176271976Y-62591820D01*
X176194520Y-62543326D01*
X176117614Y-62500080D01*
X176083889Y-62474062D01*
X176045114Y-62449785D01*
X175978069Y-62392422D01*
X175910693Y-62340442D01*
X175878886Y-62307562D01*
X175841737Y-62275778D01*
X175785972Y-62211515D01*
X175728996Y-62152617D01*
X175700429Y-62112936D01*
X175666314Y-62073621D01*
X175622341Y-62004464D01*
X175576308Y-61940520D01*
X175552318Y-61894338D01*
X175522699Y-61847755D01*
X175490706Y-61775729D01*
X175455837Y-61708603D01*
X175437733Y-61656471D01*
X175414046Y-61603143D01*
X175393892Y-61530221D01*
X175370105Y-61461724D01*
X175359122Y-61404419D01*
X175342743Y-61345158D01*
X175333971Y-61273192D01*
X175320913Y-61205064D01*
X175318177Y-61143627D01*
X175310356Y-61079467D01*
X175312232Y-61010136D01*
X175309286Y-60943984D01*
X175315763Y-60879665D01*
X175317596Y-60811908D01*
X175329150Y-60746715D01*
X175335469Y-60683959D01*
X175351928Y-60618190D01*
X175364304Y-60548357D01*
X175384363Y-60488581D01*
X175398912Y-60430442D01*
X175425891Y-60364823D01*
X175449454Y-60294605D01*
X175476699Y-60241248D01*
X175498289Y-60188738D01*
X175536057Y-60125004D01*
X175571176Y-60056227D01*
X175604185Y-60010036D01*
X175631517Y-59963912D01*
X175680062Y-59903857D01*
X175726796Y-59838459D01*
X175764079Y-59799918D01*
X175795805Y-59760670D01*
X175854817Y-59706120D01*
X175912894Y-59646084D01*
X175952970Y-59615389D01*
X175987711Y-59583274D01*
X176056573Y-59536035D01*
X176125384Y-59483330D01*
X176166799Y-59460420D01*
X176203221Y-59435435D01*
X176281005Y-59397245D01*
X176359595Y-59353771D01*
X176400986Y-59338337D01*
X176437804Y-59320260D01*
X176523294Y-59292730D01*
X176610384Y-59260255D01*
X176650510Y-59251763D01*
X176686561Y-59240153D01*
X176778242Y-59224729D01*
X176872241Y-59204834D01*
X176910035Y-59202555D01*
X176944275Y-59196795D01*
X177040365Y-59194698D01*
X177139414Y-59188727D01*
X177173992Y-59191783D01*
G37*
G36*
X131671781Y-61719361D02*
G01*
X131718192Y-61719361D01*
X131733245Y-61724252D01*
X131746086Y-61725274D01*
X131789831Y-61742638D01*
X131836830Y-61757909D01*
X131847099Y-61765370D01*
X131856146Y-61768961D01*
X131895365Y-61800437D01*
X131937749Y-61831231D01*
X131943365Y-61838961D01*
X131948500Y-61843082D01*
X131978614Y-61887477D01*
X132011071Y-61932150D01*
X132013052Y-61938245D01*
X132014975Y-61941081D01*
X132031827Y-61996030D01*
X132049619Y-62050788D01*
X132049619Y-62054044D01*
X132049637Y-62054103D01*
X132049619Y-62056165D01*
X132049619Y-62175532D01*
X132048548Y-62178828D01*
X132048546Y-62179082D01*
X132021218Y-62262941D01*
X132011071Y-62294170D01*
X131977155Y-62340851D01*
X131943744Y-62388302D01*
X131941312Y-62390185D01*
X131937749Y-62395089D01*
X131892821Y-62427731D01*
X131850111Y-62460801D01*
X131844279Y-62462999D01*
X131836830Y-62468411D01*
X131786692Y-62484702D01*
X131739299Y-62502563D01*
X131729933Y-62503144D01*
X131718192Y-62506959D01*
X131668437Y-62506959D01*
X131621109Y-62509895D01*
X131608926Y-62506959D01*
X131593448Y-62506959D01*
X131548997Y-62492516D01*
X131505989Y-62482151D01*
X131492504Y-62474160D01*
X131474810Y-62468411D01*
X131439457Y-62442726D01*
X131404114Y-62421782D01*
X131391467Y-62407858D01*
X131373891Y-62395089D01*
X131350006Y-62362214D01*
X131324495Y-62334129D01*
X131315169Y-62314265D01*
X131300569Y-62294170D01*
X131288962Y-62258446D01*
X131274166Y-62226933D01*
X131270654Y-62202103D01*
X131262021Y-62175532D01*
X131262021Y-62141057D01*
X131257584Y-62109684D01*
X131262021Y-62081828D01*
X131262021Y-62050788D01*
X131271720Y-62020938D01*
X131276211Y-61992742D01*
X131290020Y-61964617D01*
X131300569Y-61932150D01*
X131317197Y-61909263D01*
X131328401Y-61886444D01*
X131352012Y-61861345D01*
X131373891Y-61831231D01*
X131394266Y-61816428D01*
X131409538Y-61800193D01*
X131442206Y-61781597D01*
X131474810Y-61757909D01*
X131495802Y-61751088D01*
X131512453Y-61741610D01*
X131552213Y-61732759D01*
X131593448Y-61719361D01*
X131612400Y-61719361D01*
X131628037Y-61715880D01*
X131671781Y-61719361D01*
G37*
G36*
X151806631Y-59490232D02*
G01*
X151888070Y-59490800D01*
X151910493Y-59495403D01*
X151930080Y-59496378D01*
X152007339Y-59515283D01*
X152089933Y-59532237D01*
X152108467Y-59540028D01*
X152124847Y-59544036D01*
X152199516Y-59578301D01*
X152279904Y-59612093D01*
X152294271Y-59621784D01*
X152307085Y-59627664D01*
X152375976Y-59676894D01*
X152450746Y-59727327D01*
X152461001Y-59737654D01*
X152470223Y-59744244D01*
X152530256Y-59807394D01*
X152595951Y-59873550D01*
X152602462Y-59883350D01*
X152608374Y-59889569D01*
X152656590Y-59964819D01*
X152709990Y-60045192D01*
X152713418Y-60053509D01*
X152716548Y-60058394D01*
X152750277Y-60142936D01*
X152788518Y-60235716D01*
X152789725Y-60241814D01*
X152790851Y-60244635D01*
X152807985Y-60334029D01*
X152828545Y-60437864D01*
X152828500Y-60441067D01*
X152828582Y-60441493D01*
X152827862Y-60647638D01*
X152825446Y-60659785D01*
X152825258Y-60673237D01*
X152805273Y-60761201D01*
X152788757Y-60844234D01*
X152783442Y-60857289D01*
X152779603Y-60874189D01*
X152744131Y-60953860D01*
X152713159Y-61029945D01*
X152703964Y-61044077D01*
X152695786Y-61062445D01*
X152647196Y-61131326D01*
X152603806Y-61198013D01*
X152590188Y-61212140D01*
X152576999Y-61230836D01*
X152518031Y-61286991D01*
X152464641Y-61342374D01*
X152446344Y-61355257D01*
X152427767Y-61372948D01*
X152361430Y-61415047D01*
X152300698Y-61457809D01*
X152277777Y-61468134D01*
X152253774Y-61483367D01*
X152183155Y-61510758D01*
X152117875Y-61540165D01*
X152090736Y-61546605D01*
X152061648Y-61557888D01*
X151989837Y-61570550D01*
X151922787Y-61586462D01*
X151892166Y-61587772D01*
X151858706Y-61593672D01*
X151788595Y-61592203D01*
X151722455Y-61595033D01*
X151689424Y-61590126D01*
X151652679Y-61589356D01*
X151586911Y-61574896D01*
X151524117Y-61565567D01*
X151490021Y-61553593D01*
X151451414Y-61545105D01*
X151392270Y-61519266D01*
X151334938Y-61499132D01*
X151301344Y-61479541D01*
X151262577Y-61462604D01*
X151211874Y-61427364D01*
X151161725Y-61398119D01*
X151130371Y-61370718D01*
X151093361Y-61344996D01*
X151052399Y-61302578D01*
X151010745Y-61266177D01*
X150983456Y-61231186D01*
X150950211Y-61196760D01*
X150919773Y-61149530D01*
X150887432Y-61108061D01*
X150866005Y-61066098D01*
X150838579Y-61023542D01*
X150818919Y-60973886D01*
X150796246Y-60929484D01*
X150782379Y-60881596D01*
X150762719Y-60831941D01*
X150753579Y-60782143D01*
X150740474Y-60736886D01*
X150735662Y-60684520D01*
X150725519Y-60629254D01*
X150726187Y-60581404D01*
X150722127Y-60537218D01*
X150727573Y-60482174D01*
X150728396Y-60423202D01*
X150737770Y-60379103D01*
X150741868Y-60337676D01*
X150758401Y-60282040D01*
X150771241Y-60221632D01*
X150787906Y-60182749D01*
X150798984Y-60145471D01*
X150826999Y-60091540D01*
X150852422Y-60032224D01*
X150874752Y-59999612D01*
X150891413Y-59967538D01*
X150930806Y-59917747D01*
X150968846Y-59862191D01*
X150995104Y-59836477D01*
X151015825Y-59810287D01*
X151065980Y-59767070D01*
X151116079Y-59718010D01*
X151144506Y-59699408D01*
X151167726Y-59679400D01*
X151227498Y-59645099D01*
X151288513Y-59605172D01*
X151317441Y-59593484D01*
X151341634Y-59579601D01*
X151409354Y-59556349D01*
X151479580Y-59527976D01*
X151507502Y-59522650D01*
X151531281Y-59514485D01*
X151604838Y-59504082D01*
X151682003Y-59489362D01*
X151707653Y-59489541D01*
X151729812Y-59486407D01*
X151806631Y-59490232D01*
G37*
G36*
X162919131Y-59426732D02*
G01*
X163000570Y-59427300D01*
X163022993Y-59431903D01*
X163042580Y-59432878D01*
X163119839Y-59451783D01*
X163202433Y-59468737D01*
X163220967Y-59476528D01*
X163237347Y-59480536D01*
X163312016Y-59514801D01*
X163392404Y-59548593D01*
X163406771Y-59558284D01*
X163419585Y-59564164D01*
X163488476Y-59613394D01*
X163563246Y-59663827D01*
X163573501Y-59674154D01*
X163582723Y-59680744D01*
X163642756Y-59743894D01*
X163708451Y-59810050D01*
X163714962Y-59819850D01*
X163720874Y-59826069D01*
X163769090Y-59901319D01*
X163822490Y-59981692D01*
X163825918Y-59990009D01*
X163829048Y-59994894D01*
X163862777Y-60079436D01*
X163901018Y-60172216D01*
X163902225Y-60178314D01*
X163903351Y-60181135D01*
X163920485Y-60270529D01*
X163941045Y-60374364D01*
X163941000Y-60377567D01*
X163941082Y-60377993D01*
X163940362Y-60584138D01*
X163937946Y-60596285D01*
X163937758Y-60609737D01*
X163917773Y-60697701D01*
X163901257Y-60780734D01*
X163895942Y-60793789D01*
X163892103Y-60810689D01*
X163856631Y-60890360D01*
X163825659Y-60966445D01*
X163816464Y-60980577D01*
X163808286Y-60998945D01*
X163759696Y-61067826D01*
X163716306Y-61134513D01*
X163702688Y-61148640D01*
X163689499Y-61167336D01*
X163630531Y-61223491D01*
X163577141Y-61278874D01*
X163558844Y-61291757D01*
X163540267Y-61309448D01*
X163473930Y-61351547D01*
X163413198Y-61394309D01*
X163390277Y-61404634D01*
X163366274Y-61419867D01*
X163295655Y-61447258D01*
X163230375Y-61476665D01*
X163203236Y-61483105D01*
X163174148Y-61494388D01*
X163102337Y-61507050D01*
X163035287Y-61522962D01*
X163004666Y-61524272D01*
X162971206Y-61530172D01*
X162901095Y-61528703D01*
X162834955Y-61531533D01*
X162801924Y-61526626D01*
X162765179Y-61525856D01*
X162699411Y-61511396D01*
X162636617Y-61502067D01*
X162602521Y-61490093D01*
X162563914Y-61481605D01*
X162504770Y-61455766D01*
X162447438Y-61435632D01*
X162413844Y-61416041D01*
X162375077Y-61399104D01*
X162324374Y-61363864D01*
X162274225Y-61334619D01*
X162242871Y-61307218D01*
X162205861Y-61281496D01*
X162164899Y-61239078D01*
X162123245Y-61202677D01*
X162095956Y-61167686D01*
X162062711Y-61133260D01*
X162032273Y-61086030D01*
X161999932Y-61044561D01*
X161978505Y-61002598D01*
X161951079Y-60960042D01*
X161931419Y-60910386D01*
X161908746Y-60865984D01*
X161894879Y-60818096D01*
X161875219Y-60768441D01*
X161866079Y-60718643D01*
X161852974Y-60673386D01*
X161848162Y-60621020D01*
X161838019Y-60565754D01*
X161838687Y-60517904D01*
X161834627Y-60473718D01*
X161840073Y-60418674D01*
X161840896Y-60359702D01*
X161850270Y-60315603D01*
X161854368Y-60274176D01*
X161870901Y-60218540D01*
X161883741Y-60158132D01*
X161900406Y-60119249D01*
X161911484Y-60081971D01*
X161939499Y-60028040D01*
X161964922Y-59968724D01*
X161987252Y-59936112D01*
X162003913Y-59904038D01*
X162043306Y-59854247D01*
X162081346Y-59798691D01*
X162107604Y-59772977D01*
X162128325Y-59746787D01*
X162178480Y-59703570D01*
X162228579Y-59654510D01*
X162257006Y-59635908D01*
X162280226Y-59615900D01*
X162339998Y-59581599D01*
X162401013Y-59541672D01*
X162429941Y-59529984D01*
X162454134Y-59516101D01*
X162521854Y-59492849D01*
X162592080Y-59464476D01*
X162620002Y-59459150D01*
X162643781Y-59450985D01*
X162717338Y-59440582D01*
X162794503Y-59425862D01*
X162820153Y-59426041D01*
X162842312Y-59422907D01*
X162919131Y-59426732D01*
G37*
M02*
