G04 #@! TF.GenerationSoftware,KiCad,Pcbnew,(5.99.0-429-gffcf3b01f)*
G04 #@! TF.CreationDate,2019-12-13T14:25:27+01:00*
G04 #@! TF.ProjectId,smartlock,736d6172-746c-46f6-936b-2e6b69636164,rev?*
G04 #@! TF.SameCoordinates,Original*
G04 #@! TF.FileFunction,Paste,Top*
G04 #@! TF.FilePolarity,Positive*
%FSLAX46Y46*%
G04 Gerber Fmt 4.6, Leading zero omitted, Abs format (unit mm)*
G04 Created by KiCad (PCBNEW (5.99.0-429-gffcf3b01f)) date 2019-12-13 14:25:27*
%MOMM*%
%LPD*%
G04 APERTURE LIST*
%ADD10C,0.500000*%
%ADD11R,1.400000X1.075000*%
%ADD12R,1.450000X0.450000*%
%ADD13R,0.900000X1.200000*%
%ADD14R,0.800000X0.900000*%
%ADD15R,2.200000X1.050000*%
%ADD16R,1.050000X1.000000*%
%ADD17R,1.060000X0.650000*%
%ADD18R,0.660000X0.760000*%
%ADD19R,0.890000X0.420000*%
%ADD20R,1.400000X0.800000*%
%ADD21R,0.800000X1.400000*%
%ADD22R,1.175000X1.900000*%
%ADD23R,2.375000X1.900000*%
%ADD24R,1.475000X2.100000*%
%ADD25R,0.450000X1.380000*%
G04 APERTURE END LIST*
G36*
X142793729Y-59033954D02*
G01*
X142872807Y-59086793D01*
X142925646Y-59165871D01*
X142944200Y-59259150D01*
X142944200Y-60171650D01*
X142925646Y-60264929D01*
X142872807Y-60344007D01*
X142793729Y-60396846D01*
X142700450Y-60415400D01*
X142212950Y-60415400D01*
X142119671Y-60396846D01*
X142040593Y-60344007D01*
X141987754Y-60264929D01*
X141969200Y-60171650D01*
X141969200Y-59259150D01*
X141987754Y-59165871D01*
X142040593Y-59086793D01*
X142119671Y-59033954D01*
X142212950Y-59015400D01*
X142700450Y-59015400D01*
X142793729Y-59033954D01*
G37*
G36*
X140918729Y-59033954D02*
G01*
X140997807Y-59086793D01*
X141050646Y-59165871D01*
X141069200Y-59259150D01*
X141069200Y-60171650D01*
X141050646Y-60264929D01*
X140997807Y-60344007D01*
X140918729Y-60396846D01*
X140825450Y-60415400D01*
X140337950Y-60415400D01*
X140244671Y-60396846D01*
X140165593Y-60344007D01*
X140112754Y-60264929D01*
X140094200Y-60171650D01*
X140094200Y-59259150D01*
X140112754Y-59165871D01*
X140165593Y-59086793D01*
X140244671Y-59033954D01*
X140337950Y-59015400D01*
X140825450Y-59015400D01*
X140918729Y-59033954D01*
G37*
G36*
X140877529Y-76178954D02*
G01*
X140956607Y-76231793D01*
X141009446Y-76310871D01*
X141028000Y-76404150D01*
X141028000Y-77316650D01*
X141009446Y-77409929D01*
X140956607Y-77489007D01*
X140877529Y-77541846D01*
X140784250Y-77560400D01*
X140296750Y-77560400D01*
X140203471Y-77541846D01*
X140124393Y-77489007D01*
X140071554Y-77409929D01*
X140053000Y-77316650D01*
X140053000Y-76404150D01*
X140071554Y-76310871D01*
X140124393Y-76231793D01*
X140203471Y-76178954D01*
X140296750Y-76160400D01*
X140784250Y-76160400D01*
X140877529Y-76178954D01*
G37*
G36*
X142752529Y-76178954D02*
G01*
X142831607Y-76231793D01*
X142884446Y-76310871D01*
X142903000Y-76404150D01*
X142903000Y-77316650D01*
X142884446Y-77409929D01*
X142831607Y-77489007D01*
X142752529Y-77541846D01*
X142659250Y-77560400D01*
X142171750Y-77560400D01*
X142078471Y-77541846D01*
X141999393Y-77489007D01*
X141946554Y-77409929D01*
X141928000Y-77316650D01*
X141928000Y-76404150D01*
X141946554Y-76310871D01*
X141999393Y-76231793D01*
X142078471Y-76178954D01*
X142171750Y-76160400D01*
X142659250Y-76160400D01*
X142752529Y-76178954D01*
G37*
G36*
X160994618Y-65663658D02*
G01*
X161014894Y-65677206D01*
X161028442Y-65697482D01*
X161033200Y-65721400D01*
X161033200Y-65846400D01*
X161028442Y-65870318D01*
X161014894Y-65890594D01*
X160994618Y-65904142D01*
X160970700Y-65908900D01*
X160270700Y-65908900D01*
X160246782Y-65904142D01*
X160226506Y-65890594D01*
X160212958Y-65870318D01*
X160208200Y-65846400D01*
X160208200Y-65721400D01*
X160212958Y-65697482D01*
X160226506Y-65677206D01*
X160246782Y-65663658D01*
X160270700Y-65658900D01*
X160970700Y-65658900D01*
X160994618Y-65663658D01*
G37*
G36*
X160994618Y-66163658D02*
G01*
X161014894Y-66177206D01*
X161028442Y-66197482D01*
X161033200Y-66221400D01*
X161033200Y-66346400D01*
X161028442Y-66370318D01*
X161014894Y-66390594D01*
X160994618Y-66404142D01*
X160970700Y-66408900D01*
X160270700Y-66408900D01*
X160246782Y-66404142D01*
X160226506Y-66390594D01*
X160212958Y-66370318D01*
X160208200Y-66346400D01*
X160208200Y-66221400D01*
X160212958Y-66197482D01*
X160226506Y-66177206D01*
X160246782Y-66163658D01*
X160270700Y-66158900D01*
X160970700Y-66158900D01*
X160994618Y-66163658D01*
G37*
G36*
X160994618Y-66663658D02*
G01*
X161014894Y-66677206D01*
X161028442Y-66697482D01*
X161033200Y-66721400D01*
X161033200Y-66846400D01*
X161028442Y-66870318D01*
X161014894Y-66890594D01*
X160994618Y-66904142D01*
X160970700Y-66908900D01*
X160270700Y-66908900D01*
X160246782Y-66904142D01*
X160226506Y-66890594D01*
X160212958Y-66870318D01*
X160208200Y-66846400D01*
X160208200Y-66721400D01*
X160212958Y-66697482D01*
X160226506Y-66677206D01*
X160246782Y-66663658D01*
X160270700Y-66658900D01*
X160970700Y-66658900D01*
X160994618Y-66663658D01*
G37*
G36*
X160994618Y-67163658D02*
G01*
X161014894Y-67177206D01*
X161028442Y-67197482D01*
X161033200Y-67221400D01*
X161033200Y-67346400D01*
X161028442Y-67370318D01*
X161014894Y-67390594D01*
X160994618Y-67404142D01*
X160970700Y-67408900D01*
X160270700Y-67408900D01*
X160246782Y-67404142D01*
X160226506Y-67390594D01*
X160212958Y-67370318D01*
X160208200Y-67346400D01*
X160208200Y-67221400D01*
X160212958Y-67197482D01*
X160226506Y-67177206D01*
X160246782Y-67163658D01*
X160270700Y-67158900D01*
X160970700Y-67158900D01*
X160994618Y-67163658D01*
G37*
G36*
X160994618Y-67663658D02*
G01*
X161014894Y-67677206D01*
X161028442Y-67697482D01*
X161033200Y-67721400D01*
X161033200Y-67846400D01*
X161028442Y-67870318D01*
X161014894Y-67890594D01*
X160994618Y-67904142D01*
X160970700Y-67908900D01*
X160270700Y-67908900D01*
X160246782Y-67904142D01*
X160226506Y-67890594D01*
X160212958Y-67870318D01*
X160208200Y-67846400D01*
X160208200Y-67721400D01*
X160212958Y-67697482D01*
X160226506Y-67677206D01*
X160246782Y-67663658D01*
X160270700Y-67658900D01*
X160970700Y-67658900D01*
X160994618Y-67663658D01*
G37*
G36*
X160994618Y-68163658D02*
G01*
X161014894Y-68177206D01*
X161028442Y-68197482D01*
X161033200Y-68221400D01*
X161033200Y-68346400D01*
X161028442Y-68370318D01*
X161014894Y-68390594D01*
X160994618Y-68404142D01*
X160970700Y-68408900D01*
X160270700Y-68408900D01*
X160246782Y-68404142D01*
X160226506Y-68390594D01*
X160212958Y-68370318D01*
X160208200Y-68346400D01*
X160208200Y-68221400D01*
X160212958Y-68197482D01*
X160226506Y-68177206D01*
X160246782Y-68163658D01*
X160270700Y-68158900D01*
X160970700Y-68158900D01*
X160994618Y-68163658D01*
G37*
G36*
X160994618Y-68663658D02*
G01*
X161014894Y-68677206D01*
X161028442Y-68697482D01*
X161033200Y-68721400D01*
X161033200Y-68846400D01*
X161028442Y-68870318D01*
X161014894Y-68890594D01*
X160994618Y-68904142D01*
X160970700Y-68908900D01*
X160270700Y-68908900D01*
X160246782Y-68904142D01*
X160226506Y-68890594D01*
X160212958Y-68870318D01*
X160208200Y-68846400D01*
X160208200Y-68721400D01*
X160212958Y-68697482D01*
X160226506Y-68677206D01*
X160246782Y-68663658D01*
X160270700Y-68658900D01*
X160970700Y-68658900D01*
X160994618Y-68663658D01*
G37*
G36*
X160994618Y-69163658D02*
G01*
X161014894Y-69177206D01*
X161028442Y-69197482D01*
X161033200Y-69221400D01*
X161033200Y-69346400D01*
X161028442Y-69370318D01*
X161014894Y-69390594D01*
X160994618Y-69404142D01*
X160970700Y-69408900D01*
X160270700Y-69408900D01*
X160246782Y-69404142D01*
X160226506Y-69390594D01*
X160212958Y-69370318D01*
X160208200Y-69346400D01*
X160208200Y-69221400D01*
X160212958Y-69197482D01*
X160226506Y-69177206D01*
X160246782Y-69163658D01*
X160270700Y-69158900D01*
X160970700Y-69158900D01*
X160994618Y-69163658D01*
G37*
G36*
X160994618Y-69663658D02*
G01*
X161014894Y-69677206D01*
X161028442Y-69697482D01*
X161033200Y-69721400D01*
X161033200Y-69846400D01*
X161028442Y-69870318D01*
X161014894Y-69890594D01*
X160994618Y-69904142D01*
X160970700Y-69908900D01*
X160270700Y-69908900D01*
X160246782Y-69904142D01*
X160226506Y-69890594D01*
X160212958Y-69870318D01*
X160208200Y-69846400D01*
X160208200Y-69721400D01*
X160212958Y-69697482D01*
X160226506Y-69677206D01*
X160246782Y-69663658D01*
X160270700Y-69658900D01*
X160970700Y-69658900D01*
X160994618Y-69663658D01*
G37*
G36*
X160994618Y-70163658D02*
G01*
X161014894Y-70177206D01*
X161028442Y-70197482D01*
X161033200Y-70221400D01*
X161033200Y-70346400D01*
X161028442Y-70370318D01*
X161014894Y-70390594D01*
X160994618Y-70404142D01*
X160970700Y-70408900D01*
X160270700Y-70408900D01*
X160246782Y-70404142D01*
X160226506Y-70390594D01*
X160212958Y-70370318D01*
X160208200Y-70346400D01*
X160208200Y-70221400D01*
X160212958Y-70197482D01*
X160226506Y-70177206D01*
X160246782Y-70163658D01*
X160270700Y-70158900D01*
X160970700Y-70158900D01*
X160994618Y-70163658D01*
G37*
G36*
X160019618Y-70563658D02*
G01*
X160039894Y-70577206D01*
X160053442Y-70597482D01*
X160058200Y-70621400D01*
X160058200Y-71321400D01*
X160053442Y-71345318D01*
X160039894Y-71365594D01*
X160019618Y-71379142D01*
X159995700Y-71383900D01*
X159870700Y-71383900D01*
X159846782Y-71379142D01*
X159826506Y-71365594D01*
X159812958Y-71345318D01*
X159808200Y-71321400D01*
X159808200Y-70621400D01*
X159812958Y-70597482D01*
X159826506Y-70577206D01*
X159846782Y-70563658D01*
X159870700Y-70558900D01*
X159995700Y-70558900D01*
X160019618Y-70563658D01*
G37*
G36*
X159519618Y-70563658D02*
G01*
X159539894Y-70577206D01*
X159553442Y-70597482D01*
X159558200Y-70621400D01*
X159558200Y-71321400D01*
X159553442Y-71345318D01*
X159539894Y-71365594D01*
X159519618Y-71379142D01*
X159495700Y-71383900D01*
X159370700Y-71383900D01*
X159346782Y-71379142D01*
X159326506Y-71365594D01*
X159312958Y-71345318D01*
X159308200Y-71321400D01*
X159308200Y-70621400D01*
X159312958Y-70597482D01*
X159326506Y-70577206D01*
X159346782Y-70563658D01*
X159370700Y-70558900D01*
X159495700Y-70558900D01*
X159519618Y-70563658D01*
G37*
G36*
X159019618Y-70563658D02*
G01*
X159039894Y-70577206D01*
X159053442Y-70597482D01*
X159058200Y-70621400D01*
X159058200Y-71321400D01*
X159053442Y-71345318D01*
X159039894Y-71365594D01*
X159019618Y-71379142D01*
X158995700Y-71383900D01*
X158870700Y-71383900D01*
X158846782Y-71379142D01*
X158826506Y-71365594D01*
X158812958Y-71345318D01*
X158808200Y-71321400D01*
X158808200Y-70621400D01*
X158812958Y-70597482D01*
X158826506Y-70577206D01*
X158846782Y-70563658D01*
X158870700Y-70558900D01*
X158995700Y-70558900D01*
X159019618Y-70563658D01*
G37*
G36*
X158519618Y-70563658D02*
G01*
X158539894Y-70577206D01*
X158553442Y-70597482D01*
X158558200Y-70621400D01*
X158558200Y-71321400D01*
X158553442Y-71345318D01*
X158539894Y-71365594D01*
X158519618Y-71379142D01*
X158495700Y-71383900D01*
X158370700Y-71383900D01*
X158346782Y-71379142D01*
X158326506Y-71365594D01*
X158312958Y-71345318D01*
X158308200Y-71321400D01*
X158308200Y-70621400D01*
X158312958Y-70597482D01*
X158326506Y-70577206D01*
X158346782Y-70563658D01*
X158370700Y-70558900D01*
X158495700Y-70558900D01*
X158519618Y-70563658D01*
G37*
G36*
X158019618Y-70563658D02*
G01*
X158039894Y-70577206D01*
X158053442Y-70597482D01*
X158058200Y-70621400D01*
X158058200Y-71321400D01*
X158053442Y-71345318D01*
X158039894Y-71365594D01*
X158019618Y-71379142D01*
X157995700Y-71383900D01*
X157870700Y-71383900D01*
X157846782Y-71379142D01*
X157826506Y-71365594D01*
X157812958Y-71345318D01*
X157808200Y-71321400D01*
X157808200Y-70621400D01*
X157812958Y-70597482D01*
X157826506Y-70577206D01*
X157846782Y-70563658D01*
X157870700Y-70558900D01*
X157995700Y-70558900D01*
X158019618Y-70563658D01*
G37*
G36*
X157519618Y-70563658D02*
G01*
X157539894Y-70577206D01*
X157553442Y-70597482D01*
X157558200Y-70621400D01*
X157558200Y-71321400D01*
X157553442Y-71345318D01*
X157539894Y-71365594D01*
X157519618Y-71379142D01*
X157495700Y-71383900D01*
X157370700Y-71383900D01*
X157346782Y-71379142D01*
X157326506Y-71365594D01*
X157312958Y-71345318D01*
X157308200Y-71321400D01*
X157308200Y-70621400D01*
X157312958Y-70597482D01*
X157326506Y-70577206D01*
X157346782Y-70563658D01*
X157370700Y-70558900D01*
X157495700Y-70558900D01*
X157519618Y-70563658D01*
G37*
G36*
X157019618Y-70563658D02*
G01*
X157039894Y-70577206D01*
X157053442Y-70597482D01*
X157058200Y-70621400D01*
X157058200Y-71321400D01*
X157053442Y-71345318D01*
X157039894Y-71365594D01*
X157019618Y-71379142D01*
X156995700Y-71383900D01*
X156870700Y-71383900D01*
X156846782Y-71379142D01*
X156826506Y-71365594D01*
X156812958Y-71345318D01*
X156808200Y-71321400D01*
X156808200Y-70621400D01*
X156812958Y-70597482D01*
X156826506Y-70577206D01*
X156846782Y-70563658D01*
X156870700Y-70558900D01*
X156995700Y-70558900D01*
X157019618Y-70563658D01*
G37*
G36*
X156519618Y-70563658D02*
G01*
X156539894Y-70577206D01*
X156553442Y-70597482D01*
X156558200Y-70621400D01*
X156558200Y-71321400D01*
X156553442Y-71345318D01*
X156539894Y-71365594D01*
X156519618Y-71379142D01*
X156495700Y-71383900D01*
X156370700Y-71383900D01*
X156346782Y-71379142D01*
X156326506Y-71365594D01*
X156312958Y-71345318D01*
X156308200Y-71321400D01*
X156308200Y-70621400D01*
X156312958Y-70597482D01*
X156326506Y-70577206D01*
X156346782Y-70563658D01*
X156370700Y-70558900D01*
X156495700Y-70558900D01*
X156519618Y-70563658D01*
G37*
G36*
X156019618Y-70563658D02*
G01*
X156039894Y-70577206D01*
X156053442Y-70597482D01*
X156058200Y-70621400D01*
X156058200Y-71321400D01*
X156053442Y-71345318D01*
X156039894Y-71365594D01*
X156019618Y-71379142D01*
X155995700Y-71383900D01*
X155870700Y-71383900D01*
X155846782Y-71379142D01*
X155826506Y-71365594D01*
X155812958Y-71345318D01*
X155808200Y-71321400D01*
X155808200Y-70621400D01*
X155812958Y-70597482D01*
X155826506Y-70577206D01*
X155846782Y-70563658D01*
X155870700Y-70558900D01*
X155995700Y-70558900D01*
X156019618Y-70563658D01*
G37*
G36*
X155519618Y-70563658D02*
G01*
X155539894Y-70577206D01*
X155553442Y-70597482D01*
X155558200Y-70621400D01*
X155558200Y-71321400D01*
X155553442Y-71345318D01*
X155539894Y-71365594D01*
X155519618Y-71379142D01*
X155495700Y-71383900D01*
X155370700Y-71383900D01*
X155346782Y-71379142D01*
X155326506Y-71365594D01*
X155312958Y-71345318D01*
X155308200Y-71321400D01*
X155308200Y-70621400D01*
X155312958Y-70597482D01*
X155326506Y-70577206D01*
X155346782Y-70563658D01*
X155370700Y-70558900D01*
X155495700Y-70558900D01*
X155519618Y-70563658D01*
G37*
G36*
X155119618Y-70163658D02*
G01*
X155139894Y-70177206D01*
X155153442Y-70197482D01*
X155158200Y-70221400D01*
X155158200Y-70346400D01*
X155153442Y-70370318D01*
X155139894Y-70390594D01*
X155119618Y-70404142D01*
X155095700Y-70408900D01*
X154395700Y-70408900D01*
X154371782Y-70404142D01*
X154351506Y-70390594D01*
X154337958Y-70370318D01*
X154333200Y-70346400D01*
X154333200Y-70221400D01*
X154337958Y-70197482D01*
X154351506Y-70177206D01*
X154371782Y-70163658D01*
X154395700Y-70158900D01*
X155095700Y-70158900D01*
X155119618Y-70163658D01*
G37*
G36*
X155119618Y-69663658D02*
G01*
X155139894Y-69677206D01*
X155153442Y-69697482D01*
X155158200Y-69721400D01*
X155158200Y-69846400D01*
X155153442Y-69870318D01*
X155139894Y-69890594D01*
X155119618Y-69904142D01*
X155095700Y-69908900D01*
X154395700Y-69908900D01*
X154371782Y-69904142D01*
X154351506Y-69890594D01*
X154337958Y-69870318D01*
X154333200Y-69846400D01*
X154333200Y-69721400D01*
X154337958Y-69697482D01*
X154351506Y-69677206D01*
X154371782Y-69663658D01*
X154395700Y-69658900D01*
X155095700Y-69658900D01*
X155119618Y-69663658D01*
G37*
G36*
X155119618Y-69163658D02*
G01*
X155139894Y-69177206D01*
X155153442Y-69197482D01*
X155158200Y-69221400D01*
X155158200Y-69346400D01*
X155153442Y-69370318D01*
X155139894Y-69390594D01*
X155119618Y-69404142D01*
X155095700Y-69408900D01*
X154395700Y-69408900D01*
X154371782Y-69404142D01*
X154351506Y-69390594D01*
X154337958Y-69370318D01*
X154333200Y-69346400D01*
X154333200Y-69221400D01*
X154337958Y-69197482D01*
X154351506Y-69177206D01*
X154371782Y-69163658D01*
X154395700Y-69158900D01*
X155095700Y-69158900D01*
X155119618Y-69163658D01*
G37*
G36*
X155119618Y-68663658D02*
G01*
X155139894Y-68677206D01*
X155153442Y-68697482D01*
X155158200Y-68721400D01*
X155158200Y-68846400D01*
X155153442Y-68870318D01*
X155139894Y-68890594D01*
X155119618Y-68904142D01*
X155095700Y-68908900D01*
X154395700Y-68908900D01*
X154371782Y-68904142D01*
X154351506Y-68890594D01*
X154337958Y-68870318D01*
X154333200Y-68846400D01*
X154333200Y-68721400D01*
X154337958Y-68697482D01*
X154351506Y-68677206D01*
X154371782Y-68663658D01*
X154395700Y-68658900D01*
X155095700Y-68658900D01*
X155119618Y-68663658D01*
G37*
G36*
X155119618Y-68163658D02*
G01*
X155139894Y-68177206D01*
X155153442Y-68197482D01*
X155158200Y-68221400D01*
X155158200Y-68346400D01*
X155153442Y-68370318D01*
X155139894Y-68390594D01*
X155119618Y-68404142D01*
X155095700Y-68408900D01*
X154395700Y-68408900D01*
X154371782Y-68404142D01*
X154351506Y-68390594D01*
X154337958Y-68370318D01*
X154333200Y-68346400D01*
X154333200Y-68221400D01*
X154337958Y-68197482D01*
X154351506Y-68177206D01*
X154371782Y-68163658D01*
X154395700Y-68158900D01*
X155095700Y-68158900D01*
X155119618Y-68163658D01*
G37*
G36*
X155119618Y-67663658D02*
G01*
X155139894Y-67677206D01*
X155153442Y-67697482D01*
X155158200Y-67721400D01*
X155158200Y-67846400D01*
X155153442Y-67870318D01*
X155139894Y-67890594D01*
X155119618Y-67904142D01*
X155095700Y-67908900D01*
X154395700Y-67908900D01*
X154371782Y-67904142D01*
X154351506Y-67890594D01*
X154337958Y-67870318D01*
X154333200Y-67846400D01*
X154333200Y-67721400D01*
X154337958Y-67697482D01*
X154351506Y-67677206D01*
X154371782Y-67663658D01*
X154395700Y-67658900D01*
X155095700Y-67658900D01*
X155119618Y-67663658D01*
G37*
G36*
X155119618Y-67163658D02*
G01*
X155139894Y-67177206D01*
X155153442Y-67197482D01*
X155158200Y-67221400D01*
X155158200Y-67346400D01*
X155153442Y-67370318D01*
X155139894Y-67390594D01*
X155119618Y-67404142D01*
X155095700Y-67408900D01*
X154395700Y-67408900D01*
X154371782Y-67404142D01*
X154351506Y-67390594D01*
X154337958Y-67370318D01*
X154333200Y-67346400D01*
X154333200Y-67221400D01*
X154337958Y-67197482D01*
X154351506Y-67177206D01*
X154371782Y-67163658D01*
X154395700Y-67158900D01*
X155095700Y-67158900D01*
X155119618Y-67163658D01*
G37*
G36*
X155119618Y-66663658D02*
G01*
X155139894Y-66677206D01*
X155153442Y-66697482D01*
X155158200Y-66721400D01*
X155158200Y-66846400D01*
X155153442Y-66870318D01*
X155139894Y-66890594D01*
X155119618Y-66904142D01*
X155095700Y-66908900D01*
X154395700Y-66908900D01*
X154371782Y-66904142D01*
X154351506Y-66890594D01*
X154337958Y-66870318D01*
X154333200Y-66846400D01*
X154333200Y-66721400D01*
X154337958Y-66697482D01*
X154351506Y-66677206D01*
X154371782Y-66663658D01*
X154395700Y-66658900D01*
X155095700Y-66658900D01*
X155119618Y-66663658D01*
G37*
G36*
X155119618Y-66163658D02*
G01*
X155139894Y-66177206D01*
X155153442Y-66197482D01*
X155158200Y-66221400D01*
X155158200Y-66346400D01*
X155153442Y-66370318D01*
X155139894Y-66390594D01*
X155119618Y-66404142D01*
X155095700Y-66408900D01*
X154395700Y-66408900D01*
X154371782Y-66404142D01*
X154351506Y-66390594D01*
X154337958Y-66370318D01*
X154333200Y-66346400D01*
X154333200Y-66221400D01*
X154337958Y-66197482D01*
X154351506Y-66177206D01*
X154371782Y-66163658D01*
X154395700Y-66158900D01*
X155095700Y-66158900D01*
X155119618Y-66163658D01*
G37*
G36*
X155119618Y-65663658D02*
G01*
X155139894Y-65677206D01*
X155153442Y-65697482D01*
X155158200Y-65721400D01*
X155158200Y-65846400D01*
X155153442Y-65870318D01*
X155139894Y-65890594D01*
X155119618Y-65904142D01*
X155095700Y-65908900D01*
X154395700Y-65908900D01*
X154371782Y-65904142D01*
X154351506Y-65890594D01*
X154337958Y-65870318D01*
X154333200Y-65846400D01*
X154333200Y-65721400D01*
X154337958Y-65697482D01*
X154351506Y-65677206D01*
X154371782Y-65663658D01*
X154395700Y-65658900D01*
X155095700Y-65658900D01*
X155119618Y-65663658D01*
G37*
G36*
X155519618Y-64688658D02*
G01*
X155539894Y-64702206D01*
X155553442Y-64722482D01*
X155558200Y-64746400D01*
X155558200Y-65446400D01*
X155553442Y-65470318D01*
X155539894Y-65490594D01*
X155519618Y-65504142D01*
X155495700Y-65508900D01*
X155370700Y-65508900D01*
X155346782Y-65504142D01*
X155326506Y-65490594D01*
X155312958Y-65470318D01*
X155308200Y-65446400D01*
X155308200Y-64746400D01*
X155312958Y-64722482D01*
X155326506Y-64702206D01*
X155346782Y-64688658D01*
X155370700Y-64683900D01*
X155495700Y-64683900D01*
X155519618Y-64688658D01*
G37*
G36*
X156019618Y-64688658D02*
G01*
X156039894Y-64702206D01*
X156053442Y-64722482D01*
X156058200Y-64746400D01*
X156058200Y-65446400D01*
X156053442Y-65470318D01*
X156039894Y-65490594D01*
X156019618Y-65504142D01*
X155995700Y-65508900D01*
X155870700Y-65508900D01*
X155846782Y-65504142D01*
X155826506Y-65490594D01*
X155812958Y-65470318D01*
X155808200Y-65446400D01*
X155808200Y-64746400D01*
X155812958Y-64722482D01*
X155826506Y-64702206D01*
X155846782Y-64688658D01*
X155870700Y-64683900D01*
X155995700Y-64683900D01*
X156019618Y-64688658D01*
G37*
G36*
X156519618Y-64688658D02*
G01*
X156539894Y-64702206D01*
X156553442Y-64722482D01*
X156558200Y-64746400D01*
X156558200Y-65446400D01*
X156553442Y-65470318D01*
X156539894Y-65490594D01*
X156519618Y-65504142D01*
X156495700Y-65508900D01*
X156370700Y-65508900D01*
X156346782Y-65504142D01*
X156326506Y-65490594D01*
X156312958Y-65470318D01*
X156308200Y-65446400D01*
X156308200Y-64746400D01*
X156312958Y-64722482D01*
X156326506Y-64702206D01*
X156346782Y-64688658D01*
X156370700Y-64683900D01*
X156495700Y-64683900D01*
X156519618Y-64688658D01*
G37*
G36*
X157019618Y-64688658D02*
G01*
X157039894Y-64702206D01*
X157053442Y-64722482D01*
X157058200Y-64746400D01*
X157058200Y-65446400D01*
X157053442Y-65470318D01*
X157039894Y-65490594D01*
X157019618Y-65504142D01*
X156995700Y-65508900D01*
X156870700Y-65508900D01*
X156846782Y-65504142D01*
X156826506Y-65490594D01*
X156812958Y-65470318D01*
X156808200Y-65446400D01*
X156808200Y-64746400D01*
X156812958Y-64722482D01*
X156826506Y-64702206D01*
X156846782Y-64688658D01*
X156870700Y-64683900D01*
X156995700Y-64683900D01*
X157019618Y-64688658D01*
G37*
G36*
X157519618Y-64688658D02*
G01*
X157539894Y-64702206D01*
X157553442Y-64722482D01*
X157558200Y-64746400D01*
X157558200Y-65446400D01*
X157553442Y-65470318D01*
X157539894Y-65490594D01*
X157519618Y-65504142D01*
X157495700Y-65508900D01*
X157370700Y-65508900D01*
X157346782Y-65504142D01*
X157326506Y-65490594D01*
X157312958Y-65470318D01*
X157308200Y-65446400D01*
X157308200Y-64746400D01*
X157312958Y-64722482D01*
X157326506Y-64702206D01*
X157346782Y-64688658D01*
X157370700Y-64683900D01*
X157495700Y-64683900D01*
X157519618Y-64688658D01*
G37*
G36*
X158019618Y-64688658D02*
G01*
X158039894Y-64702206D01*
X158053442Y-64722482D01*
X158058200Y-64746400D01*
X158058200Y-65446400D01*
X158053442Y-65470318D01*
X158039894Y-65490594D01*
X158019618Y-65504142D01*
X157995700Y-65508900D01*
X157870700Y-65508900D01*
X157846782Y-65504142D01*
X157826506Y-65490594D01*
X157812958Y-65470318D01*
X157808200Y-65446400D01*
X157808200Y-64746400D01*
X157812958Y-64722482D01*
X157826506Y-64702206D01*
X157846782Y-64688658D01*
X157870700Y-64683900D01*
X157995700Y-64683900D01*
X158019618Y-64688658D01*
G37*
G36*
X158519618Y-64688658D02*
G01*
X158539894Y-64702206D01*
X158553442Y-64722482D01*
X158558200Y-64746400D01*
X158558200Y-65446400D01*
X158553442Y-65470318D01*
X158539894Y-65490594D01*
X158519618Y-65504142D01*
X158495700Y-65508900D01*
X158370700Y-65508900D01*
X158346782Y-65504142D01*
X158326506Y-65490594D01*
X158312958Y-65470318D01*
X158308200Y-65446400D01*
X158308200Y-64746400D01*
X158312958Y-64722482D01*
X158326506Y-64702206D01*
X158346782Y-64688658D01*
X158370700Y-64683900D01*
X158495700Y-64683900D01*
X158519618Y-64688658D01*
G37*
G36*
X159019618Y-64688658D02*
G01*
X159039894Y-64702206D01*
X159053442Y-64722482D01*
X159058200Y-64746400D01*
X159058200Y-65446400D01*
X159053442Y-65470318D01*
X159039894Y-65490594D01*
X159019618Y-65504142D01*
X158995700Y-65508900D01*
X158870700Y-65508900D01*
X158846782Y-65504142D01*
X158826506Y-65490594D01*
X158812958Y-65470318D01*
X158808200Y-65446400D01*
X158808200Y-64746400D01*
X158812958Y-64722482D01*
X158826506Y-64702206D01*
X158846782Y-64688658D01*
X158870700Y-64683900D01*
X158995700Y-64683900D01*
X159019618Y-64688658D01*
G37*
G36*
X159519618Y-64688658D02*
G01*
X159539894Y-64702206D01*
X159553442Y-64722482D01*
X159558200Y-64746400D01*
X159558200Y-65446400D01*
X159553442Y-65470318D01*
X159539894Y-65490594D01*
X159519618Y-65504142D01*
X159495700Y-65508900D01*
X159370700Y-65508900D01*
X159346782Y-65504142D01*
X159326506Y-65490594D01*
X159312958Y-65470318D01*
X159308200Y-65446400D01*
X159308200Y-64746400D01*
X159312958Y-64722482D01*
X159326506Y-64702206D01*
X159346782Y-64688658D01*
X159370700Y-64683900D01*
X159495700Y-64683900D01*
X159519618Y-64688658D01*
G37*
G36*
X160019618Y-64688658D02*
G01*
X160039894Y-64702206D01*
X160053442Y-64722482D01*
X160058200Y-64746400D01*
X160058200Y-65446400D01*
X160053442Y-65470318D01*
X160039894Y-65490594D01*
X160019618Y-65504142D01*
X159995700Y-65508900D01*
X159870700Y-65508900D01*
X159846782Y-65504142D01*
X159826506Y-65490594D01*
X159812958Y-65470318D01*
X159808200Y-65446400D01*
X159808200Y-64746400D01*
X159812958Y-64722482D01*
X159826506Y-64702206D01*
X159846782Y-64688658D01*
X159870700Y-64683900D01*
X159995700Y-64683900D01*
X160019618Y-64688658D01*
G37*
G36*
X156279674Y-69311598D02*
G01*
X156355102Y-69361998D01*
X156405502Y-69437426D01*
X156423200Y-69526400D01*
X156423200Y-69991400D01*
X156405502Y-70080374D01*
X156355102Y-70155802D01*
X156279674Y-70206202D01*
X156190700Y-70223900D01*
X155725700Y-70223900D01*
X155636726Y-70206202D01*
X155561298Y-70155802D01*
X155510898Y-70080374D01*
X155493200Y-69991400D01*
X155493200Y-69526400D01*
X155510898Y-69437426D01*
X155561298Y-69361998D01*
X155636726Y-69311598D01*
X155725700Y-69293900D01*
X156190700Y-69293900D01*
X156279674Y-69311598D01*
G37*
G36*
X157429674Y-69311598D02*
G01*
X157505102Y-69361998D01*
X157555502Y-69437426D01*
X157573200Y-69526400D01*
X157573200Y-69991400D01*
X157555502Y-70080374D01*
X157505102Y-70155802D01*
X157429674Y-70206202D01*
X157340700Y-70223900D01*
X156875700Y-70223900D01*
X156786726Y-70206202D01*
X156711298Y-70155802D01*
X156660898Y-70080374D01*
X156643200Y-69991400D01*
X156643200Y-69526400D01*
X156660898Y-69437426D01*
X156711298Y-69361998D01*
X156786726Y-69311598D01*
X156875700Y-69293900D01*
X157340700Y-69293900D01*
X157429674Y-69311598D01*
G37*
G36*
X158579674Y-69311598D02*
G01*
X158655102Y-69361998D01*
X158705502Y-69437426D01*
X158723200Y-69526400D01*
X158723200Y-69991400D01*
X158705502Y-70080374D01*
X158655102Y-70155802D01*
X158579674Y-70206202D01*
X158490700Y-70223900D01*
X158025700Y-70223900D01*
X157936726Y-70206202D01*
X157861298Y-70155802D01*
X157810898Y-70080374D01*
X157793200Y-69991400D01*
X157793200Y-69526400D01*
X157810898Y-69437426D01*
X157861298Y-69361998D01*
X157936726Y-69311598D01*
X158025700Y-69293900D01*
X158490700Y-69293900D01*
X158579674Y-69311598D01*
G37*
G36*
X159729674Y-69311598D02*
G01*
X159805102Y-69361998D01*
X159855502Y-69437426D01*
X159873200Y-69526400D01*
X159873200Y-69991400D01*
X159855502Y-70080374D01*
X159805102Y-70155802D01*
X159729674Y-70206202D01*
X159640700Y-70223900D01*
X159175700Y-70223900D01*
X159086726Y-70206202D01*
X159011298Y-70155802D01*
X158960898Y-70080374D01*
X158943200Y-69991400D01*
X158943200Y-69526400D01*
X158960898Y-69437426D01*
X159011298Y-69361998D01*
X159086726Y-69311598D01*
X159175700Y-69293900D01*
X159640700Y-69293900D01*
X159729674Y-69311598D01*
G37*
G36*
X156279674Y-68161598D02*
G01*
X156355102Y-68211998D01*
X156405502Y-68287426D01*
X156423200Y-68376400D01*
X156423200Y-68841400D01*
X156405502Y-68930374D01*
X156355102Y-69005802D01*
X156279674Y-69056202D01*
X156190700Y-69073900D01*
X155725700Y-69073900D01*
X155636726Y-69056202D01*
X155561298Y-69005802D01*
X155510898Y-68930374D01*
X155493200Y-68841400D01*
X155493200Y-68376400D01*
X155510898Y-68287426D01*
X155561298Y-68211998D01*
X155636726Y-68161598D01*
X155725700Y-68143900D01*
X156190700Y-68143900D01*
X156279674Y-68161598D01*
G37*
G36*
X157429674Y-68161598D02*
G01*
X157505102Y-68211998D01*
X157555502Y-68287426D01*
X157573200Y-68376400D01*
X157573200Y-68841400D01*
X157555502Y-68930374D01*
X157505102Y-69005802D01*
X157429674Y-69056202D01*
X157340700Y-69073900D01*
X156875700Y-69073900D01*
X156786726Y-69056202D01*
X156711298Y-69005802D01*
X156660898Y-68930374D01*
X156643200Y-68841400D01*
X156643200Y-68376400D01*
X156660898Y-68287426D01*
X156711298Y-68211998D01*
X156786726Y-68161598D01*
X156875700Y-68143900D01*
X157340700Y-68143900D01*
X157429674Y-68161598D01*
G37*
G36*
X158579674Y-68161598D02*
G01*
X158655102Y-68211998D01*
X158705502Y-68287426D01*
X158723200Y-68376400D01*
X158723200Y-68841400D01*
X158705502Y-68930374D01*
X158655102Y-69005802D01*
X158579674Y-69056202D01*
X158490700Y-69073900D01*
X158025700Y-69073900D01*
X157936726Y-69056202D01*
X157861298Y-69005802D01*
X157810898Y-68930374D01*
X157793200Y-68841400D01*
X157793200Y-68376400D01*
X157810898Y-68287426D01*
X157861298Y-68211998D01*
X157936726Y-68161598D01*
X158025700Y-68143900D01*
X158490700Y-68143900D01*
X158579674Y-68161598D01*
G37*
G36*
X159729674Y-68161598D02*
G01*
X159805102Y-68211998D01*
X159855502Y-68287426D01*
X159873200Y-68376400D01*
X159873200Y-68841400D01*
X159855502Y-68930374D01*
X159805102Y-69005802D01*
X159729674Y-69056202D01*
X159640700Y-69073900D01*
X159175700Y-69073900D01*
X159086726Y-69056202D01*
X159011298Y-69005802D01*
X158960898Y-68930374D01*
X158943200Y-68841400D01*
X158943200Y-68376400D01*
X158960898Y-68287426D01*
X159011298Y-68211998D01*
X159086726Y-68161598D01*
X159175700Y-68143900D01*
X159640700Y-68143900D01*
X159729674Y-68161598D01*
G37*
G36*
X156279674Y-67011598D02*
G01*
X156355102Y-67061998D01*
X156405502Y-67137426D01*
X156423200Y-67226400D01*
X156423200Y-67691400D01*
X156405502Y-67780374D01*
X156355102Y-67855802D01*
X156279674Y-67906202D01*
X156190700Y-67923900D01*
X155725700Y-67923900D01*
X155636726Y-67906202D01*
X155561298Y-67855802D01*
X155510898Y-67780374D01*
X155493200Y-67691400D01*
X155493200Y-67226400D01*
X155510898Y-67137426D01*
X155561298Y-67061998D01*
X155636726Y-67011598D01*
X155725700Y-66993900D01*
X156190700Y-66993900D01*
X156279674Y-67011598D01*
G37*
G36*
X157429674Y-67011598D02*
G01*
X157505102Y-67061998D01*
X157555502Y-67137426D01*
X157573200Y-67226400D01*
X157573200Y-67691400D01*
X157555502Y-67780374D01*
X157505102Y-67855802D01*
X157429674Y-67906202D01*
X157340700Y-67923900D01*
X156875700Y-67923900D01*
X156786726Y-67906202D01*
X156711298Y-67855802D01*
X156660898Y-67780374D01*
X156643200Y-67691400D01*
X156643200Y-67226400D01*
X156660898Y-67137426D01*
X156711298Y-67061998D01*
X156786726Y-67011598D01*
X156875700Y-66993900D01*
X157340700Y-66993900D01*
X157429674Y-67011598D01*
G37*
G36*
X158579674Y-67011598D02*
G01*
X158655102Y-67061998D01*
X158705502Y-67137426D01*
X158723200Y-67226400D01*
X158723200Y-67691400D01*
X158705502Y-67780374D01*
X158655102Y-67855802D01*
X158579674Y-67906202D01*
X158490700Y-67923900D01*
X158025700Y-67923900D01*
X157936726Y-67906202D01*
X157861298Y-67855802D01*
X157810898Y-67780374D01*
X157793200Y-67691400D01*
X157793200Y-67226400D01*
X157810898Y-67137426D01*
X157861298Y-67061998D01*
X157936726Y-67011598D01*
X158025700Y-66993900D01*
X158490700Y-66993900D01*
X158579674Y-67011598D01*
G37*
G36*
X159729674Y-67011598D02*
G01*
X159805102Y-67061998D01*
X159855502Y-67137426D01*
X159873200Y-67226400D01*
X159873200Y-67691400D01*
X159855502Y-67780374D01*
X159805102Y-67855802D01*
X159729674Y-67906202D01*
X159640700Y-67923900D01*
X159175700Y-67923900D01*
X159086726Y-67906202D01*
X159011298Y-67855802D01*
X158960898Y-67780374D01*
X158943200Y-67691400D01*
X158943200Y-67226400D01*
X158960898Y-67137426D01*
X159011298Y-67061998D01*
X159086726Y-67011598D01*
X159175700Y-66993900D01*
X159640700Y-66993900D01*
X159729674Y-67011598D01*
G37*
G36*
X156279674Y-65861598D02*
G01*
X156355102Y-65911998D01*
X156405502Y-65987426D01*
X156423200Y-66076400D01*
X156423200Y-66541400D01*
X156405502Y-66630374D01*
X156355102Y-66705802D01*
X156279674Y-66756202D01*
X156190700Y-66773900D01*
X155725700Y-66773900D01*
X155636726Y-66756202D01*
X155561298Y-66705802D01*
X155510898Y-66630374D01*
X155493200Y-66541400D01*
X155493200Y-66076400D01*
X155510898Y-65987426D01*
X155561298Y-65911998D01*
X155636726Y-65861598D01*
X155725700Y-65843900D01*
X156190700Y-65843900D01*
X156279674Y-65861598D01*
G37*
G36*
X157429674Y-65861598D02*
G01*
X157505102Y-65911998D01*
X157555502Y-65987426D01*
X157573200Y-66076400D01*
X157573200Y-66541400D01*
X157555502Y-66630374D01*
X157505102Y-66705802D01*
X157429674Y-66756202D01*
X157340700Y-66773900D01*
X156875700Y-66773900D01*
X156786726Y-66756202D01*
X156711298Y-66705802D01*
X156660898Y-66630374D01*
X156643200Y-66541400D01*
X156643200Y-66076400D01*
X156660898Y-65987426D01*
X156711298Y-65911998D01*
X156786726Y-65861598D01*
X156875700Y-65843900D01*
X157340700Y-65843900D01*
X157429674Y-65861598D01*
G37*
G36*
X158579674Y-65861598D02*
G01*
X158655102Y-65911998D01*
X158705502Y-65987426D01*
X158723200Y-66076400D01*
X158723200Y-66541400D01*
X158705502Y-66630374D01*
X158655102Y-66705802D01*
X158579674Y-66756202D01*
X158490700Y-66773900D01*
X158025700Y-66773900D01*
X157936726Y-66756202D01*
X157861298Y-66705802D01*
X157810898Y-66630374D01*
X157793200Y-66541400D01*
X157793200Y-66076400D01*
X157810898Y-65987426D01*
X157861298Y-65911998D01*
X157936726Y-65861598D01*
X158025700Y-65843900D01*
X158490700Y-65843900D01*
X158579674Y-65861598D01*
G37*
G36*
X159729674Y-65861598D02*
G01*
X159805102Y-65911998D01*
X159855502Y-65987426D01*
X159873200Y-66076400D01*
X159873200Y-66541400D01*
X159855502Y-66630374D01*
X159805102Y-66705802D01*
X159729674Y-66756202D01*
X159640700Y-66773900D01*
X159175700Y-66773900D01*
X159086726Y-66756202D01*
X159011298Y-66705802D01*
X158960898Y-66630374D01*
X158943200Y-66541400D01*
X158943200Y-66076400D01*
X158960898Y-65987426D01*
X159011298Y-65911998D01*
X159086726Y-65861598D01*
X159175700Y-65843900D01*
X159640700Y-65843900D01*
X159729674Y-65861598D01*
G37*
D10*
X134602220Y-60111640D03*
G36*
X165510929Y-125251754D02*
G01*
X165590007Y-125304593D01*
X165642846Y-125383671D01*
X165661400Y-125476950D01*
X165661400Y-126389450D01*
X165642846Y-126482729D01*
X165590007Y-126561807D01*
X165510929Y-126614646D01*
X165417650Y-126633200D01*
X164930150Y-126633200D01*
X164836871Y-126614646D01*
X164757793Y-126561807D01*
X164704954Y-126482729D01*
X164686400Y-126389450D01*
X164686400Y-125476950D01*
X164704954Y-125383671D01*
X164757793Y-125304593D01*
X164836871Y-125251754D01*
X164930150Y-125233200D01*
X165417650Y-125233200D01*
X165510929Y-125251754D01*
G37*
G36*
X163635929Y-125251754D02*
G01*
X163715007Y-125304593D01*
X163767846Y-125383671D01*
X163786400Y-125476950D01*
X163786400Y-126389450D01*
X163767846Y-126482729D01*
X163715007Y-126561807D01*
X163635929Y-126614646D01*
X163542650Y-126633200D01*
X163055150Y-126633200D01*
X162961871Y-126614646D01*
X162882793Y-126561807D01*
X162829954Y-126482729D01*
X162811400Y-126389450D01*
X162811400Y-125476950D01*
X162829954Y-125383671D01*
X162882793Y-125304593D01*
X162961871Y-125251754D01*
X163055150Y-125233200D01*
X163542650Y-125233200D01*
X163635929Y-125251754D01*
G37*
D11*
X153365200Y-123391400D03*
X151665200Y-123391400D03*
X153365200Y-124866400D03*
X151665200Y-124866400D03*
X153365200Y-126341400D03*
X151665200Y-126341400D03*
X151665200Y-127816400D03*
X153365200Y-127816400D03*
D12*
X149565200Y-128523900D03*
X149565200Y-127873900D03*
X149565200Y-127223900D03*
X149565200Y-126573900D03*
X149565200Y-125933900D03*
X149565200Y-125273900D03*
X149565200Y-124633900D03*
X149565200Y-123983900D03*
X149565200Y-123333900D03*
X149565200Y-122683900D03*
X155465200Y-122683900D03*
X155465200Y-123333900D03*
X155465200Y-123983900D03*
X155465200Y-124633900D03*
X155465200Y-125273900D03*
X155465200Y-125933900D03*
X155465200Y-126573900D03*
X155465200Y-127223900D03*
X155465200Y-127873900D03*
X155465200Y-128523900D03*
D13*
X165937200Y-123596400D03*
X162637200Y-123596400D03*
D14*
X162784700Y-67781400D03*
X162784700Y-66381400D03*
X163884700Y-66381400D03*
X163884700Y-67781400D03*
G36*
X160201229Y-60023454D02*
G01*
X160280307Y-60076293D01*
X160333146Y-60155371D01*
X160351700Y-60248650D01*
X160351700Y-60736150D01*
X160333146Y-60829429D01*
X160280307Y-60908507D01*
X160201229Y-60961346D01*
X160107950Y-60979900D01*
X159195450Y-60979900D01*
X159102171Y-60961346D01*
X159023093Y-60908507D01*
X158970254Y-60829429D01*
X158951700Y-60736150D01*
X158951700Y-60248650D01*
X158970254Y-60155371D01*
X159023093Y-60076293D01*
X159102171Y-60023454D01*
X159195450Y-60004900D01*
X160107950Y-60004900D01*
X160201229Y-60023454D01*
G37*
G36*
X160201229Y-61898454D02*
G01*
X160280307Y-61951293D01*
X160333146Y-62030371D01*
X160351700Y-62123650D01*
X160351700Y-62611150D01*
X160333146Y-62704429D01*
X160280307Y-62783507D01*
X160201229Y-62836346D01*
X160107950Y-62854900D01*
X159195450Y-62854900D01*
X159102171Y-62836346D01*
X159023093Y-62783507D01*
X158970254Y-62704429D01*
X158951700Y-62611150D01*
X158951700Y-62123650D01*
X158970254Y-62030371D01*
X159023093Y-61951293D01*
X159102171Y-61898454D01*
X159195450Y-61879900D01*
X160107950Y-61879900D01*
X160201229Y-61898454D01*
G37*
G36*
X155502229Y-60086954D02*
G01*
X155581307Y-60139793D01*
X155634146Y-60218871D01*
X155652700Y-60312150D01*
X155652700Y-60799650D01*
X155634146Y-60892929D01*
X155581307Y-60972007D01*
X155502229Y-61024846D01*
X155408950Y-61043400D01*
X154496450Y-61043400D01*
X154403171Y-61024846D01*
X154324093Y-60972007D01*
X154271254Y-60892929D01*
X154252700Y-60799650D01*
X154252700Y-60312150D01*
X154271254Y-60218871D01*
X154324093Y-60139793D01*
X154403171Y-60086954D01*
X154496450Y-60068400D01*
X155408950Y-60068400D01*
X155502229Y-60086954D01*
G37*
G36*
X155502229Y-61961954D02*
G01*
X155581307Y-62014793D01*
X155634146Y-62093871D01*
X155652700Y-62187150D01*
X155652700Y-62674650D01*
X155634146Y-62767929D01*
X155581307Y-62847007D01*
X155502229Y-62899846D01*
X155408950Y-62918400D01*
X154496450Y-62918400D01*
X154403171Y-62899846D01*
X154324093Y-62847007D01*
X154271254Y-62767929D01*
X154252700Y-62674650D01*
X154252700Y-62187150D01*
X154271254Y-62093871D01*
X154324093Y-62014793D01*
X154403171Y-61961954D01*
X154496450Y-61943400D01*
X155408950Y-61943400D01*
X155502229Y-61961954D01*
G37*
G36*
X150004229Y-116882454D02*
G01*
X150083307Y-116935293D01*
X150136146Y-117014371D01*
X150154700Y-117107650D01*
X150154700Y-118020150D01*
X150136146Y-118113429D01*
X150083307Y-118192507D01*
X150004229Y-118245346D01*
X149910950Y-118263900D01*
X149423450Y-118263900D01*
X149330171Y-118245346D01*
X149251093Y-118192507D01*
X149198254Y-118113429D01*
X149179700Y-118020150D01*
X149179700Y-117107650D01*
X149198254Y-117014371D01*
X149251093Y-116935293D01*
X149330171Y-116882454D01*
X149423450Y-116863900D01*
X149910950Y-116863900D01*
X150004229Y-116882454D01*
G37*
G36*
X148129229Y-116882454D02*
G01*
X148208307Y-116935293D01*
X148261146Y-117014371D01*
X148279700Y-117107650D01*
X148279700Y-118020150D01*
X148261146Y-118113429D01*
X148208307Y-118192507D01*
X148129229Y-118245346D01*
X148035950Y-118263900D01*
X147548450Y-118263900D01*
X147455171Y-118245346D01*
X147376093Y-118192507D01*
X147323254Y-118113429D01*
X147304700Y-118020150D01*
X147304700Y-117107650D01*
X147323254Y-117014371D01*
X147376093Y-116935293D01*
X147455171Y-116882454D01*
X147548450Y-116863900D01*
X148035950Y-116863900D01*
X148129229Y-116882454D01*
G37*
G36*
X159622729Y-119485954D02*
G01*
X159701807Y-119538793D01*
X159754646Y-119617871D01*
X159773200Y-119711150D01*
X159773200Y-120623650D01*
X159754646Y-120716929D01*
X159701807Y-120796007D01*
X159622729Y-120848846D01*
X159529450Y-120867400D01*
X159041950Y-120867400D01*
X158948671Y-120848846D01*
X158869593Y-120796007D01*
X158816754Y-120716929D01*
X158798200Y-120623650D01*
X158798200Y-119711150D01*
X158816754Y-119617871D01*
X158869593Y-119538793D01*
X158948671Y-119485954D01*
X159041950Y-119467400D01*
X159529450Y-119467400D01*
X159622729Y-119485954D01*
G37*
G36*
X161497729Y-119485954D02*
G01*
X161576807Y-119538793D01*
X161629646Y-119617871D01*
X161648200Y-119711150D01*
X161648200Y-120623650D01*
X161629646Y-120716929D01*
X161576807Y-120796007D01*
X161497729Y-120848846D01*
X161404450Y-120867400D01*
X160916950Y-120867400D01*
X160823671Y-120848846D01*
X160744593Y-120796007D01*
X160691754Y-120716929D01*
X160673200Y-120623650D01*
X160673200Y-119711150D01*
X160691754Y-119617871D01*
X160744593Y-119538793D01*
X160823671Y-119485954D01*
X160916950Y-119467400D01*
X161404450Y-119467400D01*
X161497729Y-119485954D01*
G37*
G36*
X151240729Y-68876454D02*
G01*
X151319807Y-68929293D01*
X151372646Y-69008371D01*
X151391200Y-69101650D01*
X151391200Y-70014150D01*
X151372646Y-70107429D01*
X151319807Y-70186507D01*
X151240729Y-70239346D01*
X151147450Y-70257900D01*
X150659950Y-70257900D01*
X150566671Y-70239346D01*
X150487593Y-70186507D01*
X150434754Y-70107429D01*
X150416200Y-70014150D01*
X150416200Y-69101650D01*
X150434754Y-69008371D01*
X150487593Y-68929293D01*
X150566671Y-68876454D01*
X150659950Y-68857900D01*
X151147450Y-68857900D01*
X151240729Y-68876454D01*
G37*
G36*
X153115729Y-68876454D02*
G01*
X153194807Y-68929293D01*
X153247646Y-69008371D01*
X153266200Y-69101650D01*
X153266200Y-70014150D01*
X153247646Y-70107429D01*
X153194807Y-70186507D01*
X153115729Y-70239346D01*
X153022450Y-70257900D01*
X152534950Y-70257900D01*
X152441671Y-70239346D01*
X152362593Y-70186507D01*
X152309754Y-70107429D01*
X152291200Y-70014150D01*
X152291200Y-69101650D01*
X152309754Y-69008371D01*
X152362593Y-68929293D01*
X152441671Y-68876454D01*
X152534950Y-68857900D01*
X153022450Y-68857900D01*
X153115729Y-68876454D01*
G37*
G36*
X151240729Y-65828454D02*
G01*
X151319807Y-65881293D01*
X151372646Y-65960371D01*
X151391200Y-66053650D01*
X151391200Y-66966150D01*
X151372646Y-67059429D01*
X151319807Y-67138507D01*
X151240729Y-67191346D01*
X151147450Y-67209900D01*
X150659950Y-67209900D01*
X150566671Y-67191346D01*
X150487593Y-67138507D01*
X150434754Y-67059429D01*
X150416200Y-66966150D01*
X150416200Y-66053650D01*
X150434754Y-65960371D01*
X150487593Y-65881293D01*
X150566671Y-65828454D01*
X150659950Y-65809900D01*
X151147450Y-65809900D01*
X151240729Y-65828454D01*
G37*
G36*
X153115729Y-65828454D02*
G01*
X153194807Y-65881293D01*
X153247646Y-65960371D01*
X153266200Y-66053650D01*
X153266200Y-66966150D01*
X153247646Y-67059429D01*
X153194807Y-67138507D01*
X153115729Y-67191346D01*
X153022450Y-67209900D01*
X152534950Y-67209900D01*
X152441671Y-67191346D01*
X152362593Y-67138507D01*
X152309754Y-67059429D01*
X152291200Y-66966150D01*
X152291200Y-66053650D01*
X152309754Y-65960371D01*
X152362593Y-65881293D01*
X152441671Y-65828454D01*
X152534950Y-65809900D01*
X153022450Y-65809900D01*
X153115729Y-65828454D01*
G37*
G36*
X142625671Y-82072430D02*
G01*
X142706777Y-82126623D01*
X142760970Y-82207729D01*
X142780000Y-82303399D01*
X142780000Y-83128401D01*
X142760970Y-83224071D01*
X142706777Y-83305177D01*
X142625671Y-83359370D01*
X142530001Y-83378400D01*
X140679999Y-83378400D01*
X140584329Y-83359370D01*
X140503223Y-83305177D01*
X140449030Y-83224071D01*
X140430000Y-83128401D01*
X140430000Y-82303399D01*
X140449030Y-82207729D01*
X140503223Y-82126623D01*
X140584329Y-82072430D01*
X140679999Y-82053400D01*
X142530001Y-82053400D01*
X142625671Y-82072430D01*
G37*
G36*
X142625671Y-78997430D02*
G01*
X142706777Y-79051623D01*
X142760970Y-79132729D01*
X142780000Y-79228399D01*
X142780000Y-80053401D01*
X142760970Y-80149071D01*
X142706777Y-80230177D01*
X142625671Y-80284370D01*
X142530001Y-80303400D01*
X140679999Y-80303400D01*
X140584329Y-80284370D01*
X140503223Y-80230177D01*
X140449030Y-80149071D01*
X140430000Y-80053401D01*
X140430000Y-79228399D01*
X140449030Y-79132729D01*
X140503223Y-79051623D01*
X140584329Y-78997430D01*
X140679999Y-78978400D01*
X142530001Y-78978400D01*
X142625671Y-78997430D01*
G37*
D15*
X164990800Y-78408000D03*
D16*
X163465800Y-79883000D03*
D15*
X164990800Y-81358000D03*
G36*
X158486729Y-73948454D02*
G01*
X158565807Y-74001293D01*
X158618646Y-74080371D01*
X158637200Y-74173650D01*
X158637200Y-74661150D01*
X158618646Y-74754429D01*
X158565807Y-74833507D01*
X158486729Y-74886346D01*
X158393450Y-74904900D01*
X157480950Y-74904900D01*
X157387671Y-74886346D01*
X157308593Y-74833507D01*
X157255754Y-74754429D01*
X157237200Y-74661150D01*
X157237200Y-74173650D01*
X157255754Y-74080371D01*
X157308593Y-74001293D01*
X157387671Y-73948454D01*
X157480950Y-73929900D01*
X158393450Y-73929900D01*
X158486729Y-73948454D01*
G37*
G36*
X158486729Y-72073454D02*
G01*
X158565807Y-72126293D01*
X158618646Y-72205371D01*
X158637200Y-72298650D01*
X158637200Y-72786150D01*
X158618646Y-72879429D01*
X158565807Y-72958507D01*
X158486729Y-73011346D01*
X158393450Y-73029900D01*
X157480950Y-73029900D01*
X157387671Y-73011346D01*
X157308593Y-72958507D01*
X157255754Y-72879429D01*
X157237200Y-72786150D01*
X157237200Y-72298650D01*
X157255754Y-72205371D01*
X157308593Y-72126293D01*
X157387671Y-72073454D01*
X157480950Y-72054900D01*
X158393450Y-72054900D01*
X158486729Y-72073454D01*
G37*
G36*
X153533729Y-98123454D02*
G01*
X153612807Y-98176293D01*
X153665646Y-98255371D01*
X153684200Y-98348650D01*
X153684200Y-98836150D01*
X153665646Y-98929429D01*
X153612807Y-99008507D01*
X153533729Y-99061346D01*
X153440450Y-99079900D01*
X152527950Y-99079900D01*
X152434671Y-99061346D01*
X152355593Y-99008507D01*
X152302754Y-98929429D01*
X152284200Y-98836150D01*
X152284200Y-98348650D01*
X152302754Y-98255371D01*
X152355593Y-98176293D01*
X152434671Y-98123454D01*
X152527950Y-98104900D01*
X153440450Y-98104900D01*
X153533729Y-98123454D01*
G37*
G36*
X153533729Y-99998454D02*
G01*
X153612807Y-100051293D01*
X153665646Y-100130371D01*
X153684200Y-100223650D01*
X153684200Y-100711150D01*
X153665646Y-100804429D01*
X153612807Y-100883507D01*
X153533729Y-100936346D01*
X153440450Y-100954900D01*
X152527950Y-100954900D01*
X152434671Y-100936346D01*
X152355593Y-100883507D01*
X152302754Y-100804429D01*
X152284200Y-100711150D01*
X152284200Y-100223650D01*
X152302754Y-100130371D01*
X152355593Y-100051293D01*
X152434671Y-99998454D01*
X152527950Y-99979900D01*
X153440450Y-99979900D01*
X153533729Y-99998454D01*
G37*
D17*
X141660700Y-135404900D03*
X141660700Y-133504900D03*
X143860700Y-133504900D03*
X143860700Y-134454900D03*
X143860700Y-135404900D03*
D18*
X164326200Y-128460400D03*
X163486200Y-128460400D03*
X163486200Y-129400400D03*
X164326200Y-129400400D03*
D19*
X166011200Y-127955400D03*
X166011200Y-128605400D03*
X166011200Y-129255400D03*
X166011200Y-129905400D03*
X161801200Y-129905400D03*
X161801200Y-129255400D03*
X161801200Y-128605400D03*
X161801200Y-127955400D03*
D17*
X151861700Y-133504900D03*
X151861700Y-135404900D03*
X149661700Y-135404900D03*
X149661700Y-134454900D03*
X149661700Y-133504900D03*
G36*
X155260401Y-104589109D02*
G01*
X155284733Y-104605367D01*
X155300991Y-104629699D01*
X155306700Y-104658400D01*
X155306700Y-104808400D01*
X155300991Y-104837101D01*
X155284733Y-104861433D01*
X155260401Y-104877691D01*
X155231700Y-104883400D01*
X153831700Y-104883400D01*
X153802999Y-104877691D01*
X153778667Y-104861433D01*
X153762409Y-104837101D01*
X153756700Y-104808400D01*
X153756700Y-104658400D01*
X153762409Y-104629699D01*
X153778667Y-104605367D01*
X153802999Y-104589109D01*
X153831700Y-104583400D01*
X155231700Y-104583400D01*
X155260401Y-104589109D01*
G37*
G36*
X155260401Y-105089109D02*
G01*
X155284733Y-105105367D01*
X155300991Y-105129699D01*
X155306700Y-105158400D01*
X155306700Y-105308400D01*
X155300991Y-105337101D01*
X155284733Y-105361433D01*
X155260401Y-105377691D01*
X155231700Y-105383400D01*
X153831700Y-105383400D01*
X153802999Y-105377691D01*
X153778667Y-105361433D01*
X153762409Y-105337101D01*
X153756700Y-105308400D01*
X153756700Y-105158400D01*
X153762409Y-105129699D01*
X153778667Y-105105367D01*
X153802999Y-105089109D01*
X153831700Y-105083400D01*
X155231700Y-105083400D01*
X155260401Y-105089109D01*
G37*
G36*
X155260401Y-105589109D02*
G01*
X155284733Y-105605367D01*
X155300991Y-105629699D01*
X155306700Y-105658400D01*
X155306700Y-105808400D01*
X155300991Y-105837101D01*
X155284733Y-105861433D01*
X155260401Y-105877691D01*
X155231700Y-105883400D01*
X153831700Y-105883400D01*
X153802999Y-105877691D01*
X153778667Y-105861433D01*
X153762409Y-105837101D01*
X153756700Y-105808400D01*
X153756700Y-105658400D01*
X153762409Y-105629699D01*
X153778667Y-105605367D01*
X153802999Y-105589109D01*
X153831700Y-105583400D01*
X155231700Y-105583400D01*
X155260401Y-105589109D01*
G37*
G36*
X155260401Y-106089109D02*
G01*
X155284733Y-106105367D01*
X155300991Y-106129699D01*
X155306700Y-106158400D01*
X155306700Y-106308400D01*
X155300991Y-106337101D01*
X155284733Y-106361433D01*
X155260401Y-106377691D01*
X155231700Y-106383400D01*
X153831700Y-106383400D01*
X153802999Y-106377691D01*
X153778667Y-106361433D01*
X153762409Y-106337101D01*
X153756700Y-106308400D01*
X153756700Y-106158400D01*
X153762409Y-106129699D01*
X153778667Y-106105367D01*
X153802999Y-106089109D01*
X153831700Y-106083400D01*
X155231700Y-106083400D01*
X155260401Y-106089109D01*
G37*
G36*
X155260401Y-106589109D02*
G01*
X155284733Y-106605367D01*
X155300991Y-106629699D01*
X155306700Y-106658400D01*
X155306700Y-106808400D01*
X155300991Y-106837101D01*
X155284733Y-106861433D01*
X155260401Y-106877691D01*
X155231700Y-106883400D01*
X153831700Y-106883400D01*
X153802999Y-106877691D01*
X153778667Y-106861433D01*
X153762409Y-106837101D01*
X153756700Y-106808400D01*
X153756700Y-106658400D01*
X153762409Y-106629699D01*
X153778667Y-106605367D01*
X153802999Y-106589109D01*
X153831700Y-106583400D01*
X155231700Y-106583400D01*
X155260401Y-106589109D01*
G37*
G36*
X155260401Y-107089109D02*
G01*
X155284733Y-107105367D01*
X155300991Y-107129699D01*
X155306700Y-107158400D01*
X155306700Y-107308400D01*
X155300991Y-107337101D01*
X155284733Y-107361433D01*
X155260401Y-107377691D01*
X155231700Y-107383400D01*
X153831700Y-107383400D01*
X153802999Y-107377691D01*
X153778667Y-107361433D01*
X153762409Y-107337101D01*
X153756700Y-107308400D01*
X153756700Y-107158400D01*
X153762409Y-107129699D01*
X153778667Y-107105367D01*
X153802999Y-107089109D01*
X153831700Y-107083400D01*
X155231700Y-107083400D01*
X155260401Y-107089109D01*
G37*
G36*
X155260401Y-107589109D02*
G01*
X155284733Y-107605367D01*
X155300991Y-107629699D01*
X155306700Y-107658400D01*
X155306700Y-107808400D01*
X155300991Y-107837101D01*
X155284733Y-107861433D01*
X155260401Y-107877691D01*
X155231700Y-107883400D01*
X153831700Y-107883400D01*
X153802999Y-107877691D01*
X153778667Y-107861433D01*
X153762409Y-107837101D01*
X153756700Y-107808400D01*
X153756700Y-107658400D01*
X153762409Y-107629699D01*
X153778667Y-107605367D01*
X153802999Y-107589109D01*
X153831700Y-107583400D01*
X155231700Y-107583400D01*
X155260401Y-107589109D01*
G37*
G36*
X155260401Y-108089109D02*
G01*
X155284733Y-108105367D01*
X155300991Y-108129699D01*
X155306700Y-108158400D01*
X155306700Y-108308400D01*
X155300991Y-108337101D01*
X155284733Y-108361433D01*
X155260401Y-108377691D01*
X155231700Y-108383400D01*
X153831700Y-108383400D01*
X153802999Y-108377691D01*
X153778667Y-108361433D01*
X153762409Y-108337101D01*
X153756700Y-108308400D01*
X153756700Y-108158400D01*
X153762409Y-108129699D01*
X153778667Y-108105367D01*
X153802999Y-108089109D01*
X153831700Y-108083400D01*
X155231700Y-108083400D01*
X155260401Y-108089109D01*
G37*
G36*
X155260401Y-108589109D02*
G01*
X155284733Y-108605367D01*
X155300991Y-108629699D01*
X155306700Y-108658400D01*
X155306700Y-108808400D01*
X155300991Y-108837101D01*
X155284733Y-108861433D01*
X155260401Y-108877691D01*
X155231700Y-108883400D01*
X153831700Y-108883400D01*
X153802999Y-108877691D01*
X153778667Y-108861433D01*
X153762409Y-108837101D01*
X153756700Y-108808400D01*
X153756700Y-108658400D01*
X153762409Y-108629699D01*
X153778667Y-108605367D01*
X153802999Y-108589109D01*
X153831700Y-108583400D01*
X155231700Y-108583400D01*
X155260401Y-108589109D01*
G37*
G36*
X155260401Y-109089109D02*
G01*
X155284733Y-109105367D01*
X155300991Y-109129699D01*
X155306700Y-109158400D01*
X155306700Y-109308400D01*
X155300991Y-109337101D01*
X155284733Y-109361433D01*
X155260401Y-109377691D01*
X155231700Y-109383400D01*
X153831700Y-109383400D01*
X153802999Y-109377691D01*
X153778667Y-109361433D01*
X153762409Y-109337101D01*
X153756700Y-109308400D01*
X153756700Y-109158400D01*
X153762409Y-109129699D01*
X153778667Y-109105367D01*
X153802999Y-109089109D01*
X153831700Y-109083400D01*
X155231700Y-109083400D01*
X155260401Y-109089109D01*
G37*
G36*
X155260401Y-109589109D02*
G01*
X155284733Y-109605367D01*
X155300991Y-109629699D01*
X155306700Y-109658400D01*
X155306700Y-109808400D01*
X155300991Y-109837101D01*
X155284733Y-109861433D01*
X155260401Y-109877691D01*
X155231700Y-109883400D01*
X153831700Y-109883400D01*
X153802999Y-109877691D01*
X153778667Y-109861433D01*
X153762409Y-109837101D01*
X153756700Y-109808400D01*
X153756700Y-109658400D01*
X153762409Y-109629699D01*
X153778667Y-109605367D01*
X153802999Y-109589109D01*
X153831700Y-109583400D01*
X155231700Y-109583400D01*
X155260401Y-109589109D01*
G37*
G36*
X155260401Y-110089109D02*
G01*
X155284733Y-110105367D01*
X155300991Y-110129699D01*
X155306700Y-110158400D01*
X155306700Y-110308400D01*
X155300991Y-110337101D01*
X155284733Y-110361433D01*
X155260401Y-110377691D01*
X155231700Y-110383400D01*
X153831700Y-110383400D01*
X153802999Y-110377691D01*
X153778667Y-110361433D01*
X153762409Y-110337101D01*
X153756700Y-110308400D01*
X153756700Y-110158400D01*
X153762409Y-110129699D01*
X153778667Y-110105367D01*
X153802999Y-110089109D01*
X153831700Y-110083400D01*
X155231700Y-110083400D01*
X155260401Y-110089109D01*
G37*
G36*
X155260401Y-110589109D02*
G01*
X155284733Y-110605367D01*
X155300991Y-110629699D01*
X155306700Y-110658400D01*
X155306700Y-110808400D01*
X155300991Y-110837101D01*
X155284733Y-110861433D01*
X155260401Y-110877691D01*
X155231700Y-110883400D01*
X153831700Y-110883400D01*
X153802999Y-110877691D01*
X153778667Y-110861433D01*
X153762409Y-110837101D01*
X153756700Y-110808400D01*
X153756700Y-110658400D01*
X153762409Y-110629699D01*
X153778667Y-110605367D01*
X153802999Y-110589109D01*
X153831700Y-110583400D01*
X155231700Y-110583400D01*
X155260401Y-110589109D01*
G37*
G36*
X155260401Y-111089109D02*
G01*
X155284733Y-111105367D01*
X155300991Y-111129699D01*
X155306700Y-111158400D01*
X155306700Y-111308400D01*
X155300991Y-111337101D01*
X155284733Y-111361433D01*
X155260401Y-111377691D01*
X155231700Y-111383400D01*
X153831700Y-111383400D01*
X153802999Y-111377691D01*
X153778667Y-111361433D01*
X153762409Y-111337101D01*
X153756700Y-111308400D01*
X153756700Y-111158400D01*
X153762409Y-111129699D01*
X153778667Y-111105367D01*
X153802999Y-111089109D01*
X153831700Y-111083400D01*
X155231700Y-111083400D01*
X155260401Y-111089109D01*
G37*
G36*
X155260401Y-111589109D02*
G01*
X155284733Y-111605367D01*
X155300991Y-111629699D01*
X155306700Y-111658400D01*
X155306700Y-111808400D01*
X155300991Y-111837101D01*
X155284733Y-111861433D01*
X155260401Y-111877691D01*
X155231700Y-111883400D01*
X153831700Y-111883400D01*
X153802999Y-111877691D01*
X153778667Y-111861433D01*
X153762409Y-111837101D01*
X153756700Y-111808400D01*
X153756700Y-111658400D01*
X153762409Y-111629699D01*
X153778667Y-111605367D01*
X153802999Y-111589109D01*
X153831700Y-111583400D01*
X155231700Y-111583400D01*
X155260401Y-111589109D01*
G37*
G36*
X155260401Y-112089109D02*
G01*
X155284733Y-112105367D01*
X155300991Y-112129699D01*
X155306700Y-112158400D01*
X155306700Y-112308400D01*
X155300991Y-112337101D01*
X155284733Y-112361433D01*
X155260401Y-112377691D01*
X155231700Y-112383400D01*
X153831700Y-112383400D01*
X153802999Y-112377691D01*
X153778667Y-112361433D01*
X153762409Y-112337101D01*
X153756700Y-112308400D01*
X153756700Y-112158400D01*
X153762409Y-112129699D01*
X153778667Y-112105367D01*
X153802999Y-112089109D01*
X153831700Y-112083400D01*
X155231700Y-112083400D01*
X155260401Y-112089109D01*
G37*
G36*
X152710401Y-113389109D02*
G01*
X152734733Y-113405367D01*
X152750991Y-113429699D01*
X152756700Y-113458400D01*
X152756700Y-114858400D01*
X152750991Y-114887101D01*
X152734733Y-114911433D01*
X152710401Y-114927691D01*
X152681700Y-114933400D01*
X152531700Y-114933400D01*
X152502999Y-114927691D01*
X152478667Y-114911433D01*
X152462409Y-114887101D01*
X152456700Y-114858400D01*
X152456700Y-113458400D01*
X152462409Y-113429699D01*
X152478667Y-113405367D01*
X152502999Y-113389109D01*
X152531700Y-113383400D01*
X152681700Y-113383400D01*
X152710401Y-113389109D01*
G37*
G36*
X152210401Y-113389109D02*
G01*
X152234733Y-113405367D01*
X152250991Y-113429699D01*
X152256700Y-113458400D01*
X152256700Y-114858400D01*
X152250991Y-114887101D01*
X152234733Y-114911433D01*
X152210401Y-114927691D01*
X152181700Y-114933400D01*
X152031700Y-114933400D01*
X152002999Y-114927691D01*
X151978667Y-114911433D01*
X151962409Y-114887101D01*
X151956700Y-114858400D01*
X151956700Y-113458400D01*
X151962409Y-113429699D01*
X151978667Y-113405367D01*
X152002999Y-113389109D01*
X152031700Y-113383400D01*
X152181700Y-113383400D01*
X152210401Y-113389109D01*
G37*
G36*
X151710401Y-113389109D02*
G01*
X151734733Y-113405367D01*
X151750991Y-113429699D01*
X151756700Y-113458400D01*
X151756700Y-114858400D01*
X151750991Y-114887101D01*
X151734733Y-114911433D01*
X151710401Y-114927691D01*
X151681700Y-114933400D01*
X151531700Y-114933400D01*
X151502999Y-114927691D01*
X151478667Y-114911433D01*
X151462409Y-114887101D01*
X151456700Y-114858400D01*
X151456700Y-113458400D01*
X151462409Y-113429699D01*
X151478667Y-113405367D01*
X151502999Y-113389109D01*
X151531700Y-113383400D01*
X151681700Y-113383400D01*
X151710401Y-113389109D01*
G37*
G36*
X151210401Y-113389109D02*
G01*
X151234733Y-113405367D01*
X151250991Y-113429699D01*
X151256700Y-113458400D01*
X151256700Y-114858400D01*
X151250991Y-114887101D01*
X151234733Y-114911433D01*
X151210401Y-114927691D01*
X151181700Y-114933400D01*
X151031700Y-114933400D01*
X151002999Y-114927691D01*
X150978667Y-114911433D01*
X150962409Y-114887101D01*
X150956700Y-114858400D01*
X150956700Y-113458400D01*
X150962409Y-113429699D01*
X150978667Y-113405367D01*
X151002999Y-113389109D01*
X151031700Y-113383400D01*
X151181700Y-113383400D01*
X151210401Y-113389109D01*
G37*
G36*
X150710401Y-113389109D02*
G01*
X150734733Y-113405367D01*
X150750991Y-113429699D01*
X150756700Y-113458400D01*
X150756700Y-114858400D01*
X150750991Y-114887101D01*
X150734733Y-114911433D01*
X150710401Y-114927691D01*
X150681700Y-114933400D01*
X150531700Y-114933400D01*
X150502999Y-114927691D01*
X150478667Y-114911433D01*
X150462409Y-114887101D01*
X150456700Y-114858400D01*
X150456700Y-113458400D01*
X150462409Y-113429699D01*
X150478667Y-113405367D01*
X150502999Y-113389109D01*
X150531700Y-113383400D01*
X150681700Y-113383400D01*
X150710401Y-113389109D01*
G37*
G36*
X150210401Y-113389109D02*
G01*
X150234733Y-113405367D01*
X150250991Y-113429699D01*
X150256700Y-113458400D01*
X150256700Y-114858400D01*
X150250991Y-114887101D01*
X150234733Y-114911433D01*
X150210401Y-114927691D01*
X150181700Y-114933400D01*
X150031700Y-114933400D01*
X150002999Y-114927691D01*
X149978667Y-114911433D01*
X149962409Y-114887101D01*
X149956700Y-114858400D01*
X149956700Y-113458400D01*
X149962409Y-113429699D01*
X149978667Y-113405367D01*
X150002999Y-113389109D01*
X150031700Y-113383400D01*
X150181700Y-113383400D01*
X150210401Y-113389109D01*
G37*
G36*
X149710401Y-113389109D02*
G01*
X149734733Y-113405367D01*
X149750991Y-113429699D01*
X149756700Y-113458400D01*
X149756700Y-114858400D01*
X149750991Y-114887101D01*
X149734733Y-114911433D01*
X149710401Y-114927691D01*
X149681700Y-114933400D01*
X149531700Y-114933400D01*
X149502999Y-114927691D01*
X149478667Y-114911433D01*
X149462409Y-114887101D01*
X149456700Y-114858400D01*
X149456700Y-113458400D01*
X149462409Y-113429699D01*
X149478667Y-113405367D01*
X149502999Y-113389109D01*
X149531700Y-113383400D01*
X149681700Y-113383400D01*
X149710401Y-113389109D01*
G37*
G36*
X149210401Y-113389109D02*
G01*
X149234733Y-113405367D01*
X149250991Y-113429699D01*
X149256700Y-113458400D01*
X149256700Y-114858400D01*
X149250991Y-114887101D01*
X149234733Y-114911433D01*
X149210401Y-114927691D01*
X149181700Y-114933400D01*
X149031700Y-114933400D01*
X149002999Y-114927691D01*
X148978667Y-114911433D01*
X148962409Y-114887101D01*
X148956700Y-114858400D01*
X148956700Y-113458400D01*
X148962409Y-113429699D01*
X148978667Y-113405367D01*
X149002999Y-113389109D01*
X149031700Y-113383400D01*
X149181700Y-113383400D01*
X149210401Y-113389109D01*
G37*
G36*
X148710401Y-113389109D02*
G01*
X148734733Y-113405367D01*
X148750991Y-113429699D01*
X148756700Y-113458400D01*
X148756700Y-114858400D01*
X148750991Y-114887101D01*
X148734733Y-114911433D01*
X148710401Y-114927691D01*
X148681700Y-114933400D01*
X148531700Y-114933400D01*
X148502999Y-114927691D01*
X148478667Y-114911433D01*
X148462409Y-114887101D01*
X148456700Y-114858400D01*
X148456700Y-113458400D01*
X148462409Y-113429699D01*
X148478667Y-113405367D01*
X148502999Y-113389109D01*
X148531700Y-113383400D01*
X148681700Y-113383400D01*
X148710401Y-113389109D01*
G37*
G36*
X148210401Y-113389109D02*
G01*
X148234733Y-113405367D01*
X148250991Y-113429699D01*
X148256700Y-113458400D01*
X148256700Y-114858400D01*
X148250991Y-114887101D01*
X148234733Y-114911433D01*
X148210401Y-114927691D01*
X148181700Y-114933400D01*
X148031700Y-114933400D01*
X148002999Y-114927691D01*
X147978667Y-114911433D01*
X147962409Y-114887101D01*
X147956700Y-114858400D01*
X147956700Y-113458400D01*
X147962409Y-113429699D01*
X147978667Y-113405367D01*
X148002999Y-113389109D01*
X148031700Y-113383400D01*
X148181700Y-113383400D01*
X148210401Y-113389109D01*
G37*
G36*
X147710401Y-113389109D02*
G01*
X147734733Y-113405367D01*
X147750991Y-113429699D01*
X147756700Y-113458400D01*
X147756700Y-114858400D01*
X147750991Y-114887101D01*
X147734733Y-114911433D01*
X147710401Y-114927691D01*
X147681700Y-114933400D01*
X147531700Y-114933400D01*
X147502999Y-114927691D01*
X147478667Y-114911433D01*
X147462409Y-114887101D01*
X147456700Y-114858400D01*
X147456700Y-113458400D01*
X147462409Y-113429699D01*
X147478667Y-113405367D01*
X147502999Y-113389109D01*
X147531700Y-113383400D01*
X147681700Y-113383400D01*
X147710401Y-113389109D01*
G37*
G36*
X147210401Y-113389109D02*
G01*
X147234733Y-113405367D01*
X147250991Y-113429699D01*
X147256700Y-113458400D01*
X147256700Y-114858400D01*
X147250991Y-114887101D01*
X147234733Y-114911433D01*
X147210401Y-114927691D01*
X147181700Y-114933400D01*
X147031700Y-114933400D01*
X147002999Y-114927691D01*
X146978667Y-114911433D01*
X146962409Y-114887101D01*
X146956700Y-114858400D01*
X146956700Y-113458400D01*
X146962409Y-113429699D01*
X146978667Y-113405367D01*
X147002999Y-113389109D01*
X147031700Y-113383400D01*
X147181700Y-113383400D01*
X147210401Y-113389109D01*
G37*
G36*
X146710401Y-113389109D02*
G01*
X146734733Y-113405367D01*
X146750991Y-113429699D01*
X146756700Y-113458400D01*
X146756700Y-114858400D01*
X146750991Y-114887101D01*
X146734733Y-114911433D01*
X146710401Y-114927691D01*
X146681700Y-114933400D01*
X146531700Y-114933400D01*
X146502999Y-114927691D01*
X146478667Y-114911433D01*
X146462409Y-114887101D01*
X146456700Y-114858400D01*
X146456700Y-113458400D01*
X146462409Y-113429699D01*
X146478667Y-113405367D01*
X146502999Y-113389109D01*
X146531700Y-113383400D01*
X146681700Y-113383400D01*
X146710401Y-113389109D01*
G37*
G36*
X146210401Y-113389109D02*
G01*
X146234733Y-113405367D01*
X146250991Y-113429699D01*
X146256700Y-113458400D01*
X146256700Y-114858400D01*
X146250991Y-114887101D01*
X146234733Y-114911433D01*
X146210401Y-114927691D01*
X146181700Y-114933400D01*
X146031700Y-114933400D01*
X146002999Y-114927691D01*
X145978667Y-114911433D01*
X145962409Y-114887101D01*
X145956700Y-114858400D01*
X145956700Y-113458400D01*
X145962409Y-113429699D01*
X145978667Y-113405367D01*
X146002999Y-113389109D01*
X146031700Y-113383400D01*
X146181700Y-113383400D01*
X146210401Y-113389109D01*
G37*
G36*
X145710401Y-113389109D02*
G01*
X145734733Y-113405367D01*
X145750991Y-113429699D01*
X145756700Y-113458400D01*
X145756700Y-114858400D01*
X145750991Y-114887101D01*
X145734733Y-114911433D01*
X145710401Y-114927691D01*
X145681700Y-114933400D01*
X145531700Y-114933400D01*
X145502999Y-114927691D01*
X145478667Y-114911433D01*
X145462409Y-114887101D01*
X145456700Y-114858400D01*
X145456700Y-113458400D01*
X145462409Y-113429699D01*
X145478667Y-113405367D01*
X145502999Y-113389109D01*
X145531700Y-113383400D01*
X145681700Y-113383400D01*
X145710401Y-113389109D01*
G37*
G36*
X145210401Y-113389109D02*
G01*
X145234733Y-113405367D01*
X145250991Y-113429699D01*
X145256700Y-113458400D01*
X145256700Y-114858400D01*
X145250991Y-114887101D01*
X145234733Y-114911433D01*
X145210401Y-114927691D01*
X145181700Y-114933400D01*
X145031700Y-114933400D01*
X145002999Y-114927691D01*
X144978667Y-114911433D01*
X144962409Y-114887101D01*
X144956700Y-114858400D01*
X144956700Y-113458400D01*
X144962409Y-113429699D01*
X144978667Y-113405367D01*
X145002999Y-113389109D01*
X145031700Y-113383400D01*
X145181700Y-113383400D01*
X145210401Y-113389109D01*
G37*
G36*
X143910401Y-112089109D02*
G01*
X143934733Y-112105367D01*
X143950991Y-112129699D01*
X143956700Y-112158400D01*
X143956700Y-112308400D01*
X143950991Y-112337101D01*
X143934733Y-112361433D01*
X143910401Y-112377691D01*
X143881700Y-112383400D01*
X142481700Y-112383400D01*
X142452999Y-112377691D01*
X142428667Y-112361433D01*
X142412409Y-112337101D01*
X142406700Y-112308400D01*
X142406700Y-112158400D01*
X142412409Y-112129699D01*
X142428667Y-112105367D01*
X142452999Y-112089109D01*
X142481700Y-112083400D01*
X143881700Y-112083400D01*
X143910401Y-112089109D01*
G37*
G36*
X143910401Y-111589109D02*
G01*
X143934733Y-111605367D01*
X143950991Y-111629699D01*
X143956700Y-111658400D01*
X143956700Y-111808400D01*
X143950991Y-111837101D01*
X143934733Y-111861433D01*
X143910401Y-111877691D01*
X143881700Y-111883400D01*
X142481700Y-111883400D01*
X142452999Y-111877691D01*
X142428667Y-111861433D01*
X142412409Y-111837101D01*
X142406700Y-111808400D01*
X142406700Y-111658400D01*
X142412409Y-111629699D01*
X142428667Y-111605367D01*
X142452999Y-111589109D01*
X142481700Y-111583400D01*
X143881700Y-111583400D01*
X143910401Y-111589109D01*
G37*
G36*
X143910401Y-111089109D02*
G01*
X143934733Y-111105367D01*
X143950991Y-111129699D01*
X143956700Y-111158400D01*
X143956700Y-111308400D01*
X143950991Y-111337101D01*
X143934733Y-111361433D01*
X143910401Y-111377691D01*
X143881700Y-111383400D01*
X142481700Y-111383400D01*
X142452999Y-111377691D01*
X142428667Y-111361433D01*
X142412409Y-111337101D01*
X142406700Y-111308400D01*
X142406700Y-111158400D01*
X142412409Y-111129699D01*
X142428667Y-111105367D01*
X142452999Y-111089109D01*
X142481700Y-111083400D01*
X143881700Y-111083400D01*
X143910401Y-111089109D01*
G37*
G36*
X143910401Y-110589109D02*
G01*
X143934733Y-110605367D01*
X143950991Y-110629699D01*
X143956700Y-110658400D01*
X143956700Y-110808400D01*
X143950991Y-110837101D01*
X143934733Y-110861433D01*
X143910401Y-110877691D01*
X143881700Y-110883400D01*
X142481700Y-110883400D01*
X142452999Y-110877691D01*
X142428667Y-110861433D01*
X142412409Y-110837101D01*
X142406700Y-110808400D01*
X142406700Y-110658400D01*
X142412409Y-110629699D01*
X142428667Y-110605367D01*
X142452999Y-110589109D01*
X142481700Y-110583400D01*
X143881700Y-110583400D01*
X143910401Y-110589109D01*
G37*
G36*
X143910401Y-110089109D02*
G01*
X143934733Y-110105367D01*
X143950991Y-110129699D01*
X143956700Y-110158400D01*
X143956700Y-110308400D01*
X143950991Y-110337101D01*
X143934733Y-110361433D01*
X143910401Y-110377691D01*
X143881700Y-110383400D01*
X142481700Y-110383400D01*
X142452999Y-110377691D01*
X142428667Y-110361433D01*
X142412409Y-110337101D01*
X142406700Y-110308400D01*
X142406700Y-110158400D01*
X142412409Y-110129699D01*
X142428667Y-110105367D01*
X142452999Y-110089109D01*
X142481700Y-110083400D01*
X143881700Y-110083400D01*
X143910401Y-110089109D01*
G37*
G36*
X143910401Y-109589109D02*
G01*
X143934733Y-109605367D01*
X143950991Y-109629699D01*
X143956700Y-109658400D01*
X143956700Y-109808400D01*
X143950991Y-109837101D01*
X143934733Y-109861433D01*
X143910401Y-109877691D01*
X143881700Y-109883400D01*
X142481700Y-109883400D01*
X142452999Y-109877691D01*
X142428667Y-109861433D01*
X142412409Y-109837101D01*
X142406700Y-109808400D01*
X142406700Y-109658400D01*
X142412409Y-109629699D01*
X142428667Y-109605367D01*
X142452999Y-109589109D01*
X142481700Y-109583400D01*
X143881700Y-109583400D01*
X143910401Y-109589109D01*
G37*
G36*
X143910401Y-109089109D02*
G01*
X143934733Y-109105367D01*
X143950991Y-109129699D01*
X143956700Y-109158400D01*
X143956700Y-109308400D01*
X143950991Y-109337101D01*
X143934733Y-109361433D01*
X143910401Y-109377691D01*
X143881700Y-109383400D01*
X142481700Y-109383400D01*
X142452999Y-109377691D01*
X142428667Y-109361433D01*
X142412409Y-109337101D01*
X142406700Y-109308400D01*
X142406700Y-109158400D01*
X142412409Y-109129699D01*
X142428667Y-109105367D01*
X142452999Y-109089109D01*
X142481700Y-109083400D01*
X143881700Y-109083400D01*
X143910401Y-109089109D01*
G37*
G36*
X143910401Y-108589109D02*
G01*
X143934733Y-108605367D01*
X143950991Y-108629699D01*
X143956700Y-108658400D01*
X143956700Y-108808400D01*
X143950991Y-108837101D01*
X143934733Y-108861433D01*
X143910401Y-108877691D01*
X143881700Y-108883400D01*
X142481700Y-108883400D01*
X142452999Y-108877691D01*
X142428667Y-108861433D01*
X142412409Y-108837101D01*
X142406700Y-108808400D01*
X142406700Y-108658400D01*
X142412409Y-108629699D01*
X142428667Y-108605367D01*
X142452999Y-108589109D01*
X142481700Y-108583400D01*
X143881700Y-108583400D01*
X143910401Y-108589109D01*
G37*
G36*
X143910401Y-108089109D02*
G01*
X143934733Y-108105367D01*
X143950991Y-108129699D01*
X143956700Y-108158400D01*
X143956700Y-108308400D01*
X143950991Y-108337101D01*
X143934733Y-108361433D01*
X143910401Y-108377691D01*
X143881700Y-108383400D01*
X142481700Y-108383400D01*
X142452999Y-108377691D01*
X142428667Y-108361433D01*
X142412409Y-108337101D01*
X142406700Y-108308400D01*
X142406700Y-108158400D01*
X142412409Y-108129699D01*
X142428667Y-108105367D01*
X142452999Y-108089109D01*
X142481700Y-108083400D01*
X143881700Y-108083400D01*
X143910401Y-108089109D01*
G37*
G36*
X143910401Y-107589109D02*
G01*
X143934733Y-107605367D01*
X143950991Y-107629699D01*
X143956700Y-107658400D01*
X143956700Y-107808400D01*
X143950991Y-107837101D01*
X143934733Y-107861433D01*
X143910401Y-107877691D01*
X143881700Y-107883400D01*
X142481700Y-107883400D01*
X142452999Y-107877691D01*
X142428667Y-107861433D01*
X142412409Y-107837101D01*
X142406700Y-107808400D01*
X142406700Y-107658400D01*
X142412409Y-107629699D01*
X142428667Y-107605367D01*
X142452999Y-107589109D01*
X142481700Y-107583400D01*
X143881700Y-107583400D01*
X143910401Y-107589109D01*
G37*
G36*
X143910401Y-107089109D02*
G01*
X143934733Y-107105367D01*
X143950991Y-107129699D01*
X143956700Y-107158400D01*
X143956700Y-107308400D01*
X143950991Y-107337101D01*
X143934733Y-107361433D01*
X143910401Y-107377691D01*
X143881700Y-107383400D01*
X142481700Y-107383400D01*
X142452999Y-107377691D01*
X142428667Y-107361433D01*
X142412409Y-107337101D01*
X142406700Y-107308400D01*
X142406700Y-107158400D01*
X142412409Y-107129699D01*
X142428667Y-107105367D01*
X142452999Y-107089109D01*
X142481700Y-107083400D01*
X143881700Y-107083400D01*
X143910401Y-107089109D01*
G37*
G36*
X143910401Y-106589109D02*
G01*
X143934733Y-106605367D01*
X143950991Y-106629699D01*
X143956700Y-106658400D01*
X143956700Y-106808400D01*
X143950991Y-106837101D01*
X143934733Y-106861433D01*
X143910401Y-106877691D01*
X143881700Y-106883400D01*
X142481700Y-106883400D01*
X142452999Y-106877691D01*
X142428667Y-106861433D01*
X142412409Y-106837101D01*
X142406700Y-106808400D01*
X142406700Y-106658400D01*
X142412409Y-106629699D01*
X142428667Y-106605367D01*
X142452999Y-106589109D01*
X142481700Y-106583400D01*
X143881700Y-106583400D01*
X143910401Y-106589109D01*
G37*
G36*
X143910401Y-106089109D02*
G01*
X143934733Y-106105367D01*
X143950991Y-106129699D01*
X143956700Y-106158400D01*
X143956700Y-106308400D01*
X143950991Y-106337101D01*
X143934733Y-106361433D01*
X143910401Y-106377691D01*
X143881700Y-106383400D01*
X142481700Y-106383400D01*
X142452999Y-106377691D01*
X142428667Y-106361433D01*
X142412409Y-106337101D01*
X142406700Y-106308400D01*
X142406700Y-106158400D01*
X142412409Y-106129699D01*
X142428667Y-106105367D01*
X142452999Y-106089109D01*
X142481700Y-106083400D01*
X143881700Y-106083400D01*
X143910401Y-106089109D01*
G37*
G36*
X143910401Y-105589109D02*
G01*
X143934733Y-105605367D01*
X143950991Y-105629699D01*
X143956700Y-105658400D01*
X143956700Y-105808400D01*
X143950991Y-105837101D01*
X143934733Y-105861433D01*
X143910401Y-105877691D01*
X143881700Y-105883400D01*
X142481700Y-105883400D01*
X142452999Y-105877691D01*
X142428667Y-105861433D01*
X142412409Y-105837101D01*
X142406700Y-105808400D01*
X142406700Y-105658400D01*
X142412409Y-105629699D01*
X142428667Y-105605367D01*
X142452999Y-105589109D01*
X142481700Y-105583400D01*
X143881700Y-105583400D01*
X143910401Y-105589109D01*
G37*
G36*
X143910401Y-105089109D02*
G01*
X143934733Y-105105367D01*
X143950991Y-105129699D01*
X143956700Y-105158400D01*
X143956700Y-105308400D01*
X143950991Y-105337101D01*
X143934733Y-105361433D01*
X143910401Y-105377691D01*
X143881700Y-105383400D01*
X142481700Y-105383400D01*
X142452999Y-105377691D01*
X142428667Y-105361433D01*
X142412409Y-105337101D01*
X142406700Y-105308400D01*
X142406700Y-105158400D01*
X142412409Y-105129699D01*
X142428667Y-105105367D01*
X142452999Y-105089109D01*
X142481700Y-105083400D01*
X143881700Y-105083400D01*
X143910401Y-105089109D01*
G37*
G36*
X143910401Y-104589109D02*
G01*
X143934733Y-104605367D01*
X143950991Y-104629699D01*
X143956700Y-104658400D01*
X143956700Y-104808400D01*
X143950991Y-104837101D01*
X143934733Y-104861433D01*
X143910401Y-104877691D01*
X143881700Y-104883400D01*
X142481700Y-104883400D01*
X142452999Y-104877691D01*
X142428667Y-104861433D01*
X142412409Y-104837101D01*
X142406700Y-104808400D01*
X142406700Y-104658400D01*
X142412409Y-104629699D01*
X142428667Y-104605367D01*
X142452999Y-104589109D01*
X142481700Y-104583400D01*
X143881700Y-104583400D01*
X143910401Y-104589109D01*
G37*
G36*
X145210401Y-102039109D02*
G01*
X145234733Y-102055367D01*
X145250991Y-102079699D01*
X145256700Y-102108400D01*
X145256700Y-103508400D01*
X145250991Y-103537101D01*
X145234733Y-103561433D01*
X145210401Y-103577691D01*
X145181700Y-103583400D01*
X145031700Y-103583400D01*
X145002999Y-103577691D01*
X144978667Y-103561433D01*
X144962409Y-103537101D01*
X144956700Y-103508400D01*
X144956700Y-102108400D01*
X144962409Y-102079699D01*
X144978667Y-102055367D01*
X145002999Y-102039109D01*
X145031700Y-102033400D01*
X145181700Y-102033400D01*
X145210401Y-102039109D01*
G37*
G36*
X145710401Y-102039109D02*
G01*
X145734733Y-102055367D01*
X145750991Y-102079699D01*
X145756700Y-102108400D01*
X145756700Y-103508400D01*
X145750991Y-103537101D01*
X145734733Y-103561433D01*
X145710401Y-103577691D01*
X145681700Y-103583400D01*
X145531700Y-103583400D01*
X145502999Y-103577691D01*
X145478667Y-103561433D01*
X145462409Y-103537101D01*
X145456700Y-103508400D01*
X145456700Y-102108400D01*
X145462409Y-102079699D01*
X145478667Y-102055367D01*
X145502999Y-102039109D01*
X145531700Y-102033400D01*
X145681700Y-102033400D01*
X145710401Y-102039109D01*
G37*
G36*
X146210401Y-102039109D02*
G01*
X146234733Y-102055367D01*
X146250991Y-102079699D01*
X146256700Y-102108400D01*
X146256700Y-103508400D01*
X146250991Y-103537101D01*
X146234733Y-103561433D01*
X146210401Y-103577691D01*
X146181700Y-103583400D01*
X146031700Y-103583400D01*
X146002999Y-103577691D01*
X145978667Y-103561433D01*
X145962409Y-103537101D01*
X145956700Y-103508400D01*
X145956700Y-102108400D01*
X145962409Y-102079699D01*
X145978667Y-102055367D01*
X146002999Y-102039109D01*
X146031700Y-102033400D01*
X146181700Y-102033400D01*
X146210401Y-102039109D01*
G37*
G36*
X146710401Y-102039109D02*
G01*
X146734733Y-102055367D01*
X146750991Y-102079699D01*
X146756700Y-102108400D01*
X146756700Y-103508400D01*
X146750991Y-103537101D01*
X146734733Y-103561433D01*
X146710401Y-103577691D01*
X146681700Y-103583400D01*
X146531700Y-103583400D01*
X146502999Y-103577691D01*
X146478667Y-103561433D01*
X146462409Y-103537101D01*
X146456700Y-103508400D01*
X146456700Y-102108400D01*
X146462409Y-102079699D01*
X146478667Y-102055367D01*
X146502999Y-102039109D01*
X146531700Y-102033400D01*
X146681700Y-102033400D01*
X146710401Y-102039109D01*
G37*
G36*
X147210401Y-102039109D02*
G01*
X147234733Y-102055367D01*
X147250991Y-102079699D01*
X147256700Y-102108400D01*
X147256700Y-103508400D01*
X147250991Y-103537101D01*
X147234733Y-103561433D01*
X147210401Y-103577691D01*
X147181700Y-103583400D01*
X147031700Y-103583400D01*
X147002999Y-103577691D01*
X146978667Y-103561433D01*
X146962409Y-103537101D01*
X146956700Y-103508400D01*
X146956700Y-102108400D01*
X146962409Y-102079699D01*
X146978667Y-102055367D01*
X147002999Y-102039109D01*
X147031700Y-102033400D01*
X147181700Y-102033400D01*
X147210401Y-102039109D01*
G37*
G36*
X147710401Y-102039109D02*
G01*
X147734733Y-102055367D01*
X147750991Y-102079699D01*
X147756700Y-102108400D01*
X147756700Y-103508400D01*
X147750991Y-103537101D01*
X147734733Y-103561433D01*
X147710401Y-103577691D01*
X147681700Y-103583400D01*
X147531700Y-103583400D01*
X147502999Y-103577691D01*
X147478667Y-103561433D01*
X147462409Y-103537101D01*
X147456700Y-103508400D01*
X147456700Y-102108400D01*
X147462409Y-102079699D01*
X147478667Y-102055367D01*
X147502999Y-102039109D01*
X147531700Y-102033400D01*
X147681700Y-102033400D01*
X147710401Y-102039109D01*
G37*
G36*
X148210401Y-102039109D02*
G01*
X148234733Y-102055367D01*
X148250991Y-102079699D01*
X148256700Y-102108400D01*
X148256700Y-103508400D01*
X148250991Y-103537101D01*
X148234733Y-103561433D01*
X148210401Y-103577691D01*
X148181700Y-103583400D01*
X148031700Y-103583400D01*
X148002999Y-103577691D01*
X147978667Y-103561433D01*
X147962409Y-103537101D01*
X147956700Y-103508400D01*
X147956700Y-102108400D01*
X147962409Y-102079699D01*
X147978667Y-102055367D01*
X148002999Y-102039109D01*
X148031700Y-102033400D01*
X148181700Y-102033400D01*
X148210401Y-102039109D01*
G37*
G36*
X148710401Y-102039109D02*
G01*
X148734733Y-102055367D01*
X148750991Y-102079699D01*
X148756700Y-102108400D01*
X148756700Y-103508400D01*
X148750991Y-103537101D01*
X148734733Y-103561433D01*
X148710401Y-103577691D01*
X148681700Y-103583400D01*
X148531700Y-103583400D01*
X148502999Y-103577691D01*
X148478667Y-103561433D01*
X148462409Y-103537101D01*
X148456700Y-103508400D01*
X148456700Y-102108400D01*
X148462409Y-102079699D01*
X148478667Y-102055367D01*
X148502999Y-102039109D01*
X148531700Y-102033400D01*
X148681700Y-102033400D01*
X148710401Y-102039109D01*
G37*
G36*
X149210401Y-102039109D02*
G01*
X149234733Y-102055367D01*
X149250991Y-102079699D01*
X149256700Y-102108400D01*
X149256700Y-103508400D01*
X149250991Y-103537101D01*
X149234733Y-103561433D01*
X149210401Y-103577691D01*
X149181700Y-103583400D01*
X149031700Y-103583400D01*
X149002999Y-103577691D01*
X148978667Y-103561433D01*
X148962409Y-103537101D01*
X148956700Y-103508400D01*
X148956700Y-102108400D01*
X148962409Y-102079699D01*
X148978667Y-102055367D01*
X149002999Y-102039109D01*
X149031700Y-102033400D01*
X149181700Y-102033400D01*
X149210401Y-102039109D01*
G37*
G36*
X149710401Y-102039109D02*
G01*
X149734733Y-102055367D01*
X149750991Y-102079699D01*
X149756700Y-102108400D01*
X149756700Y-103508400D01*
X149750991Y-103537101D01*
X149734733Y-103561433D01*
X149710401Y-103577691D01*
X149681700Y-103583400D01*
X149531700Y-103583400D01*
X149502999Y-103577691D01*
X149478667Y-103561433D01*
X149462409Y-103537101D01*
X149456700Y-103508400D01*
X149456700Y-102108400D01*
X149462409Y-102079699D01*
X149478667Y-102055367D01*
X149502999Y-102039109D01*
X149531700Y-102033400D01*
X149681700Y-102033400D01*
X149710401Y-102039109D01*
G37*
G36*
X150210401Y-102039109D02*
G01*
X150234733Y-102055367D01*
X150250991Y-102079699D01*
X150256700Y-102108400D01*
X150256700Y-103508400D01*
X150250991Y-103537101D01*
X150234733Y-103561433D01*
X150210401Y-103577691D01*
X150181700Y-103583400D01*
X150031700Y-103583400D01*
X150002999Y-103577691D01*
X149978667Y-103561433D01*
X149962409Y-103537101D01*
X149956700Y-103508400D01*
X149956700Y-102108400D01*
X149962409Y-102079699D01*
X149978667Y-102055367D01*
X150002999Y-102039109D01*
X150031700Y-102033400D01*
X150181700Y-102033400D01*
X150210401Y-102039109D01*
G37*
G36*
X150710401Y-102039109D02*
G01*
X150734733Y-102055367D01*
X150750991Y-102079699D01*
X150756700Y-102108400D01*
X150756700Y-103508400D01*
X150750991Y-103537101D01*
X150734733Y-103561433D01*
X150710401Y-103577691D01*
X150681700Y-103583400D01*
X150531700Y-103583400D01*
X150502999Y-103577691D01*
X150478667Y-103561433D01*
X150462409Y-103537101D01*
X150456700Y-103508400D01*
X150456700Y-102108400D01*
X150462409Y-102079699D01*
X150478667Y-102055367D01*
X150502999Y-102039109D01*
X150531700Y-102033400D01*
X150681700Y-102033400D01*
X150710401Y-102039109D01*
G37*
G36*
X151210401Y-102039109D02*
G01*
X151234733Y-102055367D01*
X151250991Y-102079699D01*
X151256700Y-102108400D01*
X151256700Y-103508400D01*
X151250991Y-103537101D01*
X151234733Y-103561433D01*
X151210401Y-103577691D01*
X151181700Y-103583400D01*
X151031700Y-103583400D01*
X151002999Y-103577691D01*
X150978667Y-103561433D01*
X150962409Y-103537101D01*
X150956700Y-103508400D01*
X150956700Y-102108400D01*
X150962409Y-102079699D01*
X150978667Y-102055367D01*
X151002999Y-102039109D01*
X151031700Y-102033400D01*
X151181700Y-102033400D01*
X151210401Y-102039109D01*
G37*
G36*
X151710401Y-102039109D02*
G01*
X151734733Y-102055367D01*
X151750991Y-102079699D01*
X151756700Y-102108400D01*
X151756700Y-103508400D01*
X151750991Y-103537101D01*
X151734733Y-103561433D01*
X151710401Y-103577691D01*
X151681700Y-103583400D01*
X151531700Y-103583400D01*
X151502999Y-103577691D01*
X151478667Y-103561433D01*
X151462409Y-103537101D01*
X151456700Y-103508400D01*
X151456700Y-102108400D01*
X151462409Y-102079699D01*
X151478667Y-102055367D01*
X151502999Y-102039109D01*
X151531700Y-102033400D01*
X151681700Y-102033400D01*
X151710401Y-102039109D01*
G37*
G36*
X152210401Y-102039109D02*
G01*
X152234733Y-102055367D01*
X152250991Y-102079699D01*
X152256700Y-102108400D01*
X152256700Y-103508400D01*
X152250991Y-103537101D01*
X152234733Y-103561433D01*
X152210401Y-103577691D01*
X152181700Y-103583400D01*
X152031700Y-103583400D01*
X152002999Y-103577691D01*
X151978667Y-103561433D01*
X151962409Y-103537101D01*
X151956700Y-103508400D01*
X151956700Y-102108400D01*
X151962409Y-102079699D01*
X151978667Y-102055367D01*
X152002999Y-102039109D01*
X152031700Y-102033400D01*
X152181700Y-102033400D01*
X152210401Y-102039109D01*
G37*
G36*
X152710401Y-102039109D02*
G01*
X152734733Y-102055367D01*
X152750991Y-102079699D01*
X152756700Y-102108400D01*
X152756700Y-103508400D01*
X152750991Y-103537101D01*
X152734733Y-103561433D01*
X152710401Y-103577691D01*
X152681700Y-103583400D01*
X152531700Y-103583400D01*
X152502999Y-103577691D01*
X152478667Y-103561433D01*
X152462409Y-103537101D01*
X152456700Y-103508400D01*
X152456700Y-102108400D01*
X152462409Y-102079699D01*
X152478667Y-102055367D01*
X152502999Y-102039109D01*
X152531700Y-102033400D01*
X152681700Y-102033400D01*
X152710401Y-102039109D01*
G37*
D20*
X160809700Y-77726400D03*
X160809700Y-78926400D03*
X160809700Y-80126400D03*
X160809700Y-81326400D03*
X160809700Y-82526400D03*
X160809700Y-83726400D03*
X160809700Y-84926400D03*
X160809700Y-86126400D03*
X160809700Y-87326400D03*
X160809700Y-88526400D03*
X160809700Y-89726400D03*
D21*
X159209700Y-91226400D03*
X158009700Y-91226400D03*
X156809700Y-91226400D03*
X155609700Y-91226400D03*
X154409700Y-91226400D03*
X153209700Y-91226400D03*
X152009700Y-91226400D03*
X150809700Y-91226400D03*
X149609700Y-91226400D03*
X148409700Y-91226400D03*
D20*
X146709700Y-89726400D03*
X146709700Y-88526400D03*
X146709700Y-87326400D03*
X146709700Y-86126400D03*
X146709700Y-84926400D03*
X146709700Y-83726400D03*
X146709700Y-82526400D03*
X146709700Y-81326400D03*
X146709700Y-80126400D03*
X146709700Y-78926400D03*
X146709700Y-77726400D03*
G36*
X154004729Y-130915954D02*
G01*
X154083807Y-130968793D01*
X154136646Y-131047871D01*
X154155200Y-131141150D01*
X154155200Y-132053650D01*
X154136646Y-132146929D01*
X154083807Y-132226007D01*
X154004729Y-132278846D01*
X153911450Y-132297400D01*
X153423950Y-132297400D01*
X153330671Y-132278846D01*
X153251593Y-132226007D01*
X153198754Y-132146929D01*
X153180200Y-132053650D01*
X153180200Y-131141150D01*
X153198754Y-131047871D01*
X153251593Y-130968793D01*
X153330671Y-130915954D01*
X153423950Y-130897400D01*
X153911450Y-130897400D01*
X154004729Y-130915954D01*
G37*
G36*
X152129729Y-130915954D02*
G01*
X152208807Y-130968793D01*
X152261646Y-131047871D01*
X152280200Y-131141150D01*
X152280200Y-132053650D01*
X152261646Y-132146929D01*
X152208807Y-132226007D01*
X152129729Y-132278846D01*
X152036450Y-132297400D01*
X151548950Y-132297400D01*
X151455671Y-132278846D01*
X151376593Y-132226007D01*
X151323754Y-132146929D01*
X151305200Y-132053650D01*
X151305200Y-131141150D01*
X151323754Y-131047871D01*
X151376593Y-130968793D01*
X151455671Y-130915954D01*
X151548950Y-130897400D01*
X152036450Y-130897400D01*
X152129729Y-130915954D01*
G37*
G36*
X146104229Y-116157454D02*
G01*
X146183307Y-116210293D01*
X146236146Y-116289371D01*
X146254700Y-116382650D01*
X146254700Y-116870150D01*
X146236146Y-116963429D01*
X146183307Y-117042507D01*
X146104229Y-117095346D01*
X146010950Y-117113900D01*
X145098450Y-117113900D01*
X145005171Y-117095346D01*
X144926093Y-117042507D01*
X144873254Y-116963429D01*
X144854700Y-116870150D01*
X144854700Y-116382650D01*
X144873254Y-116289371D01*
X144926093Y-116210293D01*
X145005171Y-116157454D01*
X145098450Y-116138900D01*
X146010950Y-116138900D01*
X146104229Y-116157454D01*
G37*
G36*
X146104229Y-118032454D02*
G01*
X146183307Y-118085293D01*
X146236146Y-118164371D01*
X146254700Y-118257650D01*
X146254700Y-118745150D01*
X146236146Y-118838429D01*
X146183307Y-118917507D01*
X146104229Y-118970346D01*
X146010950Y-118988900D01*
X145098450Y-118988900D01*
X145005171Y-118970346D01*
X144926093Y-118917507D01*
X144873254Y-118838429D01*
X144854700Y-118745150D01*
X144854700Y-118257650D01*
X144873254Y-118164371D01*
X144926093Y-118085293D01*
X145005171Y-118032454D01*
X145098450Y-118013900D01*
X146010950Y-118013900D01*
X146104229Y-118032454D01*
G37*
G36*
X140915629Y-61002454D02*
G01*
X140994707Y-61055293D01*
X141047546Y-61134371D01*
X141066100Y-61227650D01*
X141066100Y-62140150D01*
X141047546Y-62233429D01*
X140994707Y-62312507D01*
X140915629Y-62365346D01*
X140822350Y-62383900D01*
X140334850Y-62383900D01*
X140241571Y-62365346D01*
X140162493Y-62312507D01*
X140109654Y-62233429D01*
X140091100Y-62140150D01*
X140091100Y-61227650D01*
X140109654Y-61134371D01*
X140162493Y-61055293D01*
X140241571Y-61002454D01*
X140334850Y-60983900D01*
X140822350Y-60983900D01*
X140915629Y-61002454D01*
G37*
G36*
X142790629Y-61002454D02*
G01*
X142869707Y-61055293D01*
X142922546Y-61134371D01*
X142941100Y-61227650D01*
X142941100Y-62140150D01*
X142922546Y-62233429D01*
X142869707Y-62312507D01*
X142790629Y-62365346D01*
X142697350Y-62383900D01*
X142209850Y-62383900D01*
X142116571Y-62365346D01*
X142037493Y-62312507D01*
X141984654Y-62233429D01*
X141966100Y-62140150D01*
X141966100Y-61227650D01*
X141984654Y-61134371D01*
X142037493Y-61055293D01*
X142116571Y-61002454D01*
X142209850Y-60983900D01*
X142697350Y-60983900D01*
X142790629Y-61002454D01*
G37*
G36*
X140890229Y-74210454D02*
G01*
X140969307Y-74263293D01*
X141022146Y-74342371D01*
X141040700Y-74435650D01*
X141040700Y-75348150D01*
X141022146Y-75441429D01*
X140969307Y-75520507D01*
X140890229Y-75573346D01*
X140796950Y-75591900D01*
X140309450Y-75591900D01*
X140216171Y-75573346D01*
X140137093Y-75520507D01*
X140084254Y-75441429D01*
X140065700Y-75348150D01*
X140065700Y-74435650D01*
X140084254Y-74342371D01*
X140137093Y-74263293D01*
X140216171Y-74210454D01*
X140309450Y-74191900D01*
X140796950Y-74191900D01*
X140890229Y-74210454D01*
G37*
G36*
X142765229Y-74210454D02*
G01*
X142844307Y-74263293D01*
X142897146Y-74342371D01*
X142915700Y-74435650D01*
X142915700Y-75348150D01*
X142897146Y-75441429D01*
X142844307Y-75520507D01*
X142765229Y-75573346D01*
X142671950Y-75591900D01*
X142184450Y-75591900D01*
X142091171Y-75573346D01*
X142012093Y-75520507D01*
X141959254Y-75441429D01*
X141940700Y-75348150D01*
X141940700Y-74435650D01*
X141959254Y-74342371D01*
X142012093Y-74263293D01*
X142091171Y-74210454D01*
X142184450Y-74191900D01*
X142671950Y-74191900D01*
X142765229Y-74210454D01*
G37*
G36*
X147310729Y-66978454D02*
G01*
X147389807Y-67031293D01*
X147442646Y-67110371D01*
X147461200Y-67203650D01*
X147461200Y-67691150D01*
X147442646Y-67784429D01*
X147389807Y-67863507D01*
X147310729Y-67916346D01*
X147217450Y-67934900D01*
X146304950Y-67934900D01*
X146211671Y-67916346D01*
X146132593Y-67863507D01*
X146079754Y-67784429D01*
X146061200Y-67691150D01*
X146061200Y-67203650D01*
X146079754Y-67110371D01*
X146132593Y-67031293D01*
X146211671Y-66978454D01*
X146304950Y-66959900D01*
X147217450Y-66959900D01*
X147310729Y-66978454D01*
G37*
G36*
X147310729Y-65103454D02*
G01*
X147389807Y-65156293D01*
X147442646Y-65235371D01*
X147461200Y-65328650D01*
X147461200Y-65816150D01*
X147442646Y-65909429D01*
X147389807Y-65988507D01*
X147310729Y-66041346D01*
X147217450Y-66059900D01*
X146304950Y-66059900D01*
X146211671Y-66041346D01*
X146132593Y-65988507D01*
X146079754Y-65909429D01*
X146061200Y-65816150D01*
X146061200Y-65328650D01*
X146079754Y-65235371D01*
X146132593Y-65156293D01*
X146211671Y-65103454D01*
X146304950Y-65084900D01*
X147217450Y-65084900D01*
X147310729Y-65103454D01*
G37*
G36*
X147310729Y-68659454D02*
G01*
X147389807Y-68712293D01*
X147442646Y-68791371D01*
X147461200Y-68884650D01*
X147461200Y-69372150D01*
X147442646Y-69465429D01*
X147389807Y-69544507D01*
X147310729Y-69597346D01*
X147217450Y-69615900D01*
X146304950Y-69615900D01*
X146211671Y-69597346D01*
X146132593Y-69544507D01*
X146079754Y-69465429D01*
X146061200Y-69372150D01*
X146061200Y-68884650D01*
X146079754Y-68791371D01*
X146132593Y-68712293D01*
X146211671Y-68659454D01*
X146304950Y-68640900D01*
X147217450Y-68640900D01*
X147310729Y-68659454D01*
G37*
G36*
X147310729Y-70534454D02*
G01*
X147389807Y-70587293D01*
X147442646Y-70666371D01*
X147461200Y-70759650D01*
X147461200Y-71247150D01*
X147442646Y-71340429D01*
X147389807Y-71419507D01*
X147310729Y-71472346D01*
X147217450Y-71490900D01*
X146304950Y-71490900D01*
X146211671Y-71472346D01*
X146132593Y-71419507D01*
X146079754Y-71340429D01*
X146061200Y-71247150D01*
X146061200Y-70759650D01*
X146079754Y-70666371D01*
X146132593Y-70587293D01*
X146211671Y-70534454D01*
X146304950Y-70515900D01*
X147217450Y-70515900D01*
X147310729Y-70534454D01*
G37*
G36*
X145278729Y-66978454D02*
G01*
X145357807Y-67031293D01*
X145410646Y-67110371D01*
X145429200Y-67203650D01*
X145429200Y-67691150D01*
X145410646Y-67784429D01*
X145357807Y-67863507D01*
X145278729Y-67916346D01*
X145185450Y-67934900D01*
X144272950Y-67934900D01*
X144179671Y-67916346D01*
X144100593Y-67863507D01*
X144047754Y-67784429D01*
X144029200Y-67691150D01*
X144029200Y-67203650D01*
X144047754Y-67110371D01*
X144100593Y-67031293D01*
X144179671Y-66978454D01*
X144272950Y-66959900D01*
X145185450Y-66959900D01*
X145278729Y-66978454D01*
G37*
G36*
X145278729Y-65103454D02*
G01*
X145357807Y-65156293D01*
X145410646Y-65235371D01*
X145429200Y-65328650D01*
X145429200Y-65816150D01*
X145410646Y-65909429D01*
X145357807Y-65988507D01*
X145278729Y-66041346D01*
X145185450Y-66059900D01*
X144272950Y-66059900D01*
X144179671Y-66041346D01*
X144100593Y-65988507D01*
X144047754Y-65909429D01*
X144029200Y-65816150D01*
X144029200Y-65328650D01*
X144047754Y-65235371D01*
X144100593Y-65156293D01*
X144179671Y-65103454D01*
X144272950Y-65084900D01*
X145185450Y-65084900D01*
X145278729Y-65103454D01*
G37*
G36*
X145278729Y-68659454D02*
G01*
X145357807Y-68712293D01*
X145410646Y-68791371D01*
X145429200Y-68884650D01*
X145429200Y-69372150D01*
X145410646Y-69465429D01*
X145357807Y-69544507D01*
X145278729Y-69597346D01*
X145185450Y-69615900D01*
X144272950Y-69615900D01*
X144179671Y-69597346D01*
X144100593Y-69544507D01*
X144047754Y-69465429D01*
X144029200Y-69372150D01*
X144029200Y-68884650D01*
X144047754Y-68791371D01*
X144100593Y-68712293D01*
X144179671Y-68659454D01*
X144272950Y-68640900D01*
X145185450Y-68640900D01*
X145278729Y-68659454D01*
G37*
G36*
X145278729Y-70534454D02*
G01*
X145357807Y-70587293D01*
X145410646Y-70666371D01*
X145429200Y-70759650D01*
X145429200Y-71247150D01*
X145410646Y-71340429D01*
X145357807Y-71419507D01*
X145278729Y-71472346D01*
X145185450Y-71490900D01*
X144272950Y-71490900D01*
X144179671Y-71472346D01*
X144100593Y-71419507D01*
X144047754Y-71340429D01*
X144029200Y-71247150D01*
X144029200Y-70759650D01*
X144047754Y-70666371D01*
X144100593Y-70587293D01*
X144179671Y-70534454D01*
X144272950Y-70515900D01*
X145185450Y-70515900D01*
X145278729Y-70534454D01*
G37*
D22*
X162688800Y-135540600D03*
X161008800Y-135540600D03*
D23*
X164758800Y-135540600D03*
X158938800Y-135540600D03*
D24*
X164311300Y-133240600D03*
X159386300Y-133240600D03*
D25*
X163148800Y-132880600D03*
X162498800Y-132880600D03*
X161848800Y-132880600D03*
X161198800Y-132880600D03*
X160548800Y-132880600D03*
G36*
X140135229Y-132984954D02*
G01*
X140214307Y-133037793D01*
X140267146Y-133116871D01*
X140285700Y-133210150D01*
X140285700Y-133697650D01*
X140267146Y-133790929D01*
X140214307Y-133870007D01*
X140135229Y-133922846D01*
X140041950Y-133941400D01*
X139129450Y-133941400D01*
X139036171Y-133922846D01*
X138957093Y-133870007D01*
X138904254Y-133790929D01*
X138885700Y-133697650D01*
X138885700Y-133210150D01*
X138904254Y-133116871D01*
X138957093Y-133037793D01*
X139036171Y-132984954D01*
X139129450Y-132966400D01*
X140041950Y-132966400D01*
X140135229Y-132984954D01*
G37*
G36*
X140135229Y-134859954D02*
G01*
X140214307Y-134912793D01*
X140267146Y-134991871D01*
X140285700Y-135085150D01*
X140285700Y-135572650D01*
X140267146Y-135665929D01*
X140214307Y-135745007D01*
X140135229Y-135797846D01*
X140041950Y-135816400D01*
X139129450Y-135816400D01*
X139036171Y-135797846D01*
X138957093Y-135745007D01*
X138904254Y-135665929D01*
X138885700Y-135572650D01*
X138885700Y-135085150D01*
X138904254Y-134991871D01*
X138957093Y-134912793D01*
X139036171Y-134859954D01*
X139129450Y-134841400D01*
X140041950Y-134841400D01*
X140135229Y-134859954D01*
G37*
G36*
X146294729Y-133048454D02*
G01*
X146373807Y-133101293D01*
X146426646Y-133180371D01*
X146445200Y-133273650D01*
X146445200Y-133761150D01*
X146426646Y-133854429D01*
X146373807Y-133933507D01*
X146294729Y-133986346D01*
X146201450Y-134004900D01*
X145288950Y-134004900D01*
X145195671Y-133986346D01*
X145116593Y-133933507D01*
X145063754Y-133854429D01*
X145045200Y-133761150D01*
X145045200Y-133273650D01*
X145063754Y-133180371D01*
X145116593Y-133101293D01*
X145195671Y-133048454D01*
X145288950Y-133029900D01*
X146201450Y-133029900D01*
X146294729Y-133048454D01*
G37*
G36*
X146294729Y-134923454D02*
G01*
X146373807Y-134976293D01*
X146426646Y-135055371D01*
X146445200Y-135148650D01*
X146445200Y-135636150D01*
X146426646Y-135729429D01*
X146373807Y-135808507D01*
X146294729Y-135861346D01*
X146201450Y-135879900D01*
X145288950Y-135879900D01*
X145195671Y-135861346D01*
X145116593Y-135808507D01*
X145063754Y-135729429D01*
X145045200Y-135636150D01*
X145045200Y-135148650D01*
X145063754Y-135055371D01*
X145116593Y-134976293D01*
X145195671Y-134923454D01*
X145288950Y-134904900D01*
X146201450Y-134904900D01*
X146294729Y-134923454D01*
G37*
G36*
X156581729Y-134796454D02*
G01*
X156660807Y-134849293D01*
X156713646Y-134928371D01*
X156732200Y-135021650D01*
X156732200Y-135509150D01*
X156713646Y-135602429D01*
X156660807Y-135681507D01*
X156581729Y-135734346D01*
X156488450Y-135752900D01*
X155575950Y-135752900D01*
X155482671Y-135734346D01*
X155403593Y-135681507D01*
X155350754Y-135602429D01*
X155332200Y-135509150D01*
X155332200Y-135021650D01*
X155350754Y-134928371D01*
X155403593Y-134849293D01*
X155482671Y-134796454D01*
X155575950Y-134777900D01*
X156488450Y-134777900D01*
X156581729Y-134796454D01*
G37*
G36*
X156581729Y-132921454D02*
G01*
X156660807Y-132974293D01*
X156713646Y-133053371D01*
X156732200Y-133146650D01*
X156732200Y-133634150D01*
X156713646Y-133727429D01*
X156660807Y-133806507D01*
X156581729Y-133859346D01*
X156488450Y-133877900D01*
X155575950Y-133877900D01*
X155482671Y-133859346D01*
X155403593Y-133806507D01*
X155350754Y-133727429D01*
X155332200Y-133634150D01*
X155332200Y-133146650D01*
X155350754Y-133053371D01*
X155403593Y-132974293D01*
X155482671Y-132921454D01*
X155575950Y-132902900D01*
X156488450Y-132902900D01*
X156581729Y-132921454D01*
G37*
G36*
X148326729Y-133048454D02*
G01*
X148405807Y-133101293D01*
X148458646Y-133180371D01*
X148477200Y-133273650D01*
X148477200Y-133761150D01*
X148458646Y-133854429D01*
X148405807Y-133933507D01*
X148326729Y-133986346D01*
X148233450Y-134004900D01*
X147320950Y-134004900D01*
X147227671Y-133986346D01*
X147148593Y-133933507D01*
X147095754Y-133854429D01*
X147077200Y-133761150D01*
X147077200Y-133273650D01*
X147095754Y-133180371D01*
X147148593Y-133101293D01*
X147227671Y-133048454D01*
X147320950Y-133029900D01*
X148233450Y-133029900D01*
X148326729Y-133048454D01*
G37*
G36*
X148326729Y-134923454D02*
G01*
X148405807Y-134976293D01*
X148458646Y-135055371D01*
X148477200Y-135148650D01*
X148477200Y-135636150D01*
X148458646Y-135729429D01*
X148405807Y-135808507D01*
X148326729Y-135861346D01*
X148233450Y-135879900D01*
X147320950Y-135879900D01*
X147227671Y-135861346D01*
X147148593Y-135808507D01*
X147095754Y-135729429D01*
X147077200Y-135636150D01*
X147077200Y-135148650D01*
X147095754Y-135055371D01*
X147148593Y-134976293D01*
X147227671Y-134923454D01*
X147320950Y-134904900D01*
X148233450Y-134904900D01*
X148326729Y-134923454D01*
G37*
G36*
X154359229Y-132921454D02*
G01*
X154438307Y-132974293D01*
X154491146Y-133053371D01*
X154509700Y-133146650D01*
X154509700Y-133634150D01*
X154491146Y-133727429D01*
X154438307Y-133806507D01*
X154359229Y-133859346D01*
X154265950Y-133877900D01*
X153353450Y-133877900D01*
X153260171Y-133859346D01*
X153181093Y-133806507D01*
X153128254Y-133727429D01*
X153109700Y-133634150D01*
X153109700Y-133146650D01*
X153128254Y-133053371D01*
X153181093Y-132974293D01*
X153260171Y-132921454D01*
X153353450Y-132902900D01*
X154265950Y-132902900D01*
X154359229Y-132921454D01*
G37*
G36*
X154359229Y-134796454D02*
G01*
X154438307Y-134849293D01*
X154491146Y-134928371D01*
X154509700Y-135021650D01*
X154509700Y-135509150D01*
X154491146Y-135602429D01*
X154438307Y-135681507D01*
X154359229Y-135734346D01*
X154265950Y-135752900D01*
X153353450Y-135752900D01*
X153260171Y-135734346D01*
X153181093Y-135681507D01*
X153128254Y-135602429D01*
X153109700Y-135509150D01*
X153109700Y-135021650D01*
X153128254Y-134928371D01*
X153181093Y-134849293D01*
X153260171Y-134796454D01*
X153353450Y-134777900D01*
X154265950Y-134777900D01*
X154359229Y-134796454D01*
G37*
G36*
X161573929Y-111853254D02*
G01*
X161653007Y-111906093D01*
X161705846Y-111985171D01*
X161724400Y-112078450D01*
X161724400Y-112990950D01*
X161705846Y-113084229D01*
X161653007Y-113163307D01*
X161573929Y-113216146D01*
X161480650Y-113234700D01*
X160993150Y-113234700D01*
X160899871Y-113216146D01*
X160820793Y-113163307D01*
X160767954Y-113084229D01*
X160749400Y-112990950D01*
X160749400Y-112078450D01*
X160767954Y-111985171D01*
X160820793Y-111906093D01*
X160899871Y-111853254D01*
X160993150Y-111834700D01*
X161480650Y-111834700D01*
X161573929Y-111853254D01*
G37*
G36*
X159698929Y-111853254D02*
G01*
X159778007Y-111906093D01*
X159830846Y-111985171D01*
X159849400Y-112078450D01*
X159849400Y-112990950D01*
X159830846Y-113084229D01*
X159778007Y-113163307D01*
X159698929Y-113216146D01*
X159605650Y-113234700D01*
X159118150Y-113234700D01*
X159024871Y-113216146D01*
X158945793Y-113163307D01*
X158892954Y-113084229D01*
X158874400Y-112990950D01*
X158874400Y-112078450D01*
X158892954Y-111985171D01*
X158945793Y-111906093D01*
X159024871Y-111853254D01*
X159118150Y-111834700D01*
X159605650Y-111834700D01*
X159698929Y-111853254D01*
G37*
G36*
X161535829Y-113986854D02*
G01*
X161614907Y-114039693D01*
X161667746Y-114118771D01*
X161686300Y-114212050D01*
X161686300Y-115124550D01*
X161667746Y-115217829D01*
X161614907Y-115296907D01*
X161535829Y-115349746D01*
X161442550Y-115368300D01*
X160955050Y-115368300D01*
X160861771Y-115349746D01*
X160782693Y-115296907D01*
X160729854Y-115217829D01*
X160711300Y-115124550D01*
X160711300Y-114212050D01*
X160729854Y-114118771D01*
X160782693Y-114039693D01*
X160861771Y-113986854D01*
X160955050Y-113968300D01*
X161442550Y-113968300D01*
X161535829Y-113986854D01*
G37*
G36*
X159660829Y-113986854D02*
G01*
X159739907Y-114039693D01*
X159792746Y-114118771D01*
X159811300Y-114212050D01*
X159811300Y-115124550D01*
X159792746Y-115217829D01*
X159739907Y-115296907D01*
X159660829Y-115349746D01*
X159567550Y-115368300D01*
X159080050Y-115368300D01*
X158986771Y-115349746D01*
X158907693Y-115296907D01*
X158854854Y-115217829D01*
X158836300Y-115124550D01*
X158836300Y-114212050D01*
X158854854Y-114118771D01*
X158907693Y-114039693D01*
X158986771Y-113986854D01*
X159080050Y-113968300D01*
X159567550Y-113968300D01*
X159660829Y-113986854D01*
G37*
G36*
X151565229Y-98123454D02*
G01*
X151644307Y-98176293D01*
X151697146Y-98255371D01*
X151715700Y-98348650D01*
X151715700Y-98836150D01*
X151697146Y-98929429D01*
X151644307Y-99008507D01*
X151565229Y-99061346D01*
X151471950Y-99079900D01*
X150559450Y-99079900D01*
X150466171Y-99061346D01*
X150387093Y-99008507D01*
X150334254Y-98929429D01*
X150315700Y-98836150D01*
X150315700Y-98348650D01*
X150334254Y-98255371D01*
X150387093Y-98176293D01*
X150466171Y-98123454D01*
X150559450Y-98104900D01*
X151471950Y-98104900D01*
X151565229Y-98123454D01*
G37*
G36*
X151565229Y-99998454D02*
G01*
X151644307Y-100051293D01*
X151697146Y-100130371D01*
X151715700Y-100223650D01*
X151715700Y-100711150D01*
X151697146Y-100804429D01*
X151644307Y-100883507D01*
X151565229Y-100936346D01*
X151471950Y-100954900D01*
X150559450Y-100954900D01*
X150466171Y-100936346D01*
X150387093Y-100883507D01*
X150334254Y-100804429D01*
X150315700Y-100711150D01*
X150315700Y-100223650D01*
X150334254Y-100130371D01*
X150387093Y-100051293D01*
X150466171Y-99998454D01*
X150559450Y-99979900D01*
X151471950Y-99979900D01*
X151565229Y-99998454D01*
G37*
G36*
X146620229Y-96054454D02*
G01*
X146699307Y-96107293D01*
X146752146Y-96186371D01*
X146770700Y-96279650D01*
X146770700Y-97192150D01*
X146752146Y-97285429D01*
X146699307Y-97364507D01*
X146620229Y-97417346D01*
X146526950Y-97435900D01*
X146039450Y-97435900D01*
X145946171Y-97417346D01*
X145867093Y-97364507D01*
X145814254Y-97285429D01*
X145795700Y-97192150D01*
X145795700Y-96279650D01*
X145814254Y-96186371D01*
X145867093Y-96107293D01*
X145946171Y-96054454D01*
X146039450Y-96035900D01*
X146526950Y-96035900D01*
X146620229Y-96054454D01*
G37*
G36*
X148495229Y-96054454D02*
G01*
X148574307Y-96107293D01*
X148627146Y-96186371D01*
X148645700Y-96279650D01*
X148645700Y-97192150D01*
X148627146Y-97285429D01*
X148574307Y-97364507D01*
X148495229Y-97417346D01*
X148401950Y-97435900D01*
X147914450Y-97435900D01*
X147821171Y-97417346D01*
X147742093Y-97364507D01*
X147689254Y-97285429D01*
X147670700Y-97192150D01*
X147670700Y-96279650D01*
X147689254Y-96186371D01*
X147742093Y-96107293D01*
X147821171Y-96054454D01*
X147914450Y-96035900D01*
X148401950Y-96035900D01*
X148495229Y-96054454D01*
G37*
G36*
X143945229Y-118032454D02*
G01*
X144024307Y-118085293D01*
X144077146Y-118164371D01*
X144095700Y-118257650D01*
X144095700Y-118745150D01*
X144077146Y-118838429D01*
X144024307Y-118917507D01*
X143945229Y-118970346D01*
X143851950Y-118988900D01*
X142939450Y-118988900D01*
X142846171Y-118970346D01*
X142767093Y-118917507D01*
X142714254Y-118838429D01*
X142695700Y-118745150D01*
X142695700Y-118257650D01*
X142714254Y-118164371D01*
X142767093Y-118085293D01*
X142846171Y-118032454D01*
X142939450Y-118013900D01*
X143851950Y-118013900D01*
X143945229Y-118032454D01*
G37*
G36*
X143945229Y-116157454D02*
G01*
X144024307Y-116210293D01*
X144077146Y-116289371D01*
X144095700Y-116382650D01*
X144095700Y-116870150D01*
X144077146Y-116963429D01*
X144024307Y-117042507D01*
X143945229Y-117095346D01*
X143851950Y-117113900D01*
X142939450Y-117113900D01*
X142846171Y-117095346D01*
X142767093Y-117042507D01*
X142714254Y-116963429D01*
X142695700Y-116870150D01*
X142695700Y-116382650D01*
X142714254Y-116289371D01*
X142767093Y-116210293D01*
X142846171Y-116157454D01*
X142939450Y-116138900D01*
X143851950Y-116138900D01*
X143945229Y-116157454D01*
G37*
G36*
X140833729Y-115174954D02*
G01*
X140912807Y-115227793D01*
X140965646Y-115306871D01*
X140984200Y-115400150D01*
X140984200Y-115887650D01*
X140965646Y-115980929D01*
X140912807Y-116060007D01*
X140833729Y-116112846D01*
X140740450Y-116131400D01*
X139827950Y-116131400D01*
X139734671Y-116112846D01*
X139655593Y-116060007D01*
X139602754Y-115980929D01*
X139584200Y-115887650D01*
X139584200Y-115400150D01*
X139602754Y-115306871D01*
X139655593Y-115227793D01*
X139734671Y-115174954D01*
X139827950Y-115156400D01*
X140740450Y-115156400D01*
X140833729Y-115174954D01*
G37*
G36*
X140833729Y-113299954D02*
G01*
X140912807Y-113352793D01*
X140965646Y-113431871D01*
X140984200Y-113525150D01*
X140984200Y-114012650D01*
X140965646Y-114105929D01*
X140912807Y-114185007D01*
X140833729Y-114237846D01*
X140740450Y-114256400D01*
X139827950Y-114256400D01*
X139734671Y-114237846D01*
X139655593Y-114185007D01*
X139602754Y-114105929D01*
X139584200Y-114012650D01*
X139584200Y-113525150D01*
X139602754Y-113431871D01*
X139655593Y-113352793D01*
X139734671Y-113299954D01*
X139827950Y-113281400D01*
X140740450Y-113281400D01*
X140833729Y-113299954D01*
G37*
G36*
X146993229Y-98186954D02*
G01*
X147072307Y-98239793D01*
X147125146Y-98318871D01*
X147143700Y-98412150D01*
X147143700Y-98899650D01*
X147125146Y-98992929D01*
X147072307Y-99072007D01*
X146993229Y-99124846D01*
X146899950Y-99143400D01*
X145987450Y-99143400D01*
X145894171Y-99124846D01*
X145815093Y-99072007D01*
X145762254Y-98992929D01*
X145743700Y-98899650D01*
X145743700Y-98412150D01*
X145762254Y-98318871D01*
X145815093Y-98239793D01*
X145894171Y-98186954D01*
X145987450Y-98168400D01*
X146899950Y-98168400D01*
X146993229Y-98186954D01*
G37*
G36*
X146993229Y-100061954D02*
G01*
X147072307Y-100114793D01*
X147125146Y-100193871D01*
X147143700Y-100287150D01*
X147143700Y-100774650D01*
X147125146Y-100867929D01*
X147072307Y-100947007D01*
X146993229Y-100999846D01*
X146899950Y-101018400D01*
X145987450Y-101018400D01*
X145894171Y-100999846D01*
X145815093Y-100947007D01*
X145762254Y-100867929D01*
X145743700Y-100774650D01*
X145743700Y-100287150D01*
X145762254Y-100193871D01*
X145815093Y-100114793D01*
X145894171Y-100061954D01*
X145987450Y-100043400D01*
X146899950Y-100043400D01*
X146993229Y-100061954D01*
G37*
G36*
X157699329Y-60061554D02*
G01*
X157778407Y-60114393D01*
X157831246Y-60193471D01*
X157849800Y-60286750D01*
X157849800Y-60774250D01*
X157831246Y-60867529D01*
X157778407Y-60946607D01*
X157699329Y-60999446D01*
X157606050Y-61018000D01*
X156693550Y-61018000D01*
X156600271Y-60999446D01*
X156521193Y-60946607D01*
X156468354Y-60867529D01*
X156449800Y-60774250D01*
X156449800Y-60286750D01*
X156468354Y-60193471D01*
X156521193Y-60114393D01*
X156600271Y-60061554D01*
X156693550Y-60043000D01*
X157606050Y-60043000D01*
X157699329Y-60061554D01*
G37*
G36*
X157699329Y-61936554D02*
G01*
X157778407Y-61989393D01*
X157831246Y-62068471D01*
X157849800Y-62161750D01*
X157849800Y-62649250D01*
X157831246Y-62742529D01*
X157778407Y-62821607D01*
X157699329Y-62874446D01*
X157606050Y-62893000D01*
X156693550Y-62893000D01*
X156600271Y-62874446D01*
X156521193Y-62821607D01*
X156468354Y-62742529D01*
X156449800Y-62649250D01*
X156449800Y-62161750D01*
X156468354Y-62068471D01*
X156521193Y-61989393D01*
X156600271Y-61936554D01*
X156693550Y-61918000D01*
X157606050Y-61918000D01*
X157699329Y-61936554D01*
G37*
G36*
X151240729Y-63796454D02*
G01*
X151319807Y-63849293D01*
X151372646Y-63928371D01*
X151391200Y-64021650D01*
X151391200Y-64934150D01*
X151372646Y-65027429D01*
X151319807Y-65106507D01*
X151240729Y-65159346D01*
X151147450Y-65177900D01*
X150659950Y-65177900D01*
X150566671Y-65159346D01*
X150487593Y-65106507D01*
X150434754Y-65027429D01*
X150416200Y-64934150D01*
X150416200Y-64021650D01*
X150434754Y-63928371D01*
X150487593Y-63849293D01*
X150566671Y-63796454D01*
X150659950Y-63777900D01*
X151147450Y-63777900D01*
X151240729Y-63796454D01*
G37*
G36*
X153115729Y-63796454D02*
G01*
X153194807Y-63849293D01*
X153247646Y-63928371D01*
X153266200Y-64021650D01*
X153266200Y-64934150D01*
X153247646Y-65027429D01*
X153194807Y-65106507D01*
X153115729Y-65159346D01*
X153022450Y-65177900D01*
X152534950Y-65177900D01*
X152441671Y-65159346D01*
X152362593Y-65106507D01*
X152309754Y-65027429D01*
X152291200Y-64934150D01*
X152291200Y-64021650D01*
X152309754Y-63928371D01*
X152362593Y-63849293D01*
X152441671Y-63796454D01*
X152534950Y-63777900D01*
X153022450Y-63777900D01*
X153115729Y-63796454D01*
G37*
G36*
X162577229Y-72051454D02*
G01*
X162656307Y-72104293D01*
X162709146Y-72183371D01*
X162727700Y-72276650D01*
X162727700Y-73189150D01*
X162709146Y-73282429D01*
X162656307Y-73361507D01*
X162577229Y-73414346D01*
X162483950Y-73432900D01*
X161996450Y-73432900D01*
X161903171Y-73414346D01*
X161824093Y-73361507D01*
X161771254Y-73282429D01*
X161752700Y-73189150D01*
X161752700Y-72276650D01*
X161771254Y-72183371D01*
X161824093Y-72104293D01*
X161903171Y-72051454D01*
X161996450Y-72032900D01*
X162483950Y-72032900D01*
X162577229Y-72051454D01*
G37*
G36*
X160702229Y-72051454D02*
G01*
X160781307Y-72104293D01*
X160834146Y-72183371D01*
X160852700Y-72276650D01*
X160852700Y-73189150D01*
X160834146Y-73282429D01*
X160781307Y-73361507D01*
X160702229Y-73414346D01*
X160608950Y-73432900D01*
X160121450Y-73432900D01*
X160028171Y-73414346D01*
X159949093Y-73361507D01*
X159896254Y-73282429D01*
X159877700Y-73189150D01*
X159877700Y-72276650D01*
X159896254Y-72183371D01*
X159949093Y-72104293D01*
X160028171Y-72051454D01*
X160121450Y-72032900D01*
X160608950Y-72032900D01*
X160702229Y-72051454D01*
G37*
G36*
X164990229Y-63732954D02*
G01*
X165069307Y-63785793D01*
X165122146Y-63864871D01*
X165140700Y-63958150D01*
X165140700Y-64870650D01*
X165122146Y-64963929D01*
X165069307Y-65043007D01*
X164990229Y-65095846D01*
X164896950Y-65114400D01*
X164409450Y-65114400D01*
X164316171Y-65095846D01*
X164237093Y-65043007D01*
X164184254Y-64963929D01*
X164165700Y-64870650D01*
X164165700Y-63958150D01*
X164184254Y-63864871D01*
X164237093Y-63785793D01*
X164316171Y-63732954D01*
X164409450Y-63714400D01*
X164896950Y-63714400D01*
X164990229Y-63732954D01*
G37*
G36*
X163115229Y-63732954D02*
G01*
X163194307Y-63785793D01*
X163247146Y-63864871D01*
X163265700Y-63958150D01*
X163265700Y-64870650D01*
X163247146Y-64963929D01*
X163194307Y-65043007D01*
X163115229Y-65095846D01*
X163021950Y-65114400D01*
X162534450Y-65114400D01*
X162441171Y-65095846D01*
X162362093Y-65043007D01*
X162309254Y-64963929D01*
X162290700Y-64870650D01*
X162290700Y-63958150D01*
X162309254Y-63864871D01*
X162362093Y-63785793D01*
X162441171Y-63732954D01*
X162534450Y-63714400D01*
X163021950Y-63714400D01*
X163115229Y-63732954D01*
G37*
G36*
X163115229Y-69003454D02*
G01*
X163194307Y-69056293D01*
X163247146Y-69135371D01*
X163265700Y-69228650D01*
X163265700Y-70141150D01*
X163247146Y-70234429D01*
X163194307Y-70313507D01*
X163115229Y-70366346D01*
X163021950Y-70384900D01*
X162534450Y-70384900D01*
X162441171Y-70366346D01*
X162362093Y-70313507D01*
X162309254Y-70234429D01*
X162290700Y-70141150D01*
X162290700Y-69228650D01*
X162309254Y-69135371D01*
X162362093Y-69056293D01*
X162441171Y-69003454D01*
X162534450Y-68984900D01*
X163021950Y-68984900D01*
X163115229Y-69003454D01*
G37*
G36*
X164990229Y-69003454D02*
G01*
X165069307Y-69056293D01*
X165122146Y-69135371D01*
X165140700Y-69228650D01*
X165140700Y-70141150D01*
X165122146Y-70234429D01*
X165069307Y-70313507D01*
X164990229Y-70366346D01*
X164896950Y-70384900D01*
X164409450Y-70384900D01*
X164316171Y-70366346D01*
X164237093Y-70313507D01*
X164184254Y-70234429D01*
X164165700Y-70141150D01*
X164165700Y-69228650D01*
X164184254Y-69135371D01*
X164237093Y-69056293D01*
X164316171Y-69003454D01*
X164409450Y-68984900D01*
X164896950Y-68984900D01*
X164990229Y-69003454D01*
G37*
G36*
X142790629Y-63097954D02*
G01*
X142869707Y-63150793D01*
X142922546Y-63229871D01*
X142941100Y-63323150D01*
X142941100Y-64235650D01*
X142922546Y-64328929D01*
X142869707Y-64408007D01*
X142790629Y-64460846D01*
X142697350Y-64479400D01*
X142209850Y-64479400D01*
X142116571Y-64460846D01*
X142037493Y-64408007D01*
X141984654Y-64328929D01*
X141966100Y-64235650D01*
X141966100Y-63323150D01*
X141984654Y-63229871D01*
X142037493Y-63150793D01*
X142116571Y-63097954D01*
X142209850Y-63079400D01*
X142697350Y-63079400D01*
X142790629Y-63097954D01*
G37*
G36*
X140915629Y-63097954D02*
G01*
X140994707Y-63150793D01*
X141047546Y-63229871D01*
X141066100Y-63323150D01*
X141066100Y-64235650D01*
X141047546Y-64328929D01*
X140994707Y-64408007D01*
X140915629Y-64460846D01*
X140822350Y-64479400D01*
X140334850Y-64479400D01*
X140241571Y-64460846D01*
X140162493Y-64408007D01*
X140109654Y-64328929D01*
X140091100Y-64235650D01*
X140091100Y-63323150D01*
X140109654Y-63229871D01*
X140162493Y-63150793D01*
X140241571Y-63097954D01*
X140334850Y-63079400D01*
X140822350Y-63079400D01*
X140915629Y-63097954D01*
G37*
G36*
X140826729Y-72178454D02*
G01*
X140905807Y-72231293D01*
X140958646Y-72310371D01*
X140977200Y-72403650D01*
X140977200Y-73316150D01*
X140958646Y-73409429D01*
X140905807Y-73488507D01*
X140826729Y-73541346D01*
X140733450Y-73559900D01*
X140245950Y-73559900D01*
X140152671Y-73541346D01*
X140073593Y-73488507D01*
X140020754Y-73409429D01*
X140002200Y-73316150D01*
X140002200Y-72403650D01*
X140020754Y-72310371D01*
X140073593Y-72231293D01*
X140152671Y-72178454D01*
X140245950Y-72159900D01*
X140733450Y-72159900D01*
X140826729Y-72178454D01*
G37*
G36*
X142701729Y-72178454D02*
G01*
X142780807Y-72231293D01*
X142833646Y-72310371D01*
X142852200Y-72403650D01*
X142852200Y-73316150D01*
X142833646Y-73409429D01*
X142780807Y-73488507D01*
X142701729Y-73541346D01*
X142608450Y-73559900D01*
X142120950Y-73559900D01*
X142027671Y-73541346D01*
X141948593Y-73488507D01*
X141895754Y-73409429D01*
X141877200Y-73316150D01*
X141877200Y-72403650D01*
X141895754Y-72310371D01*
X141948593Y-72231293D01*
X142027671Y-72178454D01*
X142120950Y-72159900D01*
X142608450Y-72159900D01*
X142701729Y-72178454D01*
G37*
G36*
X143246729Y-65103454D02*
G01*
X143325807Y-65156293D01*
X143378646Y-65235371D01*
X143397200Y-65328650D01*
X143397200Y-65816150D01*
X143378646Y-65909429D01*
X143325807Y-65988507D01*
X143246729Y-66041346D01*
X143153450Y-66059900D01*
X142240950Y-66059900D01*
X142147671Y-66041346D01*
X142068593Y-65988507D01*
X142015754Y-65909429D01*
X141997200Y-65816150D01*
X141997200Y-65328650D01*
X142015754Y-65235371D01*
X142068593Y-65156293D01*
X142147671Y-65103454D01*
X142240950Y-65084900D01*
X143153450Y-65084900D01*
X143246729Y-65103454D01*
G37*
G36*
X143246729Y-66978454D02*
G01*
X143325807Y-67031293D01*
X143378646Y-67110371D01*
X143397200Y-67203650D01*
X143397200Y-67691150D01*
X143378646Y-67784429D01*
X143325807Y-67863507D01*
X143246729Y-67916346D01*
X143153450Y-67934900D01*
X142240950Y-67934900D01*
X142147671Y-67916346D01*
X142068593Y-67863507D01*
X142015754Y-67784429D01*
X141997200Y-67691150D01*
X141997200Y-67203650D01*
X142015754Y-67110371D01*
X142068593Y-67031293D01*
X142147671Y-66978454D01*
X142240950Y-66959900D01*
X143153450Y-66959900D01*
X143246729Y-66978454D01*
G37*
G36*
X143246729Y-70534454D02*
G01*
X143325807Y-70587293D01*
X143378646Y-70666371D01*
X143397200Y-70759650D01*
X143397200Y-71247150D01*
X143378646Y-71340429D01*
X143325807Y-71419507D01*
X143246729Y-71472346D01*
X143153450Y-71490900D01*
X142240950Y-71490900D01*
X142147671Y-71472346D01*
X142068593Y-71419507D01*
X142015754Y-71340429D01*
X141997200Y-71247150D01*
X141997200Y-70759650D01*
X142015754Y-70666371D01*
X142068593Y-70587293D01*
X142147671Y-70534454D01*
X142240950Y-70515900D01*
X143153450Y-70515900D01*
X143246729Y-70534454D01*
G37*
G36*
X143246729Y-68659454D02*
G01*
X143325807Y-68712293D01*
X143378646Y-68791371D01*
X143397200Y-68884650D01*
X143397200Y-69372150D01*
X143378646Y-69465429D01*
X143325807Y-69544507D01*
X143246729Y-69597346D01*
X143153450Y-69615900D01*
X142240950Y-69615900D01*
X142147671Y-69597346D01*
X142068593Y-69544507D01*
X142015754Y-69465429D01*
X141997200Y-69372150D01*
X141997200Y-68884650D01*
X142015754Y-68791371D01*
X142068593Y-68712293D01*
X142147671Y-68659454D01*
X142240950Y-68640900D01*
X143153450Y-68640900D01*
X143246729Y-68659454D01*
G37*
G36*
X141214729Y-66978454D02*
G01*
X141293807Y-67031293D01*
X141346646Y-67110371D01*
X141365200Y-67203650D01*
X141365200Y-67691150D01*
X141346646Y-67784429D01*
X141293807Y-67863507D01*
X141214729Y-67916346D01*
X141121450Y-67934900D01*
X140208950Y-67934900D01*
X140115671Y-67916346D01*
X140036593Y-67863507D01*
X139983754Y-67784429D01*
X139965200Y-67691150D01*
X139965200Y-67203650D01*
X139983754Y-67110371D01*
X140036593Y-67031293D01*
X140115671Y-66978454D01*
X140208950Y-66959900D01*
X141121450Y-66959900D01*
X141214729Y-66978454D01*
G37*
G36*
X141214729Y-65103454D02*
G01*
X141293807Y-65156293D01*
X141346646Y-65235371D01*
X141365200Y-65328650D01*
X141365200Y-65816150D01*
X141346646Y-65909429D01*
X141293807Y-65988507D01*
X141214729Y-66041346D01*
X141121450Y-66059900D01*
X140208950Y-66059900D01*
X140115671Y-66041346D01*
X140036593Y-65988507D01*
X139983754Y-65909429D01*
X139965200Y-65816150D01*
X139965200Y-65328650D01*
X139983754Y-65235371D01*
X140036593Y-65156293D01*
X140115671Y-65103454D01*
X140208950Y-65084900D01*
X141121450Y-65084900D01*
X141214729Y-65103454D01*
G37*
G36*
X141214729Y-70534454D02*
G01*
X141293807Y-70587293D01*
X141346646Y-70666371D01*
X141365200Y-70759650D01*
X141365200Y-71247150D01*
X141346646Y-71340429D01*
X141293807Y-71419507D01*
X141214729Y-71472346D01*
X141121450Y-71490900D01*
X140208950Y-71490900D01*
X140115671Y-71472346D01*
X140036593Y-71419507D01*
X139983754Y-71340429D01*
X139965200Y-71247150D01*
X139965200Y-70759650D01*
X139983754Y-70666371D01*
X140036593Y-70587293D01*
X140115671Y-70534454D01*
X140208950Y-70515900D01*
X141121450Y-70515900D01*
X141214729Y-70534454D01*
G37*
G36*
X141214729Y-68659454D02*
G01*
X141293807Y-68712293D01*
X141346646Y-68791371D01*
X141365200Y-68884650D01*
X141365200Y-69372150D01*
X141346646Y-69465429D01*
X141293807Y-69544507D01*
X141214729Y-69597346D01*
X141121450Y-69615900D01*
X140208950Y-69615900D01*
X140115671Y-69597346D01*
X140036593Y-69544507D01*
X139983754Y-69465429D01*
X139965200Y-69372150D01*
X139965200Y-68884650D01*
X139983754Y-68791371D01*
X140036593Y-68712293D01*
X140115671Y-68659454D01*
X140208950Y-68640900D01*
X141121450Y-68640900D01*
X141214729Y-68659454D01*
G37*
G36*
X149342729Y-65103454D02*
G01*
X149421807Y-65156293D01*
X149474646Y-65235371D01*
X149493200Y-65328650D01*
X149493200Y-65816150D01*
X149474646Y-65909429D01*
X149421807Y-65988507D01*
X149342729Y-66041346D01*
X149249450Y-66059900D01*
X148336950Y-66059900D01*
X148243671Y-66041346D01*
X148164593Y-65988507D01*
X148111754Y-65909429D01*
X148093200Y-65816150D01*
X148093200Y-65328650D01*
X148111754Y-65235371D01*
X148164593Y-65156293D01*
X148243671Y-65103454D01*
X148336950Y-65084900D01*
X149249450Y-65084900D01*
X149342729Y-65103454D01*
G37*
G36*
X149342729Y-66978454D02*
G01*
X149421807Y-67031293D01*
X149474646Y-67110371D01*
X149493200Y-67203650D01*
X149493200Y-67691150D01*
X149474646Y-67784429D01*
X149421807Y-67863507D01*
X149342729Y-67916346D01*
X149249450Y-67934900D01*
X148336950Y-67934900D01*
X148243671Y-67916346D01*
X148164593Y-67863507D01*
X148111754Y-67784429D01*
X148093200Y-67691150D01*
X148093200Y-67203650D01*
X148111754Y-67110371D01*
X148164593Y-67031293D01*
X148243671Y-66978454D01*
X148336950Y-66959900D01*
X149249450Y-66959900D01*
X149342729Y-66978454D01*
G37*
G36*
X149342729Y-68659454D02*
G01*
X149421807Y-68712293D01*
X149474646Y-68791371D01*
X149493200Y-68884650D01*
X149493200Y-69372150D01*
X149474646Y-69465429D01*
X149421807Y-69544507D01*
X149342729Y-69597346D01*
X149249450Y-69615900D01*
X148336950Y-69615900D01*
X148243671Y-69597346D01*
X148164593Y-69544507D01*
X148111754Y-69465429D01*
X148093200Y-69372150D01*
X148093200Y-68884650D01*
X148111754Y-68791371D01*
X148164593Y-68712293D01*
X148243671Y-68659454D01*
X148336950Y-68640900D01*
X149249450Y-68640900D01*
X149342729Y-68659454D01*
G37*
G36*
X149342729Y-70534454D02*
G01*
X149421807Y-70587293D01*
X149474646Y-70666371D01*
X149493200Y-70759650D01*
X149493200Y-71247150D01*
X149474646Y-71340429D01*
X149421807Y-71419507D01*
X149342729Y-71472346D01*
X149249450Y-71490900D01*
X148336950Y-71490900D01*
X148243671Y-71472346D01*
X148164593Y-71419507D01*
X148111754Y-71340429D01*
X148093200Y-71247150D01*
X148093200Y-70759650D01*
X148111754Y-70666371D01*
X148164593Y-70587293D01*
X148243671Y-70534454D01*
X148336950Y-70515900D01*
X149249450Y-70515900D01*
X149342729Y-70534454D01*
G37*
G36*
X159592729Y-121898954D02*
G01*
X159671807Y-121951793D01*
X159724646Y-122030871D01*
X159743200Y-122124150D01*
X159743200Y-123036650D01*
X159724646Y-123129929D01*
X159671807Y-123209007D01*
X159592729Y-123261846D01*
X159499450Y-123280400D01*
X159011950Y-123280400D01*
X158918671Y-123261846D01*
X158839593Y-123209007D01*
X158786754Y-123129929D01*
X158768200Y-123036650D01*
X158768200Y-122124150D01*
X158786754Y-122030871D01*
X158839593Y-121951793D01*
X158918671Y-121898954D01*
X159011950Y-121880400D01*
X159499450Y-121880400D01*
X159592729Y-121898954D01*
G37*
G36*
X157717729Y-121898954D02*
G01*
X157796807Y-121951793D01*
X157849646Y-122030871D01*
X157868200Y-122124150D01*
X157868200Y-123036650D01*
X157849646Y-123129929D01*
X157796807Y-123209007D01*
X157717729Y-123261846D01*
X157624450Y-123280400D01*
X157136950Y-123280400D01*
X157043671Y-123261846D01*
X156964593Y-123209007D01*
X156911754Y-123129929D01*
X156893200Y-123036650D01*
X156893200Y-122124150D01*
X156911754Y-122030871D01*
X156964593Y-121951793D01*
X157043671Y-121898954D01*
X157136950Y-121880400D01*
X157624450Y-121880400D01*
X157717729Y-121898954D01*
G37*
G36*
X154258729Y-120120954D02*
G01*
X154337807Y-120173793D01*
X154390646Y-120252871D01*
X154409200Y-120346150D01*
X154409200Y-121258650D01*
X154390646Y-121351929D01*
X154337807Y-121431007D01*
X154258729Y-121483846D01*
X154165450Y-121502400D01*
X153677950Y-121502400D01*
X153584671Y-121483846D01*
X153505593Y-121431007D01*
X153452754Y-121351929D01*
X153434200Y-121258650D01*
X153434200Y-120346150D01*
X153452754Y-120252871D01*
X153505593Y-120173793D01*
X153584671Y-120120954D01*
X153677950Y-120102400D01*
X154165450Y-120102400D01*
X154258729Y-120120954D01*
G37*
G36*
X152383729Y-120120954D02*
G01*
X152462807Y-120173793D01*
X152515646Y-120252871D01*
X152534200Y-120346150D01*
X152534200Y-121258650D01*
X152515646Y-121351929D01*
X152462807Y-121431007D01*
X152383729Y-121483846D01*
X152290450Y-121502400D01*
X151802950Y-121502400D01*
X151709671Y-121483846D01*
X151630593Y-121431007D01*
X151577754Y-121351929D01*
X151559200Y-121258650D01*
X151559200Y-120346150D01*
X151577754Y-120252871D01*
X151630593Y-120173793D01*
X151709671Y-120120954D01*
X151802950Y-120102400D01*
X152290450Y-120102400D01*
X152383729Y-120120954D01*
G37*
G36*
X149686729Y-120120954D02*
G01*
X149765807Y-120173793D01*
X149818646Y-120252871D01*
X149837200Y-120346150D01*
X149837200Y-121258650D01*
X149818646Y-121351929D01*
X149765807Y-121431007D01*
X149686729Y-121483846D01*
X149593450Y-121502400D01*
X149105950Y-121502400D01*
X149012671Y-121483846D01*
X148933593Y-121431007D01*
X148880754Y-121351929D01*
X148862200Y-121258650D01*
X148862200Y-120346150D01*
X148880754Y-120252871D01*
X148933593Y-120173793D01*
X149012671Y-120120954D01*
X149105950Y-120102400D01*
X149593450Y-120102400D01*
X149686729Y-120120954D01*
G37*
G36*
X147811729Y-120120954D02*
G01*
X147890807Y-120173793D01*
X147943646Y-120252871D01*
X147962200Y-120346150D01*
X147962200Y-121258650D01*
X147943646Y-121351929D01*
X147890807Y-121431007D01*
X147811729Y-121483846D01*
X147718450Y-121502400D01*
X147230950Y-121502400D01*
X147137671Y-121483846D01*
X147058593Y-121431007D01*
X147005754Y-121351929D01*
X146987200Y-121258650D01*
X146987200Y-120346150D01*
X147005754Y-120252871D01*
X147058593Y-120173793D01*
X147137671Y-120120954D01*
X147230950Y-120102400D01*
X147718450Y-120102400D01*
X147811729Y-120120954D01*
G37*
G36*
X156607129Y-131354754D02*
G01*
X156686207Y-131407593D01*
X156739046Y-131486671D01*
X156757600Y-131579950D01*
X156757600Y-132067450D01*
X156739046Y-132160729D01*
X156686207Y-132239807D01*
X156607129Y-132292646D01*
X156513850Y-132311200D01*
X155601350Y-132311200D01*
X155508071Y-132292646D01*
X155428993Y-132239807D01*
X155376154Y-132160729D01*
X155357600Y-132067450D01*
X155357600Y-131579950D01*
X155376154Y-131486671D01*
X155428993Y-131407593D01*
X155508071Y-131354754D01*
X155601350Y-131336200D01*
X156513850Y-131336200D01*
X156607129Y-131354754D01*
G37*
G36*
X156607129Y-129479754D02*
G01*
X156686207Y-129532593D01*
X156739046Y-129611671D01*
X156757600Y-129704950D01*
X156757600Y-130192450D01*
X156739046Y-130285729D01*
X156686207Y-130364807D01*
X156607129Y-130417646D01*
X156513850Y-130436200D01*
X155601350Y-130436200D01*
X155508071Y-130417646D01*
X155428993Y-130364807D01*
X155376154Y-130285729D01*
X155357600Y-130192450D01*
X155357600Y-129704950D01*
X155376154Y-129611671D01*
X155428993Y-129532593D01*
X155508071Y-129479754D01*
X155601350Y-129461200D01*
X156513850Y-129461200D01*
X156607129Y-129479754D01*
G37*
G36*
X144662129Y-126597954D02*
G01*
X144741207Y-126650793D01*
X144794046Y-126729871D01*
X144812600Y-126823150D01*
X144812600Y-127735650D01*
X144794046Y-127828929D01*
X144741207Y-127908007D01*
X144662129Y-127960846D01*
X144568850Y-127979400D01*
X144081350Y-127979400D01*
X143988071Y-127960846D01*
X143908993Y-127908007D01*
X143856154Y-127828929D01*
X143837600Y-127735650D01*
X143837600Y-126823150D01*
X143856154Y-126729871D01*
X143908993Y-126650793D01*
X143988071Y-126597954D01*
X144081350Y-126579400D01*
X144568850Y-126579400D01*
X144662129Y-126597954D01*
G37*
G36*
X146537129Y-126597954D02*
G01*
X146616207Y-126650793D01*
X146669046Y-126729871D01*
X146687600Y-126823150D01*
X146687600Y-127735650D01*
X146669046Y-127828929D01*
X146616207Y-127908007D01*
X146537129Y-127960846D01*
X146443850Y-127979400D01*
X145956350Y-127979400D01*
X145863071Y-127960846D01*
X145783993Y-127908007D01*
X145731154Y-127828929D01*
X145712600Y-127735650D01*
X145712600Y-126823150D01*
X145731154Y-126729871D01*
X145783993Y-126650793D01*
X145863071Y-126597954D01*
X145956350Y-126579400D01*
X146443850Y-126579400D01*
X146537129Y-126597954D01*
G37*
G36*
X160772729Y-125715954D02*
G01*
X160851807Y-125768793D01*
X160904646Y-125847871D01*
X160923200Y-125941150D01*
X160923200Y-126428650D01*
X160904646Y-126521929D01*
X160851807Y-126601007D01*
X160772729Y-126653846D01*
X160679450Y-126672400D01*
X159766950Y-126672400D01*
X159673671Y-126653846D01*
X159594593Y-126601007D01*
X159541754Y-126521929D01*
X159523200Y-126428650D01*
X159523200Y-125941150D01*
X159541754Y-125847871D01*
X159594593Y-125768793D01*
X159673671Y-125715954D01*
X159766950Y-125697400D01*
X160679450Y-125697400D01*
X160772729Y-125715954D01*
G37*
G36*
X160772729Y-123840954D02*
G01*
X160851807Y-123893793D01*
X160904646Y-123972871D01*
X160923200Y-124066150D01*
X160923200Y-124553650D01*
X160904646Y-124646929D01*
X160851807Y-124726007D01*
X160772729Y-124778846D01*
X160679450Y-124797400D01*
X159766950Y-124797400D01*
X159673671Y-124778846D01*
X159594593Y-124726007D01*
X159541754Y-124646929D01*
X159523200Y-124553650D01*
X159523200Y-124066150D01*
X159541754Y-123972871D01*
X159594593Y-123893793D01*
X159673671Y-123840954D01*
X159766950Y-123822400D01*
X160679450Y-123822400D01*
X160772729Y-123840954D01*
G37*
G36*
X144872329Y-80884954D02*
G01*
X144951407Y-80937793D01*
X145004246Y-81016871D01*
X145022800Y-81110150D01*
X145022800Y-81597650D01*
X145004246Y-81690929D01*
X144951407Y-81770007D01*
X144872329Y-81822846D01*
X144779050Y-81841400D01*
X143866550Y-81841400D01*
X143773271Y-81822846D01*
X143694193Y-81770007D01*
X143641354Y-81690929D01*
X143622800Y-81597650D01*
X143622800Y-81110150D01*
X143641354Y-81016871D01*
X143694193Y-80937793D01*
X143773271Y-80884954D01*
X143866550Y-80866400D01*
X144779050Y-80866400D01*
X144872329Y-80884954D01*
G37*
G36*
X144872329Y-79009954D02*
G01*
X144951407Y-79062793D01*
X145004246Y-79141871D01*
X145022800Y-79235150D01*
X145022800Y-79722650D01*
X145004246Y-79815929D01*
X144951407Y-79895007D01*
X144872329Y-79947846D01*
X144779050Y-79966400D01*
X143866550Y-79966400D01*
X143773271Y-79947846D01*
X143694193Y-79895007D01*
X143641354Y-79815929D01*
X143622800Y-79722650D01*
X143622800Y-79235150D01*
X143641354Y-79141871D01*
X143694193Y-79062793D01*
X143773271Y-79009954D01*
X143866550Y-78991400D01*
X144779050Y-78991400D01*
X144872329Y-79009954D01*
G37*
M02*
