G04 #@! TF.GenerationSoftware,KiCad,Pcbnew,(5.99.0-429-gffcf3b01f)*
G04 #@! TF.CreationDate,2019-12-13T14:25:27+01:00*
G04 #@! TF.ProjectId,smartlock,736d6172-746c-46f6-936b-2e6b69636164,rev?*
G04 #@! TF.SameCoordinates,Original*
G04 #@! TF.FileFunction,Copper,L2,Bot*
G04 #@! TF.FilePolarity,Positive*
%FSLAX46Y46*%
G04 Gerber Fmt 4.6, Leading zero omitted, Abs format (unit mm)*
G04 Created by KiCad (PCBNEW (5.99.0-429-gffcf3b01f)) date 2019-12-13 14:25:27*
%MOMM*%
%LPD*%
G04 APERTURE LIST*
%ADD10C,0.686000*%
%ADD11C,0.600000*%
%ADD12R,3.400000X6.500000*%
%ADD13O,1.700000X1.700000*%
%ADD14R,1.700000X1.700000*%
%ADD15C,2.000000*%
%ADD16O,1.000000X1.000000*%
%ADD17R,1.000000X1.000000*%
%ADD18R,3.500000X3.500000*%
%ADD19C,3.500000*%
%ADD20C,0.685800*%
%ADD21C,0.508000*%
%ADD22C,0.254000*%
%ADD23C,0.381000*%
%ADD24C,0.635000*%
G04 APERTURE END LIST*
D10*
X131655820Y-62113160D03*
D11*
X153815200Y-122653900D03*
X152515200Y-122653900D03*
X151215200Y-122653900D03*
X153815200Y-124128900D03*
X152515200Y-124128900D03*
X151215200Y-124128900D03*
X153815200Y-125603900D03*
X152515200Y-125603900D03*
X151215200Y-125603900D03*
X153815200Y-127078900D03*
X152515200Y-127078900D03*
X151215200Y-127078900D03*
X151215200Y-128553900D03*
X152515200Y-128553900D03*
X153815200Y-128553900D03*
D12*
X152515200Y-125603900D03*
D13*
X164668200Y-119659400D03*
X164668200Y-117119400D03*
X164668200Y-114579400D03*
X164668200Y-112039400D03*
X164668200Y-109499400D03*
X164668200Y-106959400D03*
X164668200Y-104419400D03*
X164668200Y-101879400D03*
D14*
X164668200Y-99339400D03*
D13*
X140411200Y-130517900D03*
X140411200Y-127977900D03*
X140411200Y-125437900D03*
X140411200Y-122897900D03*
D14*
X140411200Y-120357900D03*
D15*
X162890200Y-60477400D03*
X151777700Y-60540900D03*
X152412700Y-117690900D03*
X156476700Y-118579900D03*
X160832800Y-94513400D03*
X143103600Y-92151200D03*
X143306800Y-96748600D03*
X150749000Y-94564200D03*
X143103600Y-87782400D03*
D16*
X160807400Y-109804200D03*
D17*
X159537400Y-109804200D03*
D16*
X160896300Y-117398800D03*
D17*
X159626300Y-117398800D03*
D16*
X139014200Y-111150400D03*
X137744200Y-111150400D03*
X139014200Y-109880400D03*
X137744200Y-109880400D03*
X139014200Y-108610400D03*
X137744200Y-108610400D03*
X139014200Y-107340400D03*
X137744200Y-107340400D03*
X139014200Y-106070400D03*
D17*
X137744200Y-106070400D03*
D18*
X177114200Y-132994400D03*
D19*
X177114200Y-60994400D03*
D20*
X161391600Y-123583700D03*
X143776700Y-132346700D03*
X151638002Y-72529710D03*
X161871660Y-67693540D03*
X152537810Y-63057390D03*
X155676600Y-73190100D03*
X167932100Y-98107500D03*
X152387300Y-105714800D03*
X150380700Y-108508800D03*
X147167600Y-106654600D03*
X147167600Y-108546900D03*
X150698200Y-101485700D03*
X150685500Y-104216200D03*
X159413300Y-69708300D03*
X158313300Y-69708300D03*
X157213300Y-69708300D03*
X156113300Y-69708300D03*
X159413300Y-68608300D03*
X158313300Y-68608300D03*
X157213300Y-68608300D03*
X156113300Y-68608300D03*
X159413300Y-67508300D03*
X158313300Y-67508300D03*
X157213300Y-67508300D03*
X156113300Y-67508300D03*
X159413300Y-66408300D03*
X158313300Y-66408300D03*
X157213300Y-66408300D03*
X146456400Y-63982600D03*
X156963556Y-124798644D03*
X156919405Y-125724375D03*
X136779000Y-65532000D03*
X158623006Y-126619000D03*
X141524920Y-104940176D03*
X158623000Y-125730000D03*
X140680019Y-110927699D03*
X146812000Y-129717798D03*
X157708600Y-125323600D03*
X144449800Y-115265200D03*
X149961600Y-115595400D03*
X147497800Y-130581400D03*
X141352206Y-106152917D03*
X141198600Y-107086398D03*
X149237700Y-62293490D03*
X148742400Y-116382800D03*
X154889200Y-100525900D03*
X160682733Y-129247915D03*
X167279202Y-129255402D03*
X162433000Y-120624600D03*
X168833800Y-129082800D03*
X149595440Y-132607611D03*
X158292802Y-116382800D03*
X158591891Y-106895888D03*
X156425900Y-110959900D03*
X145315741Y-64162741D03*
X157141447Y-111719178D03*
X156870400Y-113030000D03*
X140847000Y-108733400D03*
X141884400Y-113487200D03*
X145561066Y-128758934D03*
X156641799Y-108611090D03*
X157266018Y-108023870D03*
X155625800Y-102184200D03*
X155600400Y-94691200D03*
X150825200Y-71081900D03*
X153670000Y-65684400D03*
X150698200Y-86385400D03*
X150698200Y-80010000D03*
X147726400Y-73533000D03*
X138607800Y-70307200D03*
X138480800Y-67716400D03*
X138887200Y-65049400D03*
X144272000Y-60985400D03*
X136728200Y-80111600D03*
X136677400Y-77317600D03*
X144780000Y-73761600D03*
X141744200Y-117691400D03*
X144526000Y-85344000D03*
X144526000Y-83566000D03*
X138531600Y-58775600D03*
X137160000Y-114935000D03*
X137160000Y-116840000D03*
X137160000Y-118745000D03*
X137160000Y-135890000D03*
X137160000Y-133985000D03*
X137160000Y-132080000D03*
X137160000Y-130175000D03*
X137160000Y-128270000D03*
X137160000Y-126365000D03*
X137160000Y-124460000D03*
X137160000Y-122555000D03*
X137160000Y-120650000D03*
X162382200Y-97663000D03*
X152984200Y-97282000D03*
X144221200Y-58724800D03*
X164922200Y-71602600D03*
X166928800Y-67132200D03*
X166954200Y-63296800D03*
X164642800Y-62230000D03*
X150393400Y-110363000D03*
X147142200Y-110337600D03*
X153390600Y-94513400D03*
X157073600Y-114731800D03*
X142138400Y-89814400D03*
X164363400Y-131089400D03*
X143637000Y-121539000D03*
X142646400Y-124206000D03*
X141833600Y-101142800D03*
X138633200Y-115697000D03*
X148437600Y-64363600D03*
X158013400Y-128193800D03*
X167386000Y-135280400D03*
X139598400Y-132410200D03*
X154787600Y-131597400D03*
X160756329Y-130168321D03*
X153974800Y-114503200D03*
X158508699Y-97878901D03*
X158165800Y-95123000D03*
X142875000Y-114808000D03*
X156113300Y-66408300D03*
X146138900Y-92240100D03*
X140913313Y-110111090D03*
X157888328Y-107355710D03*
D21*
X160096200Y-133426200D02*
X161734499Y-131787901D01*
X161734499Y-131787901D02*
X161734499Y-123926599D01*
X161734499Y-123926599D02*
X161391600Y-123583700D01*
X147381200Y-128758934D02*
X152048466Y-133426200D01*
X152048466Y-133426200D02*
X160096200Y-133426200D01*
X145561066Y-128758934D02*
X147381200Y-128758934D01*
D22*
X167901503Y-129554107D02*
X167901503Y-127873946D01*
X158777735Y-116382800D02*
X158292802Y-116382800D01*
X148449309Y-130581400D02*
X152005309Y-134137400D01*
X168833800Y-129082800D02*
X168833800Y-127025400D01*
X168833800Y-127025400D02*
X162433000Y-120624600D01*
X163318210Y-134137400D02*
X167901503Y-129554107D01*
X161033814Y-116382800D02*
X158777735Y-116382800D01*
X149595440Y-132607611D02*
X151656318Y-134668489D01*
X151656318Y-134668489D02*
X164169117Y-134668489D01*
X152005309Y-134137400D02*
X163318210Y-134137400D01*
X164929115Y-118248801D02*
X162899815Y-118248801D01*
X147497800Y-130581400D02*
X148449309Y-130581400D01*
X169456101Y-122775787D02*
X164929115Y-118248801D01*
X169456101Y-129381505D02*
X169456101Y-122775787D01*
X162899815Y-118248801D02*
X161033814Y-116382800D01*
X164169117Y-134668489D02*
X169456101Y-129381505D01*
X167901503Y-127873946D02*
X155622957Y-115595400D01*
X155622957Y-115595400D02*
X149961600Y-115595400D01*
X157583706Y-118579900D02*
X167279202Y-128275396D01*
X156476700Y-118579900D02*
X157583706Y-118579900D01*
X167279202Y-128275396D02*
X167279202Y-129255402D01*
X161518600Y-59105800D02*
X147360144Y-59105800D01*
X140855701Y-106743499D02*
X141198600Y-107086398D01*
X162890200Y-60477400D02*
X161518600Y-59105800D01*
X147360144Y-59105800D02*
X139674600Y-66791344D01*
X139674600Y-66791344D02*
X139674600Y-105562398D01*
X139674600Y-105562398D02*
X140855701Y-106743499D01*
D21*
X150825200Y-69672200D02*
X145658640Y-64505640D01*
X150825200Y-71081900D02*
X150825200Y-69672200D01*
X145658640Y-64505640D02*
X145315741Y-64162741D01*
D22*
X139281799Y-131060013D02*
X139281799Y-131038600D01*
X139281799Y-131038600D02*
X139260386Y-131038600D01*
X139869087Y-131647301D02*
X139281799Y-131060013D01*
X146812000Y-129717798D02*
X144882497Y-131647301D01*
X142227298Y-115684302D02*
X143249906Y-115684302D01*
X139260386Y-131038600D02*
X138621389Y-130399603D01*
X143249906Y-115684302D02*
X143573502Y-115360706D01*
X143573502Y-113821182D02*
X140680019Y-110927699D01*
X144882497Y-131647301D02*
X139869087Y-131647301D01*
X138621389Y-130399603D02*
X138621389Y-119290211D01*
X138621389Y-119290211D02*
X142227298Y-115684302D01*
X143573502Y-115360706D02*
X143573502Y-113821182D01*
D23*
X151638002Y-69164202D02*
X151638002Y-72529710D01*
X146456400Y-63982600D02*
X151638002Y-69164202D01*
X154889200Y-100525900D02*
X154889200Y-78308200D01*
X154889200Y-78308200D02*
X152537810Y-75956810D01*
X152537810Y-63542323D02*
X152537810Y-63057390D01*
X152537810Y-75956810D02*
X152537810Y-63542323D01*
D24*
X167894000Y-98069400D02*
X167894000Y-85369400D01*
X167932100Y-98107500D02*
X167894000Y-98069400D01*
X167894000Y-85369400D02*
X155714700Y-73190100D01*
X155714700Y-73190100D02*
X155676600Y-73190100D01*
X153670000Y-71183500D02*
X155333701Y-72847201D01*
X155333701Y-72847201D02*
X155676600Y-73190100D01*
X153670000Y-65684400D02*
X153670000Y-71183500D01*
D22*
X148742400Y-116382800D02*
X148742400Y-105476750D01*
X140487422Y-97221772D02*
X140487422Y-67128024D01*
X148742400Y-105476750D02*
X140487422Y-97221772D01*
X140487422Y-67128024D02*
X145321956Y-62293490D01*
X148752767Y-62293490D02*
X149237700Y-62293490D01*
X141478000Y-93776800D02*
X141478000Y-97637600D01*
X145321956Y-62293490D02*
X148752767Y-62293490D01*
X143103600Y-92151200D02*
X141478000Y-93776800D01*
X141478000Y-97637600D02*
X152451490Y-108611090D01*
X152451490Y-108611090D02*
X156641799Y-108611090D01*
X151777700Y-60540900D02*
X146499795Y-60540900D01*
X140081011Y-104881722D02*
X141009307Y-105810018D01*
X140081011Y-66959684D02*
X140081011Y-104881722D01*
X141009307Y-105810018D02*
X141352206Y-106152917D01*
X146499795Y-60540900D02*
X140081011Y-66959684D01*
D23*
X146405600Y-120370600D02*
X151205224Y-120370600D01*
X151205224Y-120370600D02*
X151214658Y-120380034D01*
X153527034Y-120380034D02*
X156963556Y-123816556D01*
X151214658Y-120380034D02*
X153527034Y-120380034D01*
X156963556Y-123816556D02*
X156963556Y-124798644D01*
X146392900Y-120357900D02*
X146405600Y-120370600D01*
X140411200Y-120357900D02*
X146392900Y-120357900D01*
X153931646Y-121539000D02*
X146850100Y-121539000D01*
X156919405Y-125724375D02*
X156108400Y-124913370D01*
X156108400Y-124913370D02*
X156108400Y-123715754D01*
X146850100Y-121539000D02*
X140411200Y-127977900D01*
X156108400Y-123715754D02*
X153931646Y-121539000D01*
D24*
X136779000Y-63195200D02*
X135712200Y-62128400D01*
X136779000Y-65532000D02*
X136779000Y-63195200D01*
X135712200Y-62128400D02*
X131724400Y-62128400D01*
D22*
X151798587Y-118970301D02*
X154327101Y-118970301D01*
X151789155Y-118960869D02*
X151798587Y-118970301D01*
X141524920Y-104940176D02*
X142748000Y-106163256D01*
X142748000Y-106163256D02*
X142748000Y-111277400D01*
X159270699Y-123913899D02*
X159270699Y-125971307D01*
X159270699Y-125971307D02*
X158623006Y-126619000D01*
X154327101Y-118970301D02*
X159270699Y-123913899D01*
X150431468Y-118960868D02*
X151789155Y-118960869D01*
X142748000Y-111277400D02*
X150431468Y-118960868D01*
D23*
X153831823Y-119846623D02*
X157708600Y-123723400D01*
X151435604Y-119846623D02*
X153831823Y-119846623D01*
X148920189Y-119837189D02*
X151426170Y-119837189D01*
X151426170Y-119837189D02*
X151435604Y-119846623D01*
X144475200Y-115392200D02*
X148920189Y-119837189D01*
X157708600Y-123723400D02*
X157708600Y-125323600D01*
D22*
X153622451Y-117690900D02*
X159740600Y-123809049D01*
X152412700Y-117690900D02*
X153622451Y-117690900D01*
X159740600Y-123809049D02*
X159740600Y-128305782D01*
X159740600Y-128305782D02*
X160339834Y-128905016D01*
X160339834Y-128905016D02*
X160682733Y-129247915D01*
X157266018Y-108023870D02*
X157266018Y-105881818D01*
X157266018Y-105881818D02*
X148132800Y-96748600D01*
X148132800Y-96748600D02*
X143306800Y-96748600D01*
X150749000Y-98215299D02*
X158591891Y-106058190D01*
X150749000Y-94564200D02*
X150749000Y-98215299D01*
X158591891Y-106058190D02*
X158591891Y-106895888D01*
X160832800Y-105714800D02*
X156425900Y-110121700D01*
X160832800Y-94513400D02*
X160832800Y-105714800D01*
X156425900Y-110121700D02*
X156425900Y-110959900D01*
X164668200Y-101879400D02*
X163818201Y-102729399D01*
X157141447Y-109980903D02*
X157141447Y-111719178D01*
X163818201Y-103304149D02*
X157141447Y-109980903D01*
X163818201Y-102729399D02*
X163818201Y-103304149D01*
X156870400Y-113030000D02*
X158648400Y-111252000D01*
X158648400Y-111252000D02*
X158648400Y-109190278D01*
X158648400Y-109190278D02*
X163419278Y-104419400D01*
X163419278Y-104419400D02*
X164668200Y-104419400D01*
X140847000Y-108733400D02*
X140504101Y-108390501D01*
X140504101Y-108390501D02*
X140504101Y-107560301D01*
X140504101Y-107560301D02*
X139514199Y-106570399D01*
X139514199Y-106570399D02*
X139014200Y-106070400D01*
X139014200Y-111150400D02*
X141351000Y-113487200D01*
X141351000Y-113487200D02*
X141884400Y-113487200D01*
D21*
X145561066Y-128758934D02*
X141489640Y-128758934D01*
D23*
X155625800Y-102184200D02*
X155625800Y-94716600D01*
X155625800Y-94716600D02*
X155600400Y-94691200D01*
D21*
X141489640Y-128758934D02*
X141014273Y-129234301D01*
X141014273Y-129234301D02*
X139808127Y-129234301D01*
X139808127Y-129234301D02*
X139154799Y-128580973D01*
X139154799Y-128580973D02*
X139154799Y-126694301D01*
X139154799Y-126694301D02*
X139561201Y-126287899D01*
X139561201Y-126287899D02*
X140411200Y-125437900D01*
D24*
X152515200Y-125603900D02*
X152515200Y-129401200D01*
X151215200Y-124128900D02*
X149937100Y-124128900D01*
X152515200Y-125603900D02*
X149987900Y-125603900D01*
D21*
X155423500Y-125603900D02*
X158013400Y-128193800D01*
X152515200Y-125603900D02*
X155423500Y-125603900D01*
D24*
X167386000Y-135280400D02*
X167371000Y-135265400D01*
X158165800Y-95123000D02*
X158508699Y-95465899D01*
X158508699Y-95465899D02*
X158508699Y-97878901D01*
X142113000Y-114808000D02*
X141224000Y-115697000D01*
X142875000Y-114808000D02*
X142113000Y-114808000D01*
X141224000Y-115697000D02*
X140309600Y-115697000D01*
X137744200Y-111150400D02*
X137744200Y-113131600D01*
X137744200Y-113131600D02*
X140309600Y-115697000D01*
X164668200Y-119659400D02*
X163156900Y-119659400D01*
X163156900Y-119659400D02*
X160896300Y-117398800D01*
X137744200Y-108610400D02*
X137037094Y-108610400D01*
X137037094Y-108610400D02*
X136774299Y-108873195D01*
X136774299Y-108873195D02*
X136774299Y-110887605D01*
X136774299Y-110887605D02*
X137037094Y-111150400D01*
X137037094Y-111150400D02*
X137744200Y-111150400D01*
X137744200Y-107340400D02*
X137744200Y-108610400D01*
X153667700Y-126756400D02*
X152515200Y-125603900D01*
D22*
X158623000Y-125730000D02*
X158623000Y-123850400D01*
X141256212Y-110453989D02*
X140913313Y-110111090D01*
X151620814Y-119367279D02*
X150169502Y-119367279D01*
X158623000Y-123850400D02*
X154149312Y-119376712D01*
X150169502Y-119367279D02*
X141256212Y-110453989D01*
X154149312Y-119376712D02*
X151630247Y-119376712D01*
X151630247Y-119376712D02*
X151620814Y-119367279D01*
X144383001Y-92424050D02*
X157888328Y-105929377D01*
X157888328Y-106870777D02*
X157888328Y-107355710D01*
X143103600Y-87782400D02*
X144383001Y-89061801D01*
X144383001Y-89061801D02*
X144383001Y-92424050D01*
X157888328Y-105929377D02*
X157888328Y-106870777D01*
G36*
X192492001Y-136492000D02*
G01*
X135382000Y-136492000D01*
X135382000Y-111404400D01*
X136765938Y-111404400D01*
X136770561Y-111429587D01*
X136843332Y-111613388D01*
X136950413Y-111779544D01*
X137087734Y-111921745D01*
X137250058Y-112034563D01*
X137431204Y-112113703D01*
X137490200Y-112126674D01*
X137490200Y-111404400D01*
X136765938Y-111404400D01*
X135382000Y-111404400D01*
X135382000Y-105570401D01*
X136728363Y-105570401D01*
X136728363Y-106570399D01*
X136797473Y-106828320D01*
X136843458Y-106883125D01*
X136778736Y-107034135D01*
X136767626Y-107086400D01*
X137998200Y-107086400D01*
X137998200Y-107594400D01*
X136765938Y-107594400D01*
X136770561Y-107619587D01*
X136843331Y-107803385D01*
X136955693Y-107977735D01*
X136856610Y-108122442D01*
X136778736Y-108304135D01*
X136767626Y-108356400D01*
X137998200Y-108356400D01*
X137998200Y-108864400D01*
X136765938Y-108864400D01*
X136770561Y-108889587D01*
X136843331Y-109073385D01*
X136955693Y-109247735D01*
X136856610Y-109392442D01*
X136778736Y-109574135D01*
X136737635Y-109767497D01*
X136734875Y-109965157D01*
X136770559Y-110159585D01*
X136843331Y-110343385D01*
X136955693Y-110517735D01*
X136856610Y-110662442D01*
X136778736Y-110844135D01*
X136767626Y-110896400D01*
X137998200Y-110896400D01*
X137998200Y-112129206D01*
X138016580Y-112125966D01*
X138200882Y-112054480D01*
X138382699Y-111939097D01*
X138520058Y-112034563D01*
X138701204Y-112113703D01*
X138894274Y-112156153D01*
X139126798Y-112161022D01*
X140940233Y-113974459D01*
X140940240Y-113974465D01*
X140973103Y-114007328D01*
X141018188Y-114030301D01*
X141059121Y-114060040D01*
X141107240Y-114075676D01*
X141152327Y-114098649D01*
X141202311Y-114106566D01*
X141250425Y-114122199D01*
X141316045Y-114122199D01*
X141361934Y-114168088D01*
X141555963Y-114280111D01*
X141772380Y-114338100D01*
X141996420Y-114338100D01*
X142212837Y-114280111D01*
X142406867Y-114168088D01*
X142565287Y-114009668D01*
X142674609Y-113820313D01*
X142938503Y-114084207D01*
X142938502Y-115049302D01*
X142177324Y-115049302D01*
X142177318Y-115049303D01*
X142126723Y-115049303D01*
X142078609Y-115064936D01*
X142028625Y-115072853D01*
X141983538Y-115095826D01*
X141935419Y-115111462D01*
X141894486Y-115141201D01*
X141849401Y-115164174D01*
X141816538Y-115197037D01*
X141816524Y-115197049D01*
X138243494Y-118770082D01*
X138101261Y-118912314D01*
X138078291Y-118957394D01*
X138048548Y-118998333D01*
X138032910Y-119046461D01*
X138009941Y-119091538D01*
X138002026Y-119141517D01*
X137986390Y-119189638D01*
X137986390Y-119240237D01*
X137986389Y-130449576D01*
X137986390Y-130449582D01*
X137986390Y-130500178D01*
X138002022Y-130548289D01*
X138009940Y-130598274D01*
X138032910Y-130643356D01*
X138048547Y-130691481D01*
X138078292Y-130732419D01*
X138101260Y-130777498D01*
X138243493Y-130919732D01*
X138243494Y-130919733D01*
X138846709Y-131522949D01*
X138846719Y-131522957D01*
X138903904Y-131580143D01*
X139458314Y-132134555D01*
X139458328Y-132134567D01*
X139491188Y-132167428D01*
X139536271Y-132190399D01*
X139577209Y-132220143D01*
X139625333Y-132235779D01*
X139670416Y-132258750D01*
X139720400Y-132266668D01*
X139768511Y-132282300D01*
X139819107Y-132282300D01*
X139819113Y-132282301D01*
X144932471Y-132282301D01*
X144932477Y-132282300D01*
X144983070Y-132282300D01*
X145031185Y-132266666D01*
X145081170Y-132258750D01*
X145126256Y-132235777D01*
X145174372Y-132220143D01*
X145215305Y-132190403D01*
X145260395Y-132167429D01*
X145402625Y-132025199D01*
X145402628Y-132025193D01*
X146636479Y-130791344D01*
X146816912Y-131103867D01*
X146975333Y-131262288D01*
X147169363Y-131374311D01*
X147385780Y-131432300D01*
X147609820Y-131432300D01*
X147826237Y-131374311D01*
X148020266Y-131262288D01*
X148066154Y-131216400D01*
X148186286Y-131216400D01*
X148965971Y-131996085D01*
X148802529Y-132279174D01*
X148744540Y-132495591D01*
X148744540Y-132719631D01*
X148802529Y-132936048D01*
X148914552Y-133130078D01*
X149072973Y-133288499D01*
X149267003Y-133400522D01*
X149483420Y-133458511D01*
X149548316Y-133458511D01*
X151245552Y-135155749D01*
X151245559Y-135155755D01*
X151278419Y-135188616D01*
X151323502Y-135211587D01*
X151364440Y-135241331D01*
X151412564Y-135256967D01*
X151457647Y-135279938D01*
X151507631Y-135287856D01*
X151555742Y-135303488D01*
X151606338Y-135303488D01*
X151606344Y-135303489D01*
X164219091Y-135303489D01*
X164219097Y-135303488D01*
X164269690Y-135303488D01*
X164317805Y-135287854D01*
X164367790Y-135279938D01*
X164412876Y-135256965D01*
X164460992Y-135241331D01*
X164501925Y-135211591D01*
X164547015Y-135188617D01*
X164689245Y-135046387D01*
X164689248Y-135046381D01*
X168491230Y-131244401D01*
X174848363Y-131244401D01*
X174848363Y-134744399D01*
X174917472Y-135002319D01*
X175032626Y-135139555D01*
X175187772Y-135229128D01*
X175364201Y-135260237D01*
X178864199Y-135260237D01*
X179122119Y-135191128D01*
X179259355Y-135075974D01*
X179348928Y-134920828D01*
X179380037Y-134744399D01*
X179380037Y-131244401D01*
X179310928Y-130986481D01*
X179195774Y-130849245D01*
X179040628Y-130759672D01*
X178864199Y-130728563D01*
X175364201Y-130728563D01*
X175106281Y-130797672D01*
X174969045Y-130912826D01*
X174879472Y-131067972D01*
X174848363Y-131244401D01*
X168491230Y-131244401D01*
X169945084Y-129790549D01*
X169945090Y-129790541D01*
X169976229Y-129759403D01*
X169999202Y-129714316D01*
X170028942Y-129673383D01*
X170044577Y-129625265D01*
X170067550Y-129580178D01*
X170075467Y-129530194D01*
X170091100Y-129482080D01*
X170091100Y-129431485D01*
X170091101Y-129431479D01*
X170091101Y-128905450D01*
X188460200Y-128905450D01*
X188460200Y-129158550D01*
X188499796Y-129408544D01*
X188578007Y-129649256D01*
X188692916Y-129874777D01*
X188841688Y-130079544D01*
X189020656Y-130258512D01*
X189225423Y-130407284D01*
X189450944Y-130522193D01*
X189691656Y-130600404D01*
X189941650Y-130640000D01*
X190194750Y-130640000D01*
X190444744Y-130600404D01*
X190685456Y-130522193D01*
X190910977Y-130407284D01*
X191115744Y-130258512D01*
X191294712Y-130079544D01*
X191443484Y-129874777D01*
X191558393Y-129649256D01*
X191636604Y-129408544D01*
X191676200Y-129158550D01*
X191676200Y-128905450D01*
X191636604Y-128655456D01*
X191558393Y-128414744D01*
X191443484Y-128189223D01*
X191294712Y-127984456D01*
X191115744Y-127805488D01*
X190910977Y-127656716D01*
X190685456Y-127541807D01*
X190444744Y-127463596D01*
X190194750Y-127424000D01*
X189941650Y-127424000D01*
X189691656Y-127463596D01*
X189450944Y-127541807D01*
X189225423Y-127656716D01*
X189020656Y-127805488D01*
X188841688Y-127984456D01*
X188692916Y-128189223D01*
X188578007Y-128414744D01*
X188499796Y-128655456D01*
X188460200Y-128905450D01*
X170091101Y-128905450D01*
X170091101Y-124471031D01*
X175004779Y-124471031D01*
X175040801Y-124756177D01*
X175115194Y-125033815D01*
X175226573Y-125298776D01*
X175372885Y-125546176D01*
X175551414Y-125771423D01*
X175758866Y-125970363D01*
X175991397Y-126139306D01*
X176244702Y-126275127D01*
X176514090Y-126375312D01*
X176794601Y-126438013D01*
X177081014Y-126462064D01*
X177368039Y-126447023D01*
X177650369Y-126393165D01*
X177922780Y-126301488D01*
X178180233Y-126173687D01*
X178417948Y-126012138D01*
X178631548Y-125819810D01*
X178817068Y-125600277D01*
X178971074Y-125357604D01*
X179090724Y-125096264D01*
X179173796Y-124821115D01*
X179218760Y-124537224D01*
X179222232Y-124205689D01*
X179183224Y-123920929D01*
X179105931Y-123644090D01*
X178991783Y-123380310D01*
X178842885Y-123134451D01*
X178662011Y-122911091D01*
X178452487Y-122714335D01*
X178218200Y-122547835D01*
X177963485Y-122414674D01*
X177693057Y-122317314D01*
X177411914Y-122257554D01*
X177125258Y-122236504D01*
X176838409Y-122254551D01*
X176556661Y-122311362D01*
X176285220Y-122405887D01*
X176029126Y-122536373D01*
X175793106Y-122700411D01*
X175581540Y-122894956D01*
X175398329Y-123116419D01*
X175246870Y-123360698D01*
X175129962Y-123623277D01*
X175049776Y-123899283D01*
X175007788Y-124183621D01*
X175004779Y-124471031D01*
X170091101Y-124471031D01*
X170091101Y-122725813D01*
X170091100Y-122725807D01*
X170091100Y-122675211D01*
X170075468Y-122627100D01*
X170067550Y-122577115D01*
X170044580Y-122532033D01*
X170028943Y-122483908D01*
X169999198Y-122442970D01*
X169976230Y-122397891D01*
X169833997Y-122255659D01*
X165645677Y-118067340D01*
X165783263Y-117903081D01*
X165899364Y-117703999D01*
X165980262Y-117488202D01*
X166023643Y-117261865D01*
X166026329Y-117005354D01*
X165987698Y-116778157D01*
X165911336Y-116560711D01*
X165799428Y-116359240D01*
X165655183Y-116179514D01*
X165482707Y-116026651D01*
X165193247Y-115846828D01*
X165459645Y-115688965D01*
X165635280Y-115539753D01*
X165783263Y-115363081D01*
X165899364Y-115163999D01*
X165980262Y-114948202D01*
X166023643Y-114721865D01*
X166026329Y-114465354D01*
X165987698Y-114238157D01*
X165911336Y-114020711D01*
X165799428Y-113819240D01*
X165655183Y-113639514D01*
X165482707Y-113486651D01*
X165193247Y-113306828D01*
X165459645Y-113148965D01*
X165635280Y-112999753D01*
X165783263Y-112823081D01*
X165899364Y-112623999D01*
X165980262Y-112408202D01*
X166023643Y-112181865D01*
X166026329Y-111925354D01*
X165987698Y-111698157D01*
X165911336Y-111480711D01*
X165799428Y-111279240D01*
X165655183Y-111099514D01*
X165482707Y-110946651D01*
X165193247Y-110766828D01*
X165459645Y-110608965D01*
X165635280Y-110459753D01*
X165783263Y-110283081D01*
X165899364Y-110083999D01*
X165980262Y-109868202D01*
X166023643Y-109641865D01*
X166026329Y-109385354D01*
X165987698Y-109158157D01*
X165911336Y-108940711D01*
X165799428Y-108739240D01*
X165655183Y-108559514D01*
X165482707Y-108406651D01*
X165193247Y-108226828D01*
X165459645Y-108068965D01*
X165635280Y-107919753D01*
X165783263Y-107743081D01*
X165899364Y-107543999D01*
X165980262Y-107328202D01*
X166023643Y-107101865D01*
X166026329Y-106845354D01*
X165987698Y-106618157D01*
X165911336Y-106400711D01*
X165799428Y-106199240D01*
X165655183Y-106019514D01*
X165482707Y-105866651D01*
X165193247Y-105686828D01*
X165459645Y-105528965D01*
X165635280Y-105379753D01*
X165783263Y-105203081D01*
X165899364Y-105003999D01*
X165980262Y-104788202D01*
X166023643Y-104561865D01*
X166026329Y-104305354D01*
X165987698Y-104078157D01*
X165911336Y-103860711D01*
X165799428Y-103659240D01*
X165655183Y-103479514D01*
X165482707Y-103326651D01*
X165193247Y-103146828D01*
X165459645Y-102988965D01*
X165635280Y-102839753D01*
X165783263Y-102663081D01*
X165899364Y-102463999D01*
X165980262Y-102248202D01*
X166023643Y-102021865D01*
X166026329Y-101765354D01*
X165987698Y-101538157D01*
X165911336Y-101320711D01*
X165799428Y-101119240D01*
X165655183Y-100939513D01*
X165539370Y-100836869D01*
X165573950Y-100690299D01*
X165776119Y-100636128D01*
X165913355Y-100520974D01*
X166002928Y-100365828D01*
X166034037Y-100189399D01*
X166034037Y-98489401D01*
X165964928Y-98231481D01*
X165849774Y-98094245D01*
X165694628Y-98004672D01*
X165518199Y-97973563D01*
X163818201Y-97973563D01*
X163560281Y-98042672D01*
X163423045Y-98157826D01*
X163333472Y-98312972D01*
X163302363Y-98489401D01*
X163302363Y-100189399D01*
X163371472Y-100447319D01*
X163486626Y-100584555D01*
X163641772Y-100674128D01*
X163741912Y-100691785D01*
X163788503Y-100836250D01*
X163615035Y-101014319D01*
X163484334Y-101204136D01*
X163387484Y-101413259D01*
X163327253Y-101635713D01*
X163305366Y-101865123D01*
X163322446Y-102094957D01*
X163368642Y-102280934D01*
X163298073Y-102351502D01*
X163275104Y-102396583D01*
X163245359Y-102437521D01*
X163229722Y-102485646D01*
X163206752Y-102530728D01*
X163198834Y-102580713D01*
X163183202Y-102628824D01*
X163183202Y-102679420D01*
X163183201Y-102679426D01*
X163183201Y-103041125D01*
X161623364Y-104600962D01*
X161467800Y-104536526D01*
X161467800Y-95881283D01*
X161566274Y-95836615D01*
X161768390Y-95702329D01*
X161946446Y-95537448D01*
X162095845Y-95346226D01*
X162212753Y-95133572D01*
X162294154Y-94904970D01*
X162337960Y-94666289D01*
X162340832Y-94392067D01*
X162302034Y-94152522D01*
X162225437Y-93922264D01*
X162113009Y-93707208D01*
X161967648Y-93512899D01*
X161793087Y-93344328D01*
X161593818Y-93205832D01*
X161374975Y-93100981D01*
X161142184Y-93032466D01*
X160901431Y-93002052D01*
X160658911Y-93010521D01*
X160420870Y-93057655D01*
X160193416Y-93142244D01*
X159982419Y-93262107D01*
X159793305Y-93414159D01*
X159630927Y-93594497D01*
X159499472Y-93798476D01*
X159402319Y-94020851D01*
X159341970Y-94255889D01*
X159319978Y-94497555D01*
X159336906Y-94739632D01*
X159392319Y-94975887D01*
X159484792Y-95200244D01*
X159611947Y-95406933D01*
X159770507Y-95590626D01*
X159956405Y-95746612D01*
X160197800Y-95890512D01*
X160197801Y-105451775D01*
X159382455Y-106267121D01*
X159226891Y-106202685D01*
X159226891Y-106008216D01*
X159226890Y-106008210D01*
X159226890Y-105957614D01*
X159211258Y-105909503D01*
X159203340Y-105859518D01*
X159180370Y-105814436D01*
X159164733Y-105766311D01*
X159134988Y-105725373D01*
X159112019Y-105680292D01*
X156222533Y-102790807D01*
X156306692Y-102706661D01*
X156418711Y-102512637D01*
X156476700Y-102296220D01*
X156476700Y-102072180D01*
X156418711Y-101855763D01*
X156324300Y-101692238D01*
X156324300Y-95139168D01*
X156393311Y-95019637D01*
X156451300Y-94803220D01*
X156451300Y-94579180D01*
X156393311Y-94362763D01*
X156281288Y-94168733D01*
X156122867Y-94010312D01*
X155928837Y-93898289D01*
X155712420Y-93840300D01*
X155587700Y-93840300D01*
X155587700Y-78349722D01*
X155595240Y-78286011D01*
X155578349Y-78193519D01*
X155564361Y-78100492D01*
X155559515Y-78090400D01*
X155557504Y-78079389D01*
X155543261Y-78056552D01*
X155473439Y-77911147D01*
X155409327Y-77841793D01*
X155407182Y-77838354D01*
X155393519Y-77824692D01*
X155330865Y-77756914D01*
X155318640Y-77749813D01*
X153236310Y-75667484D01*
X153236310Y-72137242D01*
X153391874Y-72072806D01*
X154724166Y-73405099D01*
X154946640Y-73627571D01*
X154995712Y-73712567D01*
X155154133Y-73870988D01*
X155329272Y-73972104D01*
X167068501Y-85711334D01*
X167068500Y-98050896D01*
X167064437Y-98147815D01*
X167081200Y-98219286D01*
X167081200Y-98219522D01*
X167081412Y-98220315D01*
X167091433Y-98293477D01*
X167107085Y-98329646D01*
X167116084Y-98368014D01*
X167124434Y-98380871D01*
X167139188Y-98435936D01*
X167251212Y-98629967D01*
X167409633Y-98788388D01*
X167603663Y-98900411D01*
X167820080Y-98958400D01*
X168044120Y-98958400D01*
X168260537Y-98900411D01*
X168454567Y-98788388D01*
X168612988Y-98629967D01*
X168725011Y-98435937D01*
X168783000Y-98219520D01*
X168783000Y-97995478D01*
X168719500Y-97758494D01*
X168719500Y-85387904D01*
X168723563Y-85290984D01*
X168706629Y-85218786D01*
X168696567Y-85145322D01*
X168680915Y-85109153D01*
X168671915Y-85070784D01*
X168649124Y-85035689D01*
X168606742Y-84937749D01*
X168464404Y-84761977D01*
X168428481Y-84736448D01*
X156311526Y-72619494D01*
X156245841Y-72548061D01*
X156224979Y-72535126D01*
X156199064Y-72509210D01*
X156132429Y-72470739D01*
X156123747Y-72464149D01*
X156114365Y-72460433D01*
X154495500Y-70841568D01*
X154495500Y-68861031D01*
X175004779Y-68861031D01*
X175040801Y-69146177D01*
X175115194Y-69423815D01*
X175226573Y-69688776D01*
X175372885Y-69936176D01*
X175551414Y-70161423D01*
X175758866Y-70360363D01*
X175991397Y-70529306D01*
X176244702Y-70665127D01*
X176514090Y-70765312D01*
X176794601Y-70828013D01*
X177081014Y-70852064D01*
X177368039Y-70837023D01*
X177650369Y-70783165D01*
X177922780Y-70691488D01*
X178180233Y-70563687D01*
X178417948Y-70402138D01*
X178631548Y-70209810D01*
X178817068Y-69990277D01*
X178971074Y-69747604D01*
X179090724Y-69486264D01*
X179173796Y-69211115D01*
X179218760Y-68927224D01*
X179222232Y-68595689D01*
X179183224Y-68310929D01*
X179105931Y-68034090D01*
X178991783Y-67770310D01*
X178842885Y-67524451D01*
X178662011Y-67301091D01*
X178452487Y-67104335D01*
X178218200Y-66937835D01*
X177963485Y-66804674D01*
X177693057Y-66707314D01*
X177411914Y-66647554D01*
X177125258Y-66626504D01*
X176838409Y-66644551D01*
X176556661Y-66701362D01*
X176285220Y-66795887D01*
X176029126Y-66926373D01*
X175793106Y-67090411D01*
X175581540Y-67284956D01*
X175398329Y-67506419D01*
X175246870Y-67750698D01*
X175129962Y-68013277D01*
X175049776Y-68289283D01*
X175007788Y-68573621D01*
X175004779Y-68861031D01*
X154495500Y-68861031D01*
X154495500Y-65891218D01*
X154520900Y-65796422D01*
X154520900Y-65572380D01*
X154476172Y-65405450D01*
X188384000Y-65405450D01*
X188384000Y-65658550D01*
X188423596Y-65908544D01*
X188501807Y-66149256D01*
X188616716Y-66374777D01*
X188765488Y-66579544D01*
X188944456Y-66758512D01*
X189149223Y-66907284D01*
X189374744Y-67022193D01*
X189615456Y-67100404D01*
X189865450Y-67140000D01*
X190118550Y-67140000D01*
X190368544Y-67100404D01*
X190609256Y-67022193D01*
X190834777Y-66907284D01*
X191039544Y-66758512D01*
X191218512Y-66579544D01*
X191367284Y-66374777D01*
X191482193Y-66149256D01*
X191560404Y-65908544D01*
X191600000Y-65658550D01*
X191600000Y-65405450D01*
X191560404Y-65155456D01*
X191482193Y-64914744D01*
X191367284Y-64689223D01*
X191218512Y-64484456D01*
X191039544Y-64305488D01*
X190834777Y-64156716D01*
X190609256Y-64041807D01*
X190368544Y-63963596D01*
X190118550Y-63924000D01*
X189865450Y-63924000D01*
X189615456Y-63963596D01*
X189374744Y-64041807D01*
X189149223Y-64156716D01*
X188944456Y-64305488D01*
X188765488Y-64484456D01*
X188616716Y-64689223D01*
X188501807Y-64914744D01*
X188423596Y-65155456D01*
X188384000Y-65405450D01*
X154476172Y-65405450D01*
X154462911Y-65355963D01*
X154350888Y-65161933D01*
X154192467Y-65003512D01*
X153998437Y-64891489D01*
X153782020Y-64833500D01*
X153557976Y-64833500D01*
X153236310Y-64919692D01*
X153236310Y-63549352D01*
X153330721Y-63385827D01*
X153388710Y-63169410D01*
X153388710Y-62945370D01*
X153339975Y-62763487D01*
X175704325Y-62763487D01*
X175714710Y-62772838D01*
X175962212Y-62942305D01*
X176229955Y-63077551D01*
X176513227Y-63176198D01*
X176807073Y-63236515D01*
X177106302Y-63257439D01*
X177405672Y-63238604D01*
X177699918Y-63180342D01*
X177983880Y-63083675D01*
X178252562Y-62950299D01*
X178501241Y-62782563D01*
X178523443Y-62762853D01*
X177114201Y-61353610D01*
X175704325Y-62763487D01*
X153339975Y-62763487D01*
X153330721Y-62728953D01*
X153218698Y-62534923D01*
X153060277Y-62376502D01*
X152866247Y-62264479D01*
X152649830Y-62206490D01*
X152425790Y-62206490D01*
X152209373Y-62264479D01*
X152015343Y-62376502D01*
X151856922Y-62534923D01*
X151744899Y-62728953D01*
X151686910Y-62945370D01*
X151686910Y-63169410D01*
X151744899Y-63385827D01*
X151839310Y-63549352D01*
X151839310Y-63594796D01*
X151839311Y-63594803D01*
X151839311Y-68157684D01*
X151683747Y-68222120D01*
X147298185Y-63836559D01*
X147249311Y-63654163D01*
X147137288Y-63460133D01*
X146978867Y-63301712D01*
X146784836Y-63189689D01*
X146627750Y-63147597D01*
X146656596Y-62928490D01*
X148669346Y-62928490D01*
X148715234Y-62974378D01*
X148909263Y-63086401D01*
X149125680Y-63144390D01*
X149349720Y-63144390D01*
X149566137Y-63086401D01*
X149760167Y-62974378D01*
X149918588Y-62815957D01*
X150030611Y-62621927D01*
X150088600Y-62405510D01*
X150088600Y-62181470D01*
X150030611Y-61965053D01*
X149918588Y-61771023D01*
X149760167Y-61612602D01*
X149566137Y-61500579D01*
X149349720Y-61442590D01*
X149125680Y-61442590D01*
X148909263Y-61500579D01*
X148715234Y-61612602D01*
X148669346Y-61658490D01*
X146500230Y-61658490D01*
X146435794Y-61502926D01*
X146762820Y-61175900D01*
X150397798Y-61175900D01*
X150556848Y-61434433D01*
X150715407Y-61618126D01*
X150901302Y-61774110D01*
X151109744Y-61898367D01*
X151335368Y-61987698D01*
X151572375Y-62039807D01*
X151814665Y-62053352D01*
X152056003Y-62027988D01*
X152290179Y-61964363D01*
X152511171Y-61864117D01*
X152713290Y-61729829D01*
X152891346Y-61564948D01*
X153040745Y-61373726D01*
X153157653Y-61161072D01*
X153239054Y-60932470D01*
X153282860Y-60693789D01*
X153285732Y-60419567D01*
X153246934Y-60180022D01*
X153170337Y-59949764D01*
X153061093Y-59740800D01*
X161255576Y-59740800D01*
X161467872Y-59953097D01*
X161399370Y-60219889D01*
X161377378Y-60461555D01*
X161394306Y-60703632D01*
X161449719Y-60939887D01*
X161542192Y-61164244D01*
X161669347Y-61370933D01*
X161827907Y-61554626D01*
X162013802Y-61710610D01*
X162222244Y-61834867D01*
X162447868Y-61924198D01*
X162684875Y-61976307D01*
X162927165Y-61989852D01*
X163168503Y-61964488D01*
X163402679Y-61900863D01*
X163623671Y-61800617D01*
X163825790Y-61666329D01*
X164003846Y-61501448D01*
X164153245Y-61310226D01*
X164270153Y-61097572D01*
X164326578Y-60939110D01*
X174851822Y-60939110D01*
X174864383Y-61238804D01*
X174916472Y-61534216D01*
X175007171Y-61820137D01*
X175134887Y-62091548D01*
X175297382Y-62343688D01*
X175347185Y-62402206D01*
X176754991Y-60994400D01*
X177473409Y-60994400D01*
X178881616Y-62402606D01*
X178921557Y-62356335D01*
X179085802Y-62105344D01*
X179215414Y-61834822D01*
X179308106Y-61549545D01*
X179362255Y-61254507D01*
X179372279Y-60844421D01*
X179332606Y-60547091D01*
X179253960Y-60257624D01*
X179137718Y-59981096D01*
X178985928Y-59722378D01*
X178880445Y-59587365D01*
X177473409Y-60994400D01*
X176754991Y-60994400D01*
X175345895Y-59585305D01*
X175190844Y-59801878D01*
X175050024Y-60066722D01*
X174945466Y-60347867D01*
X174879008Y-60640385D01*
X174851822Y-60939110D01*
X164326578Y-60939110D01*
X164351554Y-60868970D01*
X164395360Y-60630289D01*
X164398232Y-60356067D01*
X164359434Y-60116522D01*
X164282837Y-59886264D01*
X164170409Y-59671208D01*
X164025048Y-59476899D01*
X163850487Y-59308328D01*
X163735085Y-59228121D01*
X175707131Y-59228121D01*
X177114200Y-60635191D01*
X178521909Y-59227482D01*
X178346746Y-59096443D01*
X178084907Y-58950106D01*
X177806001Y-58839679D01*
X177514956Y-58767114D01*
X177216854Y-58733676D01*
X176916966Y-58739959D01*
X176620531Y-58785849D01*
X176332769Y-58870542D01*
X176058742Y-58992546D01*
X175803259Y-59149722D01*
X175707131Y-59228121D01*
X163735085Y-59228121D01*
X163651218Y-59169832D01*
X163432375Y-59064981D01*
X163199584Y-58996466D01*
X162958831Y-58966052D01*
X162716311Y-58974521D01*
X162478267Y-59021656D01*
X162372000Y-59061177D01*
X162038731Y-58727908D01*
X162038728Y-58727902D01*
X161896498Y-58585672D01*
X161851408Y-58562698D01*
X161810475Y-58532958D01*
X161762359Y-58517324D01*
X161717273Y-58494351D01*
X161667288Y-58486435D01*
X161619173Y-58470801D01*
X161568580Y-58470801D01*
X161568574Y-58470800D01*
X147310170Y-58470800D01*
X147310164Y-58470801D01*
X147259568Y-58470801D01*
X147211457Y-58486433D01*
X147161473Y-58494351D01*
X147116390Y-58517322D01*
X147068266Y-58532958D01*
X147027328Y-58562702D01*
X146982245Y-58585673D01*
X146949385Y-58618534D01*
X146949371Y-58618546D01*
X139296708Y-66271213D01*
X139296704Y-66271215D01*
X139154471Y-66413449D01*
X139131503Y-66458528D01*
X139101758Y-66499466D01*
X139086121Y-66547591D01*
X139063151Y-66592673D01*
X139055233Y-66642658D01*
X139039601Y-66690769D01*
X139039601Y-66741365D01*
X139039600Y-66741371D01*
X139039601Y-105062526D01*
X138922390Y-105061694D01*
X138728224Y-105098733D01*
X138560571Y-105166470D01*
X138420626Y-105085672D01*
X138244199Y-105054563D01*
X137244201Y-105054563D01*
X136986281Y-105123672D01*
X136849045Y-105238826D01*
X136759472Y-105393972D01*
X136728363Y-105570401D01*
X135382000Y-105570401D01*
X135382000Y-63185633D01*
X135537564Y-63121197D01*
X135953501Y-63537135D01*
X135953500Y-65325182D01*
X135928100Y-65419978D01*
X135928100Y-65644020D01*
X135986089Y-65860437D01*
X136098112Y-66054467D01*
X136256533Y-66212888D01*
X136450563Y-66324911D01*
X136666980Y-66382900D01*
X136891020Y-66382900D01*
X137107437Y-66324911D01*
X137301467Y-66212888D01*
X137459888Y-66054467D01*
X137571911Y-65860437D01*
X137629900Y-65644020D01*
X137629900Y-65419978D01*
X137604500Y-65325182D01*
X137604500Y-63213704D01*
X137608563Y-63116784D01*
X137591629Y-63044586D01*
X137581567Y-62971122D01*
X137565915Y-62934953D01*
X137556915Y-62896584D01*
X137534124Y-62861489D01*
X137491742Y-62763549D01*
X137349404Y-62587777D01*
X137313481Y-62562248D01*
X136309026Y-61557794D01*
X136243341Y-61486361D01*
X136180313Y-61447282D01*
X136121250Y-61402451D01*
X136084614Y-61387946D01*
X136051119Y-61367178D01*
X136010182Y-61358477D01*
X135910960Y-61319192D01*
X135686027Y-61295551D01*
X135642574Y-61302900D01*
X135382000Y-61302900D01*
X135382000Y-57508000D01*
X192492000Y-57508000D01*
X192492001Y-136492000D01*
G37*
G36*
X166644202Y-128538420D02*
G01*
X166644202Y-128687048D01*
X166598314Y-128732936D01*
X166486291Y-128926965D01*
X166428302Y-129143382D01*
X166428302Y-129367422D01*
X166486291Y-129583839D01*
X166598312Y-129777865D01*
X166689020Y-129868567D01*
X163055187Y-133502400D01*
X161317629Y-133502400D01*
X161253193Y-133346836D01*
X162212923Y-132387107D01*
X162233443Y-132374160D01*
X162290696Y-132309334D01*
X162311998Y-132288033D01*
X162325953Y-132269412D01*
X162377933Y-132210558D01*
X162391131Y-132182448D01*
X162409756Y-132157595D01*
X162437318Y-132084073D01*
X162470696Y-132012981D01*
X162475154Y-131983142D01*
X162486375Y-131953209D01*
X162493048Y-131863420D01*
X162496499Y-131840328D01*
X162496499Y-131816977D01*
X162502550Y-131735541D01*
X162496499Y-131707193D01*
X162496499Y-124610717D01*
X162652063Y-124546281D01*
X166644202Y-128538420D01*
G37*
G36*
X150299363Y-125349900D02*
G01*
X154731037Y-125349900D01*
X154731037Y-123546218D01*
X154886601Y-123481782D01*
X155409901Y-124005082D01*
X155409900Y-124871847D01*
X155402360Y-124935558D01*
X155419251Y-125028050D01*
X155433239Y-125121079D01*
X155438084Y-125131170D01*
X155440095Y-125142179D01*
X155454341Y-125165023D01*
X155524159Y-125310419D01*
X155588274Y-125379779D01*
X155590418Y-125383217D01*
X155604074Y-125396871D01*
X155666733Y-125464655D01*
X155678960Y-125471757D01*
X156077620Y-125870417D01*
X156126493Y-126052809D01*
X156238517Y-126246842D01*
X156396938Y-126405263D01*
X156590968Y-126517286D01*
X156807385Y-126575275D01*
X157031425Y-126575275D01*
X157247842Y-126517286D01*
X157441872Y-126405263D01*
X157666068Y-126181066D01*
X157833528Y-126277750D01*
X157772106Y-126506979D01*
X157772106Y-126731020D01*
X157830095Y-126947437D01*
X157942118Y-127141467D01*
X158100539Y-127299888D01*
X158294569Y-127411911D01*
X158510986Y-127469900D01*
X158735027Y-127469900D01*
X159105601Y-127370604D01*
X159105601Y-128406355D01*
X159121237Y-128454476D01*
X159129152Y-128504455D01*
X159152121Y-128549532D01*
X159167759Y-128597660D01*
X159197502Y-128638599D01*
X159220471Y-128683677D01*
X159256251Y-128719456D01*
X159831833Y-129295039D01*
X159831833Y-129359935D01*
X159889822Y-129576352D01*
X160001845Y-129770382D01*
X160160266Y-129928803D01*
X160354296Y-130040826D01*
X160570713Y-130098815D01*
X160794756Y-130098815D01*
X160972499Y-130051186D01*
X160972499Y-131472271D01*
X159780571Y-132664200D01*
X152364096Y-132664200D01*
X147980409Y-128280514D01*
X147967459Y-128259989D01*
X147902621Y-128202726D01*
X147881327Y-128181431D01*
X147862723Y-128167488D01*
X147803856Y-128115499D01*
X147775738Y-128102298D01*
X147750892Y-128083676D01*
X147677367Y-128056113D01*
X147606279Y-128022738D01*
X147576438Y-128018277D01*
X147546508Y-128007058D01*
X147456719Y-128000385D01*
X147433627Y-127996934D01*
X147410275Y-127996934D01*
X147328840Y-127990883D01*
X147300493Y-127996934D01*
X145943041Y-127996934D01*
X145889503Y-127966023D01*
X145673086Y-127908034D01*
X145449046Y-127908034D01*
X145232629Y-127966023D01*
X145179091Y-127996934D01*
X141767932Y-127996934D01*
X141769328Y-127863853D01*
X141732089Y-127644838D01*
X143519027Y-125857900D01*
X150299363Y-125857900D01*
X150299363Y-128853899D01*
X150368472Y-129111819D01*
X150483626Y-129249055D01*
X150638772Y-129338628D01*
X150815201Y-129369737D01*
X152261200Y-129369737D01*
X152261200Y-125857900D01*
X152769200Y-125857900D01*
X152769200Y-129369737D01*
X154215199Y-129369737D01*
X154473119Y-129300628D01*
X154610355Y-129185474D01*
X154699928Y-129030328D01*
X154731037Y-128853899D01*
X154731037Y-125857900D01*
X152769200Y-125857900D01*
X152261200Y-125857900D01*
X150299363Y-125857900D01*
X143519027Y-125857900D01*
X147139428Y-122237500D01*
X150299363Y-122237500D01*
X150299363Y-125349900D01*
G37*
G36*
X161150300Y-117397309D02*
G01*
X161150300Y-118377606D01*
X161168680Y-118374366D01*
X161352986Y-118302878D01*
X161519887Y-118196960D01*
X161740174Y-117987184D01*
X162521919Y-118768930D01*
X162566998Y-118791898D01*
X162607936Y-118821643D01*
X162656061Y-118837280D01*
X162701143Y-118860250D01*
X162751128Y-118868168D01*
X162799239Y-118883800D01*
X162849835Y-118883800D01*
X162849841Y-118883801D01*
X163530802Y-118883801D01*
X163387484Y-119193259D01*
X163330045Y-119405400D01*
X164922200Y-119405400D01*
X164922200Y-120993511D01*
X165046151Y-120968855D01*
X165261385Y-120886451D01*
X165459645Y-120768965D01*
X165635280Y-120619753D01*
X165783263Y-120443081D01*
X165946119Y-120163828D01*
X168821102Y-123038812D01*
X168821101Y-125894678D01*
X168665537Y-125959114D01*
X163283900Y-120577477D01*
X163283900Y-120512576D01*
X163238244Y-120342194D01*
X163433990Y-120254323D01*
X163597147Y-120502232D01*
X163754472Y-120670648D01*
X163937915Y-120810142D01*
X164142247Y-120916736D01*
X164361612Y-120987379D01*
X164414200Y-120994910D01*
X164414200Y-119913400D01*
X163331995Y-119913400D01*
X163389921Y-120146598D01*
X163186866Y-120228534D01*
X163113888Y-120102133D01*
X162955467Y-119943712D01*
X162761437Y-119831689D01*
X162545020Y-119773700D01*
X162320980Y-119773700D01*
X162104563Y-119831689D01*
X161910533Y-119943712D01*
X161752112Y-120102133D01*
X161640087Y-120296166D01*
X161551680Y-120626099D01*
X159495782Y-118570201D01*
X159560218Y-118414637D01*
X160126299Y-118414637D01*
X160384220Y-118345527D01*
X160439396Y-118299231D01*
X160583305Y-118362103D01*
X160642300Y-118375074D01*
X160642300Y-117144800D01*
X160897791Y-117144800D01*
X161150300Y-117397309D01*
G37*
G36*
X146189309Y-121211964D02*
G01*
X141924519Y-125476755D01*
X141768413Y-125411132D01*
X141769328Y-125323853D01*
X141730698Y-125096657D01*
X141654336Y-124879211D01*
X141542428Y-124677740D01*
X141398183Y-124498014D01*
X141225707Y-124345151D01*
X140936247Y-124165328D01*
X141202645Y-124007465D01*
X141378280Y-123858253D01*
X141526263Y-123681581D01*
X141642364Y-123482499D01*
X141723262Y-123266702D01*
X141766643Y-123040365D01*
X141769329Y-122783854D01*
X141730698Y-122556657D01*
X141654336Y-122339211D01*
X141542428Y-122137740D01*
X141398183Y-121958013D01*
X141282370Y-121855369D01*
X141316950Y-121708799D01*
X141519119Y-121654628D01*
X141656355Y-121539474D01*
X141745928Y-121384328D01*
X141777037Y-121207899D01*
X141777037Y-121056400D01*
X146124873Y-121056400D01*
X146189309Y-121211964D01*
G37*
G36*
X144121366Y-116058112D02*
G01*
X144164969Y-116069796D01*
X147611709Y-119516536D01*
X147547273Y-119672100D01*
X146548265Y-119672100D01*
X146525265Y-119664023D01*
X146430880Y-119660315D01*
X146426934Y-119659400D01*
X146407603Y-119659400D01*
X146315387Y-119655777D01*
X146301723Y-119659400D01*
X141777037Y-119659400D01*
X141777037Y-119507901D01*
X141707928Y-119249981D01*
X141592774Y-119112745D01*
X141437628Y-119023172D01*
X141261199Y-118992063D01*
X140037560Y-118992063D01*
X139973124Y-118836499D01*
X142490323Y-116319302D01*
X143299880Y-116319302D01*
X143299886Y-116319301D01*
X143350479Y-116319301D01*
X143398594Y-116303667D01*
X143448579Y-116295751D01*
X143493665Y-116272778D01*
X143541781Y-116257144D01*
X143582714Y-116227404D01*
X143627804Y-116204430D01*
X143770034Y-116062200D01*
X143770037Y-116062194D01*
X143901220Y-115931011D01*
X144121366Y-116058112D01*
G37*
G36*
X163754469Y-105430645D02*
G01*
X163937918Y-105570144D01*
X164130887Y-105670816D01*
X163775850Y-105929239D01*
X163615035Y-106094319D01*
X163484334Y-106284136D01*
X163387484Y-106493259D01*
X163327253Y-106715713D01*
X163305366Y-106945123D01*
X163322446Y-107174957D01*
X163378004Y-107398619D01*
X163470452Y-107609725D01*
X163597147Y-107802232D01*
X163754472Y-107970648D01*
X163937918Y-108110144D01*
X164130887Y-108210816D01*
X163775850Y-108469239D01*
X163615035Y-108634319D01*
X163484334Y-108824136D01*
X163387484Y-109033259D01*
X163327253Y-109255713D01*
X163305366Y-109485123D01*
X163322446Y-109714957D01*
X163378004Y-109938619D01*
X163470452Y-110149725D01*
X163597147Y-110342232D01*
X163754472Y-110510648D01*
X163937918Y-110650144D01*
X164130887Y-110750816D01*
X163775850Y-111009239D01*
X163615035Y-111174319D01*
X163484334Y-111364136D01*
X163387484Y-111573259D01*
X163327253Y-111795713D01*
X163305366Y-112025123D01*
X163322446Y-112254957D01*
X163378004Y-112478619D01*
X163470452Y-112689725D01*
X163597147Y-112882232D01*
X163754472Y-113050648D01*
X163937918Y-113190144D01*
X164130887Y-113290816D01*
X163775850Y-113549239D01*
X163615035Y-113714319D01*
X163484334Y-113904136D01*
X163387484Y-114113259D01*
X163327253Y-114335713D01*
X163305366Y-114565123D01*
X163322446Y-114794957D01*
X163378004Y-115018619D01*
X163470452Y-115229725D01*
X163597147Y-115422232D01*
X163754472Y-115590648D01*
X163937918Y-115730144D01*
X164130887Y-115830816D01*
X163775850Y-116089239D01*
X163615035Y-116254319D01*
X163484334Y-116444136D01*
X163387484Y-116653259D01*
X163327253Y-116875713D01*
X163305366Y-117105123D01*
X163322446Y-117334957D01*
X163391710Y-117613801D01*
X163162839Y-117613801D01*
X161553945Y-116004908D01*
X161553942Y-116004902D01*
X161411712Y-115862672D01*
X161366622Y-115839698D01*
X161325689Y-115809958D01*
X161277573Y-115794324D01*
X161232487Y-115771351D01*
X161182502Y-115763435D01*
X161134387Y-115747801D01*
X161083794Y-115747801D01*
X161083788Y-115747800D01*
X158861156Y-115747800D01*
X158815268Y-115701912D01*
X158621239Y-115589889D01*
X158404822Y-115531900D01*
X158180782Y-115531900D01*
X157964365Y-115589889D01*
X157770335Y-115701912D01*
X157611914Y-115860333D01*
X157499891Y-116054363D01*
X157390012Y-116464432D01*
X156143088Y-115217508D01*
X156143085Y-115217502D01*
X156000855Y-115075272D01*
X155955765Y-115052298D01*
X155914832Y-115022558D01*
X155866716Y-115006924D01*
X155821630Y-114983951D01*
X155771645Y-114976035D01*
X155723530Y-114960401D01*
X155672937Y-114960401D01*
X155672931Y-114960400D01*
X150529954Y-114960400D01*
X150484066Y-114914512D01*
X150290037Y-114802489D01*
X150073620Y-114744500D01*
X149849580Y-114744500D01*
X149633163Y-114802489D01*
X149377400Y-114950154D01*
X149377400Y-106655025D01*
X149532964Y-106590589D01*
X152040716Y-109098343D01*
X152040730Y-109098355D01*
X152073593Y-109131218D01*
X152118678Y-109154191D01*
X152159611Y-109183930D01*
X152207730Y-109199566D01*
X152252817Y-109222539D01*
X152302801Y-109230456D01*
X152350915Y-109246089D01*
X152401510Y-109246089D01*
X152401516Y-109246090D01*
X156073445Y-109246090D01*
X156119333Y-109291979D01*
X156270385Y-109379192D01*
X156048008Y-109601569D01*
X156048004Y-109601571D01*
X155905771Y-109743805D01*
X155882803Y-109788884D01*
X155853058Y-109829822D01*
X155837421Y-109877947D01*
X155814451Y-109923029D01*
X155806533Y-109973014D01*
X155790901Y-110021125D01*
X155790901Y-110071721D01*
X155790900Y-110071727D01*
X155790900Y-110391546D01*
X155745012Y-110437434D01*
X155632989Y-110631463D01*
X155575000Y-110847880D01*
X155575000Y-111071920D01*
X155632989Y-111288337D01*
X155745012Y-111482367D01*
X155903433Y-111640788D01*
X156097466Y-111752812D01*
X156282854Y-111802488D01*
X156348536Y-112047615D01*
X156478936Y-112273475D01*
X156347935Y-112349110D01*
X156189512Y-112507533D01*
X156077489Y-112701563D01*
X156019500Y-112917980D01*
X156019500Y-113142020D01*
X156077489Y-113358437D01*
X156189512Y-113552467D01*
X156347933Y-113710888D01*
X156541963Y-113822911D01*
X156758380Y-113880900D01*
X156982420Y-113880900D01*
X157198837Y-113822911D01*
X157392867Y-113710888D01*
X157551288Y-113552467D01*
X157663311Y-113358437D01*
X157721300Y-113142020D01*
X157721300Y-113077123D01*
X159132749Y-111665675D01*
X159168529Y-111629895D01*
X159191497Y-111584817D01*
X159221242Y-111543879D01*
X159236879Y-111495754D01*
X159259849Y-111450672D01*
X159267767Y-111400687D01*
X159283399Y-111352576D01*
X159283399Y-111301980D01*
X159283400Y-111301974D01*
X159283400Y-110820037D01*
X160037399Y-110820037D01*
X160295320Y-110750927D01*
X160350496Y-110704631D01*
X160494405Y-110767503D01*
X160553400Y-110780474D01*
X160553400Y-110058200D01*
X161061400Y-110058200D01*
X161061400Y-110783006D01*
X161079780Y-110779766D01*
X161264086Y-110708278D01*
X161430987Y-110602360D01*
X161574143Y-110466036D01*
X161688094Y-110304498D01*
X161768494Y-110123918D01*
X161783425Y-110058200D01*
X161061400Y-110058200D01*
X160553400Y-110058200D01*
X160553400Y-109550200D01*
X161061400Y-109550200D01*
X161784720Y-109550200D01*
X161777047Y-109511446D01*
X161701716Y-109328681D01*
X161592324Y-109164033D01*
X161453032Y-109023765D01*
X161289150Y-108913225D01*
X161106913Y-108836620D01*
X161061400Y-108827278D01*
X161061400Y-109550200D01*
X160553400Y-109550200D01*
X160553400Y-108826433D01*
X160521424Y-108832533D01*
X160353771Y-108900270D01*
X160213826Y-108819472D01*
X160124758Y-108803768D01*
X160078774Y-108657927D01*
X163537897Y-105198806D01*
X163754469Y-105430645D01*
G37*
G36*
X148107401Y-105739775D02*
G01*
X148107400Y-115518776D01*
X147951836Y-115583212D01*
X143383000Y-111014377D01*
X143383000Y-106113282D01*
X143382999Y-106113276D01*
X143382999Y-106062681D01*
X143367366Y-106014567D01*
X143359449Y-105964583D01*
X143336476Y-105919496D01*
X143320841Y-105871378D01*
X143291101Y-105830445D01*
X143268128Y-105785358D01*
X143236989Y-105754220D01*
X143236986Y-105754216D01*
X142375820Y-104893051D01*
X142375820Y-104828156D01*
X142317831Y-104611739D01*
X142205808Y-104417709D01*
X142047387Y-104259288D01*
X141853357Y-104147265D01*
X141636940Y-104089276D01*
X141412900Y-104089276D01*
X141196483Y-104147265D01*
X141002453Y-104259288D01*
X140871575Y-104390167D01*
X140716011Y-104325731D01*
X140716011Y-98568384D01*
X140871575Y-98503948D01*
X148107401Y-105739775D01*
G37*
G36*
X156631019Y-106144843D02*
G01*
X156631018Y-107455516D01*
X156585130Y-107501404D01*
X156473107Y-107695433D01*
X156450030Y-107781558D01*
X156313362Y-107818179D01*
X156119333Y-107930202D01*
X156073445Y-107976090D01*
X152714515Y-107976090D01*
X143151058Y-98412635D01*
X143221909Y-98254241D01*
X143343764Y-98261052D01*
X143585103Y-98235688D01*
X143819279Y-98172063D01*
X144040271Y-98071817D01*
X144242390Y-97937529D01*
X144420446Y-97772648D01*
X144569846Y-97581426D01*
X144678602Y-97383600D01*
X147869777Y-97383600D01*
X156631019Y-106144843D01*
G37*
G36*
X144522830Y-64491177D02*
G01*
X144634853Y-64685208D01*
X144793274Y-64843629D01*
X144987306Y-64955653D01*
X145047028Y-64971656D01*
X145082751Y-65007379D01*
X145082757Y-65007388D01*
X150063201Y-69987831D01*
X150063200Y-70699923D01*
X150032289Y-70753464D01*
X149974300Y-70969880D01*
X149974300Y-71193920D01*
X150032289Y-71410337D01*
X150144312Y-71604367D01*
X150302733Y-71762788D01*
X150496763Y-71874811D01*
X150713180Y-71932800D01*
X151000094Y-71932800D01*
X150845091Y-72201273D01*
X150787102Y-72417690D01*
X150787102Y-72641730D01*
X150845091Y-72858147D01*
X150957114Y-73052177D01*
X151115535Y-73210598D01*
X151309565Y-73322621D01*
X151525982Y-73380610D01*
X151839310Y-73380610D01*
X151839310Y-75915287D01*
X151831770Y-75978998D01*
X151848661Y-76071490D01*
X151862649Y-76164519D01*
X151867494Y-76174610D01*
X151869505Y-76185619D01*
X151883751Y-76208463D01*
X151953569Y-76353859D01*
X152017684Y-76423219D01*
X152019828Y-76426657D01*
X152033484Y-76440311D01*
X152096143Y-76508095D01*
X152108370Y-76515197D01*
X154190701Y-78597529D01*
X154190700Y-100033938D01*
X154096289Y-100197464D01*
X153997578Y-100565854D01*
X151384000Y-97952276D01*
X151384000Y-95932083D01*
X151482474Y-95887415D01*
X151684590Y-95753129D01*
X151862646Y-95588248D01*
X152012045Y-95397026D01*
X152128953Y-95184372D01*
X152210354Y-94955770D01*
X152254160Y-94717089D01*
X152257032Y-94442867D01*
X152218234Y-94203322D01*
X152141637Y-93973064D01*
X152029209Y-93758008D01*
X151883848Y-93563699D01*
X151709287Y-93395128D01*
X151510018Y-93256632D01*
X151291175Y-93151781D01*
X151058384Y-93083266D01*
X150817631Y-93052852D01*
X150575111Y-93061321D01*
X150337070Y-93108455D01*
X150109616Y-93193044D01*
X149898619Y-93312907D01*
X149709505Y-93464959D01*
X149547127Y-93645297D01*
X149415672Y-93849276D01*
X149318519Y-94071651D01*
X149258170Y-94306689D01*
X149236178Y-94548355D01*
X149253106Y-94790432D01*
X149308519Y-95026687D01*
X149400992Y-95251044D01*
X149528147Y-95457733D01*
X149686707Y-95641426D01*
X149872605Y-95797412D01*
X150114000Y-95941312D01*
X150114001Y-97037025D01*
X149958437Y-97101462D01*
X145018001Y-92161027D01*
X145018001Y-89011827D01*
X145018000Y-89011821D01*
X145018000Y-88961226D01*
X145002367Y-88913112D01*
X144994450Y-88863128D01*
X144971477Y-88818041D01*
X144955842Y-88769923D01*
X144926102Y-88728990D01*
X144903129Y-88683903D01*
X144871990Y-88652765D01*
X144871987Y-88652761D01*
X144519852Y-88300627D01*
X144564954Y-88173970D01*
X144608760Y-87935289D01*
X144611632Y-87661067D01*
X144572834Y-87421522D01*
X144496237Y-87191264D01*
X144383809Y-86976208D01*
X144238448Y-86781899D01*
X144063887Y-86613328D01*
X143864618Y-86474832D01*
X143645775Y-86369981D01*
X143412984Y-86301466D01*
X143172231Y-86271052D01*
X142929711Y-86279521D01*
X142691670Y-86326655D01*
X142464216Y-86411244D01*
X142253219Y-86531107D01*
X142064105Y-86683159D01*
X141901727Y-86863497D01*
X141770272Y-87067476D01*
X141673119Y-87289851D01*
X141612770Y-87524889D01*
X141590778Y-87766555D01*
X141607706Y-88008632D01*
X141663119Y-88244887D01*
X141755592Y-88469244D01*
X141882747Y-88675933D01*
X142041307Y-88859626D01*
X142227202Y-89015610D01*
X142435644Y-89139867D01*
X142661268Y-89229198D01*
X142898275Y-89281307D01*
X143140565Y-89294852D01*
X143381903Y-89269488D01*
X143626270Y-89203095D01*
X143748001Y-89324826D01*
X143748002Y-90768869D01*
X143412984Y-90670266D01*
X143172231Y-90639852D01*
X142929711Y-90648321D01*
X142691670Y-90695455D01*
X142464216Y-90780044D01*
X142253219Y-90899907D01*
X142064105Y-91051959D01*
X141901727Y-91232297D01*
X141770272Y-91436276D01*
X141673119Y-91658651D01*
X141612770Y-91893689D01*
X141590778Y-92135355D01*
X141607706Y-92377432D01*
X141678312Y-92678463D01*
X141277986Y-93078790D01*
X141122422Y-93014354D01*
X141122422Y-67391047D01*
X144417053Y-64096417D01*
X144522830Y-64491177D01*
G37*
M02*
