M48
; DRILL file {KiCad (5.99.0-429-gffcf3b01f)} date 12/13/2019 2:25:30 PM
; FORMAT={-:-/ absolute / inch / decimal}
; #@! TF.CreationDate,2019-12-13T14:25:30+01:00
; #@! TF.GenerationSoftware,Kicad,Pcbnew,(5.99.0-429-gffcf3b01f)
; #@! TF.FileFunction,Plated,1,2,PTH
FMAT,2
INCH
T1C0.0118
T2C0.0130
T3C0.0130
T4C0.0256
T5C0.0394
T6C0.0787
%
G90
G05
T1
X5.9534Y-5.0612
X6.0045Y-5.0612
X6.0557Y-5.0612
T2
X5.1833Y-2.4454
T3
X5.381Y-3.044
X5.383Y-3.154
X5.385Y-2.58
X5.4Y-4.525
X5.4Y-4.6
X5.4Y-4.675
X5.4Y-4.75
X5.4Y-4.825
X5.4Y-4.9
X5.4Y-4.975
X5.4Y-5.05
X5.4Y-5.125
X5.4Y-5.2
X5.4Y-5.275
X5.4Y-5.35
X5.452Y-2.666
X5.454Y-2.314
X5.457Y-2.768
X5.458Y-4.555
X5.468Y-2.561
X5.496Y-5.213
X5.5386Y-4.3672
X5.5452Y-4.2808
X5.5478Y-4.3351
X5.559Y-4.216
X5.565Y-4.1792
X5.5718Y-4.1315
X5.5805Y-4.6335
X5.584Y-3.982
X5.586Y-4.468
X5.596Y-3.536
X5.616Y-4.89
X5.625Y-4.52
X5.655Y-4.785
X5.6605Y-5.2105
X5.678Y-2.312
X5.68Y-2.401
X5.687Y-4.538
X5.69Y-3.29
X5.69Y-3.36
X5.7Y-2.904
X5.7211Y-2.5261
X5.7308Y-5.0692
X5.7535Y-3.6315
X5.766Y-2.519
X5.78Y-5.107
X5.793Y-4.344
X5.794Y-4.199
X5.794Y-4.2735
X5.807Y-5.141
X5.816Y-2.895
X5.844Y-2.534
X5.856Y-4.582
X5.8755Y-2.4525
X5.8896Y-5.2208
X5.904Y-4.551
X5.9205Y-4.272
X5.921Y-4.345
X5.9325Y-4.103
X5.933Y-3.15
X5.933Y-3.401
X5.933Y-3.9955
X5.938Y-2.7985
X5.97Y-2.8555
X5.9995Y-4.162
X6.0054Y-2.4826
X6.023Y-3.83
X6.039Y-3.721
X6.05Y-2.586
X6.062Y-4.508
X6.094Y-5.181
X6.098Y-3.9577
X6.126Y-3.728
X6.127Y-4.023
X6.129Y-2.8815
X6.1462Y-2.6145
X6.1462Y-2.6578
X6.1462Y-2.7011
X6.1462Y-2.7444
X6.1585Y-4.3685
X6.167Y-4.276
X6.176Y-4.45
X6.1779Y-4.9498
X6.1797Y-4.9133
X6.184Y-4.517
X6.1867Y-4.3984
X6.1895Y-2.6145
X6.1895Y-2.6578
X6.1895Y-2.7011
X6.1895Y-2.7444
X6.1916Y-4.2529
X6.209Y-4.934
X6.2161Y-4.2266
X6.221Y-5.047
X6.227Y-3.745
X6.232Y-4.582
X6.2328Y-2.6145
X6.2328Y-2.6578
X6.2328Y-2.7011
X6.2328Y-2.7444
X6.2405Y-3.8535
X6.2438Y-4.2085
X6.245Y-4.95
X6.245Y-4.985
X6.2761Y-2.6145
X6.2761Y-2.6578
X6.2761Y-2.7011
X6.2761Y-2.7444
X6.3261Y-5.0885
X6.329Y-5.1247
X6.354Y-4.8655
X6.3729Y-2.6651
X6.393Y-3.845
X6.395Y-4.749
X6.471Y-5.161
X6.482Y-2.45
X6.493Y-2.819
X6.572Y-2.643
X6.573Y-2.492
X6.5858Y-5.0888
X6.59Y-5.326
X6.6115Y-3.8625
X6.647Y-5.082
X5.9534Y-4.8289
X5.9534Y-4.887
X5.9534Y-4.945
X5.9534Y-5.0031
X6.0045Y-4.8289
X6.0045Y-4.887
X6.0045Y-4.945
X6.0045Y-5.0031
X6.0557Y-4.8289
X6.0557Y-4.887
X6.0557Y-4.945
X6.0557Y-5.0031
T4
X6.281Y-4.323
X6.331Y-4.323
X6.2845Y-4.622
X6.3345Y-4.622
X5.423Y-4.176
X5.423Y-4.226
X5.423Y-4.276
X5.423Y-4.326
X5.423Y-4.376
X5.473Y-4.176
X5.473Y-4.226
X5.473Y-4.276
X5.473Y-4.326
X5.473Y-4.376
T5
X5.634Y-3.628
X5.9755Y-2.3835
X5.642Y-3.809
X6.1605Y-4.6685
X6.332Y-3.721
X6.483Y-3.911
X6.483Y-4.011
X6.483Y-4.111
X6.483Y-4.211
X6.483Y-4.311
X6.483Y-4.411
X6.483Y-4.511
X5.634Y-3.456
X6.483Y-4.611
X6.483Y-4.711
X6.413Y-2.381
X6.0005Y-4.6335
X5.528Y-4.7385
X5.528Y-4.8385
X5.528Y-4.9385
X5.528Y-5.0385
X5.528Y-5.1385
X5.935Y-3.723
T6
X6.973Y-2.4014
X6.973Y-5.236
T0
M30
